<?xml version="1.0" encoding="utf-8"?>
<!-- Generator: Adobe Illustrator 25.3.1, SVG Export Plug-In . SVG Version: 6.00 Build 0)  -->
<svg version="1.1" id="Capa_1" xmlns="http://www.w3.org/2000/svg" xmlns:xlink="http://www.w3.org/1999/xlink" x="0px" y="0px"
	 viewBox="0 0 120 50" style="enable-background:new 0 0 120 50;" xml:space="preserve">
<style type="text/css">
	.st0{fill:url(#SVGID_1_);}
	.st1{fill:url(#SVGID_2_);}
	.st2{fill:url(#SVGID_3_);}
	.st3{fill:url(#SVGID_4_);}
	.st4{fill:url(#SVGID_5_);}
</style>
<g>
	<linearGradient id="SVGID_1_" gradientUnits="userSpaceOnUse" x1="16.0261" y1="14.7427" x2="100.2926" y2="14.7427">
		<stop  offset="0" style="stop-color:#FFFFFF"/>
		<stop  offset="9.778917e-02" style="stop-color:#D2D2D2"/>
		<stop  offset="0.2317" style="stop-color:#9B9B9B"/>
		<stop  offset="0.3668" style="stop-color:#6C6C6C"/>
		<stop  offset="0.5001" style="stop-color:#454545"/>
		<stop  offset="0.6312" style="stop-color:#272727"/>
		<stop  offset="0.7596" style="stop-color:#111111"/>
		<stop  offset="0.884" style="stop-color:#040404"/>
		<stop  offset="1" style="stop-color:#000000"/>
	</linearGradient>
	<path class="st0" d="M22.5,11c-0.4,1.6,0.5,2.4,2.4,2.3c2.7-0.2,4.2-2,3.4-4.1c-0.6-1.8-2.1-3.1-4.3-3.5c-2.3-0.5-4.2,0.2-5.7,1.6
		c-2.4,2.3-3,4.9-1.4,7.7c1.6,2.9,4.5,4.9,8,6.3c6.7,2.8,13.8,3.2,21,2.3c6.3-0.8,12.5-2.2,18.8-3c10.8-1.5,21.5-1.6,32,1.4
		c0.6,0.2,1.2,0.4,1.7,0.6c0.6,0.2,1.1,0.4,1.7,0.6c0.1-0.1,0.1-0.3,0.2-0.4c-3-0.9-5.9-2-9-2.7c-7.5-1.7-15.3-2-23-1.2
		c-6.5,0.7-12.9,1.9-19.4,2.8c-6.7,1-13.4,1.3-20-0.5c-4.5-1.2-8.4-3.1-10.6-6.8c-1.4-2.3-0.9-4.5,1.1-6.4c1.3-1.3,3.2-1.7,4.9-1.3
		c1.9,0.5,3.4,2.1,3.5,3.6c0.1,1.5-1.8,3-3.7,2.7C22.8,12.7,22.5,12,22.5,11z"/>
	<linearGradient id="SVGID_2_" gradientUnits="userSpaceOnUse" x1="29.4154" y1="40.0611" x2="110.7555" y2="40.0611">
		<stop  offset="0" style="stop-color:#FFFFFF"/>
		<stop  offset="9.778917e-02" style="stop-color:#D2D2D2"/>
		<stop  offset="0.2317" style="stop-color:#9B9B9B"/>
		<stop  offset="0.3668" style="stop-color:#6C6C6C"/>
		<stop  offset="0.5001" style="stop-color:#454545"/>
		<stop  offset="0.6312" style="stop-color:#272727"/>
		<stop  offset="0.7596" style="stop-color:#111111"/>
		<stop  offset="0.884" style="stop-color:#040404"/>
		<stop  offset="1" style="stop-color:#000000"/>
	</linearGradient>
	<path class="st1" d="M110.8,42.7c-2.2-0.8-4.4-1.6-6.7-2.3c-8.8-2.7-18-4.1-27.4-4.8c-8.2-0.6-15.7,1.2-23.2,3.5
		c-5.6,1.7-11,3.7-16.9,4.6c-2.4,0.4-4.8,0.5-7.1,0.8c4.1,0.3,8.3,0,12.4-1c4.8-1.2,9.7-2.4,14.4-3.8c9.5-3,19.3-3,29.1-1.9
		c8.5,1,16.8,2.5,24.9,5.1c0.1,0,0.2,0,0.4,0C110.7,42.8,110.7,42.8,110.8,42.7z"/>
	<linearGradient id="SVGID_3_" gradientUnits="userSpaceOnUse" x1="29.0374" y1="15.1801" x2="98.7858" y2="15.1801">
		<stop  offset="0" style="stop-color:#FFFFFF"/>
		<stop  offset="9.778917e-02" style="stop-color:#D2D2D2"/>
		<stop  offset="0.2317" style="stop-color:#9B9B9B"/>
		<stop  offset="0.3668" style="stop-color:#6C6C6C"/>
		<stop  offset="0.5001" style="stop-color:#454545"/>
		<stop  offset="0.6312" style="stop-color:#272727"/>
		<stop  offset="0.7596" style="stop-color:#111111"/>
		<stop  offset="0.884" style="stop-color:#040404"/>
		<stop  offset="1" style="stop-color:#000000"/>
	</linearGradient>
	<path class="st2" d="M98.8,17.1c-3.3-1-6.5-2-9.8-2.9c-6.1-1.6-12.4-2.6-18.9-1.7c-5.2,0.7-10.4,1.8-15.6,2.6
		c-4.5,0.7-8.9,1.5-13.5,2.1c-4,0.5-8,0.5-11.9-0.7c2.5,1.2,5.3,1.7,8.2,1.8c6.3,0.2,12.5-0.7,18.6-1.8c5.2-0.9,10.3-1.9,15.5-2.5
		c6.9-0.8,13.6,0.3,20.2,1.8c2.4,0.5,4.8,1.1,7.1,1.6C98.7,17.2,98.8,17.2,98.8,17.1z"/>
	<linearGradient id="SVGID_4_" gradientUnits="userSpaceOnUse" x1="9.194" y1="36.9066" x2="80.0401" y2="36.9066">
		<stop  offset="0" style="stop-color:#FFFFFF"/>
		<stop  offset="9.778917e-02" style="stop-color:#D2D2D2"/>
		<stop  offset="0.2317" style="stop-color:#9B9B9B"/>
		<stop  offset="0.3668" style="stop-color:#6C6C6C"/>
		<stop  offset="0.5001" style="stop-color:#454545"/>
		<stop  offset="0.6312" style="stop-color:#272727"/>
		<stop  offset="0.7596" style="stop-color:#111111"/>
		<stop  offset="0.884" style="stop-color:#040404"/>
		<stop  offset="1" style="stop-color:#000000"/>
	</linearGradient>
	<path class="st3" d="M80,31.9c-2.4-0.4-4.8-0.9-7.2-1.1c-7.8-0.8-15.2,0.6-22.4,2.8c-7.2,2.2-14.3,4.6-21.4,6.9
		c-4.4,1.4-8.9,2.3-13.6,2c-2.1-0.1-4.1-0.6-6.2-0.9c2,0.9,4.1,1.4,6.3,1.6c4.7,0.5,9.3-0.1,13.7-1.5c7.2-2.2,14.2-4.6,21.4-6.7
		c6.7-2.1,13.6-3.7,20.9-3.6c2.9,0.1,5.7,0.4,8.6,0.6C80,32,80,31.9,80,31.9z"/>
	<linearGradient id="SVGID_5_" gradientUnits="userSpaceOnUse" x1="14.369" y1="36.8401" x2="32.6666" y2="36.8401">
		<stop  offset="0" style="stop-color:#FFFFFF"/>
		<stop  offset="9.778917e-02" style="stop-color:#D2D2D2"/>
		<stop  offset="0.2317" style="stop-color:#9B9B9B"/>
		<stop  offset="0.3668" style="stop-color:#6C6C6C"/>
		<stop  offset="0.5001" style="stop-color:#454545"/>
		<stop  offset="0.6312" style="stop-color:#272727"/>
		<stop  offset="0.7596" style="stop-color:#111111"/>
		<stop  offset="0.884" style="stop-color:#040404"/>
		<stop  offset="1" style="stop-color:#000000"/>
	</linearGradient>
	<path class="st4" d="M32.6,35.9c-1.9,0.6-3.9,1.2-5.9,1.7c-1.9,0.5-3.9,1-5.9,1.2c-1.1,0.1-2.4-0.3-3.5-0.7
		c-1.2-0.5-1.5-1.4-1.1-2.3c0.5-1,1.8-1.6,3.3-1.4c1.2,0.2,2.1,0.6,2.1,1.8c0,0.1,0,0.3,0.1,0.6c0.8-1.1,0.4-1.9-0.5-2.5
		c-1.5-1.2-4.2-1.1-5.7,0.2c-1.6,1.4-1.5,3.3,0.3,4.6c1.8,1.3,4,1.7,6.2,1.2c1.7-0.4,3.5-0.9,5.1-1.6c1.9-0.7,3.7-1.7,5.6-2.5
		C32.6,36,32.6,35.9,32.6,35.9z"/>
</g>
</svg>
