<?xml version="1.0" encoding="utf-8"?>
<!-- Generator: Adobe Illustrator 25.3.1, SVG Export Plug-In . SVG Version: 6.00 Build 0)  -->
<svg version="1.1" id="f2_xA0_Imagen_1_" xmlns="http://www.w3.org/2000/svg" xmlns:xlink="http://www.w3.org/1999/xlink" x="0px"
	 y="0px" viewBox="0 0 300 700" style="enable-background:new 0 0 300 700;" xml:space="preserve">
<style type="text/css">
	.st0{fill:#080808;}
	.st1{fill:#151515;}
	.st2{fill:#282828;}
	.st3{fill:#252525;}
	.st4{fill:#202020;}
	.st5{fill:#383838;}
	.st6{fill:#232323;}
	.st7{fill:#343434;}
	.st8{fill:#1D1D1D;}
	.st9{fill:#101010;}
	.st10{fill:#212121;}
	.st11{fill:#2A2A2A;}
	.st12{fill:#1C1C1C;}
	.st13{fill:#515151;}
	.st14{fill:#2D2D2D;}
	.st15{fill:#191919;}
	.st16{fill:#686868;}
	.st17{fill:#A8A8A8;}
	.st18{fill:#3F3F3F;}
	.st19{fill:#B1B1B1;}
	.st20{fill:#272727;}
	.st21{fill:#2F2F2F;}
	.st22{fill:#525252;}
	.st23{fill:#B9B9B9;}
	.st24{fill:#1A1A1A;}
	.st25{fill:#747474;}
	.st26{fill:#404040;}
	.st27{fill:#242424;}
	.st28{fill:#353535;}
	.st29{fill:#A5A5A5;}
	.st30{fill:#6F6F6F;}
	.st31{fill:#606060;}
	.st32{fill:#BDBDBD;}
	.st33{fill:#292929;}
	.st34{fill:#676767;}
	.st35{fill:#CECECE;}
	.st36{fill:#636363;}
	.st37{fill:#171717;}
	.st38{fill:#050505;}
	.st39{fill:#0D0D0D;}
	.st40{fill:#0E0E0E;}
	.st41{fill:#131313;}
	.st42{fill:#111111;}
	.st43{fill:#0F0F0F;}
	.st44{fill:#1B1B1B;}
	.st45{fill:#1F1F1F;}
	.st46{fill:#161616;}
	.st47{fill:#141414;}
	.st48{fill:#181818;}
	.st49{fill:#363636;}
	.st50{fill:#444444;}
	.st51{fill:#4A4A4A;}
	.st52{fill:#0B0B0B;}
	.st53{fill:#464646;}
	.st54{fill:#1E1E1E;}
	.st55{fill:#545454;}
	.st56{fill:#4E4E4E;}
	.st57{fill:#4C4C4C;}
	.st58{fill:#565656;}
	.st59{fill:#474747;}
	.st60{fill:#424242;}
	.st61{fill:#121212;}
	.st62{fill:#0C0C0C;}
	.st63{fill:#090909;}
	.st64{fill:#222222;}
	.st65{fill:#575757;}
	.st66{fill:#414141;}
	.st67{fill:#3E3E3E;}
	.st68{fill:#434343;}
	.st69{fill:#323232;}
	.st70{fill:#262626;}
	.st71{fill:#333333;}
	.st72{fill:#393939;}
	.st73{fill:#0A0A0A;}
	.st74{fill:#3B3B3B;}
	.st75{fill:#070707;}
	.st76{fill:#2C2C2C;}
	.st77{fill:#484848;}
	.st78{fill:#2E2E2E;}
	.st79{fill:#060606;}
	.st80{fill:#494949;}
	.st81{fill:#4B4B4B;}
</style>
<g>
	<path class="st0" d="M45.02,609.83c0.3-0.95,0.95-1.58,1.84-1.97c1.86-1.75,3.08-3.76,2.69-6.46c-2-12.8-5.16-25.66-4.46-38.52
		c0.54-9.99-1.46-20.36,2.92-30.23c1.54-3.47,1.66-8.08,0.06-12.14c-0.26-0.48-0.39-1-0.4-1.54c0.42-4.06,1.39-8.12-0.1-12.18
		c-1.29-10.31-0.24-20.93-4.64-30.82c-1.19-2.69,0.06-5.96-0.97-8.85c-2.61-5.6-2.52-11.56-2.41-17.54
		c0.04-2.13,0.31-4.32-0.63-6.37c-1.1-10.5,0.32-20.88,1.42-31.28c0.23-2.14,0.17-4.26,0.17-6.38c-0.72-2.13-0.03-4.38,0.5-6.23
		c1.14-3.98,0.85-7.66-0.44-11.42c-0.01-0.83,0.24-1.78-0.16-2.45c-5.86-9.94-4.36-20.19-1.41-30.52c0.35-2.64,0.69-5.28,1.04-7.93
		c0.6-4.6,1.84-9.28-1.56-13.42c-0.04-4.07,3.85-2.84,5.76-4.27c4.26-1.42,8.65-0.76,12.85-0.19c13.2,1.81,26.4,1.53,39.63,0.89
		c13.16,2.04,26.28,4.04,39.7,3.64c13.21-0.39,26.36,2.59,39.63,0.93c8.11-0.68,16,1.25,23.99,1.92c3.94,0.43,7.82,0.56,11.39-1.66
		c1.74-1.08,3.67-1.78,5.46-0.29c1.98,1.65,2.35,3.81,1.15,6.16c-0.9,2.68-1.31,5.32-0.76,8.23c0.45,2.36,0.45,4.86-0.62,7.29
		c-0.9,2.04-1.07,4.3,1.18,5.88c0.35,2.16,2.42,3.4,2.92,5.48c-0.81,3.09-1.88,6.19,0.33,9.17c0.64,0.7,1.28,1.41,1.93,2.11
		c1.59,3.44,6.04,5.12,5.93,9.61c-0.56,5.79-0.45,11.54,0.22,17.34c0.58,4.99-1.07,6.37-6.03,5.48
		c-7.78-1.41-13.14-6.26-17.21-12.76c-5.2-6.49-9.59-13.44-12.27-21.39c-0.97-2.87,0.13-5.57,0.24-8.34
		c0.08-1.86,0.37-3.77-1.56-4.88c-1.53-0.87-2.91-0.18-4.05,0.92c-1.72,1.67-1.71,3.53-0.3,5.36c1.81,2.36,2.43,5.05,2.49,7.94
		c0.01,0.66-0.03,1.47,0.35,1.94c6.8,8.3,2.81,19.41,7.17,28.03c2.71,5.37,3.06,11.06,5.08,16.4c0.48,1.28,1.51,2.18,2.22,3.29
		c1.59,1.28,2.38,3.15,3.39,4.82c3.51,5.8,6.33,5.76,12.41,2.49c2.12-1.14,3.82-3.05,6.28-3.64c1.4,0.51,1.5,1.71,1.56,2.94
		c-0.08,2.78,0.38,5.54-1.52,8.13c-0.94,1.28-0.18,3.3,0.5,4.78c2.8,6.1,1.31,12.16-0.42,18.03c-1.69,5.74-1.99,5.79,2.91,9.12
		c0.55,0.37,1.1,0.75,1.66,1.11c0.39,0.28,0.71,0.62,0.96,1.02c1.45,5.54-3.6,7.62-6.33,10.18c-6.83,6.39-14,6.26-22.03,1.12
		c-1.9-1.21-3.74-2.81-6.55-1.77c4.31,2.73,8.54,5.67,13.83,6.33c3.69,0.46,7.12,1.63,10.49,3.07c3,1.28,5.49,2.92,5.95,6.67
		c0.36,2.92,1.94,3.75,4.39,1.48c2.03-1.87,4.1-1.75,6.28-0.07c2.19,1.68,1.79,3.45,0.93,5.71c-2.17,5.65,0.34,15.88,5.94,19.23
		c5.8,3.47,6.66,8.06,6.15,13.76c-0.74,8.21,1.39,15.38,7.45,21.2c0.36,0.35,0.7,0.72,1.03,1.1c0.29,0.44,0.51,0.91,0.67,1.41
		c0,4.42,3.03,7.63,4.66,11.37c1.61,3.7,2.9,7.25,2.58,11.36c-0.23,2.96-0.06,5.96-0.04,8.94c0.02,3.25-0.07,6.14,2.9,8.88
		c2.78,2.57,3.03,6.84,2.49,10.77c-0.64,2.41-3.16,3.68-3.71,6.15c-2.82,5.69-2.74,11.89-3.13,17.99c-0.22,3.48,1.81,6.3,3.38,9.16
		c0.98,1.78,2,3.54,1.97,5.55c-0.09,4.94-2.17,6.99-7.27,7.21c-3.32,0.14-6.65,0.03-9.96,0.03c-2.64-0.97-5.38,0.39-8.16-0.6
		c-4.83-1.73-8.28-4.93-11.18-8.94c-0.33-2.34-1.66-3.85-3.24-5.68c-6.2-7.14-15.76-10.39-20.98-18.54c0.02-1.2-0.61-2.34-0.4-3.56
		c1.39-2.72,3.74-2.82,5.88-1.5c2.8,1.72,5.24,1.97,8.39,0.73c4.52-1.78,7.95,0.41,9.29,5.21c0.89,3.17,5.77,6.63,9.05,6.37
		c1.17-0.09,2.45-0.26,2.92-1.51c0.55-1.47-0.77-2-1.7-2.64c-0.95-0.66-2.02-1.15-2.84-2.01c-1.24-1.3-1.83-2.78-1.19-4.54
		c0.58-1.58,1.87-2.24,3.45-2.45c1.65-0.22,3.31-0.15,4.97-0.21c1.47-0.05,2.91,0.66,4.56,0.11c-0.01-2.76-1.88-3.31-3.97-3.2
		c-5.63,0.29-9.69-1.34-10.99-7.52c-0.49-2.32-2.69-3.25-5-3.47c-2.15-0.21-4.31-0.32-6.15-1.72c-0.77,5.87-2.22,7.05-7.34,6.04
		c-2.65-4.78-3.4-10.24-5.5-15.21c-2.19-5.19-3.23-10.92-7.05-15.37c-5.83-13.18-14.41-24.96-19.69-38.41
		c-10.05-25.57-18.44-51.71-25.81-78.17c-0.35-1.26-0.52-2.63-1.59-3.58l0.01,0.09c-2.93-5.83-6.9-10.97-11.89-15.02
		c-5.47-4.44-7.29-10.62-9.27-16.73c-1.37-4.23-3.34-8.18-4.81-12.34c-2.12-2.34-3.38-0.98-3.47,1.22
		c-0.47,12.02-7.37,22.69-7.04,34.92c0.15,5.6-0.85,11.25-1.48,16.85c-0.22,1.95-0.27,4.42-1.43,5.69
		c-6.46,7.08-5.51,15.91-6.34,24.35c-0.36,3.63-0.7,7.27-1.04,10.9c-3.86,8.3-3.23,17.17-3.73,25.99
		c-0.39,6.88-0.06,13.79-0.81,20.64c-1.55,8.61-2.84,17.26-2.96,26.03c-0.03,1.91-0.58,3.73-1.35,5.24
		c-2.61,5.15-1.52,9.89,0.62,14.79c1.32,3.04,2.24,6.27,1.36,9.68c-0.84,2.42-0.32,4.98-0.76,7.44c-0.34,0.75-0.91,1.35-1.4,2
		c-3.09,4.05-3.1,4.09,1.31,6.48c1.19,0.65,2.08,1.58,3.02,2.49c0.3,0.37,0.56,0.76,0.76,1.19c1.5,3.21,3.75,6.31,1.49,10.08
		c-1.08,2.79-2.47,5.18-5.67,6.15c-2.54,0.77-3.05,3.11-3.39,5.43c0.03,1.55,0.18,3.15-0.17,4.65c-0.86,3.7-3.76,4.9-6.67,2.49
		c-3.28-2.72-6.92-2.51-10.7-2.28c-0.91,0.34-1.88,0.46-2.75,0.92c-0.44,0.27-0.87,0.52-1.32,0.77c-7.93,4.3-15.94,8.09-25.42,5.96
		c-4.14-0.93-7.38,2.47-11.45,2.78c-4.65,0.35-9.27,0.51-13.92,0.42c-0.54-0.07-1.04-0.24-1.51-0.51c-2.67-4.73-2.61-4.95,2.19-8.11
		c0.39-0.32,0.83-0.55,1.31-0.69c7.2-1.94,13.74-4.87,17.92-11.56c0.87-1.38,0.97-2.77,1.06-4.25c1.57-3.66-0.1-6.27-2.79-8.54
		C41.76,631.17,36.56,623.16,45.02,609.83z"/>
	<path class="st1" d="M44.07,331.01c-1.69,0.94-4.06,0.75-4.98,2.98c-5.11,0.43-7.99-2.65-6.82-8.27c0.71-3.42,1.32-6.15-1-9.36
		c-1.77-2.45-1.98-5.72,2.19-7.03c1.1-0.35,1.87-1.32,2.62-2.19c2.62-1.95,0.44-4.92,1.57-7.29c1.55-3.25-1.04-4.56-3.31-5.99
		c-1.79-1.13-1.59-3.03-1.39-4.83c-0.08,4.12-2.02,8.31,0.66,12.27c0.05,1.65-0.03,3.29,0,4.95c-0.5,2.06-1.84,3.42-3.9,2.94
		c-1.84-0.43-1.21-2.55-1.43-3.88c-1.46-8.91-0.71-17.78,0.69-26.63c0.03-0.55,0.05-1.1,0.08-1.65c1.07-1.42,1.73-3.07,2.57-4.63
		c1.71-1.66,1.54-4.32,3.21-6c3.64-1,4.15,1.5,4.63,4.1c0.26,1.42,0.12,3.2,2.01,3.61c1.09,0.24,1.72-0.8,2.38-1.53
		c1.25-1.36,1.05-2.77-0.03-4.04c-3.65-4.28-0.56-8.54-0.05-12.82c0.2-2.45,1.74-3.91,3.7-5.06c2.84-1.55,5.25,0.13,7.75,1.04
		c3.49,1.54,6.05,5.38,10.61,4.33c1.37,0.11,2.45,0.72,3.22,1.85c0.79,3.38,0.97,6.57,0.14,10.18c-1.16,5.03,1.97,9.18,6.16,11.55
		c7.36,4.17,14.22,9.18,21.8,12.95c1.36,0.68,2.84,1.26,3.63,2.54c2.69,4.37,6.77,5.54,11.54,5.54c2.67,0,5.33,0.61,7.84,1.42
		c4.97,1.59,9.08,0.39,12.93-2.91c4.36-3.73,4.92-3.72,9.13,0.27c2.65,2.52,5.54,3.97,9.24,4.35c4.23,0.43,8.44,1.25,7.81,7.33
		c-0.18,1.71,1.56,2.82,3.02,3.7c2.44,1.48,5.1,2.38,7.79,3.3c4.65,1.6,6.66,5.03,4.52,9.37c-1.94,3.94-1.52,6.71,1.38,9.54
		c-2.8,1.54-5.86,1.16-8.77,0.88c-14.5-1.41-29.04-1.54-43.57-1.86c-8.98-0.2-17.67-2.65-26.62-3.03
		c-9.38-0.63-18.75-1.26-28.13-1.89c-3.64-0.24-7.36-1.64-11.16,0.25c-1.5,0.75-3.28-0.63-3.57-2.55c-0.29-1.88,0.79-3.15,2.58-3.74
		c1.91-0.62,3.96-0.31,5.92-1.1c-2.72-1.15-5.69-2.63-8.29-0.21c-3.46,3.21-6.74,4.14-10.62,0.08
		C43.11,326.86,46.52,328.8,44.07,331.01z"/>
	<path class="st2" d="M233.07,143.02c1.38,2.51,2.56,5.1,2.95,7.98c-0.06,0.19-0.13,0.39-0.19,0.59c-0.93,6.27,0.65,12.1,3,17.82
		c0.78,1.89,1.22,3.96-0.4,5.57c-1.32,1.32-2.76,0.34-4.07-0.44c-0.81-0.66-1.05-1.62-1.36-2.54c-1.47-3.98-4.51-6.95-6.75-10.44
		c-0.81-1.25-2.1-2.28-2.39-3.76c-0.67-3.39-2.69-5.14-6.01-5.64c-1.04-0.15-1.74-0.92-2.36-1.73c-1.17-5.79-3.29-10.97-8.98-13.84
		c-0.41-0.27-0.81-0.56-1.2-0.87c-2.97-1.45-4.45-3.56-3.1-6.94c1.22-1.67,3.24-1.1,4.84-1.73c8.96-0.75,14.31,1.93,17.9,8.93
		c0.15,0.29-0.28,0.93,0.57,0.87c4.55-0.36,4.51-0.32,6.35,3.52C232.3,141.25,232.2,142.36,233.07,143.02z"/>
	<path class="st3" d="M51.04,602.94c-0.18,2.67-1.99,3.96-4.18,4.93c2.11-2.91,1.15-5.98,0.63-9.12
		c-4.08-24.46-7.83-49.09-3.2-73.76c2.39-12.69,3.09-25.17,0.78-37.61c-1.4-7.55-2.69-15.23-5.34-22.63
		c-2.95-8.24-1.51-17.15-1.7-25.75c-0.19-8.79,0.67-17.64,1.53-26.42c0.59-5.98-1.38-11.97,0.36-17.88c1.86,2.93,3.2,5.92,1.23,9.35
		c-0.67,10.87-1.36,21.75-1.98,32.62c-0.12,2.13-0.27,4.32,0.89,6.29c1.02,2.04,0.43,4.21,0.47,6.31c0.12,6-0.68,12.12,2.53,17.68
		c-0.05,4.31,0.71,8.4,2.01,12.57c2.87,9.21,2.33,18.89,3.07,28.39c0.87,3.64,3.55,6.96,1.92,11.03l0,0
		c-0.95,1.84-1.09,3.83-1.08,5.85c0.07,8.84-2.93,17.23-3.25,26.17c-0.36,9.91,1.35,19.51,1.43,29.27
		C47.23,588.05,50.79,595.2,51.04,602.94z"/>
	<path class="st4" d="M158.07,28.93c5.74,2.52,10.56,6.01,12.86,12.16c0.78,7.33,2.7,14.63,0.75,22.05
		c-0.17,0.65-0.18,1.31-0.19,1.98c-0.06,6.09,0.66,12.2-1.84,18.12c-0.77,1.84-0.34,4.27,0.12,6.39c-0.12,0.82-0.25,1.77-1.37,1.62
		c-1.17-0.15-1.51-1.09-1.6-2.17c-0.04-0.47,0.47-0.99-0.08-1.42c-0.26,0.45-0.67,0.71-1.15,0.88c-4.79-1.71-3.75-5.78-3.05-9.04
		c0.78-3.66,0.95-7.08,0.17-10.71c-0.63-2.93-0.81-5.88,0.32-8.89c2.64-7.04,0.87-13.39-3.54-19.18c-1.21-1.59-2.38-3.19-3.49-4.85
		c-1.82-2.72-1.64-4.95,1.29-6.7C157.53,29.09,157.8,29.01,158.07,28.93z"/>
	<path class="st5" d="M233.07,143.02c-2.27-1.72-2.34-5.1-5.06-6.79c-0.96,2.56,1.73,4.74,0.26,7.45c-1.74-1.15-2.52-3.93-5.31-3.34
		c-1.02,0.22-1.3-0.72-1-1.67c1.64-5.23-2.04-6.71-5.76-7.97c-2.97-1-6.03-1.78-9.22-1.66c-5.24-2.12-10.62-3.93-15.6-6.66
		c-0.49-0.16-0.91-0.42-1.27-0.79c-0.5-2.22-2.76-3.86-2.16-6.45c0.23-0.5,0.58-0.88,1.06-1.14c7.24,7.42,17.71,5.96,26.46,9.33
		C225.3,127.13,230.11,133.86,233.07,143.02z"/>
	<path class="st6" d="M227.97,387.99c-0.73-3.54-4.28-5.56-4.95-9.13c5.36,3.4,7.13,8.03,7.37,14.58
		c0.75,20.47-2.93,41.11,2.05,61.43c1.5,6.12,2.7,12.32,5.59,18c0.76,1.66,2.3,3.12,1.4,5.23c-1.71,1.72-3.56,0.94-5.4,0.3
		c-0.46-0.33-0.83-0.75-1.11-1.24c-2.18-1.98-3.28-4.14-1.14-6.85c0.68-0.86,0.81-2.01,0.42-2.81c-3.33-6.91-2.6-14.67-4.74-21.82
		c-1.29-3.64,2.55-7.04,0.51-10.72c-0.33-0.99-0.65-1.98-0.98-2.97c-3.4,0.99-3.61-0.94-3.06-3.42c0.61-2.75,1.69-5.42,1.1-8.31
		c-1.46-3.32-4.97-3.32-7.64-4.6c-1.95-0.94-3.99-1.52-3.87-4.25c0.35-3.12,1.9-4.15,4.74-2.61c1.21,0.66,2.51,0.85,3.78,1.17
		c6.12,1.54,6.23,1.13,5.28-4.83c-0.67-4.2,0.87-8.51,0.9-12.82C228.22,390.87,228.82,389.4,227.97,387.99z"/>
	<path class="st7" d="M26.41,132.2c0.97-1.69,1.94-3.37,2.91-5.06c3.92-6.26,9.85-8.97,16.96-9.55c1.15-0.09,2.31-0.08,3.32-0.76
		c0.41-0.24,0.85-0.44,1.31-0.6c3.48-0.76,7.05,1.03,10.51-0.34c0.45-0.16,0.91-0.26,1.39-0.31c1.28,0.25,3-0.77,3.68,1.25
		c-0.23,5.49-2.7,7.43-8.54,7.92c-6.05,0.51-12.23,2.93-17,7.28c-3.53,3.22-7.68,4.07-12.15,4.36c-0.98,0.35-1.96,0.58-2.92-0.06
		c-0.35-0.41-0.55-0.88-0.59-1.42C25.64,133.99,25.12,132.72,26.41,132.2z"/>
	<path class="st3" d="M160.85,463.03c1.85,0.99,2.1,2.87,2.6,4.62c5.68,19.8,11.59,39.54,18.78,58.84
		c2.82,7.58,7.17,14.62,9.63,22.3c3.96,12.34,12.19,22.39,17.1,34.15c1.45,1.93,2.45,4.03,2.55,6.51c0.08,1.95-0.14,3.56-2.65,3.5
		c-0.38-9.55-4.97-17.76-9.86-25.27c-9.88-15.17-15.56-32-21.22-48.84c-5.83-17.34-10.9-34.93-16.28-52.42
		C161.16,465.32,161.06,464.16,160.85,463.03z"/>
	<path class="st8" d="M224.09,328.21c-0.29,4.01-3.33,6.94-4.21,10.72c-0.35,0.38-0.74,0.43-1.18,0.18
		c-0.78-2.03-1.04-4.1-1.05-6.32c-0.02-3.15-1.15-5.88-4.74-6.68c-6.88-2.56-7.15-4-3.4-9.63c3.67-5.5,4.71-11.79,2.8-18.27
		c-0.66-2.23-1.5-4.38-1.1-6.76c0.65-1.55,1.74-2.74,3.05-3.75c0.46-0.24,0.97-0.33,1.49-0.27c1.66,0.56,2.34,1.85,2.16,3.47
		c-0.28,2.55,0.59,4.87,1.08,7.29c1.01,4.92,1.58,9.96,4.94,14.05C225.32,317.55,224.48,322.88,224.09,328.21z"/>
	<path class="st9" d="M208.86,592.95c2.09-3.32,0.85-6.67,0.1-10.01c7.04,8.78,11.39,18.64,11.99,29.99
		c-4.03,3.58-8.79,1.37-10.07-4.67c-0.29-1.4-0.02-2.78,0.07-4.36c-0.58,3.33-0.64,6.54-1.88,9.59c-1.12,2.74-0.94,5.54,1.23,7.92
		c1.05,1.15,1.91,2.39,0.54,3.91c-0.74,0.25-1.42,0.1-2.06-0.31c-4.49-1.81-6.32-4.52-4.7-9.69
		C206.36,608.05,208.17,600.6,208.86,592.95z"/>
	<path class="st10" d="M38.08,309.02c-0.93,1.44-2.13,2.5-3.86,2.89c-1.53,0.35-3.09,0.82-2.39,2.9c0.57,1.69,1.92,2.12,3.6,1.67
		c1.6-0.42,3.59-2.37,4.69,0.16c0.87,2-1.35,3.16-2.65,4.31c-2.57,2.27-4.94,4.6-4.09,8.41c0.66,2.95,2.76,4.38,5.72,4.62
		c3.47,4.11,2.29,8.56,0.95,13.02c0-2.15-0.03-4.31,0.01-6.46c0.07-2.91-0.53-5.21-3.95-5.89c-3.02-0.61-4.4-2.88-4.58-5.79
		c-0.8-13.22-5.93-25.93-4.38-39.45c0.42-3.64,0.93-7.22,1.81-10.76c-0.05,8.67-2,17.34,0.06,26c0.25,1.04-0.35,2.71,1.14,2.88
		c1.36,0.15,1.53-1.45,1.9-2.51c1.52-1.84,3.37-2.14,5.26-0.79C39.07,305.47,39.3,307.19,38.08,309.02z"/>
	<path class="st11" d="M36.29,243.98c-0.17-1.12-0.22-2.21,0.64-3.11c1.46-6.89-0.38-13.65-0.96-20.44
		c-0.57-6.66-2.67-13.23-0.65-19.96c0.25-0.52,0.65-0.9,1.18-1.13c1.45-0.38,3.13,0.02,3.46,1.24c1.1,4.17,4.9,7.43,3.58,12.51
		c-0.91,3.49,0.04,7.23,0.46,10.87c0.87,7.48,0.89,14.92-3.71,21.52c-0.7,1-1.4,1.85-2.72,1.88C35.82,246.75,37.02,245,36.29,243.98
		z"/>
	<path class="st12" d="M242.05,194.4c0.15,8.55-4.86,15-8.93,21.83c-0.19-0.14-0.37-0.27-0.56-0.41c0.12-5.47,4.25-9.37,5.23-13.53
		c-1.37,2.57-2.53,6.27-4.57,9.5c-0.81,1.29-0.11,3.84-2.49,3.8c-2.32-0.04-2.55-2.24-3.13-3.95c0.86-5.33,3.97-10.07,4.09-15.6
		c-0.21-3.67,0.77-7.04,2.58-10.2c2.91-1.62,3.45-4.3,3.23-7.31c-0.11-1.44,0.26-2.63,1.76-3.07c1.45-0.42,2.11,0.43,2.39,1.74
		C242.93,182.91,242.95,188.64,242.05,194.4z"/>
	<path class="st13" d="M224.09,328.21c-0.42-5.73,0.32-11.55-1.23-17.2c-2.83-3.83-3.05-8.41-3.58-12.87
		c-1.02-8.58-2.52-17.14-1.81-25.83c1.93-9.67,0.6-19.24-1.09-28.79c-0.23-2.37,0.12-4.72,0.26-7.08c0.5-0.99,1.02-1.93,2.39-1.4
		c1.68,14.36,3.07,28.62,2.27,43.25c-0.6,11.11,2.16,22.43,3.68,33.62C225.73,317.45,225.51,322.84,224.09,328.21z"/>
	<path class="st14" d="M254.19,662.75c3.49-0.01,6.99,0.19,10.46-0.07c5.29-0.4,8.61-5.74,5.67-10
		c-6.92-10.01-3.97-19.85-0.61-29.86c0.92,0.62,0.82,1.36,0.26,2.16c-0.42,1.77-0.87,3.54-1.26,5.32
		c-1.36,6.12-1.93,12.16,1.56,17.88c0.77,1.27,1.35,2.68,1.84,4.08c2.9,8.26,0.53,11.98-8.03,11.62c-8.79-0.37-17.1,1.76-25.61,3.26
		c-8.78,1.55-17.74,2.31-26.69,0.87c0.2-0.57,0.54-1.04,1.03-1.41c6.14-1.95,12.46-2.34,18.84-2.06c1.8,0.08,3.58,0.45,5.15-0.8
		C242.41,660.24,248.37,662.77,254.19,662.75z"/>
	<path class="st15" d="M260.04,564.83c-0.37,0.04-0.74,0.07-1.11,0.11c-3.46-2.56-3.92-6.53-4.37-10.26
		c-0.75-6.33-1.82-12.63-2.64-18.94c-0.6-4.58-4.38-8.31-6.14-12.76c-1.42-3.61-2.71-7.09-1.93-11.01c0.14-0.53,0.41-0.99,0.8-1.37
		c3.56-1.59,3.37,2.23,4.97,3.45c1.66,2.39,2.47,5.14,3.4,7.85c0.65,2.33,1.31,4.65,1.96,6.98c3,9.02,3.57,18.4,3.85,27.78
		C258.93,559.48,260.48,562,260.04,564.83z"/>
	<path class="st16" d="M260.04,564.83c-1.34-3.27-1.99-6.67-2.02-10.22c-0.05-8.69-1.73-17.19-3.03-25.73
		c3.16,4.62,3.22,10.04,3.51,15.25c0.53,9.5,1.26,18.62,7.25,26.85c3.36,4.61,4.41,10.69,4.13,16.67
		c-0.33,7.03,0.17,13.76,3.84,20.19c2.6,4.56,2.45,9.57-1.71,13.75c-0.9,0.91-1.38,2.24-2.06,3.38c-0.09-0.72-0.18-1.44-0.26-2.16
		c1.07-1.64,2.14-3.28,3.21-4.91c1.55-4.17,0.22-8.05-2.19-11.19c-2.27-2.96-2.97-5.97-2.81-9.46c0.38-7.96,0.18-15.8-3.67-23.13
		c-1.57-2.99-3.67-5.78-4.22-9.26L260.04,564.83z"/>
	<path class="st17" d="M35.87,200.1c-2.29,11.56,2.11,22.69,2.18,34.1c0.01,2.29,0.61,4.68-1.12,6.67
		c-0.33-8.98-1.12-17.9-2.59-26.77c-0.6-3.59-1.33-7.17-0.45-10.88c0.83-3.45-1.57-5.45-3.74-7.61
		c-10.02-9.94-13.19-21.88-10.08-35.57c3.04,3.38,3.27,7.57,3.42,11.78c-1.62,8.2,3.87,13.53,7.75,19.57
		C33.01,194.15,36.72,195.94,35.87,200.1z"/>
	<path class="st18" d="M106.07,31.13c11.15-2.09,20.59-10.08,32.22-10.03c7.3,0.03,14.52,1.88,19.78,7.83
		c-0.02,0.18-0.07,0.36-0.16,0.52c-4.41,1.76-7.95-1.25-11.87-2.17c-3.92-2.57-8.02-2.96-12.31-0.99c-4.5,1.23-9.21,1.81-13.22,4.5
		c-2.2,2.13-4.74,3.15-7.82,2.44c-2.38-0.37-3.83,1.32-5.47,2.53c-1.62,1.19-3.18,2.29-5.13,0.66
		C101.07,32.89,104.57,32.76,106.07,31.13z"/>
	<path class="st19" d="M106.07,31.13c-1.38,1.63-2.75,3.26-4.13,4.88c0.04,0.26,0.08,0.52,0.13,0.78c1.5,5.3-1.18,10.37-0.78,15.61
		c-2.07,5.54-1.47,11.57-3.54,17.25c-1.69,4.63,0.96,9.62,2.28,14.36c-0.37,2.63-1.11,5.06-3.48,6.64c-0.89,0.28-1.71,0.2-2.42-0.48
		c1.54-2.68,2.11-5.36,1.27-8.53c-1.54-5.83-2.66-11.17,0.67-17.54c2.42-4.62,0.95-11.34,1-17.13c0.03-3.71,0.45-7.27,2.27-10.56
		C100.84,33.7,102.74,31.5,106.07,31.13z"/>
	<path class="st20" d="M213.06,667.65c-0.43,0.12-0.85,0.24-1.28,0.37c-4.24-0.24-4.99-2.53-3.57-6.09c0.49-1.23,0.78-2.58,1.45-3.7
		c6.78-11.27,3.93-22.26-0.87-33.21c0.73-0.02,1.45-0.05,2.18-0.07c0.46,0.2,0.77,0.53,0.95,1c0.1,1.31,0.21,2.63,0.31,3.94
		c7.2,7.02,8.82,16.58,3.69,26.72C214.07,660.24,212.69,663.62,213.06,667.65z"/>
	<path class="st21" d="M134.88,419.03c3.48,4.39,4.94,9.74,6.45,14.9c1.71,5.83,5.56,9.9,9.31,14.26
		c3.94,4.58,8.89,8.54,10.21,14.93c-4.98-6.14-9.42-12.77-16.04-17.41c-0.89-0.63-1.69-1.7-2.04-2.74
		C140.07,435.01,137.49,427.02,134.88,419.03z"/>
	<path class="st2" d="M101.02,655.92c1.06-2.99,2.4-5.59,5.95-6.41c2.24-0.52,3.09-2.7,4.08-4.57c0.41-0.48,0.81-0.46,1.18,0.05
		c-0.36,2.42-1.61,4.63-3.56,5.69c-6.17,3.37-5.16,8.63-3.87,13.8c1.33,5.32,0.89,10.41-0.72,15.51c-0.56-0.22-1.02-0.57-1.38-1.05
		C100.6,671.38,99.74,663.73,101.02,655.92z"/>
	<path class="st22" d="M106.11,615.95c1.59-3.78-0.12-7.17-1.36-10.57c-1.15-3.16-2.6-6.44-1.5-9.7c3.52-10.4,2.89-21.37,4.77-31.98
		c0.23-1.3,0.62-2.57,0.94-3.85c0.94,1.73,0.72,3.49,0.17,5.26c-2.03,10.41-0.99,21.29-4.82,31.43c-0.77,2.05,0.49,3.93,1.27,5.71
		c2.85,6.5,3.24,13.14,1.62,19.98C105.4,620.38,106.36,618.06,106.11,615.95z"/>
	<path class="st16" d="M253.03,521.9c-1.34-2.32-2.68-4.64-4.02-6.95c-1.42-2.38-1.99-5.29-4.45-7.01
		c-0.35-0.36-0.61-0.77-0.81-1.23c-2.38-5.13-2.7-10.69-3.3-16.18c0.7-4.32-2.56-8.24-1.29-12.62c-0.38-1.68-0.75-3.36-1.13-5.03
		c4.75,3.87,5.3,9.28,5.43,14.84c0.23,10.02,4.38,18.93,7.95,28.01C252.19,517.72,253.24,519.64,253.03,521.9z"/>
	<path class="st23" d="M169.43,91.09c-1.2-3.78-1.07-7.49,0.43-11.17c1.21-2.98,1.5-6.03,1.01-9.25c-0.32-2.1-0.55-4.42-0.01-6.41
		c2.13-7.75,0.32-15.45,0.07-23.16c2.29,6.65,2.79,13.51,1.77,20.4c-1.13,7.62,0.43,15.48-2.5,22.97c-1.12,2.86,0.51,5.42,3.43,6.89
		c1.75,0.88,3.64,1.72,4.18,3.93c-0.51,0.67-1.2,1-2.03,1.06c-2.57-0.54-5.3-0.8-6.51-3.72C169.16,92.1,169.21,91.58,169.43,91.09z"
		/>
	<path class="st24" d="M103.75,678.94c0.11,0.35,0.21,0.7,0.32,1.05c-0.79,2.08-2.58,2.11-4.13,1.54
		c-12.48-4.58-24.77-2.03-37.05,0.82c-2.59,0.6-5.16,1.16-7.82,0.55c-0.35-0.5-0.36-1-0.03-1.51c0.77-0.87,1.9-1.1,2.87-1.61
		c2.91-2.82,6.7-1.03,10.03-1.9c9.47-2.46,19.09-3.38,28.83-1.39C99.23,677,101.65,677.48,103.75,678.94z"/>
	<path class="st25" d="M109.12,565.11c-0.06-1.75-0.11-3.51-0.17-5.26c-0.49-11.29,1.4-22.52,0.71-33.85
		c-0.28-4.52,2.12-8.94,4.4-13.02c-3.5,10.57-2.65,21.59-3.52,32.44c-0.39,4.83,0.87,9.62-0.09,14.43
		C110.1,561.63,110.21,563.52,109.12,565.11z"/>
	<path class="st26" d="M20.96,173.23c-2.09-4.27-0.12-8.82-0.89-13.18c0.03-1.3,0.06-2.59,0.08-3.89
		c0.71-6.26,0.71-12.66,3.53-18.51c0.52-1.08,0.54-2.7,2.36-2.66c0.06,0.38,0.13,0.76,0.19,1.14c1.9,2.44,1.26,5.26,0.65,7.76
		c-2.01,8.21-0.96,16.8-3.38,24.93C23,170.53,23.16,172.53,20.96,173.23z"/>
	<path class="st27" d="M233.12,216.22c-3.38,6.51-8.73,11.31-14.02,16.16c-2.37-2.16,1.92-3.55,0.61-5.58
		c-0.73-1.1-1.31-2.29-1.62-3.55c-0.95-3.96,1.74-6.66,5.76-5.82c1.51,0.32,3.02,1.54,4.48-0.11c1.33-1,2.82-1.52,4.5-1.44
		L233.12,216.22z"/>
	<path class="st28" d="M49.12,638.78c3.26,1.88,4.13,4.61,2.9,8.1c-0.7,4.51-2.84,7.74-6.92,10.29c-4.2,2.63-8.12,5.56-13.03,6.75
		l0,0c-2.01,0.79-3.48,3.03-6.07,2.24c-0.36-0.45-0.36-0.91,0-1.36c6.69-3.52,13.65-6.52,19.65-11.32
		c6.06-4.85,6.79-8.39,2.24-14.48C48.23,638.48,48.64,638.41,49.12,638.78z"/>
	<path class="st27" d="M55.04,681.93c0.01,0.33,0.01,0.65,0.02,0.98c-11.41,0.66-22.88-0.47-34.26,1.59
		c-4.75,0.86-5.83-1.64-3.69-7.57c0.26-0.11,0.51-0.23,0.77-0.34c0.57,0.15,1.03,0.46,1.4,0.92c4.97,3.88,10.78,2.37,16.2,2.13
		c5.94-0.27,11.71,1.08,17.59,0.98C53.95,680.6,54.6,681.17,55.04,681.93z"/>
	<path class="st29" d="M219.07,339.24c0.26-0.13,0.53-0.24,0.81-0.32c-0.38,12.63,2.38,25.17,1.21,37.83
		c-3.7-2.49-1.89-5.71-1.17-8.79c-2.99-8.99-2.93-18.2-2.03-27.48C218.18,339.98,218.58,339.57,219.07,339.24z"/>
	<path class="st22" d="M94.14,90.17c0.59-0.08,1.19-0.16,1.78-0.24c0.41,0.26,0.67,0.62,0.82,1.08c0.05,0.47-0.01,0.93-0.16,1.38
		c-1.99,6.81-4.69,13.19-10.85,17.41c-1.04,0.72-1.38,1.83-1.65,2.98c-0.14,0.76-0.59,1.36-1.05,1.95c-0.62,0.55-1.3,0.79-2.11,0.49
		c-0.41-0.45-0.4-0.9,0.01-1.34c-0.23-3.71,0.8-6.77,4.23-8.75c2.94-1.69,3.93-4.77,4.96-7.69C91.08,94.77,92.27,92.3,94.14,90.17z"
		/>
	<path class="st4" d="M49.12,638.78c-0.41,0.07-0.82,0.14-1.22,0.21c-9.58-8.88-10.79-21.12-2.88-29.16
		c-0.24,0.96-0.25,2.06-0.74,2.87C38.04,622.88,42.88,630.95,49.12,638.78z"/>
	<path class="st30" d="M36.29,243.98c0.88,0.83,0.79,1.95,0.87,3.01c0.76,0.49,1.4,1.08,1.72,1.95c0.89,8.92-2.7,16.57-6.81,24.08
		c-0.34,1.83-1.31,3.19-3.02,3.98C34.11,266.58,33.5,254.91,36.29,243.98z"/>
	<path class="st24" d="M41.16,404.06c-0.41-3.12-0.82-6.24-1.23-9.35c0.05-1.9,0.1-3.81,0.15-5.71c0.21-0.74,0.52-0.78,0.91-0.12
		C44.45,392.51,44.54,401.22,41.16,404.06z"/>
	<path class="st31" d="M41,388.87c-0.3,0.06-0.61,0.1-0.91,0.12c-0.33-2.64-1.36-5-2.3-7.48c-3.41-8.93-2.47-17.87,1.22-26.58
		c0.56,2.39-0.44,4.56-0.94,6.81c-1.53,6.95-1.54,13.81,1.57,20.4C40.66,384.3,41.06,386.52,41,388.87z"/>
	<path class="st32" d="M50.97,116.96c-0.3,0.02-0.6,0.06-0.89,0.13c-4.55,1.89-9.74,1.41-14.16,4.15c-1.97,1.22-2.89,4.27-5.94,3.7
		c2.15-5,6.71-6.64,11.4-7.79c6.76-1.66,13.64-2.56,20.64-2.11c0.72,0.32,0.73,0.66,0.02,1.01l0.01,0
		C58.51,118.3,54.57,115.57,50.97,116.96z"/>
	<path class="st33" d="M176.05,94.86c0.58,0.14,1.17,0.29,1.75,0.43c2.55,2.13,4.33,4.99,4.55,8.11c0.36,4.92,2.65,8.18,6.63,10.61
		c-0.06,0.37-0.11,0.73-0.17,1.1c-3.95,0.67-7.75-0.97-8.75-4.32c-1.29-4.28-2.06-8.69-4.82-12.42
		C174.43,97.26,174.79,95.81,176.05,94.86z"/>
	<path class="st1" d="M222.96,226.03c-1.29,2.12-2.58,4.23-3.86,6.35c-0.02,0.89-0.05,1.78-0.07,2.67c-0.4,0.69-0.8,1.38-1.21,2.07
		c-0.76,1.1,0.25,3.19-1.87,3.5c-1.51,0.22-2.41-0.67-2.97-1.97c-0.27-1.65,0.46-3.15,0.71-4.72c2-2.37,2.26-5.8,4.78-7.87
		C219.96,225.45,221.46,225.16,222.96,226.03z"/>
	<path class="st18" d="M106.11,615.95c1.15,1.96,0.7,4.19,1.09,6.28c-2.32,5.37,2.51,8.46,4.02,12.61
		c-0.71,0.71-1.42,0.65-2.13,0.01l0,0.02c-0.69-0.89-1.37-1.79-2.27-2.51c-5.4-4.26-5.4-4.3-0.93-9.49
		C105.53,620.55,104.72,618.21,106.11,615.95z"/>
	<path class="st34" d="M29.98,124.94c5.78-4.98,12.3-8.04,20.1-7.85c-0.44,0.48-0.88,1.35-1.34,1.37
		c-7.68,0.23-13.68,4.16-19.42,8.68C29.1,126.27,29.29,125.53,29.98,124.94z"/>
	<path class="st2" d="M242.05,194.4c-0.3-6.09,0.26-12.24-1.22-18.26c-2.63-2.26-1.92-5.29-1.89-8.16c0.26-0.49,0.65-0.84,1.16-1.05
		C242.54,175.96,245.06,184.98,242.05,194.4z"/>
	<path class="st35" d="M26.05,134.99c-3.36,4.75-4.11,10.3-4.85,15.86c-0.24,1.78-0.69,3.54-1.04,5.31
		c-0.2-8.58,0.38-16.96,6.25-23.96C26.29,133.13,26.17,134.06,26.05,134.99z"/>
	<path class="st34" d="M62.04,116.05c-0.01-0.34-0.01-0.68-0.02-1.01c4.43,0,8.86-0.11,13.28,0.04c2.04,0.07,3.93-0.01,5.64-1.2
		c0.07,0.43,0.14,0.87,0.21,1.3c0.2,0.64,0.05,1.17-0.46,1.6c-4.65,0.82-9.24,2.52-14.05,0.95c-0.18-0.24-0.36-0.48-0.53-0.72
		C64.75,116.69,63.39,116.37,62.04,116.05z"/>
	<path class="st36" d="M18.1,676.93l-0.49,0.03c0,0-0.49-0.03-0.49-0.03c1.49-5.13,3.85-9.61,8.89-12.13
		c0.02,0.37,0.04,0.74,0.06,1.11c0.29,1.25-0.13,2.3-0.91,3.26c-1.11,2.83-3.07,5.06-5.04,7.29
		C19.51,676.9,18.84,677.04,18.1,676.93z"/>
	<path class="st2" d="M236.03,151c1.8,5.2,3.14,10.51,4.07,15.93l-0.22,0.14c-0.9,0.13-1.7-0.11-2.04-0.97
		c-1.91-4.83-3.79-9.67-1.99-14.99L236.03,151z"/>
	<path class="st15" d="M109.08,634.85c0.71,0,1.42-0.01,2.13-0.01c2.4,3.18,2.76,6.56,1.01,10.15c-0.39-0.02-0.79-0.03-1.18-0.05
		C113.12,641.04,109.87,638.18,109.08,634.85z"/>
	<path class="st37" d="M213.96,238.04c1.98,2.58,2.84,0.48,3.86-0.92c0.04,1.99,0.83,4-0.13,5.97c-1.24,1.45-0.68,3.17-0.25,4.57
		c1.12,3.63,0.57,7-0.79,10.37c-0.1,2.82-0.75,5.36-2.31,7.86c-1.76,2.82-2.16,5.91,1.38,8.07c1.21,1.32,2.42,2.64,2.98,4.39
		c-1.45,3.07,0.25,7.04-2.75,9.67c-0.33,0-0.66,0-0.99,0c-6.94,2.31-11.52-2.55-10.51-11.16c-1.27,6-2.93,6.9-9.07,8.23
		c-5.63,1.22-10.6,0.79-15.88-1.51c-4.97-2.16-10.3-2.47-15,1.4c-2.95,0.02-5.91,0.14-8.84-0.39c-4.06-1.04-7.95-2.8-12.26-2.63
		c-3.02-0.7-6.42-0.47-8.5-3.46c-1.44-2.18-3.73-1.86-5.84-1.9c-6.46-0.12-12.93,0-19.36-0.62c-4.2-2.45-8.67-3.54-13.61-3.57
		c-5.19-0.03-9.58-3.62-14.75-4.22c-1.97-0.23-3.86-1.01-5.9-0.73c-1.04,0.14-1.97,0.45-2.32,1.56c-0.44,1.39,0.31,2.21,1.46,2.78
		c4.31,2.13,8.85,3.93,11.69,8.18c0.36,0.54,1.18,0.78,1.79,0.78c7.58-0.04,13.7,5.66,21.32,5.39c0.47,0.16,0.93,0.34,1.39,0.53
		c2.97,2.95,7.16,2.42,10.68,3.79c0.88,0.53,1.92,0.46,2.86,0.78c4.26,1.48,7.71,1.91,11.6-2.12c3.11-3.22,8.52-1.72,12.92-1.19
		c3.29,0.39,6.44,0.9,9.74-0.2c1.85-0.61,4.07-0.62,5.92,0.02c2.72,0.94,5.34,0.71,8.05,0.38c6.83-0.85,10.32,3.53,7.47,9.65
		c-1.46,3.14-3.26,6.08-4.4,9.42c-0.87,2.57-3.75,2.92-5.68,3.18c2.85-0.09,5.88,0.41,8.89,2.61c3.59,2.63,8.33,1.72,12.54,2.45
		c1.95,0.33,3.98,0.1,5.98,0.09c9.21-0.04,11.61-2.49,10.92-11.7c-0.23-3.04-0.27-5.97,0.59-8.87c0.76-2.55,2.14-4.16,5.11-2.95
		c-0.2,1.14-0.96,2.64-0.5,3.36c3.37,5.36,1.66,10.71,0.65,16.23c-0.6,3.25,0.06,6.56-4.2,7.98c-2.05,0.68-1.3,2.47,0.28,3.32
		c1.13,0.6,2.51,0.75,3.77,1.1c1.69,2.34,1.26,4.46-0.99,6.04c-2.8,1.97-5.94,1.15-7.65-1.11c-3.65-4.81-8.67-4.14-13.53-4.41
		c-1.26-0.07-2.93-0.2-3.27,1.52c-0.26,1.29,0.94,2.04,1.91,2.68c1.81,1.2,3.76,2.15,5.87,2.7c2.27,0.59,4.36,1.62,6.49,2.56
		c1.33,0.58,2.29,1.67,1.8,3.15c-0.65,1.96-2.17,1.55-3.62,0.88c-8.32-0.33-16.64-0.66-24.97-1c-1.33-0.03-2.68,0.06-3.99-0.11
		c-3.37-0.45-4.24-2.33-2.66-5.27c0.71-1.31,1.82-2.39,2.52-3.7c2.01-3.79,0.97-6.63-3.16-7.58c-3.35-0.77-6.16-2.49-9.03-4.09
		c-2.65-1.48-5.31-3.28-3.36-7.07c0.87-1.7-0.25-2.15-1.49-2.24c-6.31-0.45-11.94-2.11-16.08-7.43c-1.38-1.78-2.83-0.48-4.01,1.01
		c-3.83,4.87-8.72,6.13-14.61,4.19c-3.16-1.04-6.44-1.56-9.79-1.73c-4.55-0.23-8.93-0.64-11.15-5.79c-1.14-2.63-4.46-2.66-6.73-3.97
		c-5.44-3.12-10.35-7.06-16.03-9.84c-8.34-4.08-10.32-8.63-8.86-18.5c0.29-1.94-0.62-3.99,0.49-5.87c1.68-2.41,4.34-1.92,6.27-1.25
		c5.73,1.99,11.84,0.84,17.6,2.66c2.27,0.72,5.57,0.87,5.17-3.45c1.86-3.04,4.64-2.82,7.55-2.18c16.16,5.97,32.55,5.85,49.14,2.02
		c4.4-1.02,8.82-3.01,13.44-0.83c5.76,2.6,11.27-1.26,17.02-0.72c3.35,0.32,6.84-0.22,10.26-0.11c0.47,0.25,0.81,0.63,1.02,1.12
		c0.31,2.91-1.61,3.8-3.93,3.98c-3.2,0.24-5.86,1.45-8.74,2.92c-3.43,1.76-7.75,1.3-11.65,2.22c-4.59,1.09-9.4,1.6-13.36,4.27
		c-2.02,1.36-5.03-0.61-6.24,2.31c3.49,2.03,6.9,2.57,10.16-0.31c1.26-1.11,3.03-1.73,4.1-0.78c4.34,3.83,9.72,0.59,14.31,2.4
		c0.92,0.36,1.98-0.24,2.72-0.93c5.55-5.2,12.63-7.67,19.32-10.83c4.79-2.27,6.36-7.11,3.57-11.78c-1.29-2.16-1.96-4.04-0.87-6.49
		c1.21-2.69-0.25-3.45-2.61-2.73c-4.12,1.27-6.65-1.62-9.12-3.76c-2.12-1.84-1.55-4.51,0.44-6.63c-1.12,0.38-2.52,1.48-3.46,0.78
		c-3.53-2.61-9.06-0.49-11.71-5.15c-1.03-1.82-2.66-0.35-4.03-0.13c-7.02-1.72-8.71-4.43-7.15-11.42c0.2-0.48,0.49-0.92,0.85-1.3
		c3.37-0.13,6.54-0.2,8.31-4.16c0.82-1.85,3.38-1.85,5.4-0.89c4.13,1.96,8.48,2.81,13.05,2.9c2.63,0.05,5.16,1,5.63,3.94
		c0.31,1.9,0.81,2.67,2.77,2.7c2.14,0.03,4.04-0.12,4.97-2.39c0.88-2.15,0.53-4.05-0.7-6.13c-1.7-2.87-0.73-4.96,2.57-6.1
		c5.59-1.92,5.96-3.51,1.84-7.83c-1.97-2.06-3.66-4.31-5.23-6.66c-1.26-1.89-1.11-3.84,0.44-5.49c1.49-1.58,3.21-1.36,5-0.37
		c5.19,2.85,8.82,7.48,12.99,11.48c1.66,1.6,0.87,4.07,0.56,6.22c-0.67,4.67-0.22,9,4.21,11.89c0.64,3.09,1.4,2.1,2.28,0.09
		c2.44-5.58,4.92-11.15,7.86-16.56c0.31,7.69-5.56,13.31-7.26,20.32c-0.99,1.02-1.98,2.05-2.97,3.07c-5.23,0.1-8.8-2.19-9.93-7.9
		c-2.08,2.1-1.39,3.99-1.39,5.72c-0.01,3.35,0.05,6.3-3.84,8.25c-2.35,1.18-2.9,4.54-1.66,7.2
		C213.96,234.17,213.9,236.07,213.96,238.04z"/>
	<path class="st38" d="M211.91,625.94c-0.32-0.33-0.63-0.67-0.95-1c-6.37-4.6-6.79-5.71-4.13-13.09c1.25-3.47,1.61-7.06,2.18-10.64
		c0.26-1.63-0.47-4.38,2.14-4.17c2.3,0.19,1.63,2.83,1.79,4.54c0.11,1.15-0.01,2.31,0.06,3.47c0.32,5.49,2.33,7.46,7.96,7.88
		c3.85-0.95,5.97-2.48,2.38-6.31c-1.2-1.28-1.85-3.06-0.3-4.44c1.63-1.46,3.39-0.29,4.32,0.98c2.2,3.02,5.01,4.01,8.6,3.89
		c3.1-0.1,5.17,1.9,5.55,4.75c0.7,5.22,3.8,6.53,8.39,6.14c1.49-0.13,3,0,4.48-0.19c3.23-0.42,3.96,1.18,3.03,3.82
		c-0.76,2.16-1.18,4.07,0.44,6.05c0.85,1.03,0.69,2.33-0.56,2.98c-1.61,0.84-1.8-0.75-2.43-1.66c-1.8-2.59-7.92-4.17-10.71-2.73
		c-2.41,1.24-0.92,2.45,0.32,3.26c2.22,1.45,4.59,2.67,6.9,3.98c2.79,1.59,2.13,2.53-0.32,4c-6.66,4.01-12.33,1.59-17.91-2.21
		c-1.32-0.9-1.79-2.13-1.66-3.86c0.26-3.53-2.15-5.53-4.96-3.69c-3.95,2.59-7.01,2.09-10.3-0.73
		C215.01,625.94,213.41,625.96,211.91,625.94z"/>
	<path class="st39" d="M244.93,510.96c1.35,10.37,8.37,18.8,9.96,29.11c0.94,6.08,2.25,12.12,2.04,18.32c-0.08,2.43,0.57,4.6,2,6.55
		c-3.5-1.57-4.47-6.19-8.54-7.13c-0.28-0.06-0.62-0.89-0.55-1.3c1.05-6.46-2.25-12.87-0.25-19.29c0.73-2.34-0.3-3.26-2.09-4.3
		c-5.45-3.17-9.17-7.59-9.75-14.18c-0.1-1.12-0.54-2.29-1.11-3.29c-1.5-2.65-1.71-4.91,1.09-6.94c1.34-0.97,1.97-2.49,0.14-3.66
		c-1.63-1.04-2.92-0.3-3.56,1.36c-0.66,1.72-0.98,3.72-3.48,3.46c-2.5-0.26-4.3-2.14-4.41-4.18c-0.44-8.26-7.01-9.3-12.59-10.03
		c-6.71-0.88-12.03-4.73-18.19-6.61c-2.53-0.77-3.05-2.98-2.02-5.3c0.99-2.23,2.89-2.73,4.99-1.69c2.82,1.4,5.64,2.85,8.29,4.55
		c6.28,4.01,14.36,4.01,18.1-2.01c2.01-3.23,5.42-4.33,6.96-7.44c0.67-0.65,1.33-0.56,2,0l0,0c5.07,1.73,7.22,5.39,7,10.61
		c-0.03,0.83,0.13,1.69-0.06,2.48C239.02,497.67,242.03,504.3,244.93,510.96z"/>
	<path class="st40" d="M213.06,667.65c-4.18-1.51-5.04-4.26-2.33-7.64c6.2-7.73,7.55-15.88,3.01-24.88c-0.8-1.6-1.03-3.49-1.52-5.24
		c2.35,0.15,3.91,1.64,5.41,3.22c2.29,2.42,5.28,3.7,8.03,5.41c5.41,3.35,9.54,8.45,12.28,14.41c-2.04,2.88-2.03,5.85-0.29,8.83
		c0.8,1.37,1.34,2.67,0.22,4.11C229.66,667.28,221.36,667.52,213.06,667.65z"/>
	<path class="st41" d="M203.95,429c-1.52-1.95-3.7-3.63-3.87-6.27c-0.56-8.78-6.08-16.17-6.8-24.93c-0.21-2.59-1.65-5.04-0.24-7.73
		c0.31-0.6,0.21-2.03-0.2-2.29c-6.69-4.26-3.11-13.4-8.8-18.27c-1.78-1.52-0.71-4.31,1.16-5.71c2.28-1.71,4.14-5.04,7.57-3.84
		c2.6,0.9,4.75,3.41,3.98,6.24c-2.17,8.07,1.47,14.76,4.14,21.82c1.35,3.58,5.27,5.18,6.08,8.97c-0.85,1.73,0.75,4.13-1.52,5.46
		c-3.01,0.9-4.19-0.78-4.5-2.38c1.04,3.31,2.08,7.59,4.1,11.75c2.24,4.63,2.36,10.21,4.84,14.96c0.52,0.99-0.33,2.23-1.09,3.16
		C206.79,431.64,205.82,427.99,203.95,429z"/>
	<path class="st42" d="M103.75,678.94c-1.21,0.95-2.39,1.53-4.09,1.03c-14.08-4.12-27.88-1.61-41.62,1.92
		c-0.9-0.94-2.34-0.04-3.24-0.95c-0.37-2.25,1.13-2.96,2.86-3.21c3.28-0.49,6.38-1.64,9.59-2.37c7.9-1.81,12.64-7.44,16.55-14
		c0.43-0.72,0.22-1.62,0.25-2.44c3.39-1.59,7.03,1.37,10.52-0.66c0.93-0.54,1.96,0.84,2.39,2.04c0.36,1.01,0.33,2.68,1.92,2.38
		c1.47-0.28,0.93-1.88,1.18-2.95c0.29-1.28,0.65-2.54,0.98-3.81c-0.16,4.04,0.4,7.94,2.06,11.69
		C104.71,671.27,103.86,675.14,103.75,678.94z"/>
	<path class="st1" d="M200.96,338.01c1.05-0.25,2.9-0.53,0.92-1.79c-1.91-1.2-4.32-1.62-6.51-2.37c-4.46-1.53-8.54-3.59-11.28-7.68
		c-1.77-2.65-1.08-3.89,2.04-4.12c6.66-0.5,13.21,0.62,19.8,1.16c1.01,0.08,2.4,0.67,1.99,1.68c-0.71,1.76-1.4,3.02,1.17,3.58
		c2.65,0.58,3.53-1.12,4.28-3.09c0.18-0.46,0.39-0.91,0.59-1.37c5.52,0.96,8.07,5.35,5.98,10.49c-0.63,1.56-0.99,3.09-0.87,4.75
		c0.05,0.27,0.01,0.52-0.11,0.76c-0.73,0.74-1.56,0.98-2.53,0.51c-0.16-0.17-0.32-0.34-0.48-0.51c0.91-1.05,1.63-2.18,0.46-3.45
		c-1.03-1.12-2.11-0.58-3.02,0.22C209.53,340.17,205.28,339.36,200.96,338.01z"/>
	<path class="st24" d="M84.04,658.91c1.64,0.23,3.56,0.27,3.9,2.33c0.28,1.72-1.56,2.31-2.46,3.43c-3.22,4.02-7.58,6.9-11.53,9.86
		c-3.98,2.98-9.64,3.77-14.63,5.31c-1.38,0.43-2.95,0.25-4.27,1.07c-6.67-0.24-13.35-0.44-18.87-4.98
		c-0.36-0.54-0.68-1.09-0.39-1.79c0.33-0.77,0.97-1.09,1.75-1.22c-6.17,1.32-6.17,1.32-7.48-2.02c7.22,0.28,14.27-0.16,20.7-4.03
		c1.97-1.19,4.2-1.2,6.26-0.31c7.03,3.05,12.95,0.78,18.42-3.7c1.68-1.38,3.2-2.94,5.59-2.92c1.16,1.97-0.34,3.03-1.43,4.25
		c-2.81,3.16-6.54,5.02-9.94,7.3c4.34-3.62,10.76-4.95,12.36-11.58C82.7,659.58,83.37,659.24,84.04,658.91z"/>
	<path class="st43" d="M44.07,331.01c-1.22-2.3-4.18-3.27-4.56-6.29c-0.28-2.21-0.03-4.04,2.11-5.03c2.06-0.96,3.47,0.02,4.45,1.88
		c1.91,3.61,3.95,3.87,5.93,0.08c0.88-1.69,2.08-2.28,3.99-2.24c3.87,0.08,7.4,1.6,11.11,2.36c1.49,0.3,2.77,1.45,2.37,3.27
		c-0.41,1.9-1.86,2.73-3.73,2.5c-2.64-0.34-5.26-0.79-7.91-0.27c-1.04,0.2-2.01,0.73-1.88,1.92c0.14,1.21,1.19,1.58,2.25,1.3
		c7.62-2,15.16,0.12,22.63,0.89c5.39,0.56,10.98-0.45,16.2,1.64c-11.27,0.37-22.47-1.16-33.69-1.43
		C56.92,331.42,50.5,330.54,44.07,331.01z"/>
	<path class="st37" d="M51.04,602.94c-4.53-12.12-4.46-24.97-5.96-37.58c-1.34-11.28-0.67-22.41,1.91-33.46
		c0.37-1.57,0.29-3.31,0.14-4.94c-0.3-3.18,0.3-5.94,2.94-8c1.32,5.69,0.53,11.17-1.42,16.6c-0.67,1.86-1.31,3.88-1.27,5.82
		c0.2,11.69-1.19,23.32-0.01,35.11C48.26,585.38,52.22,593.81,51.04,602.94z"/>
	<path class="st9" d="M227.96,434.97c1.75,3.54,0.64,7.34,1,11c0.94,7.4,0.77,14.9,3.18,22.16c0.87,2.62-1.23,5.78-1.18,8.82
		c-3.96-1.39-6.82-4.26-9.76-7.08c-1.03-0.99-1.7-1.84-0.12-2.62c8.69-4.31,6.88-11.64,5.43-18.82c-0.29-1.43-1.03-2.78-1.64-4.13
		c-0.69-1.53-0.86-2.92,0.94-3.75C228.37,439.37,227.82,437.05,227.96,434.97z"/>
	<path class="st12" d="M237.87,665.86c-5.11-2.83-3.29-8.78-5.71-12.85c-0.66-1.11,0.6-1.84,1.66-1.61c1.42,0.32,2.75,1,4.12,1.52
		c1.69,1.79,3.26,3.73,5.11,5.33c2.92,2.53,5.91,4.48,10.26,2.6c2.78-1.2,1.45,0.82,0.88,1.9
		C248.67,663.37,243.14,663.91,237.87,665.86z"/>
	<path class="st10" d="M82.03,659.91c1.41,0.2,3.35-0.37,3.81,1.51c0.37,1.51-1.34,2.09-2.35,2.89c-3.77,2.98-7.58,5.91-11.31,8.94
		c-1.68,1.36-3.53,1.89-5.57,1.43c-1.87-0.42-4.59-0.41-4.69-2.83c-0.11-2.61,2.7-1.79,4.27-2.22c6.01-1.64,10.37-5.74,14.85-9.69
		C81.37,659.93,81.7,659.92,82.03,659.91z"/>
	<path class="st44" d="M203.95,429c1.51-2.88,1.51-2.88,4.04,0.96c1.75-1.61,3.31-1,4.82,0.4c2.76,2.55,5.19,1.59,7.29-0.88
		c2.04-2.4,4.06-4.84,5.26-7.84c0.6-1.5,1.13-3.31,3.46-2.69c-0.23,3.54,0.24,7.22-2.76,10.06c-1.38,1.3-0.48,2.33,0.92,3.01
		c-2.56,5.1-7.17,6.91-12.35,6.73c-4.2-0.14-7.49-2.39-8.7-6.92C205.65,430.78,204.63,429.93,203.95,429z"/>
	<path class="st44" d="M204.97,401.98c-0.01-1.94,0.24-3.77,2-5c2.93,2.94,5.16,6.52,8.6,9.01c2.33,1.69,4.77,3.02,7.62,3.53
		c3.13,0.56,4.49,0.4,3.64-3.77c-1.19-5.85,0.57-11.84,1.14-17.76c1.62,3.3,1.07,6.81,0.71,10.21c-0.32,2.96-0.73,5.82-0.08,8.81
		c0.78,3.62-1,4.9-4.47,4.07c-1.76-0.42-3.54-0.78-5.27-1.29c-2.12-0.62-3.6-0.31-3.9,2.2
		C209.81,411.95,204.69,406.82,204.97,401.98z"/>
	<path class="st45" d="M260.03,564.87c6.39,7.8,9.38,16.69,8.67,26.81c-0.39,5.57,0.4,10.88,3.35,15.84
		c1.9,3.2,2.93,6.74,0.86,10.39c0.23-4.49-0.77-8.57-4.1-11.8c-2.03-1.97-2.06-4.49-1.86-6.95c0.82-10.13-0.45-19.76-6.22-28.45
		C259.58,568.97,259.98,566.85,260.03,564.87z"/>
	<path class="st27" d="M30.08,670.9c2.94,1.64,6.15,0.8,9.25,1.03c2.67,0.19,5.06,0.73,6.58,4.33c-3.72-0.93-6.55-3.7-9.82-1.34
		c0.65,2.25-0.03,4.51-2.27,4.62c-5.28,0.26-10.82,1.15-15.55-2.45c0,0-0.16-0.15-0.16-0.15c0.3-0.36,0.61-0.72,0.91-1.08
		c2.98-1.71,5.44-4.27,8.77-5.39c0.5-0.05,0.94,0.08,1.34,0.38C29.44,670.86,29.76,670.88,30.08,670.9z"/>
	<path class="st44" d="M230.96,476.95c-0.78-10.32-2.79-20.56-2.01-30.98c1.43,7.09,2.16,14.32,4.64,21.21
		c1.12,3.11-3.09,6.61,0.35,9.79c-0.67,0-1.33,0-2,0C231.62,476.97,231.29,476.96,230.96,476.95z"/>
	<path class="st46" d="M32.08,663.92c4.19-3,8.98-4.98,13.08-8.19c3.11-2.44,5.77-4.96,6.87-8.84c-0.02,5.56-2.18,9.61-7.43,12.18
		C40.53,661.05,37.2,664.7,32.08,663.92z"/>
	<path class="st47" d="M216.93,363.02c-2.1-0.91-3.37-2.75-2.56-4.72c1.94-4.69,1.3-9.31,0.65-14.04c-0.21-1.48,0.13-2.95,0.93-4.26
		c0,0,0.02,0.01,0.02,0.01c1.94,1.83,2.1,4.4,2.35,6.72c0.44,4.23,0,8.52,0.58,12.77C219.1,361.01,218.71,362.47,216.93,363.02z"/>
	<path class="st8" d="M216.93,363.02c1.6-6.05,1.51-12.1-0.02-18.15c-0.4-1.6-0.63-3.23-0.94-4.85c1,0,1.99-0.01,2.99-0.01
		c-0.67,9.35,0.81,18.63,0.96,27.96C218.37,366.65,216.9,365.29,216.93,363.02z"/>
	<path class="st15" d="M105.88,622.87c-3.88,5.32,1.54,8.16,3.2,12c-2.97-2.63-6.87-2.76-11.34-3.74
		C101.73,628.88,101.67,623.98,105.88,622.87z"/>
	<path class="st24" d="M43.07,466.97c-4.04-4.98-2.86-10.91-2.99-16.59c-0.05-2.47-0.01-4.93-0.01-7.4c1.12,1.8,1.1,3.83,0.98,5.82
		C40.68,454.98,41.39,461.02,43.07,466.97z"/>
	<path class="st46" d="M29.12,670.84c-0.35,0.03-0.71,0.06-1.06,0.1c-2.83,0.97-3.76-0.53-3.93-3.02c0.64-0.67,1.29-1.34,1.93-2.01
		c2-0.66,4.01-1.32,6.01-1.98C30.84,666.12,27.25,667.32,29.12,670.84z"/>
	<path class="st37" d="M50.07,518.96c0.56-3.88-2.6-7.12-1.92-11.03C51.08,511.21,51.9,514.85,50.07,518.96z"/>
	<path class="st46" d="M48.07,252.03c-0.67,1.67-1.33,3.33-2,5c-3.23-3.22-4.83-10.34-2.88-13.89c1.57-2.86,1.96-6.24,4.68-8.66
		c2.09-1.87,0.57-4.91-0.68-6.43c-3.68-4.49-2.09-9.84-2.88-14.69c-0.92-5.7-0.69-11.14-4.93-16.15c-1.87-2.21-4.11-6.37-2.76-10.42
		c0.28-0.86,0.24-1.85-0.23-2.39c-3.56-4.14-2.84-7.99,0.53-11.8c0.43-0.48,0.69-1.22,0.65-1.86c-0.38-5.95,1.67-10.65,6.68-14.09
		c1.25-0.86,1.07-2.72,1.18-4.18c0.54-7.22,2.94-10.14,10.04-11.86c1.46-0.36,2.92-0.65,4.12-1.6c1.37-1.22,0.92-2.7,0.64-4.16
		c-0.49-2.53-0.08-4.75,2.68-5.6c2.49-0.76,3.52,1.01,4.36,2.96c0.46,1.06,1.44,1.8,1.93,2.87c0.41,0.71,0.48,1.75,1.07,2.17
		c4.25,3.05,5.79,6.2,2.72,11.42c-1.56,2.65,2.06,3.8,4.34,4.69c2.03,0.98,4.34-0.37,6.36,0.77c1.65,1.53,1.97,3.06,0.74,5.2
		c-2.89,5.05-2.3,7.72,2.54,10.75c2.66,1.67,4.96,3.62,7.03,5.93c1.01,1.39,1.81,2.95,1.34,4.62c-2.16,7.6-0.78,15.41-1.48,23.1
		c-0.07,0.82-0.19,1.53-0.49,2.25c-1.48,1.57-2.54,1.92-3.45-0.65c-1.02-2.89-1.33-5.8-1.4-8.81c-0.08-3.18-0.43-5.28-4.42-7.19
		c-5.74-2.75-9.97-3.36-15,0.71c-2.58,2.09-6.29,1.95-9.46,2.93c-1.88,0.58-3.47-0.52-4.83-1.96c-1.63-1.74-3.53-2.03-5.11,0.01
		c-1.46,1.91-1.1,4.46,0.82,5.21c4.43,1.71,6.62,5.05,8.6,8.97c0.75,1.49,2.66,1.98,4.34,2.17c4.13,0.45,8.2,1.31,12.39,1.37
		c3.53,0.05,6.67-0.15,8.35-3.93c0.59-1.33,1.87-1.92,3.32-1.69c1.5,0.23,2.32,1.23,2.45,2.74c0.19,2.25,1.47,4.38,0.77,6.64
		c0.82-1.74-1.12-4.42,1.69-5.68c4.55,2.22,4.18,7.15,6.06,10.86c-1.28,3.85-3.02,7.25-7.71,7.8c-2.01,0.24-2.97,1.34-3.18,3.54
		c-0.2,2.02-1.41,3.43-3.91,3.51c-7.93,0.27-7.93,0.34-10.18,6.73c-2.57,0.86-3.66-0.35-3.97-2.78c-0.57-4.39,2.62-8.37,7.09-8.85
		c1.4-0.15,2.83,0.15,4.2-0.17c1.79-0.42,2.18-1.76,2.21-3.41c0.03-1.74-0.88-2.56-2.42-2.45c-7.83,0.54-15.29-2.86-23.19-2.15
		c1.76,3.7,3.78,4.71,8.81,2.86c3.96-1.46,7.68-0.97,11.55-0.54c2.09,0.23,4.2,0.79,3.95,3.47c-0.22,2.35-2.17,2.25-4.01,2.22
		c-6.49-0.08-10.27,6.99-7.03,11.98c2.39,3.67-1.24,4.82-2.91,6.71c-1.91,2.15-4.29,3.61-6.83,1.19c-2.42-2.3-4.65-2.1-7.15-0.47
		C50.75,247.28,49.45,249.7,48.07,252.03z"/>
	<path class="st12" d="M61.06,143.06c-7.8-2.18-12.16,0.38-13.49,8.34c-0.6,3.57-1.66,6.6-4.31,9.21c-2.3,2.26-3.67,5.08-2.72,8.59
		c0.69,2.55-0.76,4.46-2.35,6.24c-1.01,1.13-2.57,2.85-1.68,3.86c5.09,5.75,1.88,14.33,7.67,20.24c2.88,2.94,4.07,8.52,2.79,13.47
		c-0.28,1.07-0.08,1.91,0.46,2.81c0.5,0.84,1.49,2.08,1.22,2.6c-2.84,5.43,1.98,8.93,3.25,13.27c0.84,2.88,1.65,5.05-2.41,5.96
		c-2.17,0.49-5.42,8.26-4.46,10.54c1.22,2.91,0.97,5.86,1.06,8.83c-1.37,4.67-2.94,9.26,2.82,12.47c1.3,0.73,1.11,3.58-0.42,3.68
		c-4.19,0.28-3.37,7.92-8.49,5.67c-2.4-1.05-2.54-4.1-2.83-6.59c-0.23-1.94,0.16-4.09-2.07-5.23c-0.08-6.17,1.06-12.21,1.91-18.28
		c0.05-0.59,0.11-1.18,0.16-1.76c3.72-7.71,5.72-15.31,3.95-24.32c-1.47-7.48-0.44-15.46-4.03-22.65
		c-3.11-2.95-5.02-6.53-5.32-10.82c-0.21-3.01-1.57-4.75-4.42-5.88c-4.93-1.96-5.48-6.4-1.1-9.41c3.76-2.58,5.25-6.25,6.25-10.35
		c0.86-3.5,1.07-7.25,4.29-9.76c1.52-1.19,0.35-2.71,0.09-4.13c-0.48-2.62,0.26-4.71,3.25-5.06c1.6-0.19,2.72-0.91,3.79-2.01
		c4.15-4.29,9.42-4.39,14.79-3.64C60.89,139.27,62.47,140.42,61.06,143.06z"/>
	<path class="st42" d="M48.07,252.03c-2.09-4.38,0.55-6.39,4-8c2.97-0.38,5.92-0.02,7.91,2.28c2.27,2.61,5.25,0.81,7.7,1.83
		c2.29,5.96,7,6.93,12.69,6.49c6.11-0.47,11.74,2.14,17.59,3.37c2.1,0.13,4.15,0.26,1.62,2.96c-1.55,1.65-3.35,1.7-5.47,1.41
		c-8.67-1.2-17.36-2.24-26.05-3.34c-1-0.33-2-0.67-3-1c-2.2,2.49-4.13,0.66-5.9-0.54c-1.47-0.99-2.54-2.52-4.09-3.46
		C52.73,253.36,50.4,252.69,48.07,252.03z"/>
	<path class="st12" d="M76.82,322.18c4.63-1.06,7.97-4.37,13.18-1.31c4.22,2.48,9.36,3.12,14.41,1.01c4.71-1.97,9.5-0.55,14.22,0.3
		c1.51,0.27,1.88,1.32,0.93,2.57c-1.01,1.33-2.17,2.84-3.95,2.75c-10.88-0.54-21.88,0.97-32.61-1.88
		C81,325.09,78.81,324.65,76.82,322.18z"/>
	<path class="st12" d="M38.08,309.02c-0.25-3.96-3.09-4.03-6-4c-0.33-1.33-0.67-2.67-1-4c1.87-4.84,0.19-10.14,1.99-14.99
		c1.16,3.32,1.58,7.12,5.86,8.31c0.62,0.17,1.47,1.26,1.43,1.86C40.02,300.53,41.06,305.15,38.08,309.02z"/>
	<path class="st45" d="M33.07,286.02c0.34,3.53-0.55,7.07,1.44,10.59c1.57,2.77-2.2,2.94-3.43,4.4
		C29.55,295.72,31.13,290.85,33.07,286.02z"/>
	<path class="st12" d="M36.99,248.76c0.24,6.18-1.16,12.2-1.91,18.28c-0.17,2.42-0.92,4.54-3.01,5.99
		C35.67,265.33,34.3,256.63,36.99,248.76z"/>
	<path class="st41" d="M55.06,254.03c3.55,0.79,5.52,5.53,9.99,4c-1.82,3.03-4.02,1.62-5.87,0.25
		C57.62,257.12,56.42,255.46,55.06,254.03z"/>
	<path class="st48" d="M235.94,186.04c-1.77,3.54-0.69,7.33-1,11c-0.87,0.51-1.97,0.26-2.16-0.46c-1.81-6.75-8.97-7.85-12.99-12.34
		c-2.66-2.99-7.39-2.93-11.29-3.02c-5.86-0.13-11.59-0.58-17.21-2.25c-1.64-0.49-3.24-0.5-4.92-0.16c-1.99,0.39-3.62-0.34-4.66-2.12
		c-0.96-1.65-0.6-3.23,0.54-4.63c1.18-1.45,1.68-3.11,2.18-4.89c1-3.56,0.19-5.84-3.61-6.66c-1.32-4.48-0.4-5.53,5.29-6
		c1.34-0.09,2.36-0.64,2.76-2.02c0.07-2.41,1.31-4.22,3-5.8c1.53-0.43,3.02-0.99,4.57-1.34c0.81-0.01,1.53,0.3,2.23,0.66
		c1.64,0.73,3.24,0.1,4.86-0.12c2.87-0.38,5.5,0.02,8,1.71c3.14,2.11,5.75,5.07,9.65,6.01c0.77,0.19,1.34,1.07,1.52,1.87
		c1.56,7.19,7.37,11.02,12.24,15.59c0.33,0.66,0.67,1.33,1,1.99C237.81,177.38,238.24,181.71,235.94,186.04z"/>
	<path class="st4" d="M234.94,171.06c-3.14,1.04-5.42,0.17-6.99-2.85c-1.16-2.24-3.1-3.85-5.15-5.28c-1.4-0.98-2.73-2.15-2.4-4.02
		c0.44-2.51-1.47-2.99-2.76-4.42c-5.17-5.7-11.67-6.57-18.67-6.42c-0.66-0.81-1.33-0.74-2,0c-1.67,0-3.33,0-5,0
		c-4.57,0.51-4.06-2.61-3.91-5.47c0.31-1.06,1.16-1.77,1.75-2.64c1.81-2.76,3.56-5.3,1.81-9.05c-1.33-2.86,0.78-4.16,3.56-4.3
		c0.47,0.08,0.9,0.26,1.3,0.51c1.15,1.23,1.48,2.94,2.5,4.27c2.04,2.65,4.06,5.16,7.97,3.69c1.41,4.27,7.01,5.8,7.12,10.94
		c0.04,1.78,1.71,2.22,2.87,3.05c4.59,1.45,7.9,3.96,9.83,8.76C228.7,162.61,233.67,165.72,234.94,171.06z"/>
	<path class="st27" d="M235.94,186.04c0-4.33,0-8.66,0-12.99c3.84,0.88,1.71-2.01,1.39-2.71c-3.09-6.82-2.91-14.2-3.41-21.94
		c0.64,0.9,1.28,1.8,1.93,2.71c0.58,5.51,1,11.07,4.03,15.97c0.32,3.02,0.64,6.04,0.95,9.07c-3.14,2.29-1.52,5.75-2.11,8.66
		c-0.31,1.52,0.75,3.22-0.48,4.75C236.46,189,236.76,187.15,235.94,186.04z"/>
	<path class="st4" d="M206.97,135.06c-1.97,1.34-1.84,3.28-1.63,5.31c0.11,1.06-0.35,1.97-1.54,2.17c-0.92,0.16-1.94-0.29-1.83-1.15
		c0.49-3.8-2.53-5.4-4.46-7.72c-1.32-1.59-1.53-3.6-1.54-5.6c2.82-3.06,5.03-1.91,6.99,1C203.69,131.47,205.35,133.25,206.97,135.06
		z"/>
	<path class="st33" d="M202.96,129.06c-2.33-0.33-4.66-0.67-6.99-1c-0.33,0-0.66,0-1,0c-4.98-1.7-5.32-2.48-3-6.99
		c5.95,0.87,10.94,3.56,15,7.98C205.64,129.89,204.3,129.28,202.96,129.06z"/>
	<path class="st4" d="M216.96,149.05c-4.44-0.8-9.6-8.02-9.99-14C213.13,137.7,217.7,141.48,216.96,149.05z"/>
	<path class="st1" d="M82.24,114.12c0.03-0.66,0.05-1.33,0.08-1.99c0.94-1.26,2.27-1.71,3.73-2.15c6.43-1.96,10.34-8.11,9.41-14.71
		c-0.21-1.5-0.56-2.91,0.6-4.16l0.01-0.03c1.49-2.37,2.96-4.66,5.21-6.54c3.27-2.73,1.43-6.64,1.49-10.05
		c0.02-1.43-0.9-2.79-1.21-4.24c1.01-4.89,4.62-8.87,4.63-14.2c0-2.05,2.2-3.27,4.44-3.22c3.06,0.08,3.7-1.7,3.36-4.21
		c-0.34-2.51-2.79-5.2-0.24-7.46c2.97-2.63,6.57-5.38,10.55-4.96c5.74,0.61,10.35-1.85,15.22-3.77c2.23-0.88,4.43-1.47,5.88,0.54
		c1.83,2.54,4.28,3.36,7.01,4.27c6.9,2.32,7.52,5.79,8.75,13.26c1.12,6.78,0.01,13.61,1.82,20.2c0.81,2.94,0.9,5.64-0.41,8.58
		c-1.61,3.62,0.18,7.57,3.42,8.76c0.42-2.45,0.85-4.91,1.41-8.14c1.46,4.08-0.83,8.14,2.03,11.16c0.24,0.25,0.48,0.49,0.72,0.74
		c0.72,3.04-2.41,2.82-3.59,4.26c-10.63-0.01-15.11-9.66-12.91-18.21c1.01-3.94,1.5-7.01-1.51-10.01c-0.85-0.85-1.37-1.99-1.26-3.17
		c0.44-5.04-2.77-7.93-6.17-10.71c-1.29-1.05-2.75-1.93-3.73-3.29c-1.94-2.72-3.92-4.85-7.82-3.54c-3.9,1.32-6.25,3.08-8.23,7.39
		c-2.97,6.49-4.16,12.93-5.23,19.78c-0.66,4.24-3.2,8.09-2.96,12.84c0.14,2.68-2.17,5.22-4.23,7.14c-3.29,3.08-5.26,6.8-6.45,11.03
		c-0.8,2.84-2.37,4.85-5.04,6.42c-3.44,2.02-5.67,5.29-6.22,9.4c-0.25,1.85-0.65,3.59-1.83,5.08c-0.38,0.62-0.69,1.28-1.22,1.79
		c-3.41,3.1-7.56,2.69-11.67,2.45c-1.45-0.08-2.56-0.65-2.87-2.19c-0.25-1.22,0.03-2.73,1.1-3.03
		C85.08,123.41,82.48,118.38,82.24,114.12z"/>
	<path class="st48" d="M165.99,88.07c-4.03,0.1-7.75-5.36-5.54-8.66c1.82-2.72,1.63-5.08,1.01-7.97c-0.79-3.72-1.2-7.55-1.4-11.36
		c-0.17-3.24-0.11-6.35-3.48-8.2c-1.29-0.71-1.73-2.1-1.35-3.48c0.62-2.26,1.64-0.32,2.56-0.2c2.43,0.3,1.77-1.26,1.2-2.44
		c-1.8-3.73-4.92-5.81-8.91-6.49c-2.67-0.46-5.32-0.59-6.2-3.93c-0.51-1.93-1.87-1.31-3.18-0.7c-3.01,1.4-6.1,2.62-9.08,4.08
		c-1.75,0.86-3.37,1.28-5.21,0.33c-3.11-1.61-5.68-0.39-8.31,1.43c-2.51,1.75-3.73,3.35-1.86,6.47c1.56,2.6,0.58,5.54-0.31,8.24
		c-0.78,2.38-2.25,3.4-4.41,1.4c-1.1-1.02-1.99-1.93-3.14-0.2c-0.89,1.34-2.32,2.54-1,4.43c2.32,3.32,4.11,6.35-2.56,6.08
		c-1.5-0.06-1.6,1.87-1.77,3.19c-2.97,0.19-3-2.43-3.97-4.14c-0.04-2.06-0.02-4.13-0.02-6.19c2.58-4.94,2.81-10.4,3.82-15.73
		c0.74-3.88,4.36-6.09,7.3-8.52c4.76,0.14,8.37-1.5,9.87-6.4c3.65-3.42,8.31-4.22,12.98-5.02c4.64,0.77,9.31,1.03,14,1
		c3.82,1,7.69,1.86,10.9,4.37c-1.08,2.11-0.96,3.89,0.72,5.83c1.94,2.23,3.49,4.81,5.12,7.3c3.38,5.19,4.17,10.84,2.13,16.65
		c-1.41,4.02-2.12,7.89-1.08,12.13c0.68,2.76-0.22,5.58-0.56,8.38C163.9,82.63,163.22,85.76,165.99,88.07z"/>
	<path class="st48" d="M165.98,95.07c0.73-1.92,2.87-2.05,4.16-3.25c1.79,1.36,4.65,0.64,5.91,3.04c3.27,4.58,5.42,9.55,6.42,15.17
		c0.54,3.03,4.02,3.61,6.35,5.08c1.38,1.73,2.28,3.64,2.17,5.93c-0.36,3.94-0.39,8-2.88,11.33c-1.29,1.72-3.11,2.92-5.52,2.42
		c-1.97-0.58-4.13-0.84-5.06-3.11c-0.55-1.52-0.06-2.74,1.06-3.79c1.1-0.71,2.39-1.14,3.35-2.09c2.14-2.1,2.17-4.62-0.51-5.66
		c-5.56-2.17-10.16-5.01-12.47-10.83c-0.38-0.96-1.8-1.36-2.8-1.95c-1.93-1.15-3.37-2.68-3.33-5.14
		C162.36,99.17,164.07,97.08,165.98,95.07z"/>
	<path class="st4" d="M182.94,132.08c2.58,0.03,4.46-0.52,4.29-3.81c-0.16-3.03,3.34-4.38,3.77-7.23c0.33,0.01,0.65,0.02,0.98,0.03
		c-0.26,2.87,0.56,5.28,3,6.99c-2.65,0.4-1.13,1.8-0.97,3.18c0.45,3.76,3.56,8.19-2.1,10.79c-0.7-0.45-1.41-1.02-1.41-1.87
		c-0.02-3.61-1.47-5.48-5.37-5.27C183.69,134.98,182.33,134.06,182.94,132.08z"/>
	<path class="st0" d="M204.97,401.98c3.33,3.33,6.66,6.67,9.99,10c3.06,1.09,6.11,2.21,9.17,3.27c2,0.69,4.19,1.09,4.69,3.68
		c-1.19,4.7-3.65,8.69-6.79,12.34c-4.23,4.93-7.31,5-11.59,0.21c-0.62-0.69-1.62-1.03-2.45-1.54c0.33-2.91-2.2-4.82-2.71-7.32
		c-1.92-9.42-7.21-17.88-7.78-27.67c-0.08-1.32-0.64-2.91,1.12-3.32c1.81-0.42,2.04,1.2,2.34,2.51
		C201.62,397.11,202.67,399.87,204.97,401.98z"/>
	<path class="st15" d="M244.93,510.96c-3.5-2.08-7.16-10.67-6.38-14.42c1.5-7.2,3.22-14.53-4.61-19.57c1.73,0.31,3.47,0.62,5.2,0.93
		c2.39,3.99,3.19,8.34,3,12.92c-1.19,5.96-0.74,11.53,3.83,16.12l0-0.02c0.36,1.52,0.17,2.9-1.03,4.02L244.93,510.96z"/>
	<path class="st4" d="M82.24,114.12c6.1,6.14,5.9,7.05-3.86,14.29c4.87,0.25,8.77-0.43,12.66-1.36c5.21-2.53,11.54-0.51,13.2,4.2
		c-1.42,2.06-3.58,1.34-5.51,1.49c-4.79-2.64-9.66-2.79-14.79-0.85c-1.37,0.52-3.17,0.64-4.66,0.4c-5.08-0.82-9.28,0.22-12.21,4.75
		c-1.52-1.05-1.9-2.64-2.12-4.33c-0.11-0.83-0.4-1.77-1.49-1.5c-0.96,0.24-1.1,1.21-0.95,2.05c0.38,2.12,0.46,4.32,1.66,6.23
		c0.68,1.08,1.99,2.21,0.94,3.55c-1.17,1.5-2.69,0.75-4.05,0.01c-3.35-3.57-7.4-2.06-11.13-1.19c-2.35,0.55-4.39,2.3-6.69,3.2
		c-4.08,1.6-6.58,2.84-1.1,6.42c2.6,1.7,0.81,4.05-1.78,4.41c-3.39,0.47-4.28,2.66-4.83,5.43c-1.21,6.09-2.36,12.2-8.79,15.32
		c-0.94,0.46-1.4,1.44-1.14,2.54c0.32,1.39,1.49,1.72,2.68,1.78c4.97,0.28,6.17,3.2,6.25,7.73c0.07,3.84,0.26,7.88,2.56,11.32
		c-0.4,0.02-0.8,0.05-1.2,0.07c-3.56-5.7-9.71-9.32-12.15-16.06c-1.29-3.58-2.3-7.09-2.76-10.81c1.19-12.45,1.72-24.99,5.28-37.1
		c0.61-0.36,1.22-0.72,1.83-1.08c2.71-0.81,2.88,1.4,3.56,3c0.61,1.41,1.29,2.84,3.08,2.81c2.06-0.03,1.92-1.76,2.35-3.19
		c1.9-6.36,7.8-8.11,12.88-10.51c6.37-3.01,13.61-3.26,20.25-5.9c3.02-1.2,6.28-1.31,8.3-4.31c0.75-0.53,1.92-0.06,2.48-1.05
		c0.04-0.24,0.09-0.48,0.17-0.71C81.51,114.83,81.88,114.47,82.24,114.12z"/>
	<path class="st2" d="M79.07,117.1c1.13,4.31-0.52,6.48-5.16,5.77c-2.44-0.37-3.95,0.6-5.95,1.36c-5.17,1.96-10.49,3.68-15.9,4.8
		c-4.73,0.97-7.74,4.4-11.53,6.69c-1.54,0.93-1.31,2.61,0.01,3.84c2.85,2.64,0.76,3.11-1.5,3.59c-1.14,0.24-2.31,0.45-3.37,0.9
		c-3.84,1.61-5.54,0.07-6.08-3.76c-0.25-1.78-0.99-3.5-1.51-5.24c0.63-1.74,1.3-4.07,3.67-2.54c2.79,1.8,4.41,0.13,6.1-1.36
		c6.49-5.75,13.92-8.9,22.69-8.67c1.66,0.04,3.13-0.43,2.66-2.57c-0.57-2.61,1.26-2.62,2.92-2.9c0,0-0.04,0-0.04,0
		c2.82,2.27,5.85,1.4,8.88,0.6C76.3,117.26,77.53,115.9,79.07,117.1z"/>
	<path class="st34" d="M50.97,116.96c3.59-1.53,7.4-0.49,11.08-0.91C58.6,119.39,54.67,116.79,50.97,116.96z"/>
	<path class="st1" d="M213.96,292.02c-2.28,1.3-3.38,3.5-3.12,5.86c0.58,5.32-1.81,10.85,1.13,16.01c0.69,1.21,0.29,2.06-1.28,2.51
		c-6.57,1.88-13.28,1.36-19.98,1.65c-9.41,0.41-16.99-5.21-25.65-7.18c-1.24-0.28-2.26-1.34-2.87-2.96
		c1.88-1.48,3.71-0.54,5.54-0.07c3.35,0.86,5.71-0.27,6.17-3.8c0.35-2.72,2.3-4.35,3.51-6.48c2.34-4.14,1.1-6.73-3.58-7.39
		c-11.26-1.59-22.52,0.16-33.79-0.04c-2.03-0.04-3.57,0.97-3.88,3.14c-0.57,4.05-2.83,3.83-5.72,2.47c-2.1-0.99-4.27-1.82-6.42-2.71
		c-2.55-4.02-7.16-4.17-10.95-5.88c-1.79-0.81-3.78-1.11-5.43-2.26c-2.14-1.49-3.09-3.45-2.19-5.99c0.86-2.45,3.01-2.87,5.22-2.78
		c1.81,0.08,3.5,0.94,5.31,1.14c11.58,2.05,23.01,4.87,34.67,6.59c3.69,0.55,7.34,1.26,11.08,1.17c1.46-0.04,3.07,0.13,3.26-1.99
		c4.68-5.22,10.85-3.97,15.56-1.61c6.08,3.05,11.6,1.37,17.36,0.72c3.28-0.37,5.49-5.05,4.45-8.67c-0.39-1.37-1.71-2.61-0.65-4.16
		c0.43-0.62,1.15-0.55,1.8-0.28c2.15,0.88,2.07,2.67,2.01,4.58c-0.23,6.99,2.69,11.97,9.43,14.43
		C214.62,289.35,214.29,290.68,213.96,292.02z"/>
	<path class="st11" d="M215.95,288.01c-0.6-3.58,1.46-6.64,2-10c-1-2.8-1.89-5.58,1.98-6.99c-1.38,13.5,1.89,26.66,2.93,39.99
		c-1.38-1.01-2.64-1.44-3.6,0.56c-0.42,0.87-0.95,2.07-2.16,1.19c-0.53-0.38-1.01-1.6-0.79-2.15c2.35-5.78,1.24-11.2-1.02-16.75
		C214.64,292.26,215.68,289.98,215.95,288.01z"/>
	<path class="st1" d="M181.97,160.08c1.19-2.17,3.21-2.5,5.12-1.61c1.94,0.9,0.29,2.7,0.21,4c-0.24,3.57-0.46,7.23-2.96,10.22
		c-0.73,0.87-1.35,2.11-0.56,3.2c0.96,1.33,2.09,0.4,3.03-0.21c1.08-0.7,2.09-0.77,3.26-0.19c8.32,4.09,17.46,3.12,26.28,4.04
		c1.88,0.2,3.48,0.1,4.8,1.78c2.66,3.4,5.38,6.73,10.25,7.12c1.69,0.14,2.3,1.74,2.45,3.33c0.18,1.8,0.05,3.67,1.1,5.29
		c-1.67,5-3.33,10-5,15c-2.92,2.72-4.97,1.59-5.73-1.75c-0.86-3.79-2.76-7.6-0.79-11.66c0.61-1.25,0.49-2.8-0.55-3.75
		c-3.75-3.46-7.6-6.8-11.46-10.12c-0.71-0.61-1.75-1.35-2.66-0.46c-1.05,1.04-0.34,2.2,0.32,3.15c1.79,2.6,3.83,4.97,6.15,7.16
		c1.88,1.77,4.09,3.9,2.99,6.88c-0.97,2.64-3.58,3.2-6.14,3.53c-1.09,0.14-2.66-0.24-2.96,1.21c-0.31,1.47,1.32,1.67,2.25,2.24
		c1.54,0.94,2.12,2.1,0.96,3.69c-0.92,1.27-1.28,2.67-1.16,4.23c0.1,1.26-0.42,2.24-1.4,3.02c-1.74,1.4-13.4,1.33-15.36-0.14
		c0.64-1.98,5.08-0.69,3.83-4.03c-0.91-2.44-3.54-2.19-5.65-2.15c-3.94,0.08-7.52-1.02-11.02-2.72c-2.03-0.98-4.12-1.45-3.94,1.96
		c0.15,2.92-1.77,3.63-3.96,4.23c-3.1,0.86-3.54-1.6-4.41-3.52c-0.49-0.31-0.74-0.76-0.76-1.34c0.89-10.19,4.11-20.25,1.33-30.67
		c-1.05-3.94,2.47-6.17,4.51-8.87C178.98,169.47,179.77,164.33,181.97,160.08z"/>
	<path class="st1" d="M219.93,271.02c-0.66,2.33-1.32,4.66-1.98,6.99c-1.63-0.37-2.62-1.37-2.98-3c-2.1-3.41-1.74-6.84,0.02-10.23
		c1.18-2.28,1.72-4.51-0.01-6.77c-0.77-0.38-1.83-1.37-1.37-1.75c3.77-3.15,2.87-7.24,2.7-11.27c-0.03-0.62,0.91-1.28,1.4-1.92
		C220.45,252.23,219.77,261.66,219.93,271.02z"/>
	<path class="st4" d="M244.95,510.95c0.34-1.34,0.69-2.68,1.03-4.02c1.78,2.38,2.53,5.15,3.04,8.01
		C247.26,514.02,246.94,511.63,244.95,510.95z"/>
	<path class="st33" d="M111.03,37.09c-6.26,5.37-8.36,12.08-6.49,20.09c0.23,0.97,0.5,2.15-0.35,2.81
		c-1.48,1.13-1.87-0.58-2.64-1.28c-0.67-0.62-1.16-0.3-1.53,0.38c-3.53-2.21-0.5-4.85-0.49-7.3c0.39-5.33-1.32-10.98,2.45-15.78
		c0,0-0.03,0-0.03,0c3.85-0.63,5.58-5.65,10.1-4.91C115.68,33.37,115.56,34.03,111.03,37.09z"/>
	<path class="st6" d="M111.03,37.09c0.51-1.97,3.27-3.55,1.01-5.99c2.86,0.12,5.52-0.58,7.99-2c3.85,3.99,3.39,5.78-2.24,7.36
		C115.64,37.06,113.29,36.9,111.03,37.09z"/>
	<path class="st33" d="M147.01,25.08c-4.86,2.34-9.59,2.88-14-1C137.83,22.24,142.47,22.96,147.01,25.08z"/>
	<path class="st10" d="M100.02,66.08c1,1.33,2.01,2.66,3.01,4c1.97,1.04,1.99,2.9,1.99,4.75c0,3.32-0.04,6.59,1.8,9.64
		c1.24,2.06,0.16,3.39-2.08,2.89c-3.9-0.86-6.26,1.37-8.66,3.72c-0.05-0.38-0.1-0.76-0.15-1.15c1.32-1.66,1.95-3.56,1.95-5.68
		c1.42-4.1,0.38-8.09-0.59-12.07C96.6,69.39,96.61,67,100.02,66.08z"/>
	<path class="st49" d="M100.02,66.08c-1.81,1.68-1.06,3.42-0.39,5.39c1.54,4.49,2.31,9.01-1.76,12.79
		c-2.28-6.27-4.56-12.27-0.33-18.99c2.36-3.74-0.4-8.89,1.44-13.19c0.36-0.68,0.7-0.67,1.05,0.01c-0.48,2.33-1.56,4.66-0.03,6.99
		C100.01,61.41,100.01,63.75,100.02,66.08z"/>
	<path class="st18" d="M100.04,52.09c-0.35,0-0.7-0.01-1.05-0.01c0.22-5.5-1.78-11.41,2.98-16.07
		C99.71,41.17,99.97,46.64,100.04,52.09z"/>
	<path class="st4" d="M245.98,506.95c-6.32-5.09-7.06-8.16-3.83-16.12C242.84,496.34,243.63,501.83,245.98,506.95z"/>
	<path class="st9" d="M18.26,677.09c3.74-0.24,7.49-0.49,11.17,0.43c2.88,0.71,5.13,0.08,6.64-2.59c6.63,1.03,12.48,4.51,18.97,5.99
		c1,0.33,1.99,0.66,2.99,0.99c-1,0.01-2,0.02-2.99,0.04c-10.4,0.28-20.83-0.84-31.21,0.81C19.58,683.41,18.3,680.77,18.26,677.09z"
		/>
	<path class="st12" d="M213.96,238.04c-1.73-3.76-3.97-7.42-2.28-11.85c0.24-0.62,0.21-1.68,0.61-1.85
		c6.71-2.92,2.96-8.69,3.66-13.22c0.31-2.04-0.57-4.93,2.28-5.4c2.9-0.47,4.17,2.24,4.35,4.49c0.39,4.82,3.85,6.67,7.28,8.74
		c-0.78,1.38-1.62,2.6-3.49,1.51c-0.71-0.41-1.46-0.82-2.24-1.02c-1.56-0.41-2.98-0.11-3.93,1.33c-0.61,0.92-0.47,1.9,0.07,2.81
		c1.32,2.23,2.95-0.61,4.38,0.21c0.16,1.33-0.98,1.62-1.68,2.23c-1.32,0.34-2.64,0.68-3.97,1.02c-3.81,0.9-3.12,4.4-4.04,6.97
		C214.96,235.45,214.81,236.83,213.96,238.04z"/>
	<path class="st4" d="M96.06,91.11c5.06,7.5,1.43,13.12-3.72,18.71c-3,3.25-6.36,2.99-10.02,2.32c0.18-0.8,0.08-1.97,0.58-2.33
		C89.42,105.05,91.55,97.24,96.06,91.11z"/>
	<path class="st27" d="M214.96,234.03c-1.39-1.98-0.9-4.15-0.11-6.04c0.76-1.83,2.07-3.75,4.14-0.93
		C217.93,229.54,217.13,232.18,214.96,234.03z"/>
	<path class="st7" d="M79.07,117.1c-6.75,4.11-9.02,4.1-13-0.09c4.97-0.37,9.94-0.75,14.91-1.12
		C80.34,116.29,79.7,116.7,79.07,117.1z"/>
	<path class="st28" d="M24.13,667.92c1.31,1.01,2.62,2.02,3.93,3.02c0.88,1.68,2.97,3.88-1.39,3.4c-2.72-0.3-4.91,2.02-7.66,1.51
		C20.89,673.32,21.66,670.07,24.13,667.92z"/>
	<path class="st1" d="M174.98,224.06c0.94-3.5,3.17-3.8,4.59-0.88c2.31,4.74,7.14,3.87,10.66,5.15c3.92,1.43,0.81-2.96,1.92-4.39
		c2.21-0.53,3.72,0.83,5.29,2.02c2.09,1.58,2.39,3.12-0.08,4.62c-1.68,1.01-4.41,2.24-2.41,4.28c1.67,1.71,3.92,4.52,7.25,2.9
		c2.13-1.04,4.25-2.51,6.32-0.27c2.32,2.52,0.33,4.61-1.1,6.62c-1.08,1.51-0.59,2.55,0.45,3.95c3.96,5.3,1.71,11.85-3.94,14.76
		c-7.06,3.64-15.39,5.6-19.87,13.22c-0.54,0.92-1.72,1.53-2.58,0.95c-4.64-3.1-10.7-0.47-15.22-3.91c-1-0.76-2.29-0.92-3.28-0.14
		c-3.97,3.13-8.61,1.78-13,2.08c-1.15-2.37,0.56-3.82,2.19-4.08c5.66-0.92,10.77-3.46,16.14-5.02c5.39-1.56,11.24-2.6,17.1-2.24
		c2.65,0.17,5.31-0.28,7.88-0.95c4.3-1.1,4.63-2.35,1.67-5.7c-0.01-0.36-0.02-0.72-0.02-1.08c-1.14-3.91-3.37-6.93-6.73-9.33
		c-2.34-1.67-3.08-3.97-1.15-6.78c1.34-1.95,1.4-4.13-1.17-5.5c-1.35-1.18-3.02-1.64-4.66-1.34
		C175.71,233.99,173.4,228.61,174.98,224.06z"/>
	<path class="st9" d="M116.02,279.02c-1.65-0.16-3.31-0.29-4.96-0.48c-1.33-0.16-2.83-0.58-3.44,1.07
		c-0.66,1.77,0.54,2.91,1.96,3.54c4.57,2.01,9.22,3.8,13.77,5.85c1.93,0.87,4.72,1.99,0.66,4.02c-1,0-2,0-3,0
		c-3.82-0.91-7.3-2.76-10.99-4c-0.33,0-0.67,0-1,0c-11.98-3.86-23.26-9.19-33.8-16.07c-1.45-0.95-2.91-2.1-2.02-4.01
		c0.98-2.1,2.84-3.32,5.26-2.72c2.41,0.6,4.92,1.15,7.11,2.21c7.44,3.59,15.63,3.77,23.45,5.59c7.55,0.43,15.06,1.39,22.65,1.06
		c1.73-0.08,3.23,0.52,4.33,1.94c-0.46,2.5-2.17,3.2-4.4,2.86c-3.08-0.46-6.23-0.57-9.19-1.66
		C120.14,277.38,117.93,277,116.02,279.02z"/>
	<path class="st50" d="M97.95,257.99c-2.17,1.08-4.49,1.33-6.77,0.71c-5.16-1.39-10.4-1.7-15.71-1.83
		c-5.38-0.12-7.62-2.46-8.24-7.81c-0.45-2.19,1.17-3.08,2.41-4.43c1.46-1.59,3.23-3.18,3.47-5.61c-1.07-6.54,0.4-8.43,7.68-8.63
		c3.01-0.08,5.18-0.27,5.6-3.82c0.17-1.45,1.37-2.3,2.75-2.52c3.79-0.6,6.15-2.92,7.84-6.15c1.93,0.38,1.77-2.74,3.78-2.24
		c3.26,3.37,1.79,6.75,0.03,10.13c-0.66,0.8-1.67,1.17-2.35,1.93c-1.11,1.17-2.23,2.37-4.05,2.24c-2.05-0.15-2.73,1.32-3.36,2.84
		c-1.89,3.8-5.99,3.06-9.01,4.45c-0.07,0.54-0.23,1.05-0.2,1.6c-0.33,2.58-0.26,5.18-1.76,7.56c-1.58,2.5-0.33,3.15,2.36,3.52
		c4.5,0.61,9.11,0.84,13.44,2.47c1.62,1.03,3.44,1.05,5.28,1.16c2.11,0.13,3.75,0.86,2.91,3.53
		C101.89,256.61,99.67,255.57,97.95,257.99z"/>
	<path class="st40" d="M194.97,257.03c0.95-0.28,1.89-0.72,2.86-0.81c1.96-0.19,4.38-0.69,5.32,1.54c1.1,2.6-1.81,2.98-3.06,4.34
		c-3.99,4.31-9.29,4.06-14.32,4.08c-4.33,0.02-8.68-0.19-12.85,0.94c-1.13,0.31-6.43-2.8-3.44,3.01c0.39,0.76-2.2,0.73-3.45,0.89
		c-5.51,0.7-11.42-0.23-16.04,4.01c-0.16-0.04-0.33-0.06-0.48-0.11c-2.27-0.8-5.9-0.94-5.62-3.83c0.33-3.38,3.97-1.83,6.17-1.98
		c2.71-0.17,5.2-0.34,7.2-2.54c1.45-1.6,3.6-1.34,5.57-1.58c3.71-0.45,7.65-0.17,10.76-2.94c0.95-0.85,2.13-0.68,3.3-0.54
		c1.13,0.14,2.87,0.61,3.33,0.07C184.23,256.85,190.18,258.87,194.97,257.03z"/>
	<path class="st51" d="M104.03,257.11c-1.31-1.88-3.15-2.2-5.23-1.75c-1.53,0.33-2.96,0.45-3.76-1.3c-0.28-3.12,1.23-4.52,4.27-4.42
		c7.19,1.13,14.13,3.39,21.35,4.53c8.56,1.34,17,1.07,25.44-0.39c2.26-0.39,4.67,0.16,6.78-1.05c6.71-3.21,13.47-4.18,20.29-0.28
		c0.98,0.15,2.01,0.15,2.81,0.89c1.32,3.09-1.06,3.55-3.04,4.06c-1.52,0.39-3.21-0.06-4.66,0.85c-0.48,0.23-0.89,0.15-1.26-0.23
		c-3.8-0.93-7.47-0.48-11.24,0.54C138.41,263.3,121.12,263.26,104.03,257.11z"/>
	<path class="st52" d="M116.02,279.02c0.98-4.14,4.17-2.91,6.82-2.7c4.39,0.35,8.7,1.89,13.17,0.7c2.36,1.89,5.13,2.13,7.99,2
		c3.83,1.69,7.95,2.2,11.99,3c2.89,1.34,5.97,0.93,8.99,1c2.03,0.69,5.73-0.23,5.56,2.58c-0.14,2.2-3.68,1.45-5.72,1.37
		c-14.92-0.63-29.74-1.97-43.93-7.17C119.38,279.24,117.65,279.26,116.02,279.02z"/>
	<path class="st1" d="M109.03,274.02c-1.88,0.85-3.87,1.26-5.81,0.47c-6.46-2.62-13.79-2.22-19.98-5.84c-1.25-0.73-2.82-1-4.28-1.27
		c-1.79-0.32-3.43,0.19-4.04,2.06c-0.58,1.81,0.85,2.77,2.16,3.48c8.44,4.59,16.47,10,25.7,13.06c2.18,0.72,4.17,2.01,6.25,3.03
		c-3.08,0.01-5.87-1.02-8.6-2.31c-1.81-0.85-3.58-2.29-5.44-2.4c-8.79-0.56-13.73-8.27-21.28-11.08c-2.09-0.78-3.14-2.78-2.2-4.91
		c1.23-2.77,3.91-3.53,6.67-3.19c1.77,0.21,3.44,1.21,5.19,1.72c6.35,1.84,12.43,4.65,19.27,4.7
		C104.88,271.55,107.24,272.29,109.03,274.02z"/>
	<path class="st53" d="M167.02,258.01c0.33-0.01,0.66-0.01,1-0.02c5.91-1.18,11.32-4.78,17.4-3.74c-1.87-1.27-4.65,1.47-6.69-0.92
		c-1.07-3.56,4.83-2.55,3.89-5.81c-0.69-2.4-1.53-4.71-0.96-7.23c0.26-1.12,0.67-2.21,1.41-3.14c1.72-1.25,0.74-5.72,4.87-4.12
		c1.9,1.79,2.64,4.03,1.45,6.32c-1.66,3.2-0.78,5.2,2.07,7.07c3.41,2.23,4.67,5.49,3.48,9.52c-2.09,0.35-4.18,0.92-6.28,1
		c-4.89,0.19-9.77-0.19-14.53,1.73C171.95,259.57,169.28,259.49,167.02,258.01z"/>
	<path class="st18" d="M187.95,233.05c-2.63,1.16-1.5,4.24-3.02,5.97c-1.98-1.68-4.43-0.93-6.65-1.12c-3.51-0.3-5.95-1.66-6.85-5.22
		c-0.98-2.48-2.75-4.36-4.59-6.22c-1.6-1.61-3.28-3.23-2.83-5.85c2.11-1.85,0.4-6.6,4.98-6.57c-1.68,5.54,1.09,8.42,5.99,10.02
		c1.73,4.63,4.42,7.84,10,7.4C185.92,231.38,186.96,232.49,187.95,233.05z"/>
	<path class="st54" d="M214.96,258.03c3.52,0.84,2.56,3.97,2.4,5.94c-0.31,3.73-1.55,7.37-2.4,11.06c-0.6,0.54-1.27,1.03-1.79,1.64
		c-0.61,0.71-0.91,2.02-2.19,1.34c-1.01-0.54-0.89-1.68-0.76-2.66c0.61-4.7-0.84-9.93,3.89-13.57
		C214.89,261.17,214.7,259.3,214.96,258.03z"/>
	<path class="st1" d="M183.47,214.46c1.96,0.37,3.46,1.37,3.71,3.38c0.2,1.59-1.15,2.31-2.52,2.47c-2.13,0.25-2.83-1.37-3.18-3.02
		C181.16,215.77,181.92,214.79,183.47,214.46z"/>
	<path class="st55" d="M168.99,214.04c-2.36,1.77-1.07,5.63-4.05,7.05c-3-0.04-3.36-2.01-2.99-4.31c0.32-1.94,1.3-3.64,2.51-5.19
		c1.67-0.87,3.48-2.83,4.65,0.55c0.02,0.3,0.07,0.6,0.13,0.9C169.16,213.37,169.07,213.7,168.99,214.04z"/>
	<path class="st1" d="M156,282.02c-4.27,0.08-8.48-0.08-11.99-3C148.16,279.37,152.19,280.24,156,282.02z"/>
	<path class="st1" d="M193.97,274.62c0.91,0.25,1.41,0.87,1.32,1.77c-0.1,1.08-0.65,1.93-1.89,1.61c-0.91-0.24-1.16-1.11-1.06-1.97
		C192.45,275.12,192.96,274.55,193.97,274.62z"/>
	<path class="st1" d="M110.03,289.02c4.15-0.01,7.5,2.21,10.99,4C116.93,292.85,113.23,291.61,110.03,289.02z"/>
	<path class="st41" d="M92.06,207.02c-0.13,3.19-0.09,6.31,2.03,9.03c0.64,0.82,0.55,2.03-0.41,2.66c-1.03,0.67-1.26-0.58-1.88-1.02
		c-2.45-1.76-4.64-3.2-2.54-6.97c0.75-1.36,0.38-4.26-2.27-5.95c-1.2,7.72-6.73,6.9-12.08,6.38c-3.97-0.38-7.93-0.86-11.89-1.25
		c-4.11-0.4-7.43-1.6-7.94-6.49c-0.21-2.07-1.77-2.99-3.75-3.44c-4.07-0.92-5.77-4.19-5.81-7.75c-0.04-3.59,3.73-4.75,6.2-6.53
		c1.21-0.87,2.53-0.16,3.49,0.99c1.21,1.45,1.6,4.35,4.08,3.72c3.17-0.81,6.68-0.95,9.42-3.01c6.17-4.64,12.43-4.44,17.69,0.75
		c1.39-0.61,0.35-1.75,0.57-2.61c0.36-1.4,1.19-2.72,2.65-2.48c1.87,0.3,1.11,2.02,1.1,3.27c-0.03,6.93-0.26,13.87,1.38,20.68
		L92.06,207.02z"/>
	<path class="st41" d="M73.11,239.03c2.04,1.58,2.08,3.18,0.09,4.86c-2.01,1.7-3.99,3.45-5.98,5.17c-5.98,1.1-9.92-3.95-15.17-5.04
		c3.26-1.81,6.1-0.74,8.76,1.32c1.61,1.24,3.27,1.88,4.92,0.31c1.6-1.54,3.9-2.64,3.49-5.58c-1.44-10.29-0.29-11.92,9.71-14.34
		c0.24-0.06,0.4-0.43,0.95-1.05c-3.9-0.67-7.37-1.89-11.17-0.34c-1.97,0.8-4.17,1.24-6.3,1.43c-5.65,0.51-11.5-5.44-10.56-10.73
		c0.37-2.06,2.01-2.01,3.5-1.18c9.32,5.22,19.43,5.54,29.71,4.87c1.27-0.08,2.82-0.99,3.63,0.49c0.83,1.52-1.14,2.17-1.57,3.31
		c-1.92,5.11-5.33,6.9-10.9,6.87C71.47,229.37,70.04,234.7,73.11,239.03z"/>
	<path class="st56" d="M67.07,137.05c-0.57-5.06,0.74-6.88,5.72-6.89c5.68,0,11.31-0.38,16.87-1.5c3.26-0.65,5.85,0.65,8.36,2.41
		c1.91,1.12,3.75,2.26,1.53,4.71c-4.32,0.1-8.65-1.58-12.97,0.04c-0.43,0.17-0.86,0.32-1.29,0.49c-2,0.74-4.74-0.78-6.02,2
		c0.02,2.75,2.11,5.27,0.82,8.11c-0.15,0.44-0.39,0.83-0.69,1.19c-1.14,1.17-3.16,1.44-3.49,3.43c-0.4,1.59,2.19,2.36,1.16,4.11
		c-7.66-1.21-8.86-3.26-5.29-9.53c1.02-1.79,0.96-2.98-0.52-4.33C69.78,139.95,68.46,138.47,67.07,137.05z"/>
	<path class="st53" d="M100.05,215.98c0.04,2.61-0.76,4.82-3.45,6.75c0.14-1.85,0.26-3.33,0.38-4.81c-1.64-3.63-3.28-7.27-4.92-10.9
		c0,0,0.02,0,0.02,0c0.4-8.82-1.29-17.74,1.44-26.44c0.55-1.75-0.58-3.15-1.47-4.53c2.49-1.81,4.83,0.12,7.26,0.28
		c0.44,0.32,0.76,0.74,0.99,1.24c0.26,0.95,0.88,2.02,0.29,2.87c-3.88,5.59-2.66,11.94-2.86,18.08c0.2,4.76,1.5,9.3,2.88,13.82
		C100.9,213.62,101.35,214.93,100.05,215.98z"/>
	<path class="st57" d="M98.02,177.13c-0.68,1.84-1.51,3.22-3.23,0.81c-0.7-0.99-1.6-1.6-2.75-1.9c-2.72-2.18-5.51-4.27-8.13-6.56
		c-3.34-2.92-3.93-6.46-1.54-10.24c0.88-1.38,1.5-2.57,0.47-4.07c0.72-1.16,1.8-1.42,3.06-1.21c1.42,0.5,2.15,1.59,2.5,2.99
		c0.22,1.18-0.13,2.29-0.45,3.41c-0.85,2.89-0.23,5.13,2.53,6.77c2.43,1.44,4.14,3.82,6.34,5.56
		C98.35,173.93,98.62,175.39,98.02,177.13z"/>
	<path class="st41" d="M65.61,236.55c0.09,1.58-0.32,2.98-2.03,2.75c-3.08-0.43-4.25-2.92-4.75-5.58c-0.36-1.96,1.24-2.56,2.84-2.46
		C65.05,231.46,65,234.32,65.61,236.55z"/>
	<path class="st58" d="M86.02,155.05c-1.06,0.04-2.11,0.09-3.17,0.13c-1.93-0.11-3.87,1.1-5.78-0.05c-1.6-1.07-3.25-2.08-4.78-3.23
		c-0.68-0.51-0.85-1.46-0.26-2.16c0.75-0.89,1.41-0.1,2.06,0.31c3.3-0.28,6.55,0.37,9.81,0.64
		C86.56,150.9,87.78,152.39,86.02,155.05z"/>
	<path class="st59" d="M182.94,132.08c1.1,0.29,2.18,0.73,3.29,0.85c7.75,0.82,8.62,2.18,5.68,9.11c-0.65,0.36-1.29,0.72-1.94,1.07
		c-1.06,1.36-2,2.67-0.21,4.24c2.5,2.19,1.95,4.95,1.23,7.7c-0.99,0.34-1.97,0.68-2.96,1.02c-0.38,0.34-0.83,0.45-1.32,0.47
		c-6.23,0.31-6.23,0.31-5.25,6.52c0.1,0.66-0.05,1.28-0.54,1.78c-0.89,0.71-1.91,0.75-2.97,0.55c-2.9-0.81-4.37-3.16-5.88-5.46
		c-1.16-2.87,0.23-5.12,1.8-7.31c1.9-1.59,4.71-1.09,6.52-2.85c0.68-0.9,0.09-1.86,0.12-2.8c-0.01-1-0.26-2.09,0.09-2.98
		c1.29-3.32,0.15-5.1-3.02-6.58c-3.81-1.78-3.72-3.53-0.23-6.32c0.23,0.01,0.46,0.02,0.69,0.03
		C179.57,131.91,181.22,132.15,182.94,132.08z"/>
	<path class="st60" d="M180.97,164.06c-0.08-0.31-0.2-0.63-0.23-0.94c-0.19-2.32-3.66-3.99-2.43-5.93c1.49-2.34,4.79-0.81,7.28-1.11
		c0.8-0.1,1.62-0.01,2.43,0c-1.41,0.35-2.81,0.77-4.24,1.05c-1.75,0.33-2.82,0.99-1.82,2.96c1.25,5.7,0.58,10.72-4.98,13.99
		c-0.46-0.28-0.79-0.67-0.99-1.17C175.91,168.97,179.62,167.18,180.97,164.06z"/>
	<path class="st4" d="M196.97,148.05c-0.89-1.28-3.67-2.13-1.44-4.2c1.4-1.3,3.11-0.42,4.37,0.78c1.72,1.65,1.3,2.8-0.93,3.42
		C198.3,148.06,197.64,148.05,196.97,148.05z"/>
	<path class="st4" d="M201.6,155.75c-1.36-0.02-2.24-0.64-2.21-2.06c0.02-1.09,0.65-1.91,1.83-1.9c1.32,0.01,2.2,0.76,2.26,2.11
		C203.53,155.08,202.72,155.63,201.6,155.75z"/>
	<path class="st4" d="M190.99,155.05c0.05-2.78,0.08-5.49-2.14-7.71c-1.88-1.88-0.56-3.16,1.12-4.23c-0.58,2.16-0.05,3.86,2.01,4.94
		C191.88,150.42,192.34,152.87,190.99,155.05z"/>
	<path class="st52" d="M182.11,147.03c1.28,1.01,2.56,2.01,3.84,3.02c1.1,1.82,0.05,2.49-1.53,2.44c-1.97-0.07-3.92,0.71-5.88,0.13
		c-1.55,0.14-3.59-1.55-4.51,1.06c-0.62,1.75-2.91,3.52-0.17,5.4c1.41,1.66,2.82,3.32,4.23,4.98c2.1,2.88,0.1,4.54-1.95,5.95
		c-2.81,1.94-5.51,3.98-7.77,6.56c-0.76,0.89-1.69,1.46-2.86,1.72c-2.7,0.61-3.15,2.45-2.52,4.83c-0.74,2.14,0.27,4.85-2.08,6.47
		c-0.51,0.2-1.03,0.24-1.57,0.14c-0.5-0.16-0.92-0.45-1.27-0.84c-0.88-2.23-1.3-4.64-2.47-6.77c-0.86-1.54-1.11-3.51-3.01-4.33
		c-1.13-0.74-2.44-1.12-3.54-1.91c-1.38-1.45-2.07-3.11-0.88-4.92c1.05-1.6,2.71-1.73,4.44-1.27c4.55,1.21,8.02-0.78,11.15-3.77
		c3.7-3.53,3.59-4.11-1.2-6.33c-4.33-2.99-8.76-5.6-14.32-5.3c-1.62,0.08-3.25-0.24-4.81-0.76c-0.94-0.27-1.88-0.56-2.8-0.94
		c-4.1-1.67-5.98-0.59-5.03,3.5c1.18,5.08-0.71,11.02,3.95,15.19c3.16,3.82,7.01,7.13,8.68,12.01c0.6,1.33-1.11,2.62,0,3.94
		c2.99,6.31,1.54,9.12-5.14,10.09c-0.64,0.09-1.26,0.31-1.85,0.59c-0.86,0.45-1.81,0.67-2.68,1.07c-3.65,1.59-7.36,1.83-11.16,0.6
		c-1.89-0.47-3.72-1.12-5.63-1.53c-2.72-2.12-6.87,0.49-9.24-2.81c-0.71-1.31-0.68-2.65-0.18-4.01c0.95-4.4,3.28-7.32,8.1-7.57
		c2.21-1.12,4.23-2.52,6.11-4.17c4.58-4.02,4.98-3.97,10.18,0.4c-0.78-0.97-1.69-1.61-2.61-2.26c-1.09-0.76-2.47-0.91-3.49-1.78
		c-3.9-3.62-1.78-8.29-2.17-12.52c0.11,8.25-0.38,8.7-7.75,7.24c-3.88-3.25-4.53-7.33-2.1-12.94c0.75-1.3,1.85-2.37,2.57-3.66
		c1.51-2.71,2.11-5.67,0.37-8.47c-1.48-2.4-5.32-4-7.6-3.49c0.89,2.24,2.97,0.62,4.3,1.36c1.86,1.05,4.05,1.78,4.16,4.44
		c0.1,2.52-1.8,3.34-3.64,4.15c-2.15,0.94-4.47,1.24-6.75,1.68c-3.7,0.97-7.28,2.27-10.83,3.69c-4.87,1.95-5.3,3.93-1.49,7.36
		c0.99,0.89,2.17,1.53,3.23,2.32c2.83,2.09,5.91,2.7,9.3,1.58c0.54,0.05,1.05,0.19,1.54,0.41c2.37,2.1,2.14,4.4,0.56,6.81
		c-0.66,0.48-1.44,0.68-2.2,0.89c-2.56-0.02-2.42,2.83-4.02,3.83c-4.28,2.06-6.99-0.04-9.18-3.49c-0.32,0.01-0.63,0.03-0.95,0.06
		c-3.37-3.07-6.33-6.53-10.49-8.76c-4.22-2.26-4.12-4.95-0.23-10.17c1.16-4-1.12-7.32-2.57-10.58c-1.58-3.55-0.82-5.95,1.79-8.27
		c0.91-0.58,1.72-1.34,2.84-1.55c4.2,0.5,4.74,3.2,4.03,6.66c-0.51,2.02-0.46,3.91,1.24,5.43c0.25,0.22,0.52,0.39,0.83,0.51
		c-0.09-0.14-0.27-0.14-0.43-0.25c-0.61-0.44-1.06-0.96-1.31-1.64c-0.14-0.72-0.16-1.45-0.17-2.18c0.03-2.19,0.67-4.31-0.49-6.58
		c-1.06-2.08,0.04-3.73,2.52-4.11c1.9,0.45,3.65,0.33,5-1.33c1.07-1.17,2.38-2.09,3.44-3.26c-4.35-1.24-8.23-4.04-12.97-4.01
		c0-0.66,0-1.33,0-1.99c2.52-0.53,3.38-2.28,3.94-4.64c1.45-6.09,4.26-6.92,8.55-2.72c3.05,2.98,6.39,1.27,9.23,0.07
		c2.95-1.24,1.53-3.8,0.48-5.97c-2.93-6.06-1.59-11.72,2.21-16.81c2.08-2.79,4.54-5.28,5.83-8.61c1.05-2.71,3.21-3.85,5.95-3.44
		c4.76,0.7,9.9,0.07,13.09,5.42c1.84,3.09,5.86,2.65,9.18,2.64c6.47-0.02,7.51,1.07,9.13,7.24c1.38,5.25,1.86,10.53,6.29,15.19
		c2.95,3.11,4.82,7.97,8.05,11.51c2.21,2.42-0.15,5.96,1.83,8.51c0.8,3.67,4,3.5,6.66,4.07c1.54,0.33,3.27-0.33,4.8,0.69
		c-4.9,6.25-5.65,6.46-10.7,3.24c-0.41-0.27-0.82-0.53-1.24-0.79c-5.38-3.19-5.38-3.19-9.71,1.24c-0.91,0.93-2.07,1.57-2.95,2.52
		c-0.3,0.36-0.66,0.65-1.05,0.9c-1.02,0.6-2.85,0.22-2.89,2.02c-0.03,1.27,1.28,1.24,2.15,1.57c1.28,0.5,2.2,1.48,3.17,2.37
		c1.4,1.29,2.59,1.25,3.53-0.53c0.72-1.51,0.76-3.04,0.11-4.59c-1.08-1.96-2.04-4-0.15-5.94c2.34-2.4,4.61-0.33,6.88,0.31
		c0.74,0.25,1.33,0.7,1.74,1.36c0.56,1.43,0.5,3.56,3.14,2.48C180.83,143.33,181.2,145.61,182.11,147.03z"/>
	<path class="st43" d="M173.97,134.07c-2.22-6.21-6.42-11.23-9.93-16.68c-0.43-0.67-0.29-2.07-0.77-2.28
		c-7.95-3.39-5.22-11.3-7.16-17.14c-1.17-3.52-2.6-4.67-6.35-4.5c-5.11,0.22-10.4,0.84-13.5-5.57c-2.04-4.22-11.6-2.89-13.5,1.45
		c-1.11,2.54-3.02,4.34-4.79,6.32c-4.38,4.9-4.81,10.8-1.29,16.35c3.14,4.95,1.32,8.54-4.59,9.06c-0.83,0.07-1.82-0.09-2.45,0.3
		c-4.41,2.74-7.56,3.6-9.09-3.21c-0.58-2.58-2.51-0.1-3.02,1.26c-1.17,3.12-2.4,5.97-6.49,5.64c3.26-2.97-0.05-4.09-2.55-5.92
		c4.62-1.3,5.93-6.11,8.39-7.35c8.73-4.4,7.07-15.54,14.69-20.39c2.3-1.46,3.84-4.6,2.28-8.01c-0.87-1.91,0.32-3.52,1.33-5.07
		c1.66-2.55,2.93-5.23,2.82-8.38c-0.17-5.02-0.45-10.06,4.01-13.74c0.35-0.29,0.65-0.9,0.61-1.33c-0.82-10.04,7.96-8.84,13.44-11.4
		c1.63-0.76,3.52-0.11,4.27,1.61c2.26,5.17,7.28,7.63,10.9,11.45c0.34,0.36,1.14,0.69,1.11,0.94c-1.12,7.43,9,12.82,3.62,21.2
		c-2.1,3.28,1.04,11.05,4.45,13.09c1.86,1.11,3.71,2.21,5.57,3.31c2.97,2.8-1.74,4.51-0.99,6.99c0.55,2.75,0.95,5.55,3.74,7.16
		c0.73,0.42,1.35,1.2,1.54,1.98c1.34,5.54,5.34,8.92,9.53,12.25c2.03,1.61,3.15,3.64,0.18,5.6c-0.65,0.69-1.3,1.38-1.96,2.07
		c0,0,0-0.03,0-0.03C176.4,131.71,175.34,133.1,173.97,134.07z"/>
	<path class="st61" d="M179.98,129.06c0.66-2.02-0.65-3-2.02-4.04c-4.45-3.38-8.76-6.51-9.7-12.99c-0.47-3.22-3.97-5.98-3.27-9.97
		c5.08,5.62,7.93,13.65,17.23,14.7c2.23,0.25,5.92,3.19,5.5,5.29C187.03,125.54,184.69,129.1,179.98,129.06z"/>
	<path class="st14" d="M104.02,131.07c-0.02,2.05-0.86,3.5-2.96,4.02c-0.68,0.57-1.35,0.55-2.02-0.02c0.66-1.58-0.26-2.77-1.02-3.99
		C100.01,131.07,102.01,131.07,104.02,131.07z"/>
	<path class="st53" d="M176.98,173.04c0,0.34,0.01,0.69,0.01,1.03c-7.19,3.18-4.87,9.31-4.28,14.64c0.81,7.38-1.4,14.37-2.11,21.55
		c-0.07,0.66-0.97,1.24-1.49,1.86c-1.39-0.88-2.24,0.14-3.17,0.88c-1.89-1.19-1.86-2.85-1.37-4.79c2-7.97,2.19-16.04,1.25-24.16
		c3.3-3.49,3.28,0.17,4.12,1.52c-0.06-0.88-0.65-1.97-1.42-2.99c-1.68-2.24-1.97-4.59,0.32-6.44
		C171.15,174.3,172.84,170.32,176.98,173.04z"/>
	<path class="st61" d="M88.99,231.99c0.2-3.31,0.49-6.41,5.26-4.42c0.69,0.29,1.8-0.39,2.71-0.63c2.42,0.02,5-0.7,6.98,1.45
		c0.58,0.9,0.85,2.03,1.88,2.61c1.56,1.21,3.34,2.16,4.52,3.82c1.57,2.32,3.55,3.91,6.56,3.77c1.27-0.06,2.27,0.44,2.67,1.78
		c0.04,0.49-0.04,0.95-0.26,1.38c-2.59,1.16-0.75,5.43-4.18,6.01c-1.65-0.3-2.14,1.1-3.07,1.98c-3.43,3.22-8.72,2.05-11.28-2.39
		c1.45-1.49,2.35-3.19,2.06-5.35c0.19,2.14-0.44,3.94-2.14,5.32c-3.04-1.69-7.51-0.44-9.38-4.55c-0.36-1.72,1.43-2.41,1.86-3.82
		c0.58-1.87,1.59-3.61-0.85-4.86c-1.08-0.69-2.61,0.26-3.56-0.95C88.6,232.71,88.67,232.33,88.99,231.99z"/>
	<path class="st62" d="M103.04,229.91c-1.94-1.17-4.69-0.67-6.08-2.96c0.31-0.65,0.62-1.3,0.92-1.95c2.4-2.24,4.18-4.77,3.87-8.28
		c2.74-3,3.8-7.88,9.04-8.05c1.66-0.05,3.69,0.71,3.2,2.21c-1.33,4.11,0.73,7.54,1.37,11.24c-0.9,2.18-2.78,3.7-3.9,5.73
		C108.55,228.11,106.72,232.83,103.04,229.91z"/>
	<path class="st12" d="M99.08,250.88c-1.35,1.06-2.69,2.12-4.04,3.18c-7.26-1.03-14.37-3.11-22.54-2.32
		c2.82-4.81,10.06-7.1,5.49-13.69c3.13-1.33,4.29,0.4,4.54,3.12c0.15,1.62-0.13,3.24-0.51,4.87c-0.35,1.54,0.6,1.05,1.3,0.36
		c1.39-0.84,2.91-1.45,3.86-2.88c0.46-0.31,0.96-0.47,1.51-0.51c2.93,0.77,5.29,2.85,8.4,3.38
		C99.3,246.76,100.37,248.51,99.08,250.88z"/>
	<path class="st63" d="M84.11,246.97c1.17,1.05,2.33,2.11,3.87,3.5c-4.02,1.13-7.2-0.36-11-0.95c2.34-3.91,7.06-7.47,1.01-11.47
		c-0.33-0.33-0.66-0.67-0.99-1c1.07-4.75,4.49-1.59,6.71-1.73c2.13-0.13,2.62,1.75,2.08,3.9c-0.53,2.09,0.04,4.36-0.63,6.48
		C84.82,246.14,84.47,246.56,84.11,246.97z"/>
	<path class="st64" d="M84.01,246.06c-1-1.56-0.25-3.15-0.15-4.75c0.1-1.66,1.53-3.82-0.64-4.86c-1.98-0.95-4.37-1.78-6.22,0.6
		c-0.25-4.43,3.2-2.82,5.14-2.82c2.64,0,5.24,0.63,6.85-2.24c0.03,0.35,0.06,0.69,0.09,1.04c3.15,4-0.28,7.37-1.04,11
		c0,0.34,0,0.67,0,1.01C86.92,246.28,85.23,245.25,84.01,246.06z"/>
	<path class="st42" d="M102.03,217.02c0.26,3.52-0.84,6.32-4.15,7.98c0.98-2.94,4.58-5.26,2.17-9.02c-0.35-0.96-0.71-1.93-1.06-2.89
		c-0.69-3.26-1.69-6.55,1.04-9.43c4.31-1.14,7.35,1.5,6.11,5.52C105.28,212.01,103.96,214.7,102.03,217.02z"/>
	<path class="st44" d="M172.92,232.03c1.24,3.15,3.4,4,6.7,3.23c2.84-0.67,5.42-0.16,5.31,3.75c-2.95,2.67-2.06,5.14,0.23,7.73
		c1.24,1.41,4.08,2.5,3.14,4.49c-0.85,1.82-3.64,0.49-5.53,0.86c-1.29,0.25-2.55,0.6-3.83,0.91c-0.66,1.29-1.75,1.31-2.95,1.02
		c-0.99,0.01-1.97,0.03-2.96,0.04c-2.22,0.8-4.12,1.22-4.46-2.17c-0.38-3.78,2.39-3.12,4.5-3.44c0.48-0.02,0.99-0.07,1.45,0.1
		c5.27,1.85,5.8,1.4,5-4.22c-0.09-0.64-0.09-1.3-0.18-1.93c-0.18-0.58-0.51-0.99-1.17-1.07c-2.27-0.02-4.02,0.87-5.6,2.5
		c-1.55,1.6-3.4,2.69-5.4,0.47c-0.73-0.79-1.31-1.69-2.13-2.73c0.86,1.34,2.08,2.15,2.26,3.62c-0.62,2.14-2.44,3.09-4.21,3.82
		c-14.32,5.93-29.15,7.44-44.42,4.93c-1.65-0.27-2.82-0.9-3.12-2.65c2.47-2.96,0.95-7.26,3.45-10.21l0.01-0.11
		c1.97-1.64,4.34-1.5,6.66-1.45c5.48,0.11,10.98-0.29,16.45,0.2c1.74,0.45,0.99,2.62,2.29,3.38c-0.91-0.89-1.03-1.89-0.39-2.99
		c3.73-2.24,7.86-2.79,12.08-2.93c0.26,0.18,0.48,0.39,0.7,0.62c0.35,0.37,0.43,0.84,0.53,1.3c-0.05-0.41-0.19-0.79-0.37-1.16
		c-1.29-1.69-2.94-0.94-4.46-0.58c-1.76,0.43-3.24,0.43-3.95-1.61c1.14-4.13,5.15-3.48,7.99-4.65c1.41-0.58,3.16-0.38,4.56-1.29
		c0.46-0.14,0.95-0.22,1.43-0.25c3.22-0.07,6.19,1.35,9.36,1.6C172.24,231.43,172.6,231.71,172.92,232.03z"/>
	<path class="st0" d="M166.99,244.03c1.51-0.1,3.34-0.34,3.85-1.71c1.35-3.68,3.9-4.08,7.14-3.3c1.47,0.91,1.56,2.27,1.25,3.77
		c-2.43,3.42-5.63,5.15-9.78,6.41c-5.14,1.56-10.18,3.57-15.44,4.86c-15.36,4.74-30.71,3.59-46.02-0.25
		c-3.02-0.76-5.95-1.93-8.92-2.91c-0.68-2.36-2.66-2.71-4.67-3.07c-2.59-0.46-4.31-2.4-6.37-3.78c-2.23-3.91,1.78-7.23,1.04-11
		c1.04-0.94,0.9-3.14,2.89-2.96c0.93,0.08,0.94,1.21,1.09,2.01c2.7,3.61-0.16,6.66-1.01,9.92c2.65,2.31,7.17,1.23,9.04,4.97l0,0
		c1.8,0.78,3.53,1.85,5.41,2.27c2.05,0.46,4.21,0.01,4-2.8c-0.13-1.82-1.9-4.27,1.44-4.44c3.34-0.16,2.94,2.82,3.1,5.07
		c1.67,1,1.47,2.45,0.97,3.97c9.87,2.46,19.73,1.88,29.77,0.72C153.64,250.85,160.74,248.87,166.99,244.03L166.99,244.03z"/>
	<path class="st2" d="M154.01,254.05c8.27-3.1,16.56-6.14,23.99-11.06c0.55,0.35,0.97,0.82,1.24,1.41c0.95,5.11-0.25,6.4-5.24,5.64
		c-1.6,0.25-3.96-0.7-4.32,1.76c-0.34,2.34,1.81,2.11,3.35,2.26c-1.02,0.6-2.63,1.36-3.2,0.6c-3.71-4.96-7.86-1.69-11.89-0.94
		C156.65,253.95,155.32,253.94,154.01,254.05z"/>
	<path class="st65" d="M175.98,254.02c0.98-0.34,1.97-0.68,2.95-1.02c4.6-0.35,9.15,1.09,13.96,0.07
		c-1.38,1.63-18.14,4.81-24.88,4.93c-0.16-2.03,1.36-1.9,2.62-1.96C172.65,255.93,174.49,255.44,175.98,254.02z"/>
	<path class="st12" d="M172.92,232.03c-0.32,0-0.64,0-0.96,0c-3.98-0.84-7.81-2.41-9.45-6.26c-2.22-5.2-4.62-8.97-10.98-5.66
		c-0.46-0.2-0.85-0.49-1.18-0.87c-0.03-2.43-1.94-3.79-3.18-5.53c-0.36-1.88-0.59-3.76,0.4-5.53c0.26-0.43,0.6-0.8,1-1.11
		c2.99-0.59,6.83,0.26,7.43-4.4c0.92-3.2,1.64-6.41,1.16-9.76c-0.2-1.41,0.15-2.61,1.19-3.59c0.24-0.11,0.48-0.22,0.71-0.33
		c0.31,0.02,0.62,0.04,0.94,0.06c0.75,0.55,1.72-0.06,2.46,0.47c0.61,0.49,1,1.09,0.93,1.89c0-0.03,0.02-0.14,0.03-0.18
		c0.52-1.93-0.97-2.95-1.81-4.25c-0.48-1.61,1.36-3.5-0.6-4.93c-1.41-5.15,3.1-5.37,5.87-7.03c1.28,2.68,0.61,5.36,0.02,8.04
		c2.32,10.08,0.6,20.02-0.95,29.98c-0.94,2.61-4.14,4.95-1,8.07c1.2,2.33,2.57,4.54,5.04,5.75
		C172.16,227.9,172.83,229.79,172.92,232.03z"/>
	<path class="st8" d="M87.99,141.02c-2.07,2.25-2.25,4.47-1.35,7.58c0.85,2.95,4.16,6.21,0.65,9.6c-0.43-1.05-0.85-2.1-1.28-3.15
		c-0.19-2.65-1.99-2.98-4.14-3c-2.75-0.02-5.6,0.21-7.8-2c0.82-1.82,1.71-3.58,3.92-4.06l-0.02,0.03c1.69-3.68-1.22-5.58-3.06-7.89
		c0.12-0.19,0.23-0.38,0.35-0.58c3.05-1.44,4.79,1.65,7.29,2.12C84.11,141.13,86.65,138.67,87.99,141.02z"/>
	<path class="st44" d="M90.99,145.02c0.55-2.36,1.75-4.93-1.91-5.94c-1.07-0.17-2.23-0.1-3.03-1.06c-0.64-0.89-1.63-1.56-1.64-2.82
		c0.08-0.45,0.3-0.83,0.63-1.15c0.31-0.03,0.62-0.04,0.94-0.03c2-0.74,4.15-0.92,6.18-0.8c2.1,0.13,4.26,0.87,3.87,3.84
		c-1.5,0.87-2.08,2.08-0.08,2.7c6.13,1.92,2.71,3.43-0.08,5.11c-0.38,0.23-0.57,0.78-0.85,1.18
		C93.35,146.99,92.04,146.53,90.99,145.02z"/>
	<path class="st10" d="M96.03,137.07c-2.43-4.05-6.49-2.73-10.06-3.04c4.62-3.03,8.85-1.19,13.06,1.03
		c0.67,0.01,1.34,0.02,2.02,0.02C99.64,136.4,97.95,137.02,96.03,137.07z"/>
	<path class="st10" d="M85.04,134.06c0,0.32-0.01,0.65-0.01,0.97c-1.17,2.6-3.31,2.88-5.85,2.7c-1.3-0.09-2.77-1-4.01,0.27
		c0,0-0.25,0.13-0.25,0.13c-0.92-0.79-2.68-1.18-2.05-2.83c0.54-1.41,1.98-0.77,3.02-0.55C79.01,135.4,81.97,134.01,85.04,134.06z"
		/>
	<path class="st41" d="M98.97,177.07c2.4-0.81,4.96-2.17,5.88,1.88c0.04,0.19,1.43,0.08,2.19,0.11c4.13,2.67,9.19,4.82,6.41,11.39
		c-2.74,3.38-6.2,0-9.12,1.01c0.08,2.32,0.24,4.6,0.21,6.9c-0.03,2.28-0.9,3.75-3.3,4.02c-3.83,2.18-4.97,0.18-5.14-3.32
		C95.45,191.52,96.21,184.16,98.97,177.07z"/>
	<path class="st4" d="M96.09,199.06c0.86-0.46,0.3,4.72,2.18,0.51c1.22-2.74,2.22-1.98,2.77,0.45c0.22,1.35,0.7,2.69,0.01,4.04
		c-1.27,2.87-2.37,5.79-2.06,9.03C97.12,208.6,95.94,203.97,96.09,199.06z"/>
	<path class="st56" d="M166.89,183.04c-1.96-2.67-2-5.35-0.02-8.04c2.24-2.79,4.65-5.38,7.98-6.94c1.7-0.8,2.81-2.14,3.25-4
		c0.96,0,1.92,0,2.88,0c0.65,3.88-1.87,6.34-4,8.98c-1.79,1.2-3.56,2.41-5.36,3.59c-2.32,1.52-2.76,3.4-1.65,5.99
		c1.51,3.54,1.44,7.22,0.06,12.15C168.19,190.22,170.1,185.86,166.89,183.04z"/>
	<path class="st61" d="M173.97,134.07c0.52-2.13,2.01-2.93,4.06-2.97c-2.59,3.17-1.13,4.74,2.22,5.43c1.46,0.3,2.96,0.35,4.44,0.52
		c0.82,0.1,1.74,0.11,2.14,0.97c0.56,1.19-0.34,1.93-1.13,2.45c-2.37,1.58-4.02,3.48-3.6,6.56c-0.72-0.3-1.89-1.06-2.1-0.85
		c-5.33,5.28-5.42,0.6-6.03-3.12c1.16-1.09,0.88-2.9,2-4.01c2.83,0.54,5.81,5.88,8.51-0.43
		C180.97,137.14,175.87,139.12,173.97,134.07z"/>
	<path class="st12" d="M173.86,159.08c-3.14-2.47-1.18-5.18-0.02-7.52c0.84-1.71,2.22-0.6,3.15,0.49c-0.46,0.74-1.49,0.34-1.98,1.01
		C174.51,155.04,172.66,156.77,173.86,159.08z"/>
	<path class="st60" d="M175,153.06c0.66-0.34,1.32-0.67,1.98-1.01c3.04-0.42,6.62,1.56,8.96-2c1.18,2.44-0.56,2.64-2.25,3.03
		C180.78,153.77,177.9,153.23,175,153.06z"/>
	<path class="st59" d="M101.07,169c-1.77-1.48-3.56-2.92-5.29-4.44c-3.95-3.45-3.57-6.38,1.35-8.43c4.55-1.89,9.26-3.39,13.9-5.06
		c2.84-0.83,5.82-0.7,8.7-1.44c3.07-0.79,4.3,0.59,3.34,3.8c-0.66,2.2-0.58,4.66-2.44,6.4c-3.86,3.81-10.08,3.76-13.56,8.51
		C106.12,169.62,103.46,172.63,101.07,169z"/>
	<path class="st12" d="M150.02,208.03c-0.34,0-0.68,0-1.02,0.01c-1.08,0.64-2.21,0.14-2.45-0.7c-0.87-3.08-3.84-4.24-5.57-6.51
		c-0.8-1.47,0.36-3.31-0.92-4.69c1.18-1.09,2.49-2.96,4.05-2.19c5.21,2.57,3.54-1.49,3.7-3.65c0.05-0.73-0.51-1.51-0.8-2.27
		c-1.25-1.1,0.14-2.86-1-3.99c-1.35-4.82-3.71-8.72-8.98-10.02c-0.34-0.37-0.45-0.79-0.31-1.28c2.22-2.98,4.63-1.42,7.09-0.3
		c-2.48-1.68-6.34-2.13-5.7-6.47c0.18-0.76,0.5-1.49,0.62-2.25c-0.16-0.35-0.19-0.71-0.25-1.07c-0.33-1.91-2.19-3.77-0.23-5.75
		c2.8-2.08,5.12,0.35,7.66,0.79c1.57,1.97,5,1.78,5.64,4.83c0.01,0.66-0.41,1.14-0.76,1.64c0.41-0.27,0.76-0.62,1.16-0.94
		c1.55-0.8,2.76,0.11,3.86,0.91c2.08,1.53,3.51,3.73,6.82,1.33c3.45-2.5,1.44-4.67,0.74-7.12c0.09-0.49,0.31-0.91,0.63-1.29
		c2.24,0.14,4.28,0.76,5.65,2.67c1.66,2.31,2.39,4.34-1.14,5.84c-3.95,1.67-6.55,5.73-11.07,6.46c-1.77,0.29-3.5,0.99-5.38,0.3
		c-3.57-1.33-2.66,0.84-2.04,2.72c1,1.64,2.88-0.2,3.99,1.01c1.02,1.65,2.64,2.94,3.01,4.99c1.22,2.17-0.28,5.12,1.99,7
		c0.02,0.31,0.04,0.63,0.06,0.94c0,0-0.16,0.15-0.16,0.15c-0.35,0.35-0.64,0.83-1.06,1.01c-6.28,2.75-7.14,7.87-6.09,13.84
		C151.41,205.43,150.88,206.81,150.02,208.03z"/>
	<path class="st57" d="M104.02,190.04c2.97-3.92,5.99,0.7,8.98-0.06c0.91-0.22,1.34,0.06,1.11,1.05c0,1.33,0,2.66,0.01,3.98
		c2.92,3.52,1.95,7.46,1.15,11.33c-0.48,2.32-2.4,2.94-4.47,3.21c-3.41,0.18-6.63-2.4-7.08-6.78
		C103.29,198.59,102.95,194.26,104.02,190.04z"/>
	<path class="st66" d="M123.02,196.06c1.68,0.64,3.36,1.27,5.04,1.91c3.23-0.28,2.67,3.35,4.59,4.38c0.81-0.05,1.6-0.18,2.4-0.04
		c1.09,0.32,1.84,0.99,2.21,2.07c0.87,5.95-0.23,11.86-0.5,17.77c-0.11,2.5-0.99,5.23-4.3,4.95c-3.13-0.26-5.63-1.5-5.95-5.36
		c-0.48-5.86-0.1-11.9-3.14-17.3c-1.24-2.15-4.75-2.65-4.37-5.98C119.58,196.4,121.21,196.07,123.02,196.06z"/>
	<path class="st67" d="M145.99,159.11c-2.66-0.37-5.32-0.74-7.99-1.11c-3.13-0.45-4.02-2.89-3.79-5.34c0.27-2.88,3.1-2.31,5.08-2.53
		c1.61-0.18,3.24,0.12,4.72,0.94c6.99,0.9,13.62,2.97,19.97,5.99c0.01,0.33,0.01,0.66,0.02,0.99c-1.63,2.58-3.5,1.18-5.33,0.47
		c0.59,0.2,1.04,0.8,1.77,0.9c1.82,0.25,3.2,1.04,3.35,3.04c0.13,1.67-0.77,2.84-2.19,3.61c-1.85,1.01-3.54,0.28-4.82-0.94
		C153.7,162.15,150.42,159.64,145.99,159.11z"/>
	<path class="st54" d="M101.07,169c1.73,0.94,3.36,0.54,4.31-0.98c3.38-5.44,9.16-6.33,14.54-8.01c0.41-0.5,0.79-0.48,1.14,0.06
		c-0.38,0.31-0.77,0.62-1.15,0.94c2.76,2.31,0.05,5.43,1.18,7.98c-0.04,0.22-0.09,0.44-0.13,0.67c-2.99,2.09-3.17,5.85-5.09,8.58
		c-0.45,0.26-0.92,0.37-1.43,0.36c-1.71-0.69-2.62-1.7-1.41-3.54c1.14-1.96,1.36-3.74-1-5c-0.37-0.56,0.06,0.21-0.29-0.37
		c0.1,0.12,0.19,0.24,0.29,0.37C109.23,172.81,103.37,172.25,101.07,169z"/>
	<path class="st1" d="M144.01,151.07c-0.82,0-1.65-0.06-2.46,0.02c-2.03,0.21-4.65-0.91-5.86,1.39c-1.26,2.38,1.39,3.72,2.32,5.52
		c1.16,1.21,3.85,1.28,2.99,4.01c0.28,1.03,1.3,1.8,1.02,3.02c-1.01,0.34-2.02,0.69-3.03,1.03c-1.88,1.95-0.1,4.94-1.94,6.9
		c0,0.35-0.01,0.7-0.01,1.05c-1.3-0.8-2.93-1.93-2.64-3.34c0.97-4.7-2.78-8.97-1.01-13.66c0.37-0.99,0.11-2.05-0.59-2.79
		c-3.53-3.78-1.44-4.37,2.33-4.52C138.22,149.59,141.38,148.37,144.01,151.07z"/>
	<path class="st45" d="M121.06,160.06c-0.38-0.02-0.76-0.04-1.14-0.06c0.24-0.43,0.51-0.85,0.71-1.3c3.24-7.25,2.41-8.48-5.16-7.74
		c-1.47,0.14-2.96,0.08-4.44,0.11c3.16-0.82,6.33-1.65,9.91-2.58c-1.65-2.4-3.35-3.36-5.93-2.21c-1.54,0.69-3.16,0.68-3.6-1.25
		c-0.59-2.57-1.18-5.49,0.47-7.68c1.28-1.7,2.55,0.51,3.69,1.19C124.52,143.88,126.62,152.21,121.06,160.06z"/>
	<path class="st54" d="M114.11,191.03c-0.37-0.35-0.74-0.7-1.11-1.05c-1.03-2.74-0.72-6.25-5.05-6.86c-2.48-0.35-0.98-2.6-0.92-4.07
		c1.04-1.61,1.36-3.94,3.97-4c1.82,0.36,1.01,4.15,3.95,3.03l0.11-0.06c2.01-0.89,3.19-3.86,6.12-2.48
		c0.37,0.28,0.65,0.64,0.85,1.06c0.77,1.84-2.02,3.44-0.34,5.34c0.42,1,0.07,2.09,0.33,3.11
		C118.7,186.13,115.29,187.11,114.11,191.03z"/>
	<path class="st12" d="M123.02,196.06c-1.05,0.67-2.11,1.34-3.16,2.01c-1.56,6.83-3.45,13.64-0.42,20.58
		c0.99,2.27,1.12,4.49-1.51,5.93c-2.03,0.25-3.28-0.71-3.94-2.57c-2.86-2.39-4.42-4.97-1.93-8.66c0.74-1.1,0.55-2.57-1.02-3.3
		c-0.36-0.22-0.49-0.44-0.37-0.67c0.12-0.22,0.24-0.34,0.36-0.34c3.5-1.98,3.01-5.49,3.22-8.67c0.12-1.78-0.08-3.57-0.14-5.36
		C116.96,196.4,120.25,194.07,123.02,196.06z"/>
	<path class="st33" d="M122.02,185.05c-0.98-0.36-1.65-1.04-2.01-2.02c1-5.03,4.11-7.97,9.03-9.1c1.11,0.04,2.14,0.33,2.99,1.09
		c3.02,2.03,6.59,3.21,9.21,5.86c0.88,0.9,2.55,1.89,1.6,3.23c-1.09,1.53-2.7,0.32-4.03-0.28c-0.15-0.07-0.33-0.14-0.41-0.27
		c-5.12-8-9.91-3.43-14.73,0.38C123.15,184.35,122.57,184.68,122.02,185.05z"/>
	<path class="st54" d="M132.04,175.02c-1.01,0.01-2.02,0.01-3.04,0.02c-1.9-0.5-3.7-0.86-5.08,1.18c-0.64,0.96-1.64,1.61-2.91,0.82
		c-0.02-0.37-0.04-0.74-0.06-1.11c-3.48-2.27-1.45-4.53,0-6.79c0,0,0.13-0.16,0.13-0.16c5.71,0.71,5.82,0.45,5.67-5.34
		c-0.07-2.61-1.19-7.31,1.29-7.38c3.24-0.1,1.18,4.35,1.68,6.72C130.58,166.96,129.39,171.34,132.04,175.02z"/>
	<path class="st37" d="M172.97,142.07c-1.78,0.03-3.64-2.38-5.25-0.3c-1.19,1.54,0.58,2.91,1.26,4.28c-5.01,2.71-6.56,2.2-9-3
		c1.07-1.01,2.14-2.02,3.2-3.04c4.93-4.7,6.1-4.8,11.81-0.97C175.01,140.51,173.82,141.18,172.97,142.07z"/>
	<path class="st10" d="M159.99,143.05c2.87,1.38,5.4,3.8,9,3c3.16,2.84,1.79,5-1.04,6.94c-2-1.53-3.98-0.02-5.96,0.06
		c-1-0.67-1.99-1.34-2.99-2.01C156.73,148.06,156.71,145.35,159.99,143.05L159.99,143.05z"/>
	<path class="st7" d="M108.66,144.74c0.03,1.55-0.27,3.17-1.64,2.75c-3.59-1.11-2.76-4.78-3.6-7.43c-0.36-1.16,0.2-2.78,1.6-2.39
		C108.78,138.71,107.43,142.58,108.66,144.74z"/>
	<path class="st2" d="M90.99,145.02c1.59-0.59,2.81,0.24,4.04,1.04c0.02,0.65,0.05,1.3,0.07,1.94c0.04,0.61,0.37,0.94,0.98,0.99
		c1.13-0.18,2.26-0.35,3.39-0.54c1.06-0.17,2.04-2.54,3.09-0.42c0.67,1.35-0.73,2.36-1.81,3.15c-2.26,1.66-4.82,2.69-7.34,1.06
		C90.9,150.62,89.64,148.15,90.99,145.02z"/>
	<path class="st68" d="M136.11,204.09c-0.72-0.34-1.45-0.69-2.17-1.03c-0.95,0.16-1.42-0.39-1.73-1.18c0.11-3.8,3.03-4.24,5.81-4.84
		c0.68-0.3,1.37-0.61,2.05-0.91c3.25,0,4.71,0.86,1.86,3.83c-0.54,2.51-2.46,3.66-4.57,4.62
		C136.88,204.55,136.47,204.4,136.11,204.09z"/>
	<path class="st42" d="M158.99,188.04c-2.22-1.57-6.04,1.63-7.08-1.43c-1.22-3.6,4.25-2.82,5.09-5.57
		C159.44,182.87,158.9,185.55,158.99,188.04z"/>
	<path class="st1" d="M159.99,143.05c-1.19,2.56-0.98,5.29-0.99,8c-2.01-1.22-6.04-0.66-5.86-3.48
		C153.34,144.32,157.58,144.49,159.99,143.05z"/>
	<path class="st49" d="M161.99,153.06c0.66-0.75,1.29-1.53,1.98-2.24c1.25-1.28,1.51-4.51,4.21-3.05c2.72,1.47-0.16,3.45-0.23,5.23
		C165.97,154.05,163.99,154.41,161.99,153.06z"/>
	<path class="st39" d="M138.01,197.04c-2.04,1.27-4.55,2.09-4.94,5c-1.1,2-0.53,4.01-0.02,6.01c-3.31,2.28-2.77-0.8-2.98-2.3
		c-0.38-2.69,0.69-5.71-2.02-7.79C131.52,199.19,134.55,195.77,138.01,197.04z"/>
	<path class="st69" d="M87,137.02c1.01,0.37,1.71,1.05,2.08,2.06c-0.36,0.65-0.73,1.29-1.09,1.93c-1.99,0.3-3.96,2.95-5.96,0.03
		C81.08,136.49,83.87,136.54,87,137.02z"/>
	<path class="st70" d="M172.97,142.07c-1.74-2.63-0.21-3.06,2.03-3.03c0.33,0.01,0.65,0.02,0.98,0.02c0.19,0.27,0.4,0.52,0.56,0.81
		c0.67,1.2,2.67,2.22,1.48,3.72c-1.17,1.47-2.63-0.55-4.03-0.52C173.64,142.74,173.31,142.4,172.97,142.07z"/>
	<path class="st53" d="M96.08,148.99c0.49,0.76,2.14,1.07,1.39,2.23c-0.73,1.13-2.12,0.75-3.14,0.13c-1.31-0.81-2.58-2-1.79-3.61
		c0.6-1.23,1.69,0,2.56,0.26C95.42,148.33,95.75,148.66,96.08,148.99z"/>
	<path class="st42" d="M154,176.06c-0.28,0.17-0.58,0.31-0.83,0.51c-1.29,1.01,0.01,4.6-2.72,3.67c-2.57-0.87-0.48-3.4-0.44-5.19
		C151.42,175.06,152.79,175.2,154,176.06z"/>
	<path class="st42" d="M161,182.03c1.11-0.06,2.54-0.71,3.18,0.53c1.14,2.24-1.94,2.74-2.17,4.5c0.89,1,0.85,1.99-0.04,2.97
		c-0.66-0.33-1.31-0.66-1.97-0.99C161.36,186.85,160.89,184.4,161,182.03z"/>
	<path class="st40" d="M114.96,178.08c-0.21,1.11-0.25,2.43-1.85,2.34c-1.14-0.07-1.62-0.95-1.75-2c-0.14-1.12-0.24-2.24-0.35-3.37
		c0.67,0,1.34-0.01,2.01-0.01C113.26,176.32,113.94,177.31,114.96,178.08z"/>
	<path class="st42" d="M146.01,184.04c0.83,1.21,0.99,2.58,1,3.99c-1.28,1.08-2,3.17-4.73,2.27
		C143.36,188.04,146.4,186.93,146.01,184.04z"/>
	<path class="st38" d="M148.99,236.02c2.31,0.04,4.58-0.13,6.85-0.74c1.41-0.38,3.49-2.01,4.24,0.19c0.57,1.67-2.13,1.54-3.09,2.56
		c0,0,0,0,0,0c-4.33,1-8.66,2-12.99,3.01c-0.33,0.4-0.66,0.42-0.99,0.01c-7.42,0.36-14.91-0.84-22.29,0.82
		c-0.48,0.11-1.14-0.56-1.72-0.86c-2.92-0.82-5.88-1.55-8.75-2.53c-0.84-0.29-3.06-0.51-1.23-2.43c3.9-1.17,7.81-0.12,11.72-0.02
		c0.54-0.1,1.08-0.14,1.62-0.13c0.56,0.03,1.07,0.19,1.56,0.45c5.26,1.95,10.56,1.16,15.85,0.24
		C142.86,236.79,145.79,233.95,148.99,236.02z"/>
	<path class="st71" d="M101.09,246.96c-0.22-1.4,0.48-3.6-1.39-3.83c-5.11-0.62-2.01-3.47-1.49-5.28c0.95-3.36,2.52-1.17,3.93-0.19
		c1.33,0.93,4.57-1.46,4.25,2.3C106.11,243.31,104.72,246.04,101.09,246.96C101.09,246.96,101.09,246.96,101.09,246.96z"/>
	<path class="st72" d="M121.04,237.9c-4.03-0.5-8.14-0.43-12.02-1.86c-1.12-1.93-3.44-1.83-5.02-2.98c1.65-2.65,4.71-3.53,6.92-5.48
		c1.26-0.63,2.46-0.12,3.68,0.17c1.92,1.42,5,1.72,4.89,5.08c0.56,0.76-2.26,0.73-0.48,1.52
		C120.73,235.13,122.43,235.5,121.04,237.9z"/>
	<path class="st7" d="M92.05,241.99c-1.65-3.51,0.46-6.63,1.01-9.92c1.51,0.15,3.46,0.32,3.22,2.24
		C95.92,237.32,95.81,240.74,92.05,241.99z"/>
	<path class="st53" d="M111.06,227.98c-0.64,4.08-3.9,4.51-7.07,5.07c-1.98-0.55-2.95-1.39-0.95-3.15c2.82-0.48,4.71-3.6,7.97-2.83
		c0.11,0.15,0.23,0.29,0.34,0.44C111.26,227.67,111.16,227.83,111.06,227.98z"/>
	<path class="st5" d="M116.01,251.04c-0.86-1.19-0.92-2.58-0.97-3.97c1.52-1.85,0.01-5.7,3.94-5.97
		C118.39,244.53,120.89,248.89,116.01,251.04z"/>
	<path class="st14" d="M111.03,209.04c0,0.33,0,0.67,0.01,1c-4.23,0.73-4.64,6.41-9,6.97c0.67-2.99-1-6.18,2.03-9.11
		c1.73-1.67-1.13-3.15-3.02-3.84c-0.97-1.35-0.97-2.69-0.01-4.04c2.8-2.51,2.79-5.65-0.11-7.06c-0.87-0.42-1.98-0.41-2.42-1.47
		c-0.54-1.29-0.73-2.74,0.25-3.76c1.47-1.54,2.23,0.24,3.19,0.97c0.65,0.49,1.37,0.9,2.07,1.34c0.1,4.46-0.45,9,1.13,13.31
		C106.18,206.13,107.09,209.2,111.03,209.04z"/>
	<path class="st14" d="M113.99,222c1.95-0.73,2.89,0.03,3.01,2.02c-0.09,4.84-2.8,4.45-6.03,3.01c0,0,0.04,0.04,0.04,0.04
		C111.03,224.81,112.16,223.2,113.99,222z"/>
	<path class="st49" d="M84.01,246.06c0.69-2.9,2.3-2.2,4.02-1.02c0.64,4.61-2.34,1.85-3.93,1.93
		C84.07,246.67,84.03,246.36,84.01,246.06z"/>
	<path class="st12" d="M136.11,204.09c0.31,0,0.62-0.01,0.92-0.02c2.56,0.75,2.23,2.97,2.35,4.86c0.34,5.43,0.1,10.84-1.31,16.12
		c-0.76,2.82,0.95,1.42,1.93,1.23c0.49-0.29,1-0.57,1.45-0.95c1.71-1.28,3.07-2.95,4.72-4.28c1.85-0.09,2.56-2.9,4.81-2.03
		l0.03,0.02c3.09,3.04,7,4.78,10.71,6.87c3.04,1.72,3.18,2.7,1.26,5.11c-0.35,0-0.7-0.01-1.05-0.01c-5.2-0.81-9.79,1.05-14.33,3.22
		c-5.38,2.58-11.04,3.68-17,3.25c-1.2-0.09-2.32-0.25-2.91-1.49c-0.31-1.12,0.33-1.71,1.16-2.13c-0.35-0.27-0.75-0.36-1.12-0.59
		c-1.55-3.5-2.74-7.13-3-10.88c-0.38-5.61-0.24-11.26-0.97-16.86c-0.21-1.59-0.3-3.36,1.27-4.56c2.88,0.52,2.92,2.72,2.94,4.94
		c0.04,4.8,0.09,9.59,0.1,14.39c0,2.89,1.12,5.03,4.23,4.96c3.24-0.07,2.55-2.87,2.7-4.88
		C135.41,214.96,135.74,209.52,136.11,204.09z"/>
	<path class="st0" d="M162.99,231.03c-0.21-3.4-3.39-3.61-5.41-4.24c-4.07-1.27-6.11-3.68-6.56-7.74c3.17-0.39,2.07-2.72,2.08-4.56
		c0.01-1.17,0.05-2.46,1.5-2.75c1.14-0.22,1.63,0.79,2.27,1.56c3.12,3.74,6.65,7.15,8.11,12.06c1.03,3.45,5.58,3.46,6.97,6.67
		C169.27,233.29,164.47,232.75,162.99,231.03z"/>
	<path class="st60" d="M127.96,235.07c8.87,3.2,16.36-1.01,23.27-5.31c4.64-2.89,7.46-1.86,10.71,1.26c-3.9,2.74-8.72,3.09-12.95,5
		c-2.84,1.35-5.8,2.2-8.99,2.05c-5.66,0.74-11.33,0.8-16.99-0.05c-0.29-0.07-0.58-0.13-0.88-0.19c-0.28-2.47,1.75-3,3.3-3.94
		C126.49,233.82,127.39,234.09,127.96,235.07z"/>
	<path class="st73" d="M174,250.04c3.49-0.58,4.18-3.05,4.06-6.06c0.79-0.91,0.9-2.85,2.9-1.95c0.11,1.34,0.65,2.5,1.27,3.7
		c0.88,1.68,4.33,2.17,2.7,4.92C184.18,251.92,175.02,251.17,174,250.04z"/>
	<path class="st14" d="M143.01,241.04c0.33,0,0.66-0.01,0.99-0.01c3.59,0.53,5.83,2.11,4.87,6.22c-0.28,1.21-0.73,2.24-2.13,2.39
		c-1.37,0.15-2.36-0.59-2.47-1.87C144.07,245.47,142.41,243.47,143.01,241.04z"/>
	<path class="st14" d="M156.99,238.03c3.77,3.3,0.23,5.89-0.98,8.6c-0.37,0.84-1.64,0.33-1.77-0.61c-0.28-1.95-2.73-3.79-0.54-5.86
		C154.63,239.27,155.89,238.73,156.99,238.03C156.99,238.03,156.99,238.03,156.99,238.03z"/>
	<path class="st28" d="M134.01,246.59c0.24-1.2-0.47-3.28,1.24-3.25c1.81,0.03,2.49,2.06,2.43,3.76c-0.05,1.54,0.02,3.98-2.13,3.72
		C133.6,250.58,134.27,248.14,134.01,246.59z"/>
	<path class="st74" d="M131.07,246.97c-0.33,1.36,0.55,3.68-1.3,3.72c-2.26,0.05-1.61-2.39-1.64-3.86
		c-0.03-1.35-0.53-3.65,1.26-3.69C131.75,243.1,130.64,245.6,131.07,246.97z"/>
	<path class="st75" d="M180.97,242.03c-0.97,0.65-1.94,1.3-2.91,1.95c-0.03-0.33-0.05-0.66-0.07-0.99
		c-0.01-1.33-0.01-2.65-0.02-3.98c0.72-2.18,2.53-3.82,4.32-2.39C184.65,238.5,180.72,239.99,180.97,242.03z"/>
	<path class="st5" d="M125.15,245.61c-0.47,1.73,0.51,4.23-1.64,4.35c-1.87,0.11-1.41-2.21-1.4-3.59c0.01-1.44-0.02-3.49,1.79-3.56
		C126.08,242.71,124.51,244.86,125.15,245.61z"/>
	<path class="st76" d="M166.99,244.03c-3.41-1.27-5.71-3.15-3.97-7.83C165.41,238.61,166.78,241,166.99,244.03
		C166.99,244.03,166.99,244.03,166.99,244.03z"/>
	<path class="st73" d="M146.99,222.04c0,2.72-2.41,3.52-3.99,5c-0.4,0.91-0.88,1.62-2.03,0.98c-3.12,7.75-5.81-2.24-9.08,0
		c3.09-1.15,3.84-3.28,4.35-6.02c1.11-5.97,0.59-11.95,0.79-17.93c-0.55-3.97,2.81-3.28,4.9-4.11c7.37-1.7,5.07,5.07,7.07,8.08
		c0,2,0,4,0,6C152.09,217.65,147.95,219.44,146.99,222.04z"/>
	<path class="st77" d="M149,204.04c-0.01-1.66-0.04-3.31-0.04-4.97c0.02-8.06,1.75-9.78,9.94-9.94c1.79,4.96,0.4,9.93,0.09,14.9
		C154.19,209.77,152.29,209.77,149,204.04z"/>
	<path class="st20" d="M146.99,222.04c-1.32-3.17,2.37-5.07,2.01-8c4.76,0.03,2.41,2.9,1.99,5c-1.24,1.48-0.51,3.36-0.74,4.97
		C148.32,224.34,147.97,222.71,146.99,222.04z"/>
	<path class="st71" d="M149,204.04c3.33,4.26,6.66,2.62,9.99,0c-2.52,5.83-2.92,6-8.98,3.99C149.68,206.7,149.34,205.37,149,204.04z
		"/>
	<path class="st40" d="M163.98,193.03c1.8,0.8,3.13,2.03,2.35,4.11c-0.6,1.61-2.33,1.35-3.34,0.69
		C159.56,195.59,163.62,194.64,163.98,193.03L163.98,193.03z"/>
	<path class="st71" d="M162.63,204.31c-1.3-0.28-1.5-1.21-1.41-2.27c0.09-1.04,0.45-2.03,1.64-2.14c1.3-0.12,1.72,0.86,1.67,1.93
		C164.48,203.05,164.01,204.09,162.63,204.31z"/>
	<path class="st78" d="M161.97,190.03c0.01-0.99,0.03-1.98,0.04-2.97c5.08,0.52,2.32,3.65,1.97,5.96c0,0-0.01,0-0.01,0
		C162.61,192.49,162.1,191.39,161.97,190.03z"/>
	<path class="st79" d="M87,137.02c-1.8,1.17-4.21,1.58-4.97,4.03c-3.17,0.97-4.25-2.79-6.87-3.05c2.54-3.48,6.83-1.16,9.87-2.97
		C85.99,135.39,86.67,136.04,87,137.02z"/>
	<path class="st0" d="M77.98,146.02c1.39-0.62,2.79-2.24,4.25-0.24c0.75,1.02,1.68,2.32,0.54,3.52c-1.11,1.17-2.81,0.98-4.17,0.6
		c-2.76-0.77-0.88-2.51-0.59-3.9C78,145.99,77.98,146.02,77.98,146.02z"/>
	<path class="st80" d="M145.99,159.11c-0.34-0.56-1.01-1.16-0.94-1.66c0.13-1.01,0.96-0.52,1.53-0.32c3.88,1.41,7.91,2.5,10.83,5.77
		c1.12,1.26,2.82,2.57,4.13,0.59c1.34-2.03-1.12-2.25-2.19-2.99c-2.02-1.41-4.1-2.74-7.24-4.83c5.12-1.21,8.07,3.25,11.88,2.38
		c5.75,2.91,5.44,3.95,1.13,8.09c-5.87,5.64-9.09,0.52-13.12-2.11c-0.93,0.29-1.24-0.07-1.02-0.98
		C149.25,161.83,147.07,161.17,145.99,159.11z"/>
	<path class="st81" d="M137.04,172.97c-2.04-3.06-3.56-5.97,1.94-6.9c1.13,1.81,2.79,2.6,4.87,3.04c3.8,0.8,5.37,4.96,3.45,8.4
		c-1.22,2.19-2,0.82-2.84-0.24C142.55,174.84,140.41,172.85,137.04,172.97z"/>
	<path class="st1" d="M150.99,163.05c0.34,0.33,0.68,0.65,1.02,0.98c-1.52,2.54-3.62,3.9-7.21,3.71
		C146.37,164.77,147.97,162.97,150.99,163.05z"/>
	<path class="st18" d="M142.01,165.03c-1.09-0.75-1.92-1.59-1.02-3.02c1.44,0.37,3.75-0.47,3.83,1.89
		C144.88,165.34,143.07,164.87,142.01,165.03z"/>
	<path class="st39" d="M127.96,235.07c-0.98-0.02-1.96-0.05-2.94-0.07c-0.44-0.14-0.81-0.39-1.11-0.74
		c-1.73-4.72-6.49-3.68-9.9-5.21c-0.98-0.36-1.97-0.71-2.95-1.07c-0.02-0.32-0.05-0.63-0.08-0.95c2.63,0.25,4.53-0.98,6.02-3.01
		c0.8-1.17,1.23-2.63,0.41-3.73c-4.44-6-0.86-12.5-1.36-18.73c-0.22-2.81,1.85-3.09,3.81-3.5c1,2.26,3.52,1.81,5.17,2.92
		c3.12,8.89,1.08,18.34,2.92,27.37c0.36,1.76,0.06,3.69,2.08,4.66l0-0.01C130.36,234.73,129.2,234.94,127.96,235.07z"/>
	<path class="st52" d="M133.06,208.06c-2.1-2.01-3.84-4.02,0.01-6.01c0.29,0.34,0.57,0.68,0.86,1.01
		C133.91,204.77,134.02,206.51,133.06,208.06z"/>
	<path class="st59" d="M120.96,169.13c1.33,2.27-0.18,4.53,0,6.79c-1.04,0.97-2.16,1.86-3.11,2.92c-1.62,1.82-2.03,0-2.78-0.83
		C115,169.61,115.03,169.56,120.96,169.13z"/>
	<path class="st49" d="M112.02,170.05c-1.05-0.05-2.53,1.18-3.03-0.33c-0.47-1.41,1.16-2.2,2.08-3.09c0.6-0.58,1.55-1.15,2.15-0.36
		C114.51,167.93,112.83,168.91,112.02,170.05C112.02,170.05,112.02,170.05,112.02,170.05z"/>
	<path class="st21" d="M113.45,140.07c1.38,0.58,1.49,1.72,1.38,2.85c-0.08,0.94-0.31,2.18-1.64,1.72
		c-1.28-0.44-1.08-1.82-1.03-2.92C112.2,140.88,112.57,140.23,113.45,140.07z"/>
	<path class="st52" d="M121.02,177.04c2.61-5.45,3.77-5.74,7.98-2c-3,2.66-5.99,5.33-8.99,7.99
		C116.26,180.35,120.5,179.01,121.02,177.04z"/>
	<path class="st51" d="M124.9,234.19c0.03,0.27,0.07,0.54,0.12,0.81c1.57,3.52-2.4,1.41-2.88,2.83c-0.37,0.02-0.73,0.04-1.1,0.07
		c-2.42-4.13-7.25-1.83-10.7-3.76c2.73-3.34,5.75-1.55,8.62-1.07C121.28,231.66,123.3,231.82,124.9,234.19z"/>
	<path class="st44" d="M123.02,238.02c5.66,0.02,11.33,0.03,16.99,0.05C134.34,239.57,128.68,239.65,123.02,238.02z"/>
	<path class="st12" d="M124.9,234.19c-2.01-0.23-4.11,0.05-5.94-1.12c-1.65-1.34-3.3-2.68-4.95-4.02c0.92-0.28,1.89-0.46,2.76-0.85
		c1.48-0.67,2.98-3.98,4.04-2.17C122.29,228.58,127.34,229.71,124.9,234.19z"/>
	<path class="st53" d="M130.03,233.01c-0.59-1.62-1.19-3.33,1.33-3.76c1.38-0.24,3.01,0.21,2.91,1.8
		C134.07,233.79,131.63,232.72,130.03,233.01C130.03,233.01,130.03,233.01,130.03,233.01z"/>
	<path class="st67" d="M140.98,228.02c0.68-0.33,1.35-0.65,2.03-0.98c1.06,0.23,2.56-0.13,2.8,1.37c0.2,1.22-1.05,1.45-1.95,1.74
		C141.91,230.78,141.12,229.82,140.98,228.02z"/>
</g>
</svg>
