<?xml version="1.0" encoding="utf-8"?>
<!-- Generator: Adobe Illustrator 25.3.1, SVG Export Plug-In . SVG Version: 6.00 Build 0)  -->
<svg version="1.1" id="f2_xA0_Imagen_1_" xmlns="http://www.w3.org/2000/svg" xmlns:xlink="http://www.w3.org/1999/xlink" x="0px"
	 y="0px" viewBox="0 0 300 700" style="enable-background:new 0 0 300 700;" xml:space="preserve">
<style type="text/css">
	.st0{display:none;fill:#FEFEFE;}
	.st1{fill:#040404;}
	.st2{fill:#030303;}
	.st3{fill:#0A0A0A;}
	.st4{fill:#080808;}
	.st5{fill:#1D1D1D;}
	.st6{fill:#090909;}
	.st7{fill:#151515;}
	.st8{fill:#141414;}
	.st9{fill:#1E1E1E;}
	.st10{fill:#2E2E2E;}
	.st11{fill:#1C1C1C;}
	.st12{fill:#0E0E0E;}
	.st13{fill:#353535;}
	.st14{fill:#222222;}
	.st15{fill:#131313;}
	.st16{fill:#0C0C0C;}
	.st17{fill:#0F0F0F;}
	.st18{fill:#2D2D2D;}
	.st19{fill:#262626;}
	.st20{fill:#212121;}
	.st21{fill:#191919;}
	.st22{fill:#111111;}
	.st23{fill:#202020;}
	.st24{fill:#484848;}
	.st25{fill:#3E3E3E;}
	.st26{fill:#333333;}
	.st27{fill:#2A2A2A;}
	.st28{fill:#4F4F4F;}
	.st29{fill:#1B1B1B;}
	.st30{fill:#434343;}
	.st31{fill:#323232;}
	.st32{fill:#404040;}
	.st33{fill:#494949;}
	.st34{fill:#C0C0C0;}
	.st35{fill:#1A1A1A;}
	.st36{fill:#292929;}
	.st37{fill:#303030;}
	.st38{fill:#101010;}
	.st39{fill:#3F3F3F;}
	.st40{fill:#565656;}
	.st41{fill:#4A4A4A;}
	.st42{fill:#0D0D0D;}
	.st43{fill:#5B5B5B;}
	.st44{fill:#5E5E5E;}
	.st45{fill:#313131;}
	.st46{fill:#4C4C4C;}
	.st47{fill:#242424;}
	.st48{fill:#616161;}
	.st49{fill:#171717;}
	.st50{fill:#070707;}
	.st51{fill:#575757;}
	.st52{fill:#3D3D3D;}
	.st53{fill:#3C3C3C;}
	.st54{fill:#4B4B4B;}
	.st55{fill:#161616;}
	.st56{fill:#2B2B2B;}
	.st57{fill:#474747;}
	.st58{fill:#3B3B3B;}
	.st59{fill:#0B0B0B;}
	.st60{fill:#515151;}
	.st61{fill:#4D4D4D;}
	.st62{fill:#2F2F2F;}
	.st63{fill:#454545;}
	.st64{fill:#343434;}
	.st65{fill:#181818;}
	.st66{fill:#373737;}
	.st67{fill:#3A3A3A;}
	.st68{fill:#525252;}
</style>
<g>
	<path class="st0" d="M0.09,684.9C0.09,380.8,0.1,76.7,0-227.41c0-3.75,0.84-4.6,4.59-4.59c97.11,0.12,194.21,0.12,291.32,0
		c3.42,0,4.09,0.67,4.09,4.09c-0.1,302.94-0.1,605.87,0,908.81c0,3.42-0.67,4.1-4.09,4.1C197.3,684.88,98.7,684.9,0.09,684.9z"/>
	<path class="st1" d="M216.01,570.07c3.47,6.9,1.65,14.28,1.73,21.47c0.03,3.2-0.61,6.4-0.95,9.61c-2.28,7.35-1.72,14.44,1.88,21.24
		c0.79,2.78,1.65,5.55,0.83,8.5c-0.04,0.59-0.02,1.19,0.02,1.79c-0.08-0.58-0.02-1.16-0.02-1.76c0.04-0.53,0.09-1.04,0.22-1.54
		c0.49-1.81-0.63-4.65,2.17-5.05c3.04-0.43,3.75,2.41,4.36,4.64c1.42,5.15,2.34,10.41-1.09,15.18c-1.43,1.99-0.33,4.39-1.35,6.38
		c-6.54,5.14-10.63,13.16-18.63,16.66c-4.64,2.02-9.35,2.11-14.19,2.01c-3.31-0.07-2.92-3.08-3.97-4.96
		c-7.88-17.32-13.48-35.44-15.61-54.43c-1.1-9.83-1.18-19.96,2.5-29.55c0.74-1.94,1.39-3.82,0.33-5.93
		c-5.67-11.35-3.11-23.41-3.21-35.37c-0.12-14.66,0.3-29.26-2.41-44.06c-3.48-19.01-8.64-37.79-9.78-57.26
		c-0.18-3.14-0.36-6.47-3.21-9.96c-1.97,9.68-3.91,18.6-5.58,27.58c-4.08,21.96-7.53,43.92-7.44,66.47
		c0.05,11.73-1.22,23.72-5.63,34.92c-3.51,2.57-0.85,6.44-1.87,9.54c-0.39,3.58-0.34,7.28-1.26,10.71
		c-1.41,5.26-0.32,9.65,2.55,14.01c5.66,8.59,4.38,17.59,0.73,26.45c-1.3,3.15-2.81,6.18-3.44,9.58c-0.12,0.66-0.34,1.5-0.8,1.86
		c-5.09,3.97-4.56,10.91-7.86,15.8c-2.64,2.08-4.23-0.9-6.34-1.41c-4.07-3.43-8.36-5.72-13.98-5.51c-6.69,0.25-7-0.47-7.17-7.64
		c-0.02-0.68-0.04-1.36-0.28-2.01c-0.88-4.04-1.28-8.03-0.36-12.2c1.04-4.71-1.29-9.08-3.58-12.53c-6.6-9.92-5.54-20.45-3.78-31.22
		c0.33-2.02,0.55-4.22,1.49-5.95c4.67-8.62,1.28-18.17,3.19-27.08c2.21-5.32,1.54-10.99,1.82-16.54c0.06-1.04,0.12-2.08,0.19-3.12
		c0.53-10.8,1.22-21.59,2.71-32.31c2.39-7.04-1.32-14.43,1.11-21.47c2.56-2.48,3.83-5,1.78-8.76c-1.01-1.85-1.76-4.37-0.8-6.78
		c1.26-6.84-1.51-13.17-2.36-19.74c-0.73-5.65-1.15-11.28,0.2-16.89c1.57-6.5-1.8-12.44-1.99-18.74c-0.02-0.73-0.41-1.38-1.15-1.44
		c-2.99-0.24-4.94-2.27-7.28-5.17c-0.43,8.43-2.69,15.49-5.13,22.49c-0.47,1.35-0.64,3.42-2.78,2.8c-1.77-0.51-1.9-2.37-1.65-3.86
		c0.67-4.04,1.35-8.11,2.42-12.05c1.74-6.39,1.99-12.84,1.59-19.39c1.5-6.31-2.12-12.27-1.17-18.58c0.35-2.3-2.35-1.13-3.08-2.36
		c-1.04-3.53-0.88-7.07-0.1-10.61c4.29-4.17,5.51-9.88,7.84-15.16c2.27-5.14,5.41-11.25,12.36-12.15c0.46,0.01,0.92,0,1.39,0
		c2.03-0.14,3.84,0.45,5.75,1.21c1.27,0.5,2.67,2.58,4.34,0.66c-3.65-3.06-7.94-1.35-11.9-1.87c-1.92,0.06-3.65-0.21-4.16-2.57
		c0.52-3.08,0.77-5.66-0.88-9c-1.84-3.76,0.04-8.61,1.67-12.76c4.04-3.59,9.26-3.41,14-4.05c8.17-1.1,16.46-0.62,24.71-0.56
		c11.49,0.8,22.75,3.19,34.07,5.17c2.66,1.49,5.41,2.53,8.54,2.05c0.8-0.12,1.79-0.2,2.44,0.25c7.62,5.22,16.57,2.72,24.77,4.59
		c1.65,0.38,3.18,0.79,4.62,1.66c0.45,0.32,0.78,0.75,1,1.27c-0.51,4.51,0.86,8.88,0.91,13.34c1.66,3.99-2.84,3.46-3.79,5.55
		c-1.43,9.4-1.11,18.84-0.36,28.22c0.9,11.28-0.28,22.65,1.56,33.88c0.04,5.77,0.35,11.55-0.62,17.28
		c-0.58,5.17,1.23,10.23,0.67,15.4c-0.61,6.92-3.01,13.67-1.98,20.76c0.05,3.09-0.03,6.19-0.03,9.29c-0.01,3.56-1.55,4.65-3.84,3.64
		c4.63-0.54,5.47,2.77,4.93,7.6c-0.31,2.82-1.57,4.26-3.82,5.44c-2.32,1.21-4.5,3.06-3.34,6.08c1.28,3.34,4.24,2.68,6.89,2.05
		c2.44-0.58,5.28-2.97,7.08,0.48c2.06,3.95-1.78,5.13-3.97,6.39c-5.12,2.92-6.68,6.93-7.55,13.03c-0.83,5.83-0.38,11.02,0.67,16.48
		c0.13,0.68,0.04,1.54,0.47,1.98c5.27,5.43,3.93,13.17,6.44,19.56c0.51,1.29,0.77,2.9,2.05,3.4c4.8,1.85,3.3,5.64,2.77,9.09
		C212.9,552.95,211.8,561.7,216.01,570.07z"/>
	<path class="st2" d="M246.07,229.2c-0.86,6.1-1.53,12.24-2.62,18.3c-2.05,11.33-9.41,18.98-16.9,26.84
		c-4.48,4.69-9.26,5.09-14.72,4.99c-2.66,0.83-3.2-1.43-4.18-3.06c-0.94-1.56-1.34-3.37-2.18-4.98c0.84-7.46-0.78-14.65-2.32-21.84
		c-0.4-1.87,0.49-3.3,1.06-4.9c1.73-4.85,0.84-8.69-2.93-12.08c-1.76-1.58-3.48-3.2-5.17-4.86c-2.4-2.36-3.53-4.91-1.94-8.27
		c0.59-1.24,0.78-2.66,0.54-4.05c-2.31-13.26-2.07-26.82-4.53-40.06c-0.59-3.2-0.15-6.58-1.1-9.78c0.27-1.41,0.5-2.83,0.76-4.24
		c3.3-3.82,4.12-7.94,3.13-13.16c-0.56-2.95,2.02-6.26,4.78-7.88c2.7-1.59,4.49,0.7,6.11,2.87c1.87,2.49,4.78,2.98,7.57,3.44
		c2.23,0.37,4.94,0.94,5.16,3.29c0.61,6.4,5.64,8.46,9.59,11.66c5.1,4.13,8.15,9.08,8.99,16.16c1,8.41,2.26,16.98,6.02,24.75
		c0.86,1.77,1.1,3.58,1.2,5.47c0.16,2.95,0.5,5.92,1.91,8.48C246.55,220.4,246.66,224.72,246.07,229.2z"/>
	<path class="st1" d="M92.8,282.59c-5.45-0.69-9.43-3.58-13.23-7.75c-4.99-5.47-10.72-10.24-16.27-15.17
		c-7.79-6.91-12.98-15.37-12.61-26.94c0.67-20.35,8.05-39.17,11.53-58.87c3.71-1,6.23-2.32,6.05-7.46
		c-0.17-4.85,4.68-6.44,9.53-3.74c3.59,4.01,4.26,8.96,4.24,14.12c2.08,4.91,2.28,10.33,5.56,15.1c3.38,4.91,3.65,11.59,4.79,17.6
		c0.69,3.64,0.1,7.47,1.49,11.11c0.77,2.03-0.36,4.01-1.4,5.8c-3.03,4.53-1.07,8.29,1.65,12.02c1.24,1.7,3.35,2.92,3.2,5.51
		c-0.03,0.35-0.22,0.7-0.19,1.01c0.72,7.34-3.19,14.26-1.57,21.79c0.88,4.12-0.21,8.54,0.67,12.79c0.32,1.52-0.48,2.63-1.9,3.2
		C93.81,282.96,93.29,282.92,92.8,282.59z"/>
	<path class="st3" d="M216.01,570.07c-3.23-4.07-4.81-8.55-3.49-13.89c1.19-4.83-2.1-10.1,1.24-14.82c0.26-0.36-0.41-2.12-0.78-2.17
		c-8.53-1.17-5.92-9.17-7.73-14.15c-1.11-3.06-0.59-6.61-3.55-9.13c-1.9-1.62-1.02-4.68-1.91-6.73c-2.39-5.48-3.34-10.68,0.07-16.02
		c-2.91-9.51,3.4-12.76,10.01-15.81c0.87-0.4,1.93-0.58,2.21-2.01c-1.81-1.72-2.92,0.36-4.28,0.81c-3.4,1.12-7.01,1.76-10.1-0.3
		c-2.34-1.56-1.84-4.63-1.5-7.19c0.43-3.23,3.03-4.39,5.49-5.42c2.85-1.2,3.56-3.35,3.17-6.21c-0.15-1.14-0.69-2.23-1.87-1.81
		c-3.43,1.22-5.27-2.46-8.26-2.65c-1.1-0.07-2.11-1.19-1.86-2.64c0.26-1.47,1.5-1.7,2.68-1.79c2.85-0.22,5.39,1.08,8.43,2.19
		c0-3.44,0-6.51,0-9.58c2.17-0.36,1.78,1.37,2.27,2.62c-3.46-8.55,0.78-16.78,0.72-25.2c0.51-4.38-0.8-8.6-1-12.91
		c0.8-9.36,1.28-18.72,1-28.1c0-0.47,0-0.94,0-1.42c0-0.69,0.14,0.19,0-0.48c0,0.22,0,0.44,0,0.7c-0.44,3.34,0.98,6.85-1.03,9.97
		c-0.31-1.15-0.87-2.29-0.88-3.44c-0.19-18.24-3.27-36.37-2.09-54.66c0.16-2.54-0.32-5.23,2.01-7.09c5.48,0.26,5.64,4.88,5.85,8.6
		c0.35,6.12,0.96,12.07,3.42,17.72c2.29,5.27,3.29,10.68,2.31,16.53c-0.62,3.69,0.34,7.54-0.47,11.29
		c-0.36,5.48-0.49,10.99-1.15,16.43c-1.31,10.83,0.41,21.61,0.16,32.41c-0.76,14.47,1.25,29.03-1.16,43.44
		c-2.3,2.54-2.3,2.54-3.75-1.37c-0.79,3.09,2.75,3.58,3.71,5.82c0.72,4.08,0.95,8.18,0.21,12.26c-1.35,7.4,0.1,14.81-0.16,22.2
		c-0.04,0.86-0.14,1.79-0.79,2.33c-3.74,3.07-2,5.33,0.94,7.46c1.1,1.54,0.87,3.32,0.83,5.05c-2.03,2.53-2.9,4.88,0.99,6.46
		c1.03,2.99,0.64,6,0.19,9.01c-0.41,3.02-0.52,6.12-1.27,9.04C212.66,553.81,214.45,561.92,216.01,570.07z"/>
	<path class="st4" d="M246.07,229.2c-0.35-3.93-0.42-7.93-3.82-10.74c-0.58-0.48-0.99-1.51-1.01-2.3
		c-0.17-8.32-4.83-15.46-5.66-23.65c-0.61-6.02-2.74-11.73-3.56-17.84c-0.8-6.04-5.99-11.52-12.15-14.17
		c-3.24-1.4-4.86-3.36-4.91-6.85c-0.04-3.24-1.87-4.24-4.7-4.83c-3.8-0.79-8.69,0.07-9.77-5.94c-0.3-1.65-1.84-1.19-2.75-0.21
		c-1.98,2.15-3.59,4.4-3.01,7.76c0.69,4.02,0.41,7.92-2.75,10.98c-2.49-1.13-2.2-3.54-2.36-5.68c-0.52-6.89,1.58-13.36,3.04-19.93
		c2.53-5.28,3.51-11.01,4.58-16.72c1.83-3.14,4.13-5.74,7.53-7.09c1.31,0.25,2.75-0.08,3.92,0.87c0.78,0.62,1.56,1.24,2.35,1.86
		c2.27,5.06,5.84,9.38,7.78,14.63c5.23,11.5,8.86,23.75,15.24,34.72c1.35,2.31,2.72,4.69,3.02,7.49c1.2,4.78,3.61,9.11,4.9,13.85
		c1.05,2.5,2.16,4.97,3.89,7.08C249.09,204.7,248.37,216.95,246.07,229.2z"/>
	<path class="st5" d="M69.73,146.86c0.96-3.32,1.45-6.86,4.09-9.39c0.64-0.37,1.37-0.39,1.8,0.18c3.3,4.37,7.34,5.83,12.57,4.09
		c6.08-2.02,6.98-1.43,8.47,4.71c0.38,1.58,0.89,2.95,2.71,3.18c2.07,1.09,3.85,2.71,2.9,5.2c-1.64,4.31-0.05,7.33,2.85,10.11
		c4.65,3.78,4.16,8.59,3.28,13.97c-1.06,6.43,0.36,12.93,1.18,19.36c-0.01,2.25,1.14,4.4,0.61,6.7c-1.14,1.96-2.94,3.24-4.77,4.32
		c-2.89,1.7-5.69,3.37-7.43,6.49c-0.81,1.44-2.23,1.99-3.85,1.58c-1.82-0.46-1.78-2.02-2.15-3.56c-1.36-5.63,2.45-9.65,3.92-14.39
		c0.26-1.28,1.33-1.92,2.07-2.84c1-1.25,0.57-2.7-0.64-2.91c-6.72-1.21-5.41-5.39-3.47-9.56c-0.66-1.3-1.54-0.92-2.33-0.89
		c-5.81,0.21-9.9-3.91-8.11-9.62c1.67-5.34-0.08-7.53-4.16-9.67c-1.49-0.78-3.11-1.74-4.23-3.23c-0.27-0.39-0.46-0.83-0.57-1.29
		C76.15,153.9,72.66,150.49,69.73,146.86z"/>
	<path class="st6" d="M217.97,631.16c1.13-2.96-0.29-5.59-1.01-8.31c0.41-0.29,0.98-0.63,0.98-1.06c-0.04-4.91,2.48-5.64,6.34-4.26
		c2.2,2.11,4.53,4.06,6.92,5.92c1.2,0.58,2.19,0.86,3.48-0.24c2.3-1.98,4.12-1.16,5.19,1.64c0.29,0.99-0.08,1.95-0.11,2.93
		c0.65-2.26,0.46-4.63,0.8-6.91c0.35-2.39,1.42-3.59,3.42-1.11c-0.21,5.8,0.23,11.54-1.16,17.37c-1.74,7.34-5.01,13.11-11.15,17.2
		c-2.19,1.46-3.08,4.11-4,6.35c-2.55,6.22-7.04,10.58-12.13,14.29c-4.37,3.19-8.91,6.48-13.85,8.43c-5.2,2.05-10.25-0.46-14.77-3.53
		c-0.99-7.58,0.93-9.91,7.78-10.48c4.78-0.4,10.02,1.46,14.16-2.76c3.19-3.25,6.08-6.78,8.97-10.3c1.71-2.09,3.25-4.39,6.33-4.55
		c-0.52-1.22-1.8-1.06-2.21-2c0.35-3.67,0.26-7.05,2.41-10.74c2.17-3.71,0.37-8.81-2.14-13.22c-1.91,2.29-1.02,4.44-1.3,6.38
		C219.56,633.04,218.82,631.95,217.97,631.16z"/>
	<path class="st7" d="M152.06,11.11c1.92,2.1,5.55,0.03,7.07,3.11c0.68,1.91,2.55,2.67,3.74,4.1c3.59,4.31,5.5,8.87,3.42,14.56
		c-1.57,4.32-4.43,8.34-5.52,12.47c-2.03,7.61-7.58,11.42-12.43,16.08c-6.36,6.11-12.68,5.21-17.46-2.21
		c-1.13-1.75-2.35-2.79-4.35-2.85c-2.31-0.97-2.31-2.76-2.05-5.02c0.4-3.47,0.68-7.02-0.34-10.48c-0.84-7.64-0.26-14.95,4.38-21.39
		c1.5-2.08,3.17-3.54,5.85-2.85c2.43,1.77,2.85,3.88,1.32,6.62c-1.48,2.66-2.32,5.64-4.03,8.23c-1.86,2.81-0.52,4.62,2.39,5.06
		c3.12,0.47,6.21,0.26,9.32-0.71c4.12-1.28,7.78-3.74,12.07-4.57c2.34-0.45,3.77-2.21,3.55-4.84c-0.22-2.58-1.88-3.93-4.2-4.39
		c-4.52-0.89-8.94-2.42-13.65-2.06c-2.86,0.22-5.15-0.88-6.49-3.67c-0.19-0.46-0.24-0.93-0.17-1.42
		C140.1,12.42,145.24,7.55,152.06,11.11z"/>
	<path class="st8" d="M207.96,271.08c0.35,3.22,1.45,6.06,3.87,8.24c0.9,2.26-1.08,3.48-1.76,5.16c-0.35,1.16-1.11,1.68-2.27,1.58
		c-1.68-1.11-3.23-2.35-4.09-4.3c-0.03-4.59-2.19-7.35-6.53-8.36c-3.15-0.74-4.34-2.86-3.75-6.11c1.37-7.54-1.69-14.43-3.21-21.5
		c-0.43-1.99-2.54-4.22-4.38-0.4c-0.79,1.64-2.19,2.96-3.96,2.52c-6.38-1.58-12.42-0.43-18.41,1.84c-1.05,0.4-2.29,0.15-3.43,0
		c-1.46-0.27-2.94-0.34-4.44-0.37c-1.65-0.04-3.63-0.14-3.96-2.44c-0.27-1.86,1.25-2.56,2.54-3.28c0.42-0.23,0.9-0.4,1.39-0.45
		c-0.57-0.02-1.15,0.11-1.71-0.09c-1.45-1.09-2.81-2.33-4.8-2.26c-1.5,0.05-2.29-0.82-2.46-2.34c0.29-1.2,1.08-1.79,2.2-2
		c5.41-0.96,10.33-3.47,15.4-5.45c1.58-0.62,2.94-1.54,4.67-0.79c1.24,0.31,2.1,1.72,3.66,1.22c9.36-3.03,16.91,0.83,24.27,6.42
		c5.2,3.96,6.67,9.88,7.47,15.48C205.12,259.43,206.84,265.17,207.96,271.08z"/>
	<path class="st9" d="M127,54.86c2.86-1.31,4.25,0.69,5.69,2.67c4.89,6.7,8.78,7.08,14.76,1.5c2.21-2.06,4.47-4.06,6.7-6.1
		c0.37-0.34,0.99-0.65,1.06-1.05c1.25-7.09,7.26-11.61,9.01-18.67c1.46-5.88-0.4-9.94-3.39-14.16c-1.04-1.46-2.9-2.55-1.7-4.83
		c6.61,1.58,8.95,6.78,9.95,12.92c0.66,4.04,0.33,8.13-0.25,12.18c-0.3,0.33-0.63,0.63-0.98,0.92c-1.8,0.69-2.19,2.05-2.01,3.93
		c0.18,1.96,0.3,3.95-0.13,5.91c-0.02,0.48-0.04,0.95-0.04,1.43c-0.56,1.86,1.13,8.94,2.39,10.65c1.57,2.12,3.48,4.21,1.96,7.26
		l0.04-0.06c-1.22,2.64-2.31,4.84-5.64,2.01c-2.99-2.54-1.87,2.7-3.81,2.57c-3.83,1.11-7.66,0.27-11.23-0.78
		c-5.03-1.48-9.77-1.68-14.54,0.61c-1.72,0.82-3.49,1.04-5.32,0.51c-0.5-0.18-0.99-0.37-1.49-0.56
		C124.32,68.07,123.86,59.65,127,54.86z"/>
	<path class="st10" d="M98.08,152.05c-2.9-0.15-4.36-1.77-3.79-4.71c0.92-4.72-1.45-4.56-4.42-3.33c-2.31,0.97-4.55,1.81-7.11,2
		c-4.3,0.32-4.29,0.48-4.24-3.63c-2.42-0.24-1.85,2.41-3.11,3.49c-0.9-2.81,0.32-5.95-1.6-8.42c-0.08-0.9,0.08-1.69,0.96-2.12
		c4.71,0.28,5.5-3.88,7.28-6.91c0.69-0.72,1.37-1.44,2.06-2.16c1.23-0.63,2.25-1.66,3.64-1.99c6.24-2.94,10.25-8.33,14.18-13.81
		c-0.2-1.18,0.24-2.09,1.11-2.82c1.66,0.76,1.75,2.7,2.77,3.94c0.61,1.32,0.22,2.68,0.16,4.02c-0.64,3.76-0.33,7.31,2.28,10.31
		c0.17,0.76,0.17,1.52-0.03,2.28c-2.01,2.42-4.9,3.02-7.66,3.67c-4.29,1.01-5.2,2.18-3.12,5.97c1.94,3.53,0.3,7.02,0.68,10.49
		c0.08,0.89,0.69,1.66,0.6,2.59C98.59,151.35,98.38,151.73,98.08,152.05z"/>
	<path class="st11" d="M92.8,282.59c0.4-0.09,0.8-0.18,1.2-0.27c5.11-0.96,9.89-3.28,14.84-3.95c-2.99-0.6-3.73-2.07-1.3-4.66
		c4.07-1.7,8.24-1.88,12.49-1.11c2.58,2.78,6.4,5.04,4.05,9.96c-0.36,2.16-2.26,3.33-3.11,5.18c4.18,2.26,9.32-0.53,13.32,2.7
		c0.16,0.5,0.07,0.94-0.26,1.34c-9.93,0.18-19.91-0.77-29.63,2.8c-2.82,1.03-6.27,0.24-9.43,0.28c0.13-2.52,0.09-5.07,0.45-7.55
		C95.76,284.85,94.78,283.49,92.8,282.59z"/>
	<path class="st12" d="M120.01,657.88c-6.19,0.35-12.27-0.05-18-2.85c-6.4-2.18-8.01-8.21-3.74-14.06c6.05-3.3,12.08-4.73,18,0.28
		C123.16,646.26,124.45,651.96,120.01,657.88z"/>
	<path class="st13" d="M208.68,112.86c-1.24-0.03-2.49-0.06-3.73-0.08c-5.86,4.44-11.65,2.08-18.04,0.98
		c-7.82-1.35-14.27-6.29-22.17-7.08c-4.92-0.49-5.41-3.97-2.09-10.34c1.53-1.2,3.27-2.04,4.96-2.96c0.75-0.42,1.57-0.46,2.4-0.52
		c0.83,0.04,1.57,0.33,2.2,0.88c1.35,2.04,3.13,3.57,5.56,3.66c2.52,0.09,4.31,1.58,6.15,2.93c2.2,1.62,4.57,2.64,7.2,3.07
		C196.95,106.59,203.5,108.36,208.68,112.86z"/>
	<path class="st14" d="M221.96,649.77c2.88-0.8,4.47-4.16,8.19-4.27c0.26,3.89-2.15,6.68-4.77,7.5c-4.83,1.52-7.03,5.7-8.74,9.28
		c-2.05,4.29-5.42,6.03-8.68,8.33c-1.04,0.73-1.67,1.55-2.1,2.7c-0.76,2.02-1.82,1.86-3.45,0.77c-9.18-6.11-13.42-1.63-15.49,5.77
		c-1.8-2.96-2.79-5.95-0.66-9.24c1.28-1.97,0.31-4.28,0.74-6.39c3.57,3.57,9.77,3.83,16.04,0.96c4.95-2.26,8.99-5.58,12.54-9.76
		C217.43,653.28,219.82,651.64,221.96,649.77z"/>
	<path class="st15" d="M223.94,618.73c-2.07-0.27-3.89-0.29-4.11,2.67c-0.14,1.86-1.43,1.97-2.86,1.45
		c-0.52-0.84-0.86-2.04-1.61-2.46c-3.44-1.91-5.3-3.21-2.08-7.85c1.99-2.86,1.09-7.92,3.5-11.39c0,3.89,0,7.79,0,11.96
		c3.94-1.49,3.89-5.62,6.18-7.84c4.34-1.35,8.68-1.22,13.03-0.03c1.19,0.84,2.52,1.19,3.94,1.21c2.93,5.47,1.52,11.14,0.66,16.76
		c-0.2,1.31-1.29,1.92-2.64,1.73c-1.61-1.73-1.48,0.32-2.11,0.97c-2.34,2.4-4.56,3.39-5.9-0.97c0.18-1.9,0.43-3.79,0.55-5.69
		c0.07-2.6,1.47-6.34-1.89-7.02c-3.63-0.73-2.03,3.89-3.51,5.65C224.78,618.27,224.4,618.55,223.94,618.73z"/>
	<path class="st16" d="M99.09,320.71c-6.69,4.69-11.7,10.58-12.64,19.28c-0.44,4.1-0.34,8.68-6.56,5.92
		c-0.31-0.14-0.89,0.38-1.34,0.59c0.36-4.56,2.06-8.9,0.97-13.75c-0.6-2.68,0.39-5.92,4.47-5.8c1.99,0.06,3.77-1.11,4.18-2.97
		c0.82-3.64,3.22-5.59,5.98-7.37c1.65,0.36,3.3,0.72,4.95,1.08C99.86,318.7,99.84,319.71,99.09,320.71z"/>
	<path class="st17" d="M212.96,468.7c1.72-12.77,0.86-25.6,1.07-38.41c0.04-2.2,0.69-4.38,1.06-6.57
		c1.57,12.17,0.86,24.39,0.53,36.57c-0.62,22.88-2.11,45.74,1.13,68.55c0.34,2.42,0.78,5.15-0.67,7.54
		c-0.64-2.92,1.1-6.46-2.12-8.71c-2.41-2.06-1.87-4.12-0.02-6.19c-0.33-1.73-0.66-3.47-1-5.2c-2.81-3.09-2.07-6.19,0-9.28
		c-0.1-3.9,0.46-7.84-1.43-11.57c-1.01-1.99,0.23-3.96,0.74-5.93c1.6-6.18,2.31-12.42,0.7-18.74
		C212.34,470.07,212.34,469.38,212.96,468.7z"/>
	<path class="st10" d="M127,54.86c1.02,4.73-0.43,9.83,2.14,14.37c0.61,1.07-0.6,2.18-1.13,3.2c-1.22,3.7-4,3.66-6.99,3.11
		c-0.65-3.33-1.4-6.65-1.92-10.01c-0.6-3.89-1.35-7.78,3.2-10.17c1.88-0.99,0.89-3.42,0.89-5.23c0.01-2.22-0.05-4.44-0.08-6.65
		c1.04-0.57,0.87-2.97,2.9-2.07C128.04,45.76,124.85,50.52,127,54.86z"/>
	<path class="st15" d="M121.02,75.54c0.54-1.6,1.07-3.2,1.83-5.46c1.16,2.62,2.65,4.22,5.16,2.35c0.34,0.02,0.69,0.03,1.03,0.05
		c1.96,4.41,1.55,8.84-1.7,10.41c-7.03,3.38-8.11,9.87-8.89,16.6c-0.65,5.58-1.29,6.35-6.23,6.22c-1.99-0.98-1.6-3.26-2.47-4.84
		c-1.38-8.46,2.74-15.27,6.26-22.26C117.67,77.58,119.35,76.56,121.02,75.54z"/>
	<path class="st16" d="M76.05,163.48c-3.99-1.03-5.77,0.96-5.24,4.79c0.32,2.31,1.98,4.55-0.83,6.25c-2.69,1.62-5.32,1.51-7.76-0.65
		c0.66-5.01,1.14-10.06,3.6-14.59c1.58-1.83,3.01-3.77,3.88-6.08c0.7-1.87,1.71-3.58,3.93-2.61c1.94,0.85,3.07,2.36,2.13,4.88
		c-0.44,1.18-0.58,2.65,0.29,3.88h0C76.71,160.72,77.2,162.1,76.05,163.48z"/>
	<path class="st18" d="M116.02,642.52c-5.66-3.33-11.32-1.61-16.98,0.02c-1.67,0.78-3.14,2.03-5.06,2.18
		c-1.44-2.26-1.49-4.51,0.21-6.62c2.39-2.94,3.02-6.4,3.06-10.08c0.77,6.22,4.39,8.29,10.03,7.3c5.63-0.98,8.34,4.34,12.65,6.21
		C119.22,644.37,117.62,643.43,116.02,642.52z"/>
	<path class="st19" d="M170.03,69.4c-1.5-4.78-4.88-7.49-9.38-8.74c-1.39-0.39-3.14,0.18-3.39-2.03c-0.23-1.99,0.87-3.23,2.47-4.04
		c1.77-0.9,3.78-1.49,4.26-3.89c3.67-2.54,5.11,0.25,6.14,3.03c0.75,2.04,0.67,4.35-0.06,6.52
		C169.88,63.31,172.51,66.37,170.03,69.4z"/>
	<path class="st20" d="M207.97,285.57c0.7-0.36,1.4-0.72,2.1-1.08c2.81,0.19,1.76,2.3,1.66,3.79c-0.24,3.56-0.61,7.11-0.94,10.66
		c-2.19,1.22-0.62,4.58-3.02,5.68c-0.83,0.12-1.65,0.09-2.48,0.09c-5.7-0.01-6.65-1.3-4.1-6.5c1.59-3.25,0.06-5.62-1.24-8.13
		c-1.73-3.31-1.61-5.57,2.6-6.07C204.67,283.34,206.16,285.02,207.97,285.57z"/>
	<path class="st9" d="M126.01,41.41c-1.16,0.4-0.26,3.89-2.9,2.07c-1.4-7.72-1.74-15.31,1.93-22.6c1.47-2.91,3.37-5.04,6.66-5.48
		c1.11-0.52,2.22-0.89,3.28,0.12l0.05,0.03c0.58,0.69,0.56,1.37-0.03,2.04c-6.51,1.55-7.5,7.45-8.71,12.69
		C125.48,33.81,126.05,37.69,126.01,41.41z"/>
	<path class="st21" d="M216.07,374.87c-0.65-8.8,1.25-17.87-2.4-26.37c-2.72-6.32-4.22-12.81-3.92-19.84
		c0.14-3.36-1.91-6.11-4.79-7.93c0.9-2.67,4.42,1.21,5.04-2.16c0.96,6.07,2.18,12.12,2.8,18.23c0.44,4.36,1.44,8.41,3.33,12.29
		c1.52,3.14,2.28,6.46,1.5,9.96C216.47,364.27,217.75,369.73,216.07,374.87z"/>
	<path class="st22" d="M111.03,100.37c0.66,1.38,1.33,2.76,1.99,4.14c2.45,2.16,1.7,4.88,0.58,7.09c-1.81,3.56-2.92,6.82-0.68,10.63
		c0.76,1.29,0.64,3.02-0.43,4.4c-0.39,0.36-0.83,0.58-1.34,0.69c-0.51,0.06-1.01-0.02-1.48-0.23c-3.6-2.8-4.28-7.18-5.63-11.2
		c-0.01-1.38-0.03-2.75-0.04-4.13c0.25-4.08,2.34-7.67,2.9-11.66c-0.04-0.3,0.04-0.56,0.24-0.78c0.81-0.88-0.23-2.95,1.16-3.04
		C110.92,96.11,109.4,99.48,111.03,100.37z"/>
	<path class="st16" d="M78.65,357.11c2.05-0.51,1.88-2.56,2.65-3.97c0.57-1.05,1.58-1.92,2.86-1.59c1.51,0.39,1.58,1.86,1.13,2.92
		c-2.65,6.15-1.07,12.48-0.91,18.75c0.05,1.84-1.02,3.21-1.49,4.83C81.48,371.07,80.07,364.09,78.65,357.11z"/>
	<path class="st19" d="M237.96,624.93c3.03-2.72,1.76-6.39,1.95-9.71c0.16-2.92,0.03-5.85,0.02-8.78c3.61,0.46,2.5,3.71,3.16,5.86
		c0.74,2.4,1.18,4.89,0.89,7.45c-2.34,0-2.11,1.87-1.99,3.29c0.39,4.55-1.57,8.21-3.97,12.33
		C235.92,631.61,237.76,628.25,237.96,624.93z"/>
	<path class="st23" d="M111.03,100.37c-1.55,0.63-1.64-4.46-3.89-1.06c1.12-7.74,1.07-16.03,8.86-20.72
		c0.14,4.86-0.43,9.48-3.58,13.45C110.5,94.47,111.12,97.52,111.03,100.37z"/>
	<path class="st12" d="M101.02,450.06c2.01,4.89,3.92,9.87,10.17,11.24c-4.43,0.49-7.47,3.28-11.16,4.29
		C98.86,460.31,97.8,455.04,101.02,450.06z"/>
	<path class="st24" d="M191.12,103.4c-2.61,0.97-5.12,0.94-7.52-0.66c-2.91-1.94-6.05-3.37-9.37-4.36
		c-1.59-0.48-2.77-1.14-2.22-3.16c1.64-2.51,4.01-1.11,6.1-1.24C183.43,95.66,186.85,100.16,191.12,103.4z"/>
	<path class="st7" d="M76.05,159.34c-0.08-0.15-0.14-0.31-0.24-0.45c-1.39-1.98,0.31-5.83-2.16-6.38c-2.43-0.54-1.88,3.37-3.33,4.95
		c-1.35,1.47-2.95,1.37-4.5,1.82c0.26-4.49,2.06-8.46,3.91-12.41c3.68-0.45,4.91,4.14,8.43,4.39c1.02,0.07,0.56,2.1-0.2,3.04
		C76.75,155.77,75.97,157.37,76.05,159.34z"/>
	<path class="st19" d="M161,72.42c-0.5-0.89-1.12-1.73-1.48-2.67c-0.94-2.47,0.1-4.76,2.03-5.65c2.46-1.14,2.15,1.73,2.77,3.09
		c1.23,2.72,2.51,5.23,5.75,2.16c-0.63,3.06-1.91,6.02-1.21,9.27c-1.99,0.81-3.51-0.55-5.19-1.19c-1.02-1.03-1.42-2.51-2.38-3.6
		C161.12,73.38,161.02,72.91,161,72.42z"/>
	<path class="st25" d="M101.93,110.47c0.28,2.52-0.46,4.44-2.35,6.28c-3.6,3.52-6.09,8.4-11.57,9.45c-1.97-2.04-1-3.3,0.82-4.87
		c3.38-2.91,6.99-5.53,10.16-8.7C99.97,111.92,100.95,111.2,101.93,110.47z"/>
	<path class="st26" d="M170.07,60.26c-0.45-4.26,0.57-9.52-6.08-9.55h0c-1.73-3.78-0.26-7.17,1.25-10.53
		c0.56-1.24,1.5-1.72,2.75-0.85c0.28,0,0.57-0.01,0.85-0.02c0.36,5.03-1.42,10.23,1.84,15.06C171.57,55.69,170.9,58.34,170.07,60.26
		z"/>
	<path class="st27" d="M134.98,15.52c-1.09-0.04-2.19-0.08-3.28-0.12c2.39-3.92,6.86-3.39,10.27-5.13c3.02-1.42,6.04-1.48,9.04,0.04
		c0.35,0.26,0.7,0.53,1.05,0.79c-0.23,2.11-0.8,2.54-2.82,1.27c-2.32-1.46-2.46-1.12-4.69,1.43c-0.86,0.98-2.17,0.62-3.29,0.67
		C139.12,14.57,136.94,14.3,134.98,15.52z"/>
	<path class="st9" d="M116.02,642.52c1.38-0.03,2.74-0.14,3.92-1c2.14,0.24,3.15,2.47,5.09,3.06c-0.98,2.83-2.13,5.58-2.21,8.7
		c-0.05,1.9-0.3,4.09-2.8,4.59C123.59,651.39,119.79,646.96,116.02,642.52z"/>
	<path class="st23" d="M164.99,75.54c1.82,0.31,2.78,1.78,3.87,3.07c1.4,2.75,2.79,5.49,4.19,8.24c-0.06,0.27-0.13,0.55-0.19,0.82
		c-0.33,1.71,0.33,4.01-2.27,4.39c-2.51,0.37-3.69-1.4-4.04-3.49C165.84,84.26,162.81,80.22,164.99,75.54z"/>
	<path class="st28" d="M98.99,112.64c-1.33,3.84-4.83,5.45-7.62,7.73c-1.89,1.55-3.5,3.1-3.36,5.83c-1.29,0.7-2.59,0.76-3.9,0.07
		c0.22-3.43,3.05-4.45,5.18-6.21C92.43,117.45,95.1,114.19,98.99,112.64z"/>
	<path class="st7" d="M96.03,522.49c1.86,5.8,2.97,11.52-1.82,16.54C94.21,533.44,93.62,527.79,96.03,522.49z"/>
	<path class="st29" d="M93.98,644.71c-0.02-4.96,2.76-2.98,5.06-2.18c-3.03,6.78-2.64,8.44,2.97,12.49
		C95.24,655,95.59,649.03,93.98,644.71z"/>
	<path class="st7" d="M98.93,487.06c-0.36,10.82-1.27,21.59-2.71,32.31C96.19,508.51,96.1,497.66,98.93,487.06z"/>
	<path class="st23" d="M106.91,100.09c2.41,4.79-0.44,8.17-2.9,11.66c-0.85-1.23-0.92-2.66-0.96-4.1
		C103.16,104.48,104.84,102.18,106.91,100.09z"/>
	<path class="st30" d="M235.99,605.24c-4.34,0.76-8.68,1.16-13.03,0.03c0.01-0.85,0.04-2.22,0.79-2.18
		C227.9,603.27,232.4,601.62,235.99,605.24z"/>
	<path class="st31" d="M240.9,186.29c-1.39-4.88-4.59-9.26-3.85-14.74c2.67,2.93,3.68,6.72,5.02,10.34
		C242.3,183.53,242.24,185.1,240.9,186.29z"/>
	<path class="st32" d="M82.06,128.44c0.34,2.96-1.26,5.11-2.67,7.44c-2.06,3.41-3.32,1.95-4.61-0.53
		C77.91,133.85,79.1,130.14,82.06,128.44z"/>
	<path class="st33" d="M240.9,186.29c0.39-1.47,0.78-2.94,1.18-4.4c1.99,3.25,3.55,6.67,3.77,10.6
		C242.86,191.56,241.18,189.53,240.9,186.29z"/>
	<path class="st19" d="M218.8,129.34c-2.97-4.66-6.93-8.76-7.78-14.63C215.28,118.64,217.38,123.8,218.8,129.34z"/>
	<path class="st32" d="M207.88,304.21c0.05-1.7-0.08-3.42,0.17-5.08c0.58-3.71,1.71-1.57,2.73-0.19c-0.22,2.2,0.29,4.61-1.69,6.3
		c-0.37-0.01-0.74-0.02-1.11-0.03C207.28,304.95,207.24,304.61,207.88,304.21z"/>
	<path class="st23" d="M178.11,93.98c-1.84,1.46-4.01,1.14-6.1,1.23c-0.67-0.01-1.34-0.02-2.02-0.02c0.43-2.81,3.43-4.68,2.72-7.91
		c0.11-0.15,0.23-0.29,0.34-0.44C174.56,89.36,177.58,90.72,178.11,93.98z"/>
	<path class="st34" d="M151.01,10.32c-3.01-0.01-6.03-0.03-9.04-0.04C145,7.1,148.01,7.37,151.01,10.32z"/>
	<path class="st11" d="M135.11,566.17c-0.86-3.49-2.92-7.24,1.87-9.54C136.35,559.81,135.73,562.99,135.11,566.17z"/>
	<path class="st35" d="M207.88,304.21c0.04,0.33,0.07,0.66,0.1,1c-5.49,0.25-10.84-0.93-16.24-1.61c-2.14-0.27-4.25-0.61-6.39-0.09
		c-0.64,0.16-1.73,0.63-1.85,0.44c-3.64-5.68-10.61-2.5-14.97-6.11c-0.25-0.2-0.38-0.56-0.56-0.84c0.09-0.22,0.18-0.44,0.26-0.65
		c3.01-1.99,5.65-0.89,8.04,1.02c-0.71-0.15-1.21-0.86-1.81-1.42c-2.53-2.21-5.18-3.51-8.62-2.07c-1.86,0.78-3.99,0.56-5.86-0.16
		c-2.86-1.1-5.68-1.71-8.73-0.98c-1.29,0.31-2.88,0.24-3.76-0.83c-2.17-2.62-4.99-3.62-8.06-4.59c-2.78-0.88-3.86-7-1.94-10.53
		c0.69-1.25,1.05-2.95,2.57-3.66c4.07,0.47,8.17,0.64,12.26,0.81c-12.05-1.44-24.16-2.46-36.27-1.8c-4.75,0.26-9.97-0.12-13.98,3.68
		c-0.64,1.24-1.52,2.32-2.53,3.17c-2.26,1.9-3.89,1.15-4.46-1.89c-1.81-9.74-0.59-11.02,8.54-15.21c6.91-3.17,13.79-3.49,20.97-2.89
		c2.11,5.24,5.97,5.66,10.7,4.56c1.83-0.43,3.98-0.3,5.63,1.21c1.2,2.96,3.37,2.65,5.95,2.3c7.34-0.98,14.42-3.42,22-3.38
		c3.82,0.02,6.75,2.73,10.13,2.27c-2.57,0.01-4.84-2.24-7.84-2.16c-2.66,0.07-5.52-0.41-8.01,0.08c-3.02,0.6-6.17,0.71-9.13,1.73
		c-0.96,0.33-1.95-0.23-2.74-0.93c-0.9-1.7-2.25-1.99-4.1-2.09c-4.79-0.27-9.59-0.26-14.38-0.44c-2.25-0.09-4.82,0.17-5.66-2.98
		c0-2.65,1.74-3.38,3.82-3.89c9.27-2.28,18.65-1.94,28.07-1.52c3.58,0.16,7.1,0.85,10.67,0.83c0.43-0.28,0.83-0.64,1.22-1
		c-0.35,0.33-0.7,0.66-1.11,0.97c-3.4-0.29-6.95,0.33-9.96-1.94c-0.06-1.77,0.05-3.55,0.16-5.33c4.29-0.33,8.57-0.77,12.72-2.05
		c3.56-1.1,7.11-1.03,10.33,0.67c1.21-1.82-0.12-2.26-0.63-2.99c-0.7-1.01-1.45-2.02-0.42-3.2c0.85-0.98,2.04-1.04,3.23-0.92
		c2.63,0.27,4.24,2.66,6.61,3.43c3.67,1.19,1.69,3.88,1.91,6.24c0.41,4.38,1.63,8.68,2.65,12.98c0.55,2.31,1.64,4.44-0.26,6.76
		c-1.27,1.56-0.22,2.64,1.48,2.58c1.97-0.07,3.35,1.4,4.92,1.81c6.18,1.63,4.2,5.14,2.43,8.82c-2.76,2.98-5.3,0.12-7.66-0.63
		c-5.26-1.68-10.79-2.09-13.88-3.17c3.09,1.13,8.63,1.51,13.88,3.3c4.19,1.43,5.47,1.91,5.67,4.65c-1.04,0.28-2.95,0.34-1.31,2.01
		c1.91,1.94,2.05,4.64,3.41,6.79c0.85,1.34,0.94,2.93-0.21,4.32c-1.11,1.34-3.7,2.24-2.52,4.42
		C203.46,305.17,206,303.88,207.88,304.21z"/>
	<path class="st20" d="M140.01,274.19c0.32,1,0.31,1.95,0.02,3c-1.89,6.94-1.51,7.52,5.15,8.42c0.65,0.09,1.75,0.03,1.88,0.37
		c3.03,7.51,11.07,0.54,15.03,5.56c0.46,0.58,2.61,0.57,3.3-0.01c5.29-4.49,7.54,0.69,10.59,3.35c-2.22,2.51-5.69-0.28-7.95,2.01
		c0,0-0.07,0.11-0.07,0.11c-11.53-0.29-22.7-3-33.95-5.23c0-0.34-0.01-0.68-0.01-1.02c-0.65-1.39-2.18-1.97-3.19-1.82
		c-5.05,0.75-6.89-2.83-8.8-6.46c2.42-3.55-1.73-5.4-1.99-8.26c2.1-2.94,5.05-2.02,7.86-1.9C132,272.47,136.37,270.74,140.01,274.19
		z"/>
	<path class="st10" d="M152.59,322.68c-2.91,0-5.07,0.03-7.23-0.02c-0.84-0.02-1.78-0.28-1.92-1.27c-0.13-0.93,0.57-1.62,1.35-1.96
		c0.75-0.33,1.58-0.6,2.38-0.65c11.44-0.73,22.89-1.43,34.33-2.12c0.66-0.04,1.33-0.02,2,0.05c1.34,0.14,2.9,0.22,2.8,2.13
		c-0.08,1.52-1.46,1.68-2.62,1.82c-2.64,0.33-5.28,0.77-7.93,0.92C167.78,322.02,159.81,322.35,152.59,322.68z"/>
	<path class="st19" d="M207.95,419.03c-1.87,10.91-1.27,21.92-0.75,34.33c-3.57-4.6-1.09-9.19-3.23-12.6
		c-0.69-7.39,0.81-14.55,2.06-21.74C206.67,418.42,207.31,418.42,207.95,419.03z"/>
	<path class="st18" d="M207.85,375.47c0.86,10.06-0.57,20.05-0.95,30.07c-1.93,0.64-1.05-1.6-1.94-2.03
		c0.9-5.83,1.27-11.68,0.97-17.58c0.01-3.8,0.02-7.59,0.03-11.39C207.08,373.8,207.38,374.8,207.85,375.47z"/>
	<path class="st36" d="M99.09,320.71c0.01-1,0.01-2.01,0.02-3.01c3.16,0,6.33,0.01,9.49,0c2.92,0,5.17,1.13,6.39,4.02
		c-1.94,1.57-4.02,1.86-6.37,1.02c-2.78-0.98-5.72-1.33-8.59-1.98C99.72,320.75,99.41,320.73,99.09,320.71z"/>
	<path class="st37" d="M204.96,403.51c0.65,0.68,1.29,1.36,1.94,2.04c0.92,4.44,1.38,8.93,1.05,13.48c-0.64,0-1.28-0.01-1.92-0.02
		C205.67,413.84,205.32,408.68,204.96,403.51z"/>
	<path class="st12" d="M100.04,320.77c5.01-0.1,9.92,1.6,14.96,0.95c-1.13,2.62-2.92,3.57-5.63,2.52
		C106.27,323.04,103.15,321.92,100.04,320.77z"/>
	<path class="st35" d="M217.97,631.16c0.99,0.34,1.98,0.69,2.97,1.03c0.44,1.93,2.42,3.45,1.55,5.69c-0.15,0.38-1.31,0.78-1.67,0.56
		c-2.09-1.25-2.43-3.52-2.77-5.74C217.98,632.2,218,631.67,217.97,631.16z"/>
	<path class="st19" d="M184.01,328.7c1.34,3.15,1.08,6.17-0.52,9.84C180.91,334.6,182.99,331.67,184.01,328.7z"/>
	<path class="st15" d="M194.98,135.56c-1.46,8.56-3.9,17-3,25.85c0,1.38,0,2.76-0.01,4.14c-1.54,3.74-2.66,7.57-1.67,11.67
		c0.78,3.18,0.12,6.27-0.8,9.18c-2.55,8.09-0.35,16.7-2.75,24.78c-0.1,0.33-0.18,0.74-0.04,1.02c3.15,6.52-0.62,10.21-5.14,13.61
		c-5.76,0.79-6.68,0.3-7.27-4.87c-0.61-5.31-4.87-5.28-8.31-6.54c-2.91-1.45-5.05-4.02-8.37-5.06c-2.99-0.93-2.34-4.14,1.21-6.87
		c4.14,0,8.06-1.28,12.04-2.1c0.51-2.05-1.12-2.84-1.86-4.07c-2.14-3.52-1.88-8.2,1.21-10.66c2.76-2.2,3.31-4.89,3.31-8.11
		c-0.01-8.07-0.13-16.14,0.06-24.2c0.17-7.01,1.73-8.1,8.18-5.64c1.5,0.57,2.17,0.29,2.73-1c0.87-2.02,1.14-4-0.81-5.57
		c-1.1-0.89-2.47-0.9-3.79-1.07c-1.83-0.23-3.84-0.35-4.42-2.59c-0.5-1.94,0.78-3.19,2.21-4.21c4.32-1.9,9.53-0.05,13.56-3.85
		c1.38-1.3,3.46,0.11,3.66,2.58C195,133.18,194.61,134.38,194.98,135.56z"/>
	<path class="st16" d="M180.98,224.52c0.35-1.85,1.8-2.81,2.97-4.02c1.11-1.14,2.23-2.92,1.08-4.1c-3.06-3.11-1.58-5.81,0-8.75
		c0.47-0.87,0.93-2.08,0.71-2.95c-2.19-8.63,1.39-16.5,2.87-24.64c0.15-0.83,0.42-1.89,0.07-2.53c-2.77-5.18-0.28-8.73,3.29-11.99
		c-0.79,9.37,1.56,18.35,3.34,27.39c0.57,2.91,0.93,5.82,0.54,8.7c-0.59,4.36-1.11,8.52,2.21,12.11c1.03,1.11,0.5,2.54-0.04,3.87
		c-2.54,6.22-2.01,7.92,3.38,11.52c6.33,4.22,7.96,9.61,5.18,16.66c-1.91,4.85-0.9,9.89,0.09,14.64c0.74,3.56,1.36,7.03,1.28,10.65
		c-2.35-4.36-3.96-8.87-4.59-13.96c-1.66-13.34-12.6-23.89-24.91-24.72c-2.37-0.16-3.5,3.46-6.58,1.92
		c-1.38-0.69-2.78-0.67-2.92-2.61c-0.31-0.38-0.54-0.8-0.7-1.27c1.89-5.91,3.13-6.48,10-4.64
		C179.48,226.13,181.41,227.99,180.98,224.52z"/>
	<path class="st38" d="M170.98,253.5c-0.48,3.13-2.52,2.88-4.85,2.66c-11.86-1.11-23.67-0.78-35.39,1.58
		c-1.23,0.25-2.13,0.84-2.72,1.97c-0.36,2.34-1.63,1.85-3,1.04c-7.25,0.06-14.36-0.25-21.44,2.84c-7.96,3.48-9.26,5.07-6.82,14.63
		c1.83-1.49,1.54-4.81,4.27-5.06c1.78,1.38,4.64-0.58,6.01,2.08c1.53,3.5,4.92,0.81,7.82,2.71c-7.45,1.22-12.92,8.3-20.86,4.37
		c0.99-3.92,0.27-7.9-0.24-11.71c-1.22-9.29,0.5-18.33,1.28-27.46c3.13-1.01,4.78,3.18,7.86,2.38c8.53,0.52,16.88,2.23,25.29,3.62
		c2.77,0.46,5.62,0.35,8.42,0.02c6.62-0.78,13.23,0,19.84,0.2c1.37,0.04,2.9,0.4,3.53,2.07
		C163.49,253.01,167.37,252.47,170.98,253.5L170.98,253.5z"/>
	<path class="st38" d="M98.03,199.69c0.15,2.95-1.16,5.29-2.97,7.38c-1.15,1.32-2.03,2.72-1.96,4.56c0.05,1.32-0.38,3.07,1.19,3.58
		c1.53,0.49,1.71-1.26,2.17-2.25c2.55-5.51,8.51-5.29,12.64-8.14c2.76,0.24,3.03,2.84,1.94,3.95c-3.12,3.17-2.96,8.37-6.76,10.94
		c-1.35,0.24-2.11,1.23-2.77,2.36c-1.11,3.39-3.82,4.9-6.81,5.84c-2.05,0.64-3.87,0.06-4.66-2.35c2.78-6.14,1.32-12.27-0.35-18.25
		c-1.99-7.15-4.78-14.07-6.55-21.27c-0.79-3.19-3.44-5.6-3.09-9.11c2.1-1.76,3.75-1.05,4.69,1.25c0.77,1.88,1.84,3.67,2.4,5.55
		c1.52,5.1,3.64,8.88,9.45,9.83C99.81,194.09,99.38,197.16,98.03,199.69z"/>
	<path class="st7" d="M98.03,199.69c-0.38-3.88-2.38-5.55-6.09-4.61c-3.11,0.79-4.68-0.41-5.19-3.64c-0.48-3.04-1.26-6.03-1.78-9.06
		c-0.51-2.97-1.61-5.25-4.92-5.45c-0.55-4.73-1.44-9.36-4-13.45c0-1.38,0-2.76-0.01-4.13c2.09,2.13,4.7,3.36,7.47,3.88
		c4.72,0.89,5.06,3.62,3.49,7.51c-0.57,1.42-1.33,2.85-1.47,4.34c-0.19,2.04,0.05,4.29,2.06,5.42c1.86,1.04,3.5,0.18,4.92-1.27
		c1.05-1.08,2.18-2.46,3.83-1.3c1.58,1.11,1.62,2.87,1.21,4.65c-0.08,0.33-0.21,0.65-0.32,0.98c-2.87,8.54-2.87,8.54,5.94,6.97
		C102.17,194.21,100.79,197.33,98.03,199.69z"/>
	<path class="st29" d="M90.04,225.56c4.5,0.68,7.52-1.76,10.09-5.13c2.83,4.34,2.83,8.93,1.18,13.67c-0.75,1.43-2.88,2.44-0.87,4.63
		c1.24,1.35,1.4,3.4,1.89,5.2c-0.13,1.25-0.67,2.32-1.31,3.35c-2.91,0.04-4.66-1.73-5.99-4.14c-0.94-2.26-2.57-3.93-4.23-5.65
		C87.26,233.79,87.11,229.97,90.04,225.56z"/>
	<path class="st1" d="M212.96,468.7c0,0.69,0,1.38,0,2.07c-3.14-0.35-7.39-8.82-5.69-11.38c0.23-0.34,0.83-0.71,1.17-0.64
		c1.36,0.3,2.38,1.13,2.86,2.54C212.12,463.68,211.54,466.43,212.96,468.7z"/>
	<path class="st1" d="M212.95,507c0,3.09,0,6.19,0,9.28c-2.08-0.49-3.7-1.44-3.85-3.97C208.92,509.38,210.73,508.04,212.95,507z"/>
	<path class="st1" d="M213.94,521.48c0.01,2.06,0.01,4.13,0.02,6.19c-2.83,0.89-3.57-1.07-3.71-3.23
		C210.08,521.85,212.04,521.58,213.94,521.48z"/>
	<path class="st39" d="M207.85,375.47c-0.63-0.31-1.25-0.62-1.88-0.93c0.1-2.55-0.58-5.2,0.91-8.56
		C208.5,369.63,207.9,372.59,207.85,375.47z"/>
	<path class="st27" d="M164.93,98.19c-0.94,1.32-2.89,2.14-2.3,4.22c0.59,2.08,2.52,1.92,4.12,2.18c4.44,0.74,8.75,1.72,12.54,4.52
		c3.47,2.56,7.82,0.8,11.85,2.5c3.99,1.68,9.06,2.85,13.82,1.16c-1.9,2.24-4.13,4.24-4.97,7.25c-2.18,4.46-4.51,9.24-9.78,9.81
		c-2.99,0.33-5.69,1.04-8.49,1.94c-2.27,0.72-4.01,2.37-6.2,3.16c-1.15,0.12-2.3,0.03-3.44,0.1c-3.6,0.22-6.24-0.65-5.86-5.22
		c0.1-1.16-0.77-1.79-1.49-2.48c-1.36-2.18-3.01-3.62-5.79-3.28c-1.82,0.22-3.76,0.09-4.28-2.42c-0.08-0.94,1.35-1.57,1.18-1.69
		c-5.15-3.36-2.53-7.9-1.61-12.02c0.37-1.63,0.68-3.28,1.05-4.93c1.16-1.87,2.26-3.84,4-5.15C161.11,96.47,163.16,95.9,164.93,98.19
		z"/>
	<path class="st23" d="M175.98,133.48c2.36-3.45,6.63-4.35,9.32-7.4c0.36-0.41,1.45-0.71,1.82-0.46c6.02,4.04,8.47-1.3,11.67-4.67
		c0.34-0.36,0.79-0.62,1.18-0.93c-1.66,5.18-3.33,10.35-4.99,15.53c-2.14-0.66-0.79-3.1-2.42-4.66c-3.28,8.09-9.53,2.81-14.57,3.62
		C176.81,135.22,175.96,135.25,175.98,133.48z"/>
	<path class="st40" d="M108.05,198.65c-1.17-7.95-3.18-15.97-0.65-23.91c1.4-4.4-2.67-5.92-3.42-9.08
		c-1.53-1.27-1.39-2.36,0.34-3.27c4.43-0.36,6.07,2.68,7.21,6.34c0.04,4.1-0.22,8.1-1.24,12.15c-1.47,5.85,0.47,11.66,1.15,17.47
		c-0.22,1.14-0.55,2.36-1.86,2.41C108.4,200.79,108.64,199.31,108.05,198.65z"/>
	<path class="st39" d="M108.05,198.65c0.67,0.49,1.35,1.43,2-0.02c2.66-0.19,2.58,2.23,3.08,3.79c0.67,2.07,1.56,4.07,2.02,6.22
		c0.01,2.06-1.69,3.54-1.78,5.56c-1.02,2.85-3.2,4.97-4.27,7.92c-1.32,3.61-4.33,2.77-7,1.26c-1.74-1.65,0.88-3.38-0.07-5.05
		c4.12-3.51,6.59-7.94,7.06-13.49C108.75,202.77,108.4,200.71,108.05,198.65z"/>
	<path class="st41" d="M104.14,163.42c-0.05,0.74-0.11,1.49-0.16,2.23c-3.99-1.82-3.95-5.46-3.67-9.07
		c0.16-2.12,0.75-4.19-2.23-4.54c-0.05-0.29-0.11-0.58-0.15-0.87c1.51-2.31,3.75-1.47,5.8-1.42c0.63,0.24,1.52,0.55,1.53,1.12
		C105.3,155.1,106.48,159.44,104.14,163.42z"/>
	<path class="st23" d="M231.95,619.74c0.81,4.33,0.49,5.16-2.01,5.19c-2.52-1.53-4.54-3.58-6-6.21c0.01-0.34,0.02-0.68,0.02-1.02
		C227.36,615.28,229.99,616.12,231.95,619.74z"/>
	<path class="st42" d="M135,17.59c0.01-0.68,0.02-1.36,0.03-2.04c3.24,3.02,7.28,1.45,10.94,2.06c4.29,0.72,8.73,0.3,12.77,2.77
		c3.46,2.11,3.42,5.13,3.1,8.47c-0.33,3.35-2.56,4.71-5.41,5.07c-4.05,0.51-7.48,2.75-11.19,4.15c-4.6,1.74-9.17,1.15-13.77,1.07
		c-2.05-0.03-3.33-1.43-3.93-3.41c-0.62-2.07-0.72-4.02,1.11-5.64C132.35,26.81,133.52,22.11,135,17.59z"/>
	<path class="st23" d="M101.03,247.29c-0.45-1.04-0.69-2.07,0-3.11c0.85-1.39,2.39-1.71,3.46-1.13c5.39,2.96,11.17,1.03,16.73,1.67
		c6.69,1.65,13.36,0.61,19.91-0.67c2.93-0.57,5.35-3.39,8.64-3.17c1.43,0.1,3.18-0.5,4.22,1.22c2.43,0.27,4.51-0.88,6.69-1.7
		c1.04-0.39,2.6-0.69,3.04,0.72c0.53,1.7-1.2,1.71-2.2,2.09c-2.56,0.99-5.64,0.67-8.44,4.07c2.85,0,4.88,0,6.91,0
		c0.29,0.15,0.6,0.27,0.87,0.46c1.87,1.28,6.13-0.36,5.82,1.99c-0.41,3.13-4.35,1.17-6.71,1.7c-7.28-0.01-14.55-0.06-21.83-0.01
		c-9.25,0.06-18.21-1.97-27.24-3.66C107.69,247.17,104.33,247.42,101.03,247.29z"/>
	<path class="st42" d="M154,242.11c-8.47,1.99-16.55,5.95-25.58,5.22c-2.82-0.23-5.64-0.26-8.39-1.06
		c-2.16-0.17-1.97-1.63-1.63-3.18c0.31-0.51,0.74-0.89,1.27-1.14c3.29-0.69,6.62-0.26,9.93-0.35c4.27-0.12,8.39-0.8,12.18-2.98
		c1.82-1.05,3.6-1.69,5.21,0.38c1.95,0.02,3.91-0.02,5.86,0.07C155.33,239.18,154.88,240.57,154,242.11z"/>
	<path class="st24" d="M146.98,239c-8.49,4.66-17.57,5.1-26.86,4.06c-0.27-0.24-0.4-0.51-0.37-0.8c0.03-0.31,0.08-0.46,0.15-0.46
		c1.83-1.73,4.04-0.22,5.8-0.74c-3.36-0.19-3.36-0.19-3.51-3.08c0.65-0.59,1.37-1.1,2.23-0.99c7.94,1.04,15.09-1.91,22.3-4.62
		c2.18,0.03,4.15,0.29,3.69,3.39c-0.29,0.86-0.85,1.52-1.46,2.14C148.29,238.27,147.63,238.64,146.98,239z"/>
	<path class="st16" d="M202.97,285.56c-4.04-4.29-9.8-4.36-14.8-5.91c-3.95-1.23-8.4-1.9-13.6-1.11c3.66-2.9,6.38-3.4,10.22-2.07
		c6.53,2.25,13.42,3.37,20.16,4.97c1.72,0.82,2.92,2.05,3,4.14C206.3,286.83,204.63,286.35,202.97,285.56z"/>
	<path class="st18" d="M148.94,237.91c0.02-0.66,0.05-1.32,0.07-1.99c1.33-0.97,2.82-1.67,4.2-2.55c1.39-0.83,2.83-1.58,3.96-2.8
		c2.91-0.82,3.44-3.6,4.55-5.91c1.98-1.18,4.15-1.1,6.32-1c3.52,1.89,3.43,4.32,0.97,7.09c-0.02,0.32-0.04,0.65-0.06,0.97
		c-3.9,1.32-8.08,2.12-11.6,4.14C154.56,237.47,151.95,238.1,148.94,237.91z"/>
	<path class="st4" d="M164.93,98.19c-4.1,0.14-5.52,3.89-7.94,6.3c-2.98,3.04-3.7,7.5-6.71,10.69c-3.64,3.85-7.4,7.16-12.35,8.81
		c-0.19,0.82,0.27,1.49,0.46,2.23c0.33,1.2,0.34,2.37-0.11,3.53c-0.13,0.48-0.27,0.96-0.41,1.44c-1.85,6.25-3.06,6.64-8.33,2.73
		c-1.6-0.75-2.38,0.28-3.01,1.53c-0.59,1.17-1.04,2.45-2.5,2.79c-3.71-0.03-2.63-4.23-4.66-5.72c-1.47-3.32-4.92-4.16-7.33-6.31
		c-2.84-5.35-5.9-10.59-0.47-16.36c1.1-1.16,1-3.53,1.46-5.34c2.06-0.61,3.2-2.21,2.87-4.23c-1.02-6.25,3.59-10.93,4.08-16.73
		c0.05-0.57,0.69-1.57,1.03-1.55c6.57,0.29,6.13-5.67,8.03-9.53c5.72-1.42,11.22-4.62,17.35-3.02c4.83,1.26,9.68,2.3,14.61,2.97
		c0.32,0.02,0.65,0.04,0.97,0.06c1.29,3.96,2.98,7.91,3.12,12.07c0.13,3.9,3.98,6.52,2.89,10.63
		C166.96,96.18,165.94,97.18,164.93,98.19z"/>
	<path class="st19" d="M167.99,39.33c-4.07,2.76-4.07,7.06-4,11.38c-3.05-4.62-0.39-8.7,1.19-12.85c0.27-0.72,1.04-1.56,1.93-1.19
		C168.21,37.12,167.88,38.36,167.99,39.33z"/>
	<path class="st43" d="M95.96,150.21c-1.02-1.67-0.47-3.33,0.11-4.94c0.91-2.56,0.86-4.81-0.6-7.3c-2.02-3.45-0.74-6.41,2.87-7.47
		c2.85-0.84,5.75-1.51,8.63-2.26c1.04-0.75,2.2-1.16,3,0.15c0.83,1.37-0.43,2.12-1.19,2.96c-0.71,0.71-1.32,1.76-2.23,2.02
		c-4.28,1.22-6.93,3.02-5.23,8.51c0.75,2.42-2.14,4.43-2.97,6.82C97.74,149.53,96.87,149.9,95.96,150.21z"/>
	<path class="st23" d="M104.04,115.88c2.42,3.18,4.82,6.37,5.99,10.33c-0.99,0.97-1.99,0.85-2.99,0.04
		C101.65,124.15,104.99,119.35,104.04,115.88z"/>
	<path class="st24" d="M107.04,126.25c1-0.01,2-0.03,2.99-0.04c0.29,0.05,0.58,0.09,0.87,0.11c1.23,1.11,2.75,0.88,4.21,0.98
		c1.25,0.08,2.8-0.22,3.08,1.67c0.22,1.49-0.7,2.46-1.81,3.22c-1.17,0.8-2.33,1.63-3.54,2.36c-0.45,0.24-0.94,0.38-1.45,0.43
		c-1.7-0.08-2.56-1.27-3.26-2.66c-0.35-0.62-0.69-1.25-1.07-1.86c0.29-0.75,3.13-1.62-0.1-2.2
		C106.99,127.58,107.02,126.91,107.04,126.25z"/>
	<path class="st44" d="M95.96,150.21c0.38-0.76,0.75-1.52,1.13-2.27c2.21-2.13,4.54-2.79,7.08-0.59c0.87,1.27,0.93,2.52-0.12,3.73
		c-2.04,0.04-4.09,0.08-6.13,0.12C97.27,150.86,96.62,150.54,95.96,150.21z"/>
	<path class="st3" d="M107.04,275.23c-2.17-0.18-4.64,0.58-6.01-2.08c14.49-3.63,28.96-5.34,43.59-0.49
		c2.59,0.86,5.59,0.35,8.4,0.49c2.09,0.11,4.26-0.35,6.2,1.31c-6.41,1.11-12.82-1.05-19.21-0.28c-6.66,0.01-13.32,0.01-19.98,0.02
		C115.67,274.23,111.29,273.83,107.04,275.23z"/>
	<path class="st27" d="M122.02,282.47c2.11-0.12,4.05-0.74,5.15,2.41c1.1,3.16,4.89,1.91,7.25,3.25c0.63,0.36,1.94,0.02,1.53,1.28
		c-0.2,0.61-1.27,0.91-1.95,1.35c-6.85,0-13.7,0-20.56,0c-0.08-0.47-0.17-0.93-0.25-1.4C117.42,288.68,119.36,285.12,122.02,282.47z
		"/>
	<path class="st22" d="M167.98,95.18c-5.42-6.6-8.18-13.95-6-22.7c1.56,0.44,2.11,1.93,3.02,3.06c1.59,4.93,3.18,9.87,4.77,14.77
		c2.15-0.09,0.98-3.09,2.95-3.03c0.05,0.16,0.05,0.35,0.15,0.48c3.18,4.19,1.82,6.5-2.87,7.44
		C169.32,95.19,168.65,95.18,167.98,95.18z"/>
	<path class="st6" d="M231.95,619.74c-2.66-0.68-5.33-1.36-7.99-2.04c-2.81-2.85-1.83-5.43,0.75-7.59c1.85-1.55,3.81-3.72,6.55-1.81
		C233.6,609.93,233.95,617,231.95,619.74z"/>
	<path class="st29" d="M111.99,133.44c1.5-1.33,3.01-2.66,4.77-4.22c-1.65-1.73-4.88-0.17-5.86-2.91c0.38-0.03,0.76-0.07,1.13-0.1
		c0.82,0,1.67,0.15,2.46-0.02c3.49-0.71,5.66,0.66,6.56,4.22c1,0.99,0.82,2.13,0.34,3.26c-1.24,2.94-1.35,6.09-1.75,9.21
		c-0.87,1.11-1.99,1.41-3.3,1.09c-1.98-0.93-2.27-3.53-4.18-4.56C110.6,137.47,111.47,135.45,111.99,133.44z"/>
	<path class="st17" d="M152,263.85c5.44,0.93,10.27-2.18,15.63-2.41c6.11-0.26,11.36,1.92,16.73,4.15c0.78,0.32,1.64,0.75,1.31,1.82
		c-0.31,0.99-1.24,1.03-2.09,0.88c-2.4-0.42-4.59-0.32-6.38,1.79c-1.13,1.33-2.49,1.29-3.01-0.57c-0.98-3.51-3.61-3.31-6.32-3.66
		c-7.32-0.94-14.01,2.46-21.07,2.87c-2.26,0.13-6.42,2.84-6.78-2.81C143.47,261.87,147.63,262.21,152,263.85z"/>
	<path class="st14" d="M152,263.85c-3.87,1.51-7.88,2.07-11.99,2.06c-2.78,0.09-5.54-0.15-8.28,0.88c-6.69,2.51-7.91,1.34-6.71-6.06
		c1-0.35,2-0.69,3-1.04c9.11,0,18.22,0,27.8,0C155.13,262.34,152.34,261.88,152,263.85z"/>
	<path class="st16" d="M181.11,284.11c-5.31-0.57-10.62-1.14-15.93-1.73c-0.97-0.11-2.23-0.23-2.11-1.58
		c0.11-1.29,1.39-1.21,2.36-1.37C171.32,278.44,175.86,282.53,181.11,284.11z"/>
	<path class="st45" d="M168.03,296.89c2.05-3.21,5.25-1.58,7.95-2.01c1.57,1.13,3.45,0.89,5.18,1.27c0.83,0.18,1.69,0.55,1.62,1.54
		c-0.07,1.03-1.06,1.08-1.85,1.27C176.37,299.99,172.51,296.38,168.03,296.89z"/>
	<path class="st23" d="M170.98,253.5c-0.12-0.66-0.28-1.32-0.36-1.99c-0.22-1.73,0.33-3.13,2.07-3.44c1.52-0.27,2.48,0.82,2.77,2.26
		c0.35,1.74-0.51,3-2.11,3.46C172.64,253.99,171.78,253.61,170.98,253.5C170.98,253.5,170.98,253.5,170.98,253.5z"/>
	<path class="st29" d="M175.98,133.48c0.67,0.34,1.33,0.69,2,1.03c-0.43,1.03-1.56,2.22,0.28,2.88c0.91,0.32,1.97,0.17,2.97,0.22
		c2.6,0.15,5.85-0.6,6.92,2.66c0.99,2.99,0.13,6.18-1.83,8.71c-1.34,1.74-2.82,3.35-3.68,5.39c-0.37-0.12-0.78-0.11-0.9-0.3
		c-1.18-1.86-0.52-5.78-3.65-5.28c-3.41,0.55-1.98,4.19-2.03,6.49c-0.17,8.43-0.1,16.87-0.06,25.3c0.01,3.05-0.28,5.5-3.58,7.11
		c-3.62,1.77-2.77,5.03-0.79,7.81c0.97,1.36,2.35,2.42,3.55,3.6c0.91,0.9,2.63,1.53,1.69,3.22c-0.82,1.47-2.55,3.48-3.84,2.72
		c-4.46-2.61-8.73,0.86-13.02-0.17c-1.48-2.89-3.76-5.21-5.04-8.28c-1.26-3.03-1.06-5.51,1.73-7.1c2.6-1.49,2.85-3.35,2.14-6.03
		c-1.35-5.09-2.91-10.17-1-15.58c0.54-1.54,0.29-3.81-0.47-5.04c-2.76-4.49-1.43-9.48-2.23-14.19c-1.18-3.17,0.6-4.92,3-6.06
		c2.17-1.03,3.63-2.26,3.17-4.96c0.59-1.8,1.82-3.59,0.19-5.49c-0.1-0.75,0.08-1.46,0.34-2.15c1.54-1.06,1.32-4.15,4.08-3.8
		c0.73,0.62,2.12,1.28,2.09,1.87C167.76,134.61,172.26,133.4,175.98,133.48z"/>
	<path class="st14" d="M156.97,147.97c0.6,7.36,2.93,14.5,2.51,22.01c-0.29,5.19,0.77,10.16,2.52,15.06
		c1.16,3.26,2.41,7.12-3.57,6.73c-1.78-0.12-2.24,1.26-1.56,2.85c0.88,2.03,1.73,4.06,3.57,5.48c2.27,1.75,1.74,3.38-0.44,4.77
		c-1.82,0.44-3.74,1.65-0.86,2.68c3.28,1.18,5.24,3.75,7.85,5.59c1.59,1.8,2.03,3.59-0.01,5.38c-2.63,0.93-2.92-2.06-4.51-2.88
		c-7.73-1.24-10.78-7.56-13.94-13.76c3.04-10.93,2.09-21.96,0.83-32.99c0.11-0.84,0.29-1.85,1.04-2.13c3.26-1.18,3.3-3.48,2.22-6.26
		C155.17,156.73,154.79,151.88,156.97,147.97z"/>
	<path class="st29" d="M166.04,218.33c0.99-1.6,0.95-3.39,0.95-5.19c9.08,0.02,9.51,0.42,9.96,9.18c0.16,3.1,2.52,1.81,4.03,2.2
		c0.89,0.44,1.85,0.76,2.65,1.33c1.34,0.94,4.56,0.37,3.74,2.87c-0.65,1.98-3.19,0.22-4.89,0.12c-0.81-0.05-1.76-0.03-2.41-0.44
		c-4.43-2.79-8-1.59-11.06,2.35c1.03-2.41,0.92-4.37-1.96-5.21C162.37,223.29,162.14,221.64,166.04,218.33z"/>
	<path class="st11" d="M126.6,255.03c-0.54,1.38-1.79,1.56-2.91,1.48c-9.26-0.67-17.6,2.65-25.86,6.32
		c-0.64,0.28-1.29,0.56-1.82-0.02c-0.73-0.78-0.4-1.68,0.23-2.27c1.1-1.03,2.28-1.99,3.52-2.84c0.96-0.66,2.65-0.85,3-1.7
		c2.76-6.69,7.67-4.42,12.23-3.27c3.13,0.79,6.27,0.68,9.43,0.82C125.35,253.59,126.49,253.52,126.6,255.03z"/>
	<path class="st46" d="M102.03,218.32c1.48,0.39,3.99-1.15,4.32,0.95c0.44,2.75-3.09,1.75-4.26,3.29c4.67,4.39,4.76,5.37,1.07,11.84
		c-0.95,0.75-1.94,1.14-3.09,0.47c1.16-4.81-0.17-9.62,0.06-14.43C100.76,219.72,101.4,219.02,102.03,218.32z"/>
	<path class="st38" d="M100.07,234.86c0.67-0.32,1.33-0.65,2-0.97c1.4-0.17,2.42,0.4,3.12,1.64c0.48,3.85,2.62,5.6,6.35,5.3
		c0.45,0.13,0.89,0.25,1.34,0.35c1.94,1.02,4.69-0.66,6.14,1.98c0.33,1.03,0.67,2.07,1,3.1c-6.42,0.18-12.87,0.59-18.99-2.09
		c-0.87-2.21-1.61-4.52-4.05-5.54c-0.43-0.18-0.9-0.56-1.11-0.98c-0.96-1.9-2.89-4.31-0.71-5.91
		C98.08,229.61,98.89,232.98,100.07,234.86z"/>
	<path class="st47" d="M135.01,122.1c7.81-1.22,12.06-7.53,16.95-12.85c1.58-1.72,2.82-3.77,5.02-4.76
		c-0.63,3.43-2.1,6.61-1.42,10.38c0.85,4.69,1.7,5.34,5.82,2.84c-0.42,3.25-0.42,3.25-6.48,3.41c-4.66,1.65-8.57,6.68-14.33,3.48
		C138.72,123.74,136.19,124.54,135.01,122.1z"/>
	<path class="st48" d="M141,123.18c2.85,0.57,5.57,1.54,8.11-1.38c1.32-1.52,3.81-0.67,5.79-0.69c1.81,1.11,3.8,1.02,5.78,0.93
		c2.9-0.14,4.78,1.03,5.23,4.16c-1.05,1.34-1.13,3.37-2.83,4.24c-0.81,0.73-1.69,0.82-2.63,0.31c-1.21-2.51-3.65-2.11-5.72-2.59
		c-3.01-1.73-4.78,0.31-6.55,2.34c-1.51,0.4-2.93-0.11-4.38-0.4c-1.09-0.68-2.02-1.6-3.19-2.15c-1.58-0.47-2.85-1.55-2.75-3.19
		C137.96,122.91,139.71,123.23,141,123.18z"/>
	<path class="st12" d="M116.07,142.82c0.99-0.33,1.97-0.66,2.96-0.99c0.1-2.09,0.95-3.24,3.15-2.71c1.71,1.34,2.32,2.96,1.21,5.03
		c-1.98,3.72-5.91,4.61-9.02,6.72c-4.98,3.37-4.94,6.86,0.03,10.68c1.72,0.87,3.82-0.46,5.43,1c1.89,1.78,0.48,5.32,3.31,6.61
		c0.38,0.89,0.54,1.87,0.91,2.77c0.36,1.21,1.29,2.18,1.42,3.49c-0.41,3.66-3.14,5.27-5.77,6.97c-2.48-0.21-4.97-0.24-7.46-0.42
		c-1.32-0.68-1.66-1.88-1.63-3.28c0.16-3.36,1.57-6.82-0.73-9.98c-2.01-1.64-3.13-4.33-5.74-5.27c-2.32-4.1,0.06-8.24-0.08-12.36
		c-0.01-1.03-0.02-2.07-0.04-3.1c-2.87-2.64-3.32-5.67-1.34-9.08c2.33-2.53,3.92-6.32,8.36-5.27c0.32-0.05,0.64-0.11,0.96-0.18
		c0.64,1.75,1.29,3.49,1.93,5.24C115.63,139.51,114.54,141.9,116.07,142.82z"/>
	<path class="st49" d="M109.88,168.69c4.68,2.19,1.28,6.29,2.07,9.39c-0.83,0.96-1.36,2.34-0.45,3.14c2.5,2.21,1.99,5.04,1.99,7.81
		c-1.06,2.93,0.59,4.77,2.46,6.52c0.22,0.42,0.37,0.87,0.45,1.34c-0.59,2.6,0.02,5.14,0.43,7.7c-0.69,2.02-0.6,4.77-3.83,4.41
		c-0.98-3.46-1.96-6.92-2.94-10.38c-1.79-7.72-3.48-15.38-0.38-23.28C110.44,173.42,109.85,170.93,109.88,168.69z"/>
	<path class="st4" d="M104.04,235.91c-0.66-0.67-1.31-1.35-1.97-2.02c2.45-3.77,1.17-7.56,0.02-11.34c3.26-0.08,6.46-0.28,5.96-5.05
		c-0.34-3.28,2.91-1.93,3.94-3.4c2.15-1.79,3.6-5.79,7.35-2.47c0.25,0.44,0.38,0.93,0.38,1.45c-2.23,3.38-1.2,5.18,2.53,5.96
		c6.77,1.41,13.35,2.2,19.02-3.3c1.26-1.22,2.07-2.19,0.76-3.8c-4.6-4.15-3.09-9.8-3.23-14.93c-0.06-2.33,1.89-3.05,4-2
		c1.05,0.53,1.83,1.48,2.78,2.18c1.11,1.85,2.75,3.42,3.02,5.75c0.26,0.72,0.73,1.32,1.04,2.02c1.42,2.73,4.76,3.81,5.39,7.38
		c0.32,1.8,0.71,3.2-0.65,4.56c-4.1,3.56-8.65,6.3-13.73,8.09c-2.66,2.11-5.84,2.07-8.94,2.35c-1.35,0.08-2.69,0.19-2.87,2.01
		c-0.16,1.64,0.51,2.58,2.2,2.54c3.2,0.35,5.7-2.87,9.02-1.92c5.03-1.19,8.29-4.85,11.09-8.91c1.07-1.55,2.13-3.04,3.45-4.36
		c0.99-1.17,2.31-1.29,3.69-1.26c5.35,0.64,6.19,2.95,3.72,10.11c5.63,6.82-2.78,4.08-3.98,6.26c-1.11,1.11-2.16,0.25-3.25-0.03
		c-0.2-0.02-0.38-0.1-0.57-0.13c-1.1-0.41-2.02,0.1-2.94,0.6c-1.24,0.98-3.17,0.04-4.2,1.61c-7.89,4.15-16.18,6.15-25.06,5.03
		c-3.7,1.99-6.17-1.31-9.19-2.26c-1.07-0.64-2.26-0.82-3.46-0.78c-0.48,0.26-0.95,0.51-1.41,0.81
		C106.45,237.42,105.17,237.09,104.04,235.91z"/>
	<path class="st50" d="M119.04,212.11c-2.75-0.85-4.11,3.54-7.05,2c0.03-1.77,0.07-3.53,1-5.11c0.65-1.76,1.31-3.51,1.96-5.27
		c-1.01-1.47-1.48-3.04-0.01-4.4c1.19-1.1,1.53-2.43,1.65-3.94c0.18-3.06-0.24-6.12,0.06-9.17c0.2-1.99,0.04-4.2,2.37-5.16
		c0.71-2.88,3.52-4.01,4.94-6.29c-0.78-2.72,1.34-4.49,2.36-6.43c1.02-1.94,3.28-1.64,4.69-0.01c1.67,1.92,3.8,2.66,6.06,3.29
		c0.48,0.31,0.85,0.72,1.13,1.23c0.41,2.94,2.78,5.17,2.74,8.27c-0.39,2.62-0.43,5.25,0,7.87c-1.71,4.93-1.45,10.17-1.54,15.22
		c-0.07,4.13,0.29,7.9-2.57,11.3c-1.16,1.37-1.96,2.77-3.97,2.22c-1.15-0.32-1.95,0.42-2.77,1.09c-0.62,0.38-1.28,0.64-2,0.66
		c-0.49-0.03-0.95-0.17-1.39-0.4C125.15,215.59,123.14,212.61,119.04,212.11z"/>
	<path class="st23" d="M119.02,243.16c-2.34-0.02-4.69-0.03-7.03-0.05c-0.92-2.7,0.29-4.44,2.69-4.79c2.59-0.38,4.78,0.68,5.31,3.8
		c0.04,0.31,0.08,0.63,0.12,0.94C119.75,243.1,119.39,243.13,119.02,243.16z"/>
	<path class="st51" d="M119.99,242.13c-2.89-1.61-5.82-3.56-8,0.98c0,0,0.03,0,0.03,0c-2.42,0.13-4.51-1.07-4.43-3.43
		c0.11-3.02,2.98-3.96,5.38-4.94c3.01,1.39,6.02,2.77,9.03,4.16c3.85,2.5,8.49-0.02,13.69,2.41
		C129.71,242.72,124.81,241.82,119.99,242.13z"/>
	<path class="st52" d="M147.06,233.86c0.43-1.6,1.85-2.19,2.95-3.1c3.99-1.38,3.95,1.41,3.97,4.13c-1.52,1.05-3.25,1-4.97,1.03
		C149.38,234.2,148.33,233.91,147.06,233.86z"/>
	<path class="st41" d="M161.99,225.56c-1.07-1.7-1.09-3.6-0.9-5.5c0.26-2.48-1.19-2.9-3.07-2.89c-1.53-2.7-1.18-4.49,2.22-4.52
		c1.58-0.01,3.24-0.45,4.74,0.49c0.83,1.62,1.04,3.38,1.06,5.18c-0.73,2.57-1.58,5.15,1.02,7.21
		C165.37,226.56,163.68,225.5,161.99,225.56z"/>
	<path class="st9" d="M153.98,234.89c-2.85,0.2-1.59-3.85-3.97-4.13c1.68-1.36,3.37-2.73,5.05-4.09c1.27,0.56,1.31,1.97,1.91,3
		c-0.28,1.05-0.03,1.81,1.05,2.15C157.33,233.77,155.77,234.48,153.98,234.89z"/>
	<path class="st35" d="M122,143.76c0.55-1.34,0.24-2.68-0.01-4.01c0.07-1.32,1.31-1.46,2.02-2.13c0.77-8.07,1.5-8.81,8.01-8.27
		c1.57,2.69-0.18,6.1,1.74,8.72c-0.17,1.32-0.83,2.21-2.13,2.47c-4.6,0.91-3.83,4.04-2.99,7.38c1.5,5.99,1.89,11.99-0.48,17.89
		c-0.52,0.63-1.18,0.99-1.95,1.16c-1,0.18-1.99,0.27-2.99,0.01c-2.22-0.11-1.95-3.43-4.21-3.49c-1.73,0.42-3.46,0.87-5.16-0.11
		c-2.89-4.19-0.31-7.08,2.45-9.52C119.41,151.11,121.42,147.92,122,143.76z"/>
	<path class="st53" d="M124.02,137.62c-0.32,1.07-1,1.77-2.02,2.13c-1.33,0.17-2.07,1.24-2.96,2.08c-1.98-4.31-0.91-8.04,2.02-11.42
		C124.24,131.85,122.09,135.63,124.02,137.62z"/>
	<path class="st29" d="M142,126.14c0.71,0.69,1.43,1.38,2.14,2.06c-0.01,2.26-0.15,4.48-1.74,6.27c-2.33,0.71-2.5,3.68-4.55,4.7
		c-0.77,0.01-1.39-0.33-1.87-0.93c-1.67-2.96,1.93-5.9,0.04-8.86c0.34-1.06,0.67-2.12,1.01-3.18
		C138.68,125.35,140.33,125.57,142,126.14z"/>
	<path class="st54" d="M142,126.14c-1.66,0.02-3.31,0.04-4.97,0.06c-1.52-0.12-3.03-0.24-4.62-0.36c0.26-2.06,1.7-2.68,2.6-3.73
		c2.04,0.1,4.17-0.35,5.99,1.08C137.82,125.44,141.46,125.23,142,126.14z"/>
	<path class="st13" d="M136.02,129.37c1.8,2.52,0.08,5.47,0.94,8.1c-0.86,2.04-2.13,2.65-3.97,1.2c-1.38-2.99-0.89-6.18-0.96-9.32
		c2.73,0.81,0.94,3.5,1.77,5.46C136.13,133.35,135.78,131.23,136.02,129.37z"/>
	<path class="st55" d="M104.02,139.66c0,2.77,0,5.54,0,8.31c-2.31-0.01-4.62-0.02-6.93-0.03c0.95-3.98,3.74-7.67,0.84-12.15
		c-0.99-1.54,1.18-1.93,2.46-2.23c2.42-0.58,4.94-0.95,6.67-3.11c0.63,0,1.26,0.01,1.89,0.01c1.41,2.18,0.17,3.01-1.56,4.14
		C105.72,135.68,103.16,136.58,104.02,139.66z"/>
	<path class="st56" d="M104.02,139.66c-2.95-2.45-0.47-3.76,1.12-5c1.53-1.2,3.75-1.61,3.82-4.2c0.69,1.05,1.39,2.11,2.08,3.16
		C108.18,134.99,106.02,137.23,104.02,139.66z"/>
	<path class="st57" d="M116.07,142.82c-1.97-0.68-1.9-2.5-2.15-4.14c0.2-0.95-0.12-2.07,1.17-3.02
		C116.58,137.94,115.83,140.48,116.07,142.82z"/>
	<path class="st28" d="M147.92,204.94c-0.35-0.38-0.7-0.76-1.04-1.14c-0.9-6.64,0.66-13.27,0.12-19.93
		c-0.17-2.13-0.1-4.25-1.21-6.16c-0.12-3.67-0.08-7.31-0.86-10.99c-0.92-4.31,2-7.54,4.58-10.24c2.72-2.85,2.94-5.4,1.08-8.56
		c-0.26-1.69-0.04-3.4-0.11-5.09c0.09-1.36,0.01-2.77,1.02-3.87c2.07-0.96,3.96-1.53,3.84-4.95c-0.11-2.98,1.12-6.47,5.58-4.8
		c0.72,0.41,1.44,0.83,2.17,1.24c-0.06,0.64-0.13,1.29-0.19,1.93c-0.16,1.75,2.05,3.4,0.18,5.21c-0.02,3.08-0.9,5.51-3.98,6.79
		c-1.31,0.54-2.42,1.75-2.12,3.59c0.35,4.8-0.05,9.42-2.96,13.45c0.6,2.91-1.43,4.45-3.04,6.2c1.4,11.77,1.93,23.51-0.92,35.16
		C150.83,205.07,149.98,205.63,147.92,204.94z"/>
	<path class="st15" d="M170.94,137.59c-1.06-0.19-2.76,0.21-2.72-1.35c0.05-1.76,1.82-1.61,3.07-1.58c1.09,0.03,2.64,0.09,2.47,1.67
		C173.59,137.88,171.99,137.39,170.94,137.59z"/>
	<path class="st15" d="M163.07,137.59c-0.2-1.73-2.42-3.39-0.18-5.21C165.8,134,166.51,135.72,163.07,137.59z"/>
	<path class="st58" d="M147.92,204.94c1.01-0.41,1.73-1.11,2.13-2.16c4.05,4.88,7.72,10.37,14.94,10.37
		c-2.86,0.34-6.8-1.32-6.95,4.03c-1.34,0.02-2.69,0.05-4.03,0.07l0.03,0.04c-0.07-3.41-0.91-6.44-3.82-8.49
		C148.88,207.88,148.3,206.46,147.92,204.94z"/>
	<path class="st29" d="M150.97,167.62c-0.01-2.61,1.54-4.39,3.04-6.2c1.87,0.88,3.24,2.17,3.44,4.44
		C155.19,166.04,153.41,168.14,150.97,167.62z"/>
	<path class="st9" d="M112.97,234.73c-0.54,1.18-0.78,2.89-1.69,3.45c-3.95,2.47-1.61,3.63,0.74,4.92c-3.38,1.3-5.89-1.33-8.54-2.47
		c-2.34-1.01,0.35-3.09,0.56-4.73c1.4-0.02,2.78-0.13,3.97-1.01c-0.13-1.18-0.22-2.36,0.98-3.09
		C110.32,232.79,111.65,233.76,112.97,234.73z"/>
	<path class="st59" d="M160.91,129.2c-2.66,1.47-3.85,3.59-2.88,6.74c0.47,1.52,1.79,3.09-0.08,4.6c-1.99,1.61-3.32-0.56-4.96-0.9
		c-1.74-0.82-1.67-3.35-3.56-4.01c-2.86-1.33-3.12,2.77-5.34,2.76c-4.65-0.05-5.15-0.86-3.06-4.9c1.2-1.66,0.74-4.36,3.11-5.29
		c1.29,0.38,2.58,0.76,3.86,1.13c2.59-0.52,3.56-4.86,7.07-3.19C156.81,127.59,161.31,123.38,160.91,129.2z"/>
	<path class="st19" d="M155.07,126.15c-2.32,1.15-3.02,6.15-7.07,3.19C148.85,124.05,149.66,123.69,155.07,126.15z"/>
	<path class="st60" d="M122,143.76c3.2,4.18,1.08,7.56-1.95,10.2c-3,2.61-5.11,5.58-6.19,9.41c-7.56-3.32-8.59-9.08-2.21-13.72
		C114.85,147.32,118.54,145.7,122,143.76z"/>
	<path class="st61" d="M119.04,181.07c-0.49,5.15,1.05,10.45-1.06,15.49c-0.98,0.88-1.95,0.87-2.94,0.01l-0.01,0
		c-1.48-2.37-3.83-4.44-2.54-7.78c0.48-2.57-0.8-5.27,0.51-7.78C115.05,176.76,117.04,178.93,119.04,181.07z"/>
	<path class="st62" d="M126.03,165.53c0.32-0.33,0.64-0.67,0.96-1c2.92-2.21,4.64-0.16,6.1,2.03c1.26,1.9,3.05,3.61,2.92,6.23
		c-1.56,0.88-3.1,0.36-3.95-0.86c-2.85-4.09-4.77-2.69-6.59,0.86c-0.37,0.73-0.99,1.33-1.49,1.99c-0.97-0.3-1.6-0.97-1.95-1.93
		C123.28,170.36,123.58,167.32,126.03,165.53z"/>
	<path class="st41" d="M119.01,163.48c0.54-1.15,1.27-2.17,2.65-1.54c1.5,0.68,1.15,2.28,1.3,3.58c1.28,1.78,0.77,3.06-1.05,3.96
		c-1.01,1.08-2.08,1.47-2.44-0.41C119.13,167.25,119.15,165.35,119.01,163.48z"/>
	<path class="st62" d="M113,181.02c0.01,2.78,0.02,5.55,0.03,8.33c-0.33,0.37-0.67,0.37-1,0c0.05-2.33-0.06-4.59-1.26-6.72
		c-1-1.78-0.95-3.52,1.18-4.54C112.3,179.06,112.65,180.04,113,181.02z"/>
	<path class="st50" d="M121.92,169.49c0.35-1.32,0.7-2.64,1.05-3.96c1.02,0,2.04,0.01,3.06,0.01c-0.25,3.08-1.82,5.37-4,7.31
		C121.99,171.73,121.96,170.61,121.92,169.49z"/>
	<path class="st63" d="M107.53,141.82c0.53,1.99,2.94,3.19,2.12,5.47c-0.07,0.19-1.03,0.31-1.32,0.09
		C106.29,145.88,107.2,143.76,107.53,141.82z"/>
	<path class="st64" d="M115.04,196.57c0.98,0,1.96-0.01,2.94-0.01c-0.54,2.6-3.35,4.19-3.02,7.18
		C110.4,201.29,113.73,198.95,115.04,196.57z"/>
	<path class="st64" d="M112.03,189.35c0.33,0,0.67,0,1,0c0.67,2.41,1.34,4.82,2.01,7.23C113.19,194.54,108.47,193.79,112.03,189.35z
		"/>
	<path class="st14" d="M140,222.46c3.33-1.35,6.52-2.6,8.56-6.18c2.13-3.74,3.61,0.65,5.46,1.01c0,0-0.03-0.04-0.03-0.04
		c-0.11,7.83-5.61,13.53-13.99,14.52C136.27,228.66,139.28,225.56,140,222.46z"/>
	<path class="st54" d="M127.1,218.22c0.29,0.05,0.59,0.09,0.89,0.12c4.31,1.26,7.35-0.49,9.64-4.23c1.46-2.38,3.06-4.7,6.36-2.99
		c3.58,1.22,3.03,3.22,0.69,5.11c-7.83,6.33-16.66,6.96-25.92,4.45c-1.78-0.48-3.85-1.41-3.73-3.55c0.12-2.13,1.79-3.57,3.99-3.98
		C122.71,213.13,125.37,214.89,127.1,218.22z"/>
	<path class="st65" d="M144,211.12c-3.21,2.6-6.37,5.29-9.66,7.78c-2.16,1.64-4.46,2.37-6.35-0.56c0.36-0.39,0.73-0.78,1.09-1.17
		c1.22-1.2,2.31-2.59,4.05-3.05c0.67,0.73,0.94,2.48,2.26,0.26c2.85-4.78,3.39-10.03,3.06-15.34c-0.2-3.26-0.46-6.5-0.4-9.77
		c2.57-0.79,4.77,0.33,6.97,1.47c2.53,2.66,3.19,5.32-0.05,7.94c-1.23-0.77-2.46-1.54-4.38-2.74
		C141.61,201.53,139.22,207.07,144,211.12z"/>
	<path class="st49" d="M144.99,198.69c0.65-2.53-0.59-4.79-0.97-7.17c-2.21-4.55-1.87-9.15-0.32-13.79
		c0.86-1.11,1.84-1.74,3.19-0.81c4.25,6.71,1.87,13.85,1.23,20.86c-0.19,2.03-0.81,4.01-1.24,6.02
		C146.07,202.16,144.56,200.81,144.99,198.69z"/>
	<path class="st62" d="M140,222.46c1.24,3.1,0.51,6.2,0,9.31c-2.68,2.1-5.54,3.35-8.96,2.14c-3.03-2.78-2.94-5.57-0.02-8.37
		C133.96,224.34,137.3,224.4,140,222.46z"/>
	<path class="st47" d="M127.1,218.22c-2.95-1.26-6.52-1.45-8.08-5.07c0.01-0.34,0.01-0.69,0.02-1.03c0.82-1.84,1.63-3.68,3.09-6.95
		C122.07,211.2,128.75,212.58,127.1,218.22z"/>
	<path class="st53" d="M131.03,225.53c0.01,2.79,0.01,5.58,0.02,8.37c-1.71,0.97-3.5,1.4-4.73-0.55c-1.15-1.82-1.83-3.74-0.61-6.09
		C127.06,224.66,128.89,224.9,131.03,225.53z"/>
	<path class="st13" d="M118.49,231.86c-3.41-2.33-7.74-2.35-5.6-7.54c0.49-1.18,0.87-2.29,2.37-2.06c1.47,0.23,2.64,1.05,2.43,2.69
		C117.44,226.95,117.47,228.91,118.49,231.86z"/>
	<path class="st66" d="M111.01,218.8c1.62,3.47,0.56,5.75-0.65,8.96C109.07,224.29,109.83,221.99,111.01,218.8z"/>
	<path class="st31" d="M156.97,229.67c-1.35-0.51-1.84-1.61-1.91-3c1.06-0.5,2.08-2.4,3.26-0.82
		C159.45,227.36,157.9,228.55,156.97,229.67z"/>
	<path class="st37" d="M108.99,231.81c-0.33,1.03-0.65,2.06-0.98,3.09c-0.47-0.45-1.05-0.83-1.39-1.37c-0.67-1.08-1.9-2.52-0.55-3.5
		C107.56,228.94,108.03,231.12,108.99,231.81z"/>
	<path class="st59" d="M136.01,172.79c-3.38-2.32-4.06-7.79-9.02-8.26c1.76-5.82,0.9-11.59-0.66-17.21
		c-1.93-6.92-0.68-8.73,6.65-8.65c1.33-0.4,2.65-0.8,3.98-1.2c0.33,0.4,0.65,0.81,0.98,1.21c2.04-0.84,4.18-0.59,6.29-0.66
		c1.49,0.75,1.42,2.52,2.25,3.71c0.36,0.67,0.69,1.36,0.83,2.13c0.07,0.8-0.01,1.57-0.4,2.27c-0.29,0.42-0.66,0.76-1.09,1.02
		c-2.62,1.18-4.64-1.01-7-1.38c-3.08-0.49-4.89,0.18-4.21,3.9c-0.36,2.26,2.33,3.42,1.89,5.7c-0.07,1.06-0.23,2.07-1.05,2.82
		c-1.28,1.04-2.85,1.94-1,3.91c1.5,1.59,2.27,3.64,2.96,5.71c-0.14,1.67,1.02,3.47-0.5,4.99
		C136.62,172.8,136.31,172.8,136.01,172.79z"/>
	<path class="st41" d="M144.94,178.08c-0.26,4.48,0.68,9.05-0.92,13.44c-3.45,3.92-3.71,3.82-5.96-2.24c0-2.73,0.01-5.47,0.01-8.2
		c0.81-1.69,0.33-3.7,1.26-5.36c1.11-2.05,2.61-2.8,4.73-1.58C145.42,175.19,144.51,176.79,144.94,178.08z"/>
	<path class="st25" d="M127.06,187.1c0.29,1.32,0.65,2.63,0.86,3.96c0.21,1.32,0.26,2.67,0.42,4.43c2.16-1.06,1.37-2.78,1.64-4.07
		c0.34-0.44,0.69-0.44,1.03-0.01c0.39,5.09,0.81,10.18,1.17,15.27c0.12,1.72,0.26,3.82-2.02,3.88c-1.95,0.05-1.91-1.96-2.09-3.47
		c-0.68-5.57-1.37-11.14-2.06-16.71C125.9,189.13,125.66,187.83,127.06,187.1z"/>
	<path class="st45" d="M140.05,177.03c-0.66,1.35-1.32,2.69-1.97,4.04c-0.38-2.76-0.77-5.51-1.16-8.27c-0.34-1.67-0.67-3.35-1-5.02
		c0.07-1.38,0.41-2.58,1.9-3c2.42,0.14,4.47,0.9,5.37,3.53C143.58,171.77,139.63,173.56,140.05,177.03z"/>
	<path class="st61" d="M131.02,191.42c-0.34,0-0.69,0.01-1.03,0.01c-1.86-3.83,0.77-5.51,3.25-7.25c0.68-0.48,1.51-0.94,2.12,0
		c0.52,0.81,0.21,1.72-0.52,2.19C132.95,187.59,131.7,189.26,131.02,191.42z"/>
	<path class="st32" d="M127.06,187.1c-0.35,1.09-0.7,2.19-1.04,3.28c-0.15-0.07-0.31-0.12-0.44-0.21c-1.57-0.96-4.73-1.32-3.57-3.74
		C123.04,184.27,125.38,186.28,127.06,187.1z"/>
	<path class="st63" d="M133.14,214.13c-0.29,2.53-1.84,3.26-4.05,3.05C129.21,214.41,129.75,212.24,133.14,214.13z"/>
	<path class="st67" d="M144,138.74c-2.02-0.26-4.05,1.53-6.06-0.06c0.39-2.02,0.74-4.06,1.18-6.07c0.16-0.73,0.19-2.01,1.33-1.46
		c0.45,0.22,0.4,1.52,0.58,2.33c-0.6,2.67-0.13,4.23,2.97,3.1C144.54,137.31,144.54,138.03,144,138.74z"/>
	<path class="st3" d="M142.04,168.65c-1.85-0.32-4.69,0.72-4.03-3.1c-2.05-1.26-2.39-3.06-1.51-5.22c0.49-1.87,1.76-2.86,3.55-2.76
		c1.5,0.09,2.46-0.52,3.25-1.68c1.1-1.61,1.74-3.54,3.23-4.87c2.02-0.8,2.88-3.81,5.65-3.2c2.63,2.13,2.67,5.2,0.94,7.34
		c-4.38,5.41-7.23,10.98-5.43,18.28c0.25,1.02-0.5,2.31-0.79,3.48c-0.65,0.39-1.3,0.77-1.96,1.16c-0.32-1.05-0.65-2.09-0.97-3.14
		C141.79,173.34,142.82,170.7,142.04,168.65z"/>
	<path class="st3" d="M146.05,145.84c-0.02-0.68-0.03-1.37-0.05-2.05c2.44-2.6,2.42-6.05,2.98-9.3c0.29-0.38,0.63-0.72,1.01-1
		c1.54-1.32,2.72-1.38,2.92,1.05c0.14,1.69,0.06,3.39,0.08,5.09c-0.35,1.06-0.69,2.12-1.04,3.18
		C150.58,145.07,150.25,149.49,146.05,145.84z"/>
	<path class="st59" d="M146.05,145.84c2.63,0.38,4.17-1.53,5.9-3.03c0.07,1.67,0.15,3.34,0.22,5.01c-1.46,1.68,0.18,5.86-4.01,5.34
		c-1.81-2.05-3.28-4.22-2.2-7.21L146.05,145.84z"/>
	<path class="st47" d="M149.99,133.5c-0.03,0.4-0.06,0.79-0.08,1.19c-0.78,3.22-0.02,7.44-4.84,8.06c-0.92-1.17-1.07-2.57-1.07-4.01
		c0-0.72,0-1.43,0-2.15C145.03,133.56,146.55,131.53,149.99,133.5z"/>
	<path class="st68" d="M145.97,145.94c2.35,1.87,4.61,3.78,2.19,7.21c-1.05,1.38-2.1,2.76-3.15,4.14c-3.29,2.82-4.86-0.63-6.98-2.06
		c-1.44-1.97-3.34-3.46-5.05-5.16c-2.29-1.11-3.3-3.06-2.5-5.45c0.85-2.55,3.26-1.8,5.17-1.85
		C139.41,142.68,142.77,144.04,145.97,145.94z"/>
	<path class="st41" d="M137.98,159.34c0.01,2.07,0.02,4.14,0.02,6.21c-0.7,0.74-1.4,1.49-2.1,2.23c-1.54-1.74-3.17-3.41-4.61-5.24
		c-1.08-1.38-1.53-3.13-0.75-4.79c0.83-1.76,2.2-0.84,3.41-0.36C135.19,158.29,137.32,157.21,137.98,159.34z"/>
	<path class="st19" d="M137.98,159.34c-1.62-0.05-3.21-0.15-4.03-1.95c0.35-0.73,0.71-1.45,1.06-2.18c1.07-1.54,2.56-1.55,4.14-1.22
		c2.69-0.29,3.29,3.36,5.86,3.31C143.75,161.94,140.78,160.34,137.98,159.34z"/>
	<path class="st20" d="M139.16,153.99c-1.03,1.67-2.41,2.09-4.14,1.22c-1.06-1.55-1.96-3.16-2.03-5.13
		C135.67,150.33,138.08,151.04,139.16,153.99z"/>
	<path class="st53" d="M145.07,142.75c2.41-2.17,3.26-5.36,4.84-8.06c0.86,4.03,0.6,7.55-3.91,9.1
		C145.69,143.44,145.38,143.09,145.07,142.75z"/>
	<path class="st65" d="M142.04,168.65c2.11,1.61,1.94,3.97,1.92,6.28c-1.74-0.18-2.85,0.93-3.92,2.1
		C137.83,173.51,141.1,171.37,142.04,168.65z"/>
</g>
</svg>
