<?xml version="1.0" standalone="no"?>
<!DOCTYPE svg PUBLIC "-//W3C//DTD SVG 20010904//EN"
 "http://www.w3.org/TR/2001/REC-SVG-20010904/DTD/svg10.dtd">
<svg version="1.0" xmlns="http://www.w3.org/2000/svg"
 width="1280.000000pt" height="786.000000pt" viewBox="0 0 1280.000000 786.000000"
 preserveAspectRatio="xMidYMid meet">
<metadata>
Created by potrace 1.15, written by Peter Selinger 2001-2017
</metadata>
<g transform="translate(0.000000,786.000000) scale(0.100000,-0.100000)"
fill="#000000" stroke="none">
<path d="M4890 7854 c-734 -49 -1343 -289 -1850 -730 -506 -440 -891 -1100
-1096 -1884 -20 -74 -51 -179 -70 -233 -83 -241 -103 -375 -114 -762 -5 -170
-12 -311 -17 -312 -18 -7 -231 -144 -341 -220 -154 -108 -398 -304 -541 -437
-454 -420 -737 -866 -833 -1310 -31 -146 -31 -418 0 -562 78 -361 283 -703
559 -934 290 -242 644 -382 1128 -447 163 -21 646 -24 840 -5 908 92 1935 389
3075 889 218 96 715 333 772 369 79 50 71 94 -17 94 -69 0 -198 -38 -354 -105
-343 -146 -660 -265 -1051 -396 -1676 -559 -2991 -658 -3772 -285 -376 180
-672 517 -765 874 -137 525 152 1079 842 1617 141 110 385 273 547 365 l128
72 33 -29 c128 -112 440 -242 763 -318 160 -38 452 -89 574 -101 41 -3 78 -8
82 -10 3 -3 -22 -46 -56 -97 -91 -133 -101 -154 -85 -184 22 -41 59 -53 162
-53 244 0 475 -33 714 -102 135 -38 144 -40 168 -24 24 15 27 15 94 -29 91
-59 189 -105 221 -104 14 0 43 8 65 18 l40 18 70 -55 c79 -62 127 -86 156 -77
14 5 29 -3 54 -28 37 -37 45 -32 45 27 0 49 -50 116 -160 214 -54 48 -99 90
-99 94 -1 4 54 -12 122 -36 117 -41 123 -42 159 -28 48 18 67 13 156 -44 66
-42 76 -46 116 -40 38 6 48 3 75 -19 l31 -27 0 26 c0 67 -28 102 -153 196 -66
49 -116 90 -111 90 27 -1 238 -61 293 -84 71 -29 99 -32 147 -14 27 9 38 8 73
-9 39 -19 41 -19 41 -2 0 52 -63 132 -114 145 -30 7 -35 24 -7 24 10 0 24 7
32 16 12 14 31 14 73 -2 29 -11 -4 56 -38 77 -38 23 -77 24 -117 4 -27 -14
-35 -14 -97 4 -202 59 -312 83 -409 88 -125 7 -184 -4 -368 -64 -130 -43 -149
-47 -266 -51 -120 -4 -269 11 -269 27 0 4 15 12 33 19 17 6 71 34 118 61 98
56 197 87 955 296 l61 17 67 -51 c76 -58 136 -91 164 -91 11 0 38 7 62 15 l42
15 61 -62 c69 -69 112 -98 143 -98 12 0 36 -16 53 -35 l31 -36 10 26 c26 68
-10 145 -129 273 -50 53 -89 98 -87 99 2 2 55 -22 120 -52 108 -52 119 -55
154 -45 20 5 42 10 49 10 6 0 48 -27 93 -61 61 -46 90 -62 118 -63 40 -2 82
-21 82 -36 0 -6 5 -10 10 -10 6 0 10 20 10 43 0 56 -29 97 -139 197 -46 41
-79 76 -73 78 16 5 145 -43 237 -87 44 -22 120 -58 169 -81 159 -73 290 -171
531 -399 72 -68 145 -129 163 -137 28 -13 32 -19 32 -53 0 -54 66 -182 157
-302 84 -111 143 -165 177 -161 16 2 34 -9 59 -37 l36 -40 7 35 c3 19 3 47 0
62 -3 15 -8 59 -10 99 l-3 72 35 -30 c31 -28 41 -31 80 -26 41 4 52 0 119 -44
67 -43 126 -69 159 -69 18 0 99 -48 119 -70 25 -28 32 -25 39 14 9 50 -16 105
-54 119 -19 7 -28 17 -25 25 3 8 5 23 5 34 0 18 6 15 43 -19 41 -38 104 -62
127 -48 13 8 49 -11 87 -47 l32 -31 6 37 c10 50 -1 84 -36 117 -16 15 -29 36
-29 46 0 11 -7 28 -15 39 -25 33 -16 37 28 11 23 -13 54 -27 70 -31 15 -4 36
-15 46 -25 19 -19 19 -19 25 2 8 31 -19 84 -52 101 -16 8 -35 29 -42 45 -14
34 -80 80 -150 104 -25 9 -106 23 -180 31 l-135 15 -150 76 c-82 41 -160 75
-171 75 -15 0 -50 32 -112 103 -116 132 -382 450 -379 453 1 2 88 8 194 14
105 7 260 20 344 29 l154 17 82 -75 82 -75 0 -54 c0 -38 8 -71 30 -118 42 -91
139 -228 212 -302 52 -53 67 -62 87 -57 19 5 32 -2 63 -34 l38 -41 7 37 c4 20
2 49 -4 65 -6 16 -8 44 -5 62 3 17 1 48 -5 68 l-10 36 44 -34 c40 -30 50 -33
88 -28 38 6 48 2 93 -30 62 -45 130 -75 166 -76 35 0 103 -34 119 -60 18 -29
25 -25 33 19 7 43 -8 82 -43 114 -12 11 -18 26 -15 38 5 19 9 17 45 -18 37
-36 43 -38 105 -39 60 -1 69 -5 90 -29 13 -15 27 -24 30 -21 4 3 7 28 7 55 1
38 -4 55 -21 73 -13 14 -23 30 -23 37 0 6 -7 25 -15 41 -17 33 -10 38 21 15
10 -8 31 -15 45 -15 15 0 38 -9 53 -21 l26 -20 0 37 c0 29 -7 43 -34 68 -18
18 -38 42 -45 54 -31 59 -159 105 -336 123 -119 12 -121 12 -248 78 -115 59
-136 74 -194 138 -41 46 -60 74 -51 77 7 2 117 29 243 59 127 31 356 97 510
147 455 148 646 195 830 206 50 3 96 7 103 9 22 7 13 -5 -53 -78 -35 -40 -79
-92 -96 -117 l-31 -45 39 45 c21 25 71 80 113 123 74 77 75 78 122 76 26 -2
48 -4 48 -6 0 -2 -31 -41 -68 -86 -104 -125 -202 -273 -202 -303 0 -5 13 15
29 43 39 71 90 140 184 251 l79 92 75 0 c59 0 73 -3 66 -12 -5 -7 -25 -33 -44
-58 -97 -123 -270 -414 -269 -454 0 -6 29 43 63 109 69 133 96 175 205 318 71
93 76 97 113 97 21 0 39 -3 39 -7 0 -3 -31 -54 -69 -112 -122 -189 -226 -409
-245 -521 -3 -19 7 5 23 55 41 123 145 327 238 465 l78 115 70 6 c150 14 244
58 343 163 133 141 161 164 233 202 100 53 123 86 116 175 -3 52 -13 85 -45
150 -55 112 -117 192 -259 329 -102 100 -557 515 -622 567 l-23 18 40 80 c114
231 202 572 202 787 0 221 -110 562 -211 653 -59 53 -107 58 -161 15 -15 -11
-170 -203 -347 -428 -176 -224 -331 -420 -343 -435 -21 -26 -26 -27 -53 -17
-62 24 -181 40 -294 40 -135 0 -233 21 -329 69 -50 25 -69 43 -115 108 -122
174 -279 314 -442 393 -120 59 -201 80 -314 80 l-83 0 -191 101 c-757 403
-1603 694 -2262 779 -144 18 -460 32 -575 24z"/>
<path d="M11689 5423 c-110 -115 -223 -265 -341 -453 -80 -130 -91 -150 -79
-150 5 0 26 30 47 68 93 169 266 412 377 530 28 28 48 52 46 52 -3 0 -25 -21
-50 -47z"/>
<path d="M11745 5264 c-154 -128 -455 -443 -455 -476 0 -14 -7 -22 107 112 92
106 296 311 388 388 28 23 48 41 45 42 -3 0 -41 -30 -85 -66z"/>
<path d="M12004 5314 c-18 -14 -18 -15 4 -4 12 6 22 13 22 15 0 8 -5 6 -26
-11z"/>
<path d="M12210 5297 c-217 -89 -520 -287 -802 -525 -67 -56 -95 -92 -72 -92
4 0 50 38 103 83 281 244 564 432 821 545 48 21 5 11 -50 -11z"/>
<path d="M11854 5218 c-91 -63 -182 -133 -270 -208 -98 -85 -284 -262 -284
-272 0 -5 60 47 133 116 158 149 319 284 425 357 81 55 100 69 91 69 -3 0 -46
-28 -95 -62z"/>
<path d="M12385 5250 c-25 -11 1 -11 35 0 20 6 21 8 5 8 -11 0 -29 -3 -40 -8z"/>
<path d="M12315 5230 c-13 -5 -14 -9 -5 -9 8 0 24 4 35 9 13 5 14 9 5 9 -8 0
-24 -4 -35 -9z"/>
<path d="M12235 5201 c-22 -11 -35 -19 -30 -19 14 -1 93 36 80 37 -5 0 -28 -8
-50 -18z"/>
<path d="M12031 5105 c-80 -42 -210 -118 -290 -171 -144 -96 -366 -257 -377
-276 -17 -27 11 -11 88 51 191 153 412 298 613 403 72 37 126 67 120 68 -5 0
-75 -34 -154 -75z"/>
<path d="M12110 4990 c-8 -5 -10 -10 -5 -10 6 0 17 5 25 10 8 5 11 10 5 10 -5
0 -17 -5 -25 -10z"/>
<path d="M11985 4941 c-124 -52 -327 -155 -465 -235 -119 -70 -137 -82 -129
-91 3 -3 66 32 140 76 127 76 373 204 504 261 33 15 56 27 50 27 -5 0 -50 -17
-100 -38z"/>
</g>
</svg>
