<?xml version="1.0" standalone="no"?>
<!DOCTYPE svg PUBLIC "-//W3C//DTD SVG 20010904//EN"
 "http://www.w3.org/TR/2001/REC-SVG-20010904/DTD/svg10.dtd">
<svg version="1.0" xmlns="http://www.w3.org/2000/svg"
 width="1280.000000pt" height="1022.000000pt" viewBox="0 0 1280.000000 1022.000000"
 preserveAspectRatio="xMidYMid meet">
<metadata>
Created by potrace 1.15, written by Peter Selinger 2001-2017
</metadata>
<g transform="translate(0.000000,1022.000000) scale(0.100000,-0.100000)"
fill="#000000" stroke="none">
<path d="M10568 9839 c-10 -5 -37 -40 -61 -77 -69 -105 -175 -238 -283 -352
-104 -110 -337 -396 -441 -540 -87 -122 -169 -268 -189 -339 -9 -34 -20 -64
-25 -66 -4 -3 -45 -12 -91 -20 -74 -13 -257 -78 -340 -121 -16 -8 -33 -12 -37
-9 -5 3 -21 1 -36 -5 -15 -6 -104 -26 -197 -45 -124 -24 -176 -39 -192 -54
-12 -11 -46 -25 -76 -32 -64 -13 -242 -65 -530 -154 -113 -35 -243 -71 -290
-80 -114 -23 -564 -177 -670 -230 -80 -39 -96 -43 -260 -64 -155 -20 -312 -49
-1024 -187 -98 -19 -296 -50 -440 -70 -245 -34 -273 -35 -446 -30 -102 3 -354
10 -560 16 -206 5 -445 17 -530 25 -85 8 -219 19 -297 25 -211 15 -280 27
-475 80 -345 95 -396 96 -774 9 -148 -34 -289 -62 -314 -63 -25 0 -83 8 -129
18 -90 20 -162 18 -277 -9 -157 -36 -244 -91 -337 -213 -56 -74 -116 -186
-131 -245 -3 -15 -28 -51 -55 -81 -68 -74 -129 -167 -158 -239 -23 -57 -25
-74 -27 -276 -2 -119 -7 -270 -11 -336 -5 -82 -4 -143 4 -190 17 -100 87 -387
116 -475 13 -41 34 -127 45 -190 12 -63 35 -169 51 -235 26 -108 30 -146 39
-375 9 -229 12 -266 38 -365 28 -109 28 -110 11 -170 -9 -33 -34 -120 -54
-193 -37 -134 -64 -202 -158 -392 -41 -82 -52 -115 -51 -150 0 -25 24 -124 53
-220 l52 -175 -3 -583 -3 -582 46 -58 c69 -86 76 -101 84 -177 4 -38 13 -88
21 -110 7 -22 14 -57 14 -78 0 -52 13 -72 66 -103 62 -37 160 -56 279 -55 115
1 145 9 235 62 36 20 85 43 109 50 33 10 47 21 59 45 22 48 3 103 -78 223 -37
55 -73 120 -80 145 -12 44 -36 72 -103 118 -14 10 -31 35 -38 55 -6 21 -38 91
-71 157 -99 197 -102 211 -102 496 l-1 245 56 125 c31 69 73 177 94 240 49
149 59 169 116 237 51 62 124 157 238 314 56 77 88 109 158 160 48 35 131 104
185 154 120 109 177 145 235 145 40 0 46 -4 95 -64 29 -35 80 -108 113 -163
l60 -98 -1 -110 c-1 -65 -8 -136 -17 -175 -23 -91 -22 -166 4 -214 11 -21 24
-62 29 -91 7 -43 24 -73 97 -174 307 -425 374 -532 442 -705 62 -157 71 -195
71 -313 0 -105 14 -145 64 -184 30 -23 69 -99 97 -187 26 -81 52 -111 119
-135 100 -36 231 -45 381 -26 99 13 154 39 184 86 12 20 32 34 50 39 33 7 65
31 65 49 0 6 -14 24 -31 41 -17 16 -49 54 -72 84 -23 30 -63 75 -88 100 -26
26 -62 78 -85 125 -32 65 -44 82 -69 89 -18 5 -48 31 -75 64 -25 30 -83 98
-129 151 -171 197 -210 265 -325 579 -107 289 -136 402 -136 535 0 90 4 111
46 238 25 76 49 139 54 139 4 0 36 -14 70 -31 99 -49 224 -94 380 -138 176
-49 248 -64 408 -86 160 -21 243 -58 342 -151 39 -37 77 -54 120 -54 30 0 39
10 118 133 l37 59 235 -5 c276 -5 346 -16 710 -108 301 -76 361 -97 431 -155
30 -25 73 -54 97 -65 30 -13 42 -24 42 -39 0 -31 65 -283 116 -453 39 -129 43
-152 34 -185 -15 -54 -13 -234 4 -284 8 -24 17 -65 20 -92 3 -26 18 -76 33
-110 28 -60 28 -63 27 -256 -2 -223 -20 -372 -64 -535 -20 -73 -30 -134 -30
-180 0 -61 -4 -76 -30 -115 -33 -48 -60 -127 -60 -171 0 -18 11 -37 34 -57 48
-42 53 -55 71 -178 9 -59 22 -122 29 -139 43 -103 236 -158 483 -136 165 14
213 34 314 132 l81 77 -18 33 c-11 18 -52 68 -93 111 -64 67 -78 89 -101 156
-15 42 -30 85 -34 94 -7 15 -4 16 26 7 18 -5 106 -19 195 -30 l163 -19 62 21
c72 24 114 51 123 79 4 11 11 20 17 20 18 0 78 50 78 65 0 13 -97 147 -167
229 -18 22 -33 47 -33 57 0 19 -54 126 -77 151 -8 9 -16 37 -18 62 -1 25 -14
67 -28 93 -67 126 -67 124 -78 290 -7 104 -7 210 -1 310 9 145 11 155 45 225
20 40 53 100 74 132 l38 60 -3 143 -2 143 82 39 c46 22 115 47 153 56 173 41
237 67 350 144 61 41 164 116 230 166 66 50 152 110 190 132 123 71 387 244
468 306 45 35 86 76 97 96 31 62 78 223 105 361 51 253 129 459 214 562 123
149 144 167 234 199 48 16 137 43 198 59 68 18 121 37 134 50 30 29 208 60
338 60 96 0 104 2 181 39 63 30 107 63 191 141 154 142 213 180 280 180 29 0
71 -6 93 -14 104 -37 435 -89 499 -79 51 8 127 36 163 58 50 31 100 91 107
127 5 23 15 34 47 48 61 26 154 87 170 113 8 12 18 54 21 92 8 78 40 199 61
230 43 60 -2 128 -149 227 -49 33 -107 76 -129 96 -69 62 -567 662 -597 719
-6 12 -18 57 -27 100 -21 105 -122 331 -185 415 -27 37 -80 91 -117 120 -151
118 -251 219 -298 300 -40 68 -45 83 -36 103 6 13 52 79 103 147 51 67 149
209 219 313 282 424 328 543 366 950 17 186 13 235 -20 235 -34 0 -58 -39
-105 -175 -58 -167 -116 -294 -178 -389 -53 -81 -235 -293 -424 -491 -74 -77
-174 -183 -222 -234 l-88 -93 -87 17 c-48 9 -131 20 -184 22 -54 3 -98 10 -98
15 0 15 66 140 192 366 251 450 428 825 428 908 0 42 -52 67 -92 43z"/>
</g>
</svg>
