<?xml version="1.0" standalone="no"?>
<!DOCTYPE svg PUBLIC "-//W3C//DTD SVG 20010904//EN"
 "http://www.w3.org/TR/2001/REC-SVG-20010904/DTD/svg10.dtd">
<svg version="1.0" xmlns="http://www.w3.org/2000/svg"
 width="1280.000000pt" height="1011.000000pt" viewBox="0 0 1280.000000 1011.000000"
 preserveAspectRatio="xMidYMid meet">
<metadata>
Created by potrace 1.15, written by Peter Selinger 2001-2017
</metadata>
<g transform="translate(0.000000,1011.000000) scale(0.100000,-0.100000)"
fill="#000000" stroke="none">
<path d="M5536 10092 c-47 -16 -55 -25 -148 -157 -503 -713 -794 -1238 -958
-1723 -82 -243 -142 -515 -157 -711 -3 -47 -9 -88 -13 -91 -4 -3 -37 -54 -73
-115 -74 -123 -175 -253 -236 -302 -61 -50 -197 -130 -473 -279 -401 -216
-547 -315 -712 -480 -56 -55 -121 -128 -146 -162 -38 -51 -53 -63 -95 -77
-215 -71 -638 -291 -930 -483 -284 -187 -474 -344 -787 -649 -114 -111 -271
-253 -350 -317 -79 -63 -172 -144 -208 -180 -44 -45 -72 -66 -88 -66 -36 0
-95 -65 -123 -135 -22 -55 -24 -76 -27 -275 -2 -118 -5 -231 -5 -250 -1 -25
10 -54 35 -95 33 -53 35 -61 22 -79 -8 -11 -14 -25 -14 -30 0 -5 58 -68 128
-140 71 -72 155 -162 187 -201 124 -150 373 -420 435 -472 36 -29 88 -65 115
-79 132 -67 412 -261 894 -623 458 -344 590 -431 696 -460 22 -6 141 -34 265
-62 130 -30 276 -70 345 -96 214 -80 668 -234 673 -228 3 3 12 -18 19 -47 17
-66 73 -183 110 -226 l28 -33 95 123 95 123 7 -60 c4 -33 11 -103 17 -156 11
-98 47 -236 59 -224 4 3 18 75 32 158 l26 152 28 -80 c44 -125 90 -208 153
-275 l58 -63 6 34 c4 19 10 83 14 143 l7 110 41 -78 c52 -100 164 -220 263
-282 41 -26 76 -45 78 -43 2 2 -41 76 -95 163 -54 88 -96 162 -94 164 6 7 126
-52 190 -93 75 -47 160 -128 195 -184 27 -43 28 -43 40 -21 28 51 -16 147
-147 322 l-84 113 166 -170 166 -170 -6 48 c-13 103 -71 238 -158 367 -49 73
-50 74 -16 47 80 -67 308 -288 377 -367 41 -47 102 -127 136 -177 55 -83 62
-90 69 -70 12 29 14 198 4 267 l-8 55 35 -40 c62 -69 134 -183 152 -240 31
-99 48 -28 18 76 -9 30 -37 96 -64 147 -27 50 -46 92 -43 92 4 0 40 -26 82
-57 148 -110 278 -263 327 -385 10 -25 22 -44 25 -42 16 9 33 157 33 274 0
140 -19 251 -65 393 -35 109 -135 319 -207 434 l-51 82 32 5 c18 3 66 10 107
16 460 67 1003 213 1396 375 377 155 664 322 814 474 130 132 169 231 135 347
-14 49 -28 69 -88 129 -110 109 -244 180 -498 264 -294 96 -423 124 -547 119
-161 -6 -231 -56 -394 -280 -55 -76 -102 -137 -104 -135 -2 2 15 46 37 98 132
305 196 612 205 994 8 301 29 378 138 493 52 56 142 132 155 132 5 0 49 -71
98 -158 237 -417 495 -753 835 -1089 168 -166 245 -235 389 -351 67 -53 105
-92 124 -127 36 -62 210 -336 382 -600 321 -491 411 -665 577 -1116 91 -248
155 -399 236 -558 62 -122 175 -299 229 -361 l31 -35 -21 55 c-11 30 -38 101
-59 156 -88 229 -118 346 -140 529 -14 114 -27 163 -94 360 -172 504 -266 927
-295 1340 -5 77 -8 141 -6 143 8 8 69 -50 116 -109 47 -58 128 -186 169 -267
12 -24 23 -42 26 -40 2 2 -39 132 -91 288 -52 156 -93 285 -91 287 2 2 115
-206 251 -462 136 -256 249 -465 250 -465 4 0 1 9 -276 630 -109 244 -197 446
-195 447 2 2 119 -181 261 -407 142 -225 259 -410 262 -410 2 0 0 8 -5 18 -60
113 -465 878 -500 942 -28 53 -38 79 -26 69 10 -9 104 -87 209 -175 118 -99
180 -146 165 -124 -14 19 -105 145 -203 279 -98 133 -177 244 -175 246 2 2 80
-46 173 -107 l170 -110 -115 113 c-127 125 -158 173 -199 305 l-26 82 -90 60
c-186 124 -364 291 -467 437 -50 70 -98 156 -98 174 0 5 58 -20 129 -56 112
-57 137 -66 197 -70 60 -5 73 -2 97 17 57 45 79 123 93 326 8 115 1 137 -48
153 -18 5 -102 19 -187 31 -411 56 -636 135 -721 251 -28 39 -38 69 -24 69 3
0 71 -22 150 -50 168 -58 373 -113 499 -134 138 -23 289 -35 330 -26 92 21
175 169 175 314 0 96 0 97 -204 89 -185 -6 -463 9 -598 32 -118 21 -232 63
-276 102 l-37 32 75 0 c41 1 327 -8 635 -19 308 -11 571 -20 585 -20 18 0 5
10 -45 34 -94 46 -130 84 -130 138 0 36 6 46 51 87 28 26 85 64 128 84 42 21
76 39 76 40 0 1 -55 -3 -122 -10 -155 -15 -456 -16 -573 -2 -101 12 -273 53
-289 69 -7 7 15 10 65 10 86 0 484 25 639 40 218 22 368 55 440 96 l25 15 -25
-6 c-86 -20 -650 -16 -650 5 0 4 26 10 58 14 183 21 482 101 617 165 72 34
136 83 124 95 -6 6 -188 -30 -472 -93 -125 -29 -249 -54 -275 -57 l-47 -6 35
23 c72 46 301 150 416 189 66 21 185 53 264 69 139 27 144 29 115 42 -20 9
-68 13 -145 12 -119 -1 -108 1 -664 -118 -94 -20 -176 -34 -185 -33 -8 2 71
29 175 62 305 94 703 226 781 258 40 16 78 39 86 52 9 12 29 63 47 112 72 205
164 348 330 514 139 138 255 227 555 423 158 103 195 139 355 337 218 270 411
449 805 746 222 166 219 161 74 163 -136 2 -324 -41 -519 -118 l-55 -22 34 28
c96 79 241 176 446 298 l40 24 -115 1 c-229 0 -498 -61 -746 -170 -68 -29 -68
-29 -39 -5 55 46 242 175 377 259 180 113 346 205 589 327 l204 102 -35 15
c-82 34 -284 -22 -533 -147 -357 -181 -817 -480 -1652 -1076 -514 -367 -684
-476 -1390 -890 -1140 -669 -1553 -927 -1900 -1185 -133 -99 -152 -110 -172
-101 l-24 11 21 39 c23 47 61 77 150 121 96 48 174 104 261 188 95 90 133 146
192 280 l45 103 -122 -118 c-231 -223 -419 -321 -676 -353 -94 -11 -200 -13
-224 -4 -10 4 28 21 96 44 357 120 618 293 768 509 31 45 34 47 -225 -93 -243
-132 -575 -299 -581 -293 -2 2 58 65 133 140 146 144 323 298 515 450 64 50
115 93 114 95 -2 1 -57 -20 -122 -48 -137 -57 -371 -188 -572 -319 -76 -50
-142 -91 -146 -91 -4 0 14 28 40 61 100 131 290 302 600 544 78 61 138 111
133 113 -20 8 -121 -21 -189 -54 -105 -50 -207 -119 -461 -311 -209 -158 -385
-287 -419 -308 -22 -14 103 145 221 279 178 204 378 387 582 535 48 35 86 65
84 68 -9 8 -148 -42 -229 -83 -192 -96 -421 -273 -697 -539 -52 -49 -90 -83
-85 -73 5 9 83 103 174 209 362 424 548 654 538 665 -3 2 -32 -13 -66 -34
-192 -117 -452 -374 -711 -702 -96 -121 -112 -139 -84 -90 287 487 443 718
638 945 42 49 72 91 67 93 -28 9 -108 -52 -227 -172 -137 -137 -284 -315 -500
-601 -153 -204 -158 -210 -109 -120 188 346 441 730 695 1057 55 70 99 130 99
134 0 14 -63 -7 -105 -36 -142 -97 -401 -394 -656 -750 -57 -80 -112 -156
-122 -170 l-19 -25 15 25 c7 14 68 115 134 225 91 152 363 611 560 948 13 23
-45 -21 -109 -81 -161 -152 -375 -444 -720 -981 -65 -101 -118 -179 -118 -173
0 22 105 255 189 417 122 237 247 443 495 815 117 176 210 320 206 320 -14 0
-279 -279 -361 -380 -189 -231 -422 -567 -634 -912 -59 -98 -110 -176 -112
-174 -6 5 53 147 120 288 139 295 395 711 767 1248 111 160 115 169 41 90
-241 -256 -500 -605 -943 -1270 -105 -157 -195 -289 -200 -295 -14 -14 144
301 255 510 205 387 400 720 638 1090 l129 200 -100 -103 c-285 -294 -634
-771 -968 -1322 -51 -85 -96 -157 -99 -160 -28 -27 257 530 371 725 174 297
499 766 709 1024 33 41 56 72 49 70 -6 -2 -68 -56 -137 -119 -275 -249 -627
-664 -1021 -1205 -77 -107 -148 -204 -158 -217 l-17 -23 12 25 c18 38 207 350
347 575 222 354 558 854 728 1081 l29 39 -51 -42 c-74 -62 -264 -261 -380
-399 -136 -162 -284 -362 -417 -563 -138 -208 -139 -209 -133 -191 21 65 257
594 309 694 67 129 201 339 321 505 68 93 68 94 62 144 -16 115 -61 140 -180
99z"/>
</g>
</svg>
