<?xml version="1.0" encoding="utf-8"?>
<!-- Generator: Adobe Illustrator 25.3.1, SVG Export Plug-In . SVG Version: 6.00 Build 0)  -->
<svg version="1.1" id="Capa_1" xmlns="http://www.w3.org/2000/svg" xmlns:xlink="http://www.w3.org/1999/xlink" x="0px" y="0px"
	 viewBox="0 0 700 600" style="enable-background:new 0 0 700 600;" xml:space="preserve">
<style type="text/css">
	.st0{display:none;fill:#FFFFFF;}
	.st1{fill:#FFFFFF;}
</style>
<g>
	<path class="st0" d="M63,13c191.33,0,382.67,0,574,0c0,191.33,0,382.67,0,574c-191.33,0-382.67,0-574,0C63,395.67,63,204.33,63,13z
		 M341.97,157.21c-6.28-17.64-15.32-32.39-25.37-46.65c-3-4.25-5.95-6.23-11.01-3.87c-1.91,0.89-4.08,1.22-6.14,1.8
		c-42.07,11.89-75.17,36.96-101.44,71.06c-14.51,18.84-24.66,40.2-30.89,63.46c-4.7,17.56-7.56,35.29-7.69,53.34
		c-0.07,10.04,1.34,20.18,3.06,30.11c1.91,11.01,4.12,22.1,7.64,32.68c8.52,25.63,22.09,48.42,40.31,68.53
		c15.25,16.84,32.89,30.42,52.76,41.19c13.69,7.42,27.9,13.71,43.28,16.64c12.9,2.46,25.86,5.17,38.91,6.12
		c11,0.79,22.17-0.83,33.26-1.32c15.54-0.68,30.22-5.12,44.68-10.36c38.55-13.98,69.31-38.31,92.77-71.65
		c21.28-30.26,32.98-64.03,34.78-101.19c1.16-23.91-1.4-47.24-8.5-70.11c-7.68-24.76-19.95-47.17-36.6-66.8
		c-12.57-14.82-26.86-28.11-43.49-38.66c-30.34-19.25-63.24-30.08-99.22-31.18c-7.68-0.23-7.69-0.05-7.69,7.67
		c-0.01,36.16,0.02,72.33-0.13,108.49c-0.01,1.85-1.32,5.12-2.38,5.27c-3.23,0.47-4.09-2.21-4.68-5.12
		c-1.15-5.66-2.1-11.49-4.31-16.76c-5.16-12.34-11.06-24.37-16.54-36.57c-0.6-1.34-1.11-3.42-0.49-4.46
		C328.54,156.02,338.41,154.64,341.97,157.21z M315.08,37.63c0.38,0.26,0.77,0.53,1.15,0.79c-0.73,3.34-2.07,6.69-2.02,10.02
		c0.07,4-1.32,6.75-4.45,8.78c-3.34,2.16-6.62,4.52-10.23,6.1c-14.25,6.26-29.04,11.44-42.82,18.57
		c-11.74,6.08-21.77,6.98-31.56-2.76c-2.53-2.52-5.8-2.57-7.92-0.03c-1.41,1.68-2.26,4.94-1.65,6.98
		c1.91,6.38,5.87,11.37,12.16,14.34c10.52,4.97,21.03,4.03,31.32-0.23c15.94-6.6,31.79-13.41,47.52-20.48
		c11.2-5.03,20.67-12.11,24.44-24.64c1.77-5.9,1.14-11.73-2.46-16.59c-1.37-1.86-4.77-2.21-8.33-3.72c1.48-0.82,2.86-2.23,4.24-2.24
		c20.76-0.13,41.52-0.38,62.27,0.11c7.21,0.17,12.9,7.3,12.72,14.59c-0.1,3.87,1.35,6.36,4.35,8.26c2.1,1.33,4.25,2.59,6.47,3.71
		c4.81,2.42,7.26,1.01,7.06-4.47c-0.2-5.43-0.52-10.95-1.68-16.23c-2.28-10.47-15.11-23.35-27.36-23.68
		c-20.81-0.56-41.64-0.37-62.47-0.44c-8.85-0.03-16,4.1-22.2,9.9c-10.07,9.41-10.2,21.72-9.2,34.18c0.06,0.8,1.95,2.02,3.04,2.08
		c7.36,0.39,14.08-6.69,14.69-14.48C312.38,43.18,314.06,40.43,315.08,37.63z M601.68,314.35c0.08,0.23,0.17,0.47,0.25,0.7
		c4.53-1.39,9.77-1.76,13.46-4.35c11-7.71,14.74-19.24,13.87-32.23c-0.37-5.56-1.97-11.03-2.81-16.57
		c-2.25-14.82-4.33-29.67-6.61-44.49c-1.96-12.77-10.97-23.1-23.45-25.55c-9.34-1.83-18.23-0.2-24.53,8.16
		c-2.63,3.48-2.33,6.74,0.74,9.77c3.59,3.54,8.8,4.63,11.57,2.46c7.86-6.15,15.52-3.42,17.79,6.68c1.5,6.69,2.36,13.54,3.37,20.34
		c0.73,4.9,0.59,10.01,1.96,14.71c3.36,11.51,3.27,23.22,2.73,34.94c-0.15,3.34-1.84,6.69-6.15,7.43c-5.94,1.02-11.23,8.92-10.04,15
		c0.19,0.99,1.42,2.22,2.41,2.51C597.95,314.37,599.86,314.22,601.68,314.35z M108.9,315.07c2.43-0.96,6.15-1.26,7.03-3
		c2.46-4.89-2.95-13.33-8.16-15.88c-3.07-1.5-6.72-4.61-7.39-7.6c-1.21-5.38-0.93-11.28-0.25-16.84c1.07-8.81,3.15-17.49,4.5-26.27
		c1.29-8.45,2.02-16.99,3.31-25.44c1.41-9.17,9.86-13.84,16.52-9.38c5.53,3.71,9.45,3.29,14.29-1.71c2.81-2.9,3.3-5.78,0.3-9.18
		c-11.12-12.6-33.5-12.37-44.18,6.18c-6.28,10.91-6.18,23.39-8.13,35.34c-1.44,8.8-2.41,17.68-3.82,26.48
		c-1.75,10.9-2.58,21.67,2.56,31.99C90.22,309.31,98.1,313.89,108.9,315.07z M355.01,575.83c8.66,0,17.33-0.27,25.98,0.05
		c22.19,0.83,39.57-17.87,36.19-42.05c-0.22-1.58-2.35-4.13-3.6-4.13c-6.33-0.01-13.12,7.32-14.02,13.79
		c-1.15,8.3-6.33,14.29-14.46,14.39c-19.48,0.25-38.97,0.16-58.46,0.06c-6.91-0.03-14.05-6.46-14.6-12.71
		c-0.72-8.17-5.37-13.81-13.02-16.2c-2.85-0.89-4.25,0.11-4.49,2.78c-0.29,3.31-0.16,6.65-0.39,9.96
		c-1.2,17.29,15.13,34.61,33.89,34.09C337.02,575.62,346.02,575.83,355.01,575.83z M221.65,55.82c-7.3-0.02-19.53,5.8-27.17,13.35
		c-12.65,12.5-25.36,24.94-37.91,37.53c-8.04,8.06-12.89,17.5-12.12,29.35c0.65,9.93,12.05,20.41,21.92,20.06
		c3.07-0.11,4.72-1.45,3.93-4.17c-1.3-4.49-2.68-9.17-5.12-13.08c-3.17-5.07-4.06-8.62-0.96-13.81c1.35-2.26,3.02-4.41,4.9-6.25
		c8.18-8,16.48-15.87,24.74-23.8c5.52-5.3,10.96-10.66,16.54-15.89c6.35-5.95,11.17-6.15,18.16-1.38c3.53,2.42,7.18,4.85,11.11,6.4
		c1.6,0.63,5.76-0.74,5.92-1.69c0.64-3.66,1.42-8.23-0.2-11.17C240.56,62.48,234.06,55.13,221.65,55.82z M491.24,55.8
		c-16.46,0.08-27.45,11.44-25.95,24.18c0.15,1.31,2.66,3.63,3.33,3.39c4.54-1.64,9.3-3.24,13.18-5.99
		c5.77-4.08,8.06-4.94,13.99-1.57c2.85,1.62,5.52,3.7,7.93,5.94c6.95,6.44,13.83,12.97,20.55,19.66
		c6.71,6.68,13.44,13.36,19.7,20.44c6.98,7.89,6.39,11.17-0.02,19.11c-2.26,2.8-3.03,7.09-3.64,10.84
		c-0.46,2.78,1.43,4.36,4.67,4.29c13.96-0.31,23.28-13.32,21.88-25.7c-1.02-9.02-5.65-17.27-12.46-23.84
		c-14.34-13.83-28.45-27.89-43.09-41.39C505.05,59.39,497.14,56.18,491.24,55.8z M464.25,513.77c1.42,3.24,2.43,6.73,4.32,9.66
		c5.12,7.93,15.64,12.9,25.3,10.2c9.9-2.77,17.73-8.12,24.8-14.87c10.94-10.46,21.41-21.4,32.19-32.04
		c5.71-5.64,10.75-11.53,13.91-19.16c5.7-13.78,0.24-23.57-10.12-30.97c-2.85-2.04-7.56-1.58-11.45-1.92
		c-0.6-0.05-1.83,1.71-1.99,2.75c-0.76,5.09-0.62,9.95,4.21,13.41c4.68,3.35,4.88,7.85,1.85,12.16c-3.32,4.71-6.99,9.27-11.08,13.32
		c-12.4,12.27-25.01,24.33-37.68,36.31c-5.39,5.09-9.38,5.02-15.24,0.76c-2.94-2.14-5.94-4.32-9.21-5.84
		C468.49,504.96,465.14,507.33,464.25,513.77z M144.32,460.43c0.31,6.43,4.19,15.08,11.3,22.06c14.33,14.09,28.48,28.41,43.53,41.7
		c8.13,7.18,17.63,12.71,29.89,9.06c8.41-2.5,17.3-12.75,17.16-21.71c-0.08-5.37-3.48-7.61-8.12-4.93
		c-4.14,2.4-7.79,5.64-11.94,8.03c-1.85,1.07-4.58,1.72-6.58,1.23c-9.09-2.25-14.31-9.84-20.65-15.84
		c-6.15-5.82-11.91-12.09-18.38-17.51c-6.98-5.84-13.19-12.13-17.21-20.35c-1.67-3.41-1.09-6.3,1.09-9.71
		c2.68-4.18,4.32-9.11,5.9-13.88c0.89-2.7-0.61-4.08-3.76-4.2C154.62,433.94,144.34,444.15,144.32,460.43z M582,354.94
		c-0.1,0.21-0.19,0.41-0.29,0.62c-2.31,0.23-4.65,0.28-6.91,0.73c-12.77,2.52-20.9,10.74-26.83,21.79
		c-5.8,10.82-12.01,21.43-17.66,32.33c-6.19,11.94-13.9,23.46-9.1,38.29c2.89,8.94,8.05,15.46,16.2,19.76
		c0.87,0.46,2.39,0.43,3.28-0.03c5.93-3.05,7.14-11.83,2.35-16.32c-5.38-5.05-7.32-12.94-3.92-19.53
		c8.69-16.83,17.49-33.62,26.79-50.11c4.06-7.2,13.82-12.52,22.57-6.85c1.09,0.7,3.07,1.14,4.1,0.62c4.8-2.4,6.73-7.14,6.79-11.92
		c0.03-1.84-3.49-4.31-5.88-5.48C589.9,357.07,585.86,356.19,582,354.94z M580.56,233.31c2.66,0,5.14,0.52,7.29-0.11
		c3.77-1.1,7.65-2.46,10.8-4.68c1.01-0.71-0.03-4.5-0.34-6.85c-0.83-6.3-6.28-9.21-12.04-6.63c-1.92,0.86-4.17,2.12-6.03,1.8
		c-6.64-1.16-12.2-4.27-15.34-10.7c-1.75-3.58-3.58-7.12-5.44-10.64c-6.92-13.04-14.08-25.95-20.62-39.17
		c-1.37-2.77-1.37-6.99-0.33-9.96c1.3-3.72,4.14-6.98,6.67-10.16c1.6-2.01,2.77-3.6,1.07-6.11c-1.28-1.89-2.34-3.94-3.3-6.01
		c-1.9-4.1-4.61-3.52-7.65-1.51c-9.48,6.29-14.41,15.22-15.57,26.45c-0.79,7.64,2.14,14.41,5.46,20.78
		c8.15,15.6,16.52,31.11,25.5,46.24C557.31,227.2,566.76,234.66,580.56,233.31z M190.14,151.85c1.02-13.18-4.2-22.33-14.35-28.85
		c-1.13-0.72-2.94-1.27-4.11-0.9c-5.74,1.84-7.36,8.66-3.97,13.89c4.6,7.09,8.47,14.61,3.84,23.21
		c-8.5,15.79-16.95,31.61-25.89,47.15c-6.21,10.8-12.31,12.42-23.46,7.48c-4.18-1.85-6.72-0.78-9.17,3.86
		c-2.72,5.15-2.04,10.26,1.32,12.52c5.18,3.5,11.04,3.07,16.82,3.42c12.54,0.76,21.51-5.41,27.7-15.39
		c7.6-12.26,14.65-24.91,21.25-37.74C184.89,171.22,192.47,162.7,190.14,151.85z M190.03,438.5c0.45-0.08,0.9-0.17,1.35-0.25
		c-1.51-5.48-2.19-11.39-4.69-16.37c-7.36-14.67-15.4-29-23.26-43.42c-6.47-11.87-15.07-20.94-29.5-22.52
		c-7.21-0.79-13.92,0.18-19.92,4.41c-2.99,2.11-3.55,7.45-1.39,11.28c2.78,4.91,5.69,6.11,10.13,4.19
		c10.17-4.4,16.84-2.66,22.48,7.18c9.24,16.13,17.98,32.55,26.71,48.97c2.73,5.13,2.74,10.52-0.49,15.68
		c-1.59,2.53-2.97,5.18-4.54,7.72c-2.3,3.74-1.09,8.05,3.17,11.81c3.31,2.92,5.22,0.42,7.61-1.47
		C186.47,458.73,191.68,450.22,190.03,438.5z M379.15,542.22c0.57,1.84,1.54,5.28,2.68,8.66c1.36,4.06,4.02,3.97,7.56,2.67
		c5.44-1.99,7.28-6.72,7.71-11.34c0.73-7.73,5.76-11.42,11.64-14.13c15.97-7.36,32.09-14.42,48.3-21.24c5.66-2.38,11.66-5.1,18-1.72
		c2.73,1.46,5.82,2.68,7.92,4.81c3.92,3.99,7.98,4.16,11.94,1.02c3.69-2.93,0.53-6.4-0.49-9.46c-0.66-1.98-1.86-3.95-3.28-5.49
		c-9.51-10.23-21.37-12.89-33.98-7.98c-19.3,7.52-38.37,15.73-57.13,24.52C388.59,517.92,380.68,526.93,379.15,542.22z
		 M241.26,502.98c1.89,0.49,3.86,0.78,5.66,1.5c8.46,3.39,16.93,6.75,25.28,10.39c11.2,4.89,22.42,9.79,33.38,15.19
		c4.95,2.44,8.68,6.14,8.61,12.78c-0.07,6.26,5.45,11.5,10.91,11.45c1.21-0.01,3.19-0.81,3.49-1.7c1.32-3.88,2.92-7.92,3.01-11.93
		c0.28-12.31-7.47-20.77-17.06-25.67c-19.01-9.7-38.85-17.8-58.54-26.09c-7.02-2.96-14.54-3.98-22.34-1.82
		c-8.84,2.45-15.4,7.22-17.81,16.22c-0.63,2.35,0.34,5.9,1.88,7.87c2.03,2.6,4.82,1.96,7.71-0.32
		C230.03,507.25,234.49,502.82,241.26,502.98z M468.75,103.47c11.28-0.54,20.97-3.9,26.13-15.26c1.72-3.79,2.8-7.37-1.64-9.93
		c-3.8-2.19-6.93-1.27-10.11,1.92c-4.99,5-11.07,7.8-18.32,5.29c-5.77-1.99-11.49-4.15-17.1-6.54C433.8,73,419.88,67.1,406.2,60.7
		c-4.76-2.22-8.53-5.67-8.86-12.06c-0.29-5.55-2.91-10.44-8.76-12.78c-3.12-1.25-5.16-0.27-6.65,2.38
		c-3.24,5.73-3.11,11.97-1.31,17.88c3.02,9.9,10.19,16.67,19.24,21.01c13.31,6.38,26.88,12.22,40.45,18.02
		C449.38,99.04,458.03,104.6,468.75,103.47z M83.19,303.59c-0.34,0.16-0.68,0.32-1.01,0.48c0,4.93-0.49,9.92,0.1,14.78
		c1.18,9.65,2.89,19.24,4.49,28.83c1.63,9.73,2.56,19.67,5.3,29.08c4.4,15.08,14.07,21.41,29.78,21.31c0.83-0.01,1.67-0.06,2.5-0.01
		c7.57,0.44,11.69-4.93,15.77-9.88c1.02-1.23,0.68-4.39-0.13-6.16c-2.27-4.99-10.5-6.89-14.59-3.23c-3.42,3.05-7.14,2.95-10.03,0.82
		c-3-2.21-6.28-5.65-7-9.06c-2.38-11.26-3.76-22.73-5.32-34.15c-1.22-8.9,0.33-18.88-11.27-22.9c-2.3-0.8-3.79-4.01-5.61-6.14
		C85.13,306.13,84.18,304.84,83.19,303.59z M628.56,304c-1.88,1.53-2.64,2.16-3.4,2.76c-4.34,3.44-8.83,6.71-12.94,10.4
		c-1.58,1.42-3.03,3.69-3.32,5.74c-1.44,10.29-2.33,20.65-3.71,30.94c-0.83,6.17-1.77,12.39-3.45,18.36
		c-2.45,8.7-10.15,11.11-17.52,5.97c-3.71-2.59-8.8-1.45-12.69,3.31c-2.62,3.21-1.64,6.44,1.01,9.36c6.41,7.06,19.78,10.25,28.8,6.2
		c8.2-3.69,14.36-10.06,16.72-18.68c2.55-9.33,3.73-19.05,5.31-28.64c2.14-13.01,4.15-26.05,6.05-39.1
		C629.68,308.84,628.97,306.92,628.56,304z M144.68,353.33c-0.47-5.17-0.7-9.58-1.31-13.94c-1.28-9.16-2.98-18.27-4.12-27.44
		c-1.52-12.12-4.67-23.57-14.96-31.14c-4.04-2.97-9.36-4.6-14.35-5.75c-2.78-0.64-6.47,0.68-6.62,4.84
		c-0.27,7.33,1.39,14.22,7.01,14.25c4.05,0.02,6.35,2.26,7.31,5.61c1.58,5.49,2.79,11.1,3.79,16.73c1.77,9.9,3.16,19.87,5.01,29.76
		c0.28,1.5,1.92,3.47,3.32,3.89C134.15,351.44,138.74,352.12,144.68,353.33z M565.42,353.44c5.68-1.2,9.83-2.3,14.06-2.89
		c2.8-0.39,4.11-1.58,4.42-4.32c0.5-4.42,1.03-8.84,1.74-13.23c1.45-8.95,3.22-17.86,4.5-26.84c0.81-5.65,4.9-10.85,10.32-11.98
		c4.32-0.9,6.23-3.94,6.05-7.92c-0.18-3.9,2.41-9.79-3.72-10.75c-4.01-0.63-8.93,0.65-12.61,2.62
		c-11.29,6.03-16.05,16.54-17.85,28.75c-1.37,9.29-3.04,18.54-4.45,27.83C566.98,340.68,566.31,346.67,565.42,353.44z M567.71,116.9
		c0.47,7.48,0.89,14.49,1.38,21.48c0.07,0.93,0.35,1.92,0.79,2.73c7.48,13.66,14.95,27.33,22.56,40.92c1,1.79,2.51,3.65,4.27,4.6
		c5.93,3.2,12.08,6.01,19.06,9.41c-0.94-4.62-0.9-9.86-3.03-13.99c-8.8-17.07-17.92-34-27.64-50.55
		C581.2,124.87,575.31,119.5,567.71,116.9z M614.53,394.31c-6.43,3.28-12.69,6.39-18.84,9.7c-1.05,0.56-1.81,1.88-2.43,3
		c-7.85,14.03-15.71,28.05-23.37,42.18c-0.86,1.59-0.52,3.84-0.72,5.78c-0.38,3.7-0.67,7.42-1.13,11.11
		c-0.27,2.19-0.79,4.36-1.33,7.26c9.52-3.67,15.71-9.66,20.09-17.52c7.74-13.91,15.45-27.85,22.86-41.93
		C612.92,407.72,617.04,401.53,614.53,394.31z M141.72,119.23c-5.61,1.9-10.88,4.03-13.81,9.26
		c-10.34,18.52-20.54,37.12-30.66,55.76c-2.38,4.38-3.39,9.11-1.83,13.23c6.21-3.33,12.25-6.44,18.15-9.81
		c1.46-0.83,2.71-2.36,3.57-3.84c4.46-7.76,8.28-15.92,13.21-23.35C138.56,148.14,141.93,134.64,141.72,119.23z M93.97,391.26
		c1.22,5.34,1.44,10.43,3.51,14.59c7.17,14.4,14.86,28.55,22.62,42.64c3.83,6.95,7.12,14.45,14.09,19.05
		c2.07,1.37,4.61,2.02,7.72,3.33c-0.52-4.25-0.7-6.88-1.18-9.47c-1.13-6.21,0.73-12.59-3.08-18.75
		c-6.99-11.28-12.91-23.22-19.34-34.85c-0.87-1.56-1.83-3.38-3.26-4.27C108.65,399.6,102.08,395.95,93.97,391.26z M396.66,508.39
		c-4.04-1.26-6.86-2.87-9.71-2.9c-21.31-0.24-42.62-0.27-63.93-0.04c-2.4,0.03-4.78,2.1-7.75,3.5c4.66,3.67,8.37,6.02,11.33,9.08
		c3.39,3.52,7.27,3.96,11.74,3.89c11.15-0.18,22.32-0.29,33.46,0.03c5.29,0.15,9.56-0.75,13.34-4.88
		C387.88,514.08,391.67,512.06,396.66,508.39z M316.17,80.34c0.12,0.82,0.24,1.64,0.36,2.46c3.04,0.8,6.08,2.26,9.13,2.29
		c19.64,0.22,39.28,0.18,58.92,0.07c2.39-0.01,4.87-0.7,7.14-1.54c3.44-1.27,3.54-3.08,0.46-5.25c-3.53-2.48-6.76-5.4-10.38-7.74
		c-2.19-1.42-4.85-2.9-7.33-2.97c-11.64-0.3-23.38,0.75-34.93-0.36C327.76,66.18,324.29,76.64,316.17,80.34z M413.02,23.82
		c2.38,5.9,4.67,11.85,7.23,17.69c0.51,1.17,1.92,2.2,3.15,2.77c12.96,5.93,25.95,11.78,38.99,17.54c1.4,0.62,3.6,1.26,4.6,0.61
		c4.88-3.19,9.47-6.81,14.13-10.25C474.1,45.66,417.83,22.22,413.02,23.82z M482.39,538.8c-5.8-4.63-9.96-8.11-14.32-11.31
		c-0.84-0.62-2.67-0.59-3.71-0.12c-13.93,6.26-27.83,12.59-41.65,19.1c-1.39,0.66-2.41,2.53-3.15,4.06
		c-1.86,3.82-3.44,7.78-5.18,11.67c-0.62,1.39-1.38,2.71-2.08,4.06c0.38,0.48,0.75,0.95,1.13,1.43
		C436.99,560.12,458.89,548.65,482.39,538.8z M299.19,567.39c-2.74-5.31-5.91-9.09-6.53-13.25c-0.7-4.76-3.05-7.16-6.76-8.89
		c-11.09-5.18-22.32-10.07-33.34-15.39c-5.16-2.49-9.49-3.06-13.68,1.73c-1.33,1.52-3.71,2.09-5.48,3.27
		c-1.17,0.78-2.13,1.89-3.18,2.85c1.08,1.12,1.95,2.7,3.27,3.29c18.68,8.26,37.4,16.44,56.19,24.45
		C292.29,566.55,295.35,566.64,299.19,567.39z M298.61,22.65c-3.26,0.79-6.89,1.17-10.1,2.54c-18.28,7.79-36.47,15.79-54.64,23.83
		c-1.55,0.69-2.74,2.2-4.17,3.39c4.56,2.93,8.5,5.08,11.98,7.82c2.74,2.15,5.07,2.36,8.16,0.92c12.44-5.81,25.01-11.35,37.43-17.2
		c1.78-0.84,3.6-2.55,4.42-4.31C294.15,34.36,296.12,28.87,298.61,22.65z M194.85,447.27c-2.51,4.88-4.4,9.08-6.78,12.97
		c-1.58,2.57-1.01,4.23,0.94,6.05c8.45,7.9,16.83,15.89,25.36,23.71c0.84,0.77,2.93,1.29,3.75,0.79c4.19-2.54,8.16-5.45,12.76-8.6
		C218.94,470.63,207.12,459.16,194.85,447.27z M194.86,142.9c12.39-11.93,24.4-23.49,36.47-35.11c-5.17-3.22-9-5.8-13.05-8
		c-0.93-0.51-3-0.19-3.82,0.55c-8.7,7.93-17.33,15.95-25.73,24.19c-0.97,0.95-1.13,3.66-0.54,5.08
		C189.95,133.85,192.28,137.87,194.86,142.9z M478.76,107.05c12.23,11.8,24.29,23.42,36.28,34.98c2.14-4.55,3.6-8.67,5.91-12.23
		c1.98-3.07,1.46-4.88-0.96-7.2c-7.56-7.23-15.01-14.57-22.36-22.01c-2.63-2.66-4.98-2.63-7.87-0.59
		C486.52,102.27,483.11,104.28,478.76,107.05z M514.23,446.72c-6.01,6.66-11.24,12.86-16.9,18.63
		c-5.32,5.43-11.17,10.34-16.56,15.71c-0.56,0.56-0.09,3.32,0.73,3.91c2.94,2.12,6.13,3.96,9.44,5.45c1.27,0.58,3.66,0.57,4.58-0.25
		c8.5-7.61,16.78-15.46,25.13-23.24c1.98-1.85,2.21-3.66,0.75-6.14C519.13,456.96,517.32,452.87,514.23,446.72z M145.15,237.03
		c-4.77,0.76-8.15,1.3-11.53,1.84c-4.93,0.79-7.3,3.27-7.53,8.67c-0.26,5.88-2.13,11.67-2.66,17.55c-0.29,3.22-0.34,7.39,1.41,9.66
		c3.34,4.34,8.05,7.64,12.93,12.04C140.2,270.4,142.62,254.09,145.15,237.03z M573.02,287.29c5.2-5.13,9.55-9.31,13.69-13.67
		c0.61-0.65,0.42-2.23,0.33-3.35c-0.59-7.07-1.04-14.16-1.99-21.19c-0.4-2.96-1.14-7.42-3.06-8.31c-4.75-2.19-10.28-2.71-16.74-4.19
		C567.88,253.75,570.35,269.88,573.02,287.29z"/>
	<path d="M341.97,157.21c-3.56-2.57-13.43-1.19-15.11,1.64c-0.62,1.04-0.11,3.12,0.49,4.46c5.48,12.21,11.38,24.24,16.54,36.57
		c2.21,5.27,3.16,11.11,4.31,16.76c0.59,2.92,1.45,5.59,4.68,5.12c1.06-0.15,2.38-3.42,2.38-5.27c0.15-36.16,0.12-72.33,0.13-108.49
		c0-7.71,0.01-7.9,7.69-7.67c35.98,1.1,68.88,11.93,99.22,31.18c16.63,10.55,30.92,23.85,43.49,38.66
		c16.65,19.63,28.91,42.04,36.6,66.8c7.1,22.87,9.66,46.2,8.5,70.11c-1.8,37.16-13.5,70.93-34.78,101.19
		c-23.45,33.34-54.21,57.68-92.77,71.65c-14.46,5.24-29.14,9.68-44.68,10.36c-11.1,0.49-22.26,2.11-33.26,1.32
		c-13.05-0.94-26.01-3.66-38.91-6.12c-15.38-2.93-29.59-9.22-43.28-16.64c-19.87-10.77-37.51-24.35-52.76-41.19
		c-18.22-20.12-31.79-42.9-40.31-68.53c-3.51-10.58-5.73-21.67-7.64-32.68c-1.72-9.93-3.14-20.07-3.06-30.11
		c0.13-18.05,2.99-35.78,7.69-53.34c6.23-23.26,16.38-44.62,30.89-63.46c26.27-34.1,59.37-59.17,101.44-71.06
		c2.05-0.58,4.23-0.91,6.14-1.8c5.05-2.36,8.01-0.38,11.01,3.87C326.64,124.82,335.69,139.57,341.97,157.21z M441.77,243.76
		c0.25-0.48,0.51-0.97,0.76-1.45c-0.44-0.18-0.89-0.36-1.33-0.53c-15.74-6.11-31.58-11.99-47.18-18.46
		c-6.13-2.54-11.45-2.72-17.32,0.47c-5.07,2.76-10.43,5.2-15.94,6.89c-3.21,0.99-7.28,1.14-10.42,0.06
		c-7.53-2.58-14.68-6.22-22.1-9.15c-1.62-0.64-3.91-0.6-5.54,0.02c-18.78,7.13-37.44,14.57-56.26,21.58
		c-4.01,1.49-5.58,3.29-5.56,7.69c0.18,34.83,0,69.66,0.22,104.49c0.03,4.71,1.04,9.6,2.56,14.09
		c6.21,18.27,17.39,33.66,30.31,47.52c12.32,13.23,25.94,25.25,39.14,37.65c3.29,3.09,7.17,5.55,11.48,8.83
		c0.29-2.37,0.65-3.63,0.57-4.86c-0.6-9.79-1.13-19.58-1.96-29.35c-1.43-16.88-3.19-33.73-4.54-50.61
		c-0.85-10.6-1.16-21.23-1.83-31.84c-0.12-1.97-0.46-4.07-1.33-5.8c-0.73-1.46-2.17-3.12-3.63-3.56
		c-11.37-3.4-21.38-9.11-29.91-17.3c-6-5.76-11.62-11.92-14.2-20.07c-0.47-1.49-0.07-4.57,0.83-4.99c7.71-3.58,15.9-5.7,24.44-5.02
		c4.05,0.32,8.02,1.85,11.97,3.01c14.62,4.29,19.86,11.54,20.02,26.72c0.05,4.44,0.83,8.91,1.67,13.3c0.76,3.97,6.92,9.64,9.22,8.56
		c4.3-2.03,8.18-4.97,8.88-10.06c0.91-6.54,1.69-13.16,1.71-19.75c0.02-4.98,1.06-8.61,5.78-11c4.28-2.17,8.02-5.64,12.47-7.19
		c8.04-2.81,16.28-6.06,25.11-2.56c0.93,0.37,2.21-0.16,4.68-0.42c-3.61-1.28-5.7-2.41-7.9-2.74c-14.03-2.1-27.07,0.37-38.59,9.01
		c-4.37,3.27-7.38,6.97-6.95,13.3c0.41,6.04-0.82,12.22-1.63,18.31c-0.22,1.64-1.52,3.14-2.68,5.4c-0.51-1.45-0.72-1.76-0.72-2.07
		c-0.03-28.5-0.1-56.99,0.11-85.48c0.01-1.71,1.95-4.14,3.63-5c9.02-4.59,18.2-8.88,27.43-13.03c1.78-0.8,4.28-1.17,6.08-0.6
		c11.98,3.84,23.85,8.02,35.77,12.04C433.3,241.19,437.55,242.44,441.77,243.76z M343.22,218.08c0.12-2.17,0.46-3.37,0.19-4.41
		c-4.37-17.28-10.74-33.74-20.16-48.95c-1.93-3.11-4.09-3.34-7.06-1.72c-18.99,10.35-36.05,22.74-48.44,41.1
		c-7.62,11.29-7.23,23.13-6.3,36.02c1.75-0.68,2.83-1.04,3.85-1.51c18.12-8.28,36.28-16.48,54.32-24.93c4.26-2,8.05-2.46,12.33-0.22
		C335.27,215.19,338.9,216.33,343.22,218.08z M448.45,365.15c-10.77,12.2-21.08,24.91-32.51,36.51
		c-11.42,11.59-23.97,22.06-36.94,33.85c-0.54-2.62-0.86-3.39-0.83-4.14c0.55-10.95,0.9-21.92,1.8-32.85
		c1.36-16.51,3.26-32.97,4.55-49.48c0.27-3.45,1.16-5.35,4.26-6.92c12.42-6.33,22.47-15.33,29.4-27.55
		c1.09-1.93,1.89-4.02,2.82-6.04c-1.4-0.26-1.91-0.11-2.16,0.23c-10.23,14.29-23.74,23.97-40.6,28.96
		c-2.81,0.83-3.87,2.65-3.79,5.59c0.12,4.32,0.11,8.68-0.27,12.99c-1.43,16.36-3.17,32.7-4.51,49.07
		c-0.88,10.75-1.22,21.55-1.88,32.32c-0.11,1.81-0.76,3.59-0.89,5.41c-0.49,6.36-0.86,12.73-1.38,20.74
		c3.34-2.31,5.42-3.53,7.24-5.06c4.58-3.84,8.94-7.93,13.57-11.71c15.65-12.81,34.95-33.58,46.99-50.13
		c6.72-9.23,11.35-19.41,15.1-30.07C448.64,366.24,448.45,365.45,448.45,365.15z M368.24,216.68c0.66,0.27,1.32,0.54,1.98,0.81
		c0.9-2.02,1.98-3.98,2.67-6.08c4.89-14.94,12.17-28.62,21.71-41.06c0.81-1.06,3.43-1.63,4.8-1.18c4.1,1.34,8,3.31,11.98,5.03
		c0.23-0.47,0.46-0.94,0.69-1.41c-7.18-3.99-14.36-7.97-20.61-11.44c-2.73,5.18-4.82,9.14-6.9,13.1
		c-4.15,7.91-8.78,15.61-12.27,23.8C369.84,204,367.05,210.05,368.24,216.68z M369.17,167.8c0.6,0.55,1.2,1.1,1.8,1.65
		c1.55-7.23,5.01-10.35,11.71-7.02c0.25,0.13,1.51-1.77,2.3-2.73c-3.42-1.23-8.62-4.43-9.9-3.28
		C372.1,159.1,371.02,163.88,369.17,167.8z"/>
	<path d="M315.08,37.63c-1.02,2.8-2.7,5.55-2.92,8.41c-0.61,7.79-7.34,14.87-14.69,14.48c-1.09-0.06-2.98-1.28-3.04-2.08
		c-1-12.46-0.87-24.77,9.2-34.18c6.2-5.79,13.35-9.93,22.2-9.9c20.82,0.07,41.66-0.11,62.47,0.44
		c12.25,0.33,25.07,13.21,27.36,23.68c1.15,5.29,1.48,10.8,1.68,16.23c0.2,5.48-2.25,6.9-7.06,4.47c-2.22-1.12-4.37-2.38-6.47-3.71
		c-2.99-1.9-4.44-4.39-4.35-8.26c0.18-7.29-5.52-14.43-12.72-14.59c-20.75-0.48-41.51-0.24-62.27-0.11
		c-1.39,0.01-2.76,1.42-4.24,2.24c3.57,1.5,6.96,1.86,8.33,3.72c3.6,4.87,4.23,10.7,2.46,16.59c-3.77,12.53-13.24,19.61-24.44,24.64
		c-15.73,7.07-31.58,13.89-47.52,20.48c-10.29,4.26-20.79,5.2-31.32,0.23c-6.29-2.97-10.25-7.96-12.16-14.34
		c-0.61-2.04,0.25-5.3,1.65-6.98c2.12-2.53,5.39-2.48,7.92,0.03c9.8,9.74,19.82,8.84,31.56,2.76c13.79-7.13,28.57-12.32,42.82-18.57
		c3.61-1.58,6.9-3.94,10.23-6.1c3.13-2.03,4.52-4.78,4.45-8.78c-0.06-3.33,1.29-6.68,2.02-10.02
		C315.84,38.16,315.46,37.89,315.08,37.63z"/>
	<path d="M601.68,314.35c-1.83-0.13-3.73,0.02-5.44-0.48c-0.99-0.29-2.22-1.52-2.41-2.51c-1.19-6.09,4.11-13.98,10.04-15
		c4.31-0.74,5.99-4.09,6.15-7.43c0.54-11.72,0.62-23.43-2.73-34.94c-1.37-4.69-1.23-9.81-1.96-14.71
		c-1.01-6.8-1.86-13.65-3.37-20.34c-2.27-10.11-9.93-12.84-17.79-6.68c-2.77,2.17-7.98,1.08-11.57-2.46
		c-3.07-3.03-3.36-6.29-0.74-9.77c6.3-8.36,15.19-9.99,24.53-8.16c12.48,2.45,21.49,12.78,23.45,25.55
		c2.27,14.82,4.35,29.67,6.61,44.49c0.84,5.54,2.44,11.01,2.81,16.57c0.87,12.99-2.87,24.52-13.87,32.23
		c-3.69,2.59-8.93,2.96-13.46,4.35C601.85,314.81,601.77,314.58,601.68,314.35z"/>
	<path d="M108.9,315.07c-10.8-1.18-18.67-5.75-23.43-15.29c-5.14-10.32-4.31-21.09-2.56-31.99c1.41-8.8,2.38-17.68,3.82-26.48
		c1.95-11.95,1.85-24.44,8.13-35.34c10.68-18.55,33.06-18.78,44.18-6.18c3,3.4,2.51,6.28-0.3,9.18c-4.85,4.99-8.76,5.41-14.29,1.71
		c-6.66-4.46-15.11,0.21-16.52,9.38c-1.29,8.45-2.02,16.99-3.31,25.44c-1.34,8.78-3.42,17.46-4.5,26.27
		c-0.68,5.56-0.95,11.46,0.25,16.84c0.67,2.99,4.32,6.1,7.39,7.6c5.22,2.55,10.63,10.99,8.16,15.88
		C115.05,313.81,111.32,314.11,108.9,315.07z"/>
	<path d="M355.01,575.83c-8.99,0-17.99-0.21-26.98,0.04c-18.76,0.52-35.09-16.8-33.89-34.09c0.23-3.31,0.1-6.66,0.39-9.96
		c0.24-2.67,1.64-3.67,4.49-2.78c7.65,2.39,12.3,8.03,13.02,16.2c0.55,6.25,7.69,12.68,14.6,12.71c19.49,0.1,38.97,0.19,58.46-0.06
		c8.13-0.1,13.31-6.09,14.46-14.39c0.9-6.48,7.7-13.81,14.02-13.79c1.25,0,3.38,2.55,3.6,4.13c3.38,24.18-14,42.88-36.19,42.05
		C372.34,575.57,363.67,575.83,355.01,575.83z"/>
	<path d="M221.65,55.82c12.41-0.69,18.91,6.66,23.74,15.46c1.62,2.94,0.83,7.51,0.2,11.17c-0.17,0.95-4.32,2.33-5.92,1.69
		c-3.94-1.56-7.58-3.99-11.11-6.4c-6.99-4.78-11.8-4.57-18.16,1.38c-5.58,5.23-11.03,10.59-16.54,15.89
		c-8.25,7.93-16.56,15.79-24.74,23.8c-1.88,1.84-3.55,3.99-4.9,6.25c-3.1,5.2-2.22,8.74,0.96,13.81c2.45,3.91,3.83,8.58,5.12,13.08
		c0.78,2.72-0.86,4.06-3.93,4.17c-9.87,0.35-21.27-10.13-21.92-20.06c-0.77-11.85,4.08-21.28,12.12-29.35
		c12.56-12.59,25.26-25.03,37.91-37.53C202.12,61.62,214.35,55.8,221.65,55.82z"/>
	<path d="M491.24,55.8c5.9,0.38,13.8,3.59,20.06,9.35c14.64,13.49,28.75,27.56,43.09,41.39c6.81,6.57,11.45,14.82,12.46,23.84
		c1.39,12.37-7.93,25.39-21.88,25.7c-3.24,0.07-5.12-1.51-4.67-4.29c0.61-3.75,1.38-8.04,3.64-10.84c6.42-7.93,7-11.21,0.02-19.11
		c-6.26-7.09-12.99-13.77-19.7-20.44c-6.72-6.69-13.6-13.22-20.55-19.66c-2.41-2.24-5.08-4.31-7.93-5.94
		c-5.93-3.37-8.22-2.51-13.99,1.57c-3.89,2.75-8.64,4.35-13.18,5.99c-0.66,0.24-3.17-2.08-3.33-3.39
		C463.8,67.25,474.79,55.89,491.24,55.8z"/>
	<path d="M464.25,513.77c0.89-6.44,4.24-8.81,9.78-6.24c3.27,1.52,6.27,3.7,9.21,5.84c5.86,4.26,9.85,4.33,15.24-0.76
		c12.68-11.98,25.28-24.04,37.68-36.31c4.09-4.05,7.76-8.61,11.08-13.32c3.04-4.3,2.83-8.81-1.85-12.16
		c-4.83-3.46-4.97-8.32-4.21-13.41c0.16-1.04,1.38-2.8,1.99-2.75c3.89,0.34,8.6-0.12,11.45,1.92c10.37,7.4,15.82,17.19,10.12,30.97
		c-3.16,7.64-8.2,13.53-13.91,19.16c-10.77,10.64-21.25,21.58-32.19,32.04c-7.07,6.76-14.89,12.11-24.8,14.87
		c-9.66,2.7-20.19-2.27-25.3-10.2C466.68,520.51,465.66,517.01,464.25,513.77z"/>
	<path d="M144.32,460.43c0.03-16.28,10.3-26.49,22.23-26.03c3.15,0.12,4.65,1.5,3.76,4.2c-1.58,4.77-3.23,9.7-5.9,13.88
		c-2.18,3.4-2.76,6.3-1.09,9.71c4.02,8.22,10.24,14.51,17.21,20.35c6.48,5.42,12.23,11.69,18.38,17.51
		c6.34,6,11.56,13.59,20.65,15.84c2,0.49,4.73-0.16,6.58-1.23c4.15-2.39,7.8-5.63,11.94-8.03c4.63-2.68,8.03-0.45,8.12,4.93
		c0.14,8.96-8.75,19.21-17.16,21.71c-12.26,3.64-21.76-1.88-29.89-9.06c-15.05-13.29-29.2-27.61-43.53-41.7
		C148.51,475.51,144.63,466.86,144.32,460.43z"/>
	<path d="M582,354.94c3.85,1.26,7.89,2.13,11.5,3.9c2.4,1.17,5.91,3.64,5.88,5.48c-0.07,4.78-1.99,9.52-6.79,11.92
		c-1.03,0.52-3.01,0.08-4.1-0.62c-8.75-5.67-18.51-0.35-22.57,6.85c-9.3,16.5-18.09,33.29-26.79,50.11
		c-3.41,6.59-1.46,14.49,3.92,19.53c4.78,4.49,3.58,13.27-2.35,16.32c-0.89,0.45-2.41,0.49-3.28,0.03
		c-8.15-4.3-13.3-10.83-16.2-19.76c-4.8-14.83,2.91-26.35,9.1-38.29c5.65-10.9,11.86-21.51,17.66-32.33
		c5.92-11.05,14.05-19.27,26.83-21.79c2.26-0.45,4.6-0.49,6.91-0.73C581.81,355.35,581.91,355.14,582,354.94z"/>
	<path d="M580.56,233.31c-13.8,1.35-23.25-6.11-29.87-17.27c-8.98-15.14-17.34-30.65-25.5-46.24c-3.33-6.37-6.26-13.13-5.46-20.78
		c1.16-11.22,6.09-20.16,15.57-26.45c3.04-2.01,5.75-2.59,7.65,1.51c0.96,2.07,2.03,4.13,3.3,6.01c1.7,2.51,0.53,4.11-1.07,6.11
		c-2.53,3.17-5.37,6.44-6.67,10.16c-1.04,2.97-1.04,7.19,0.33,9.96c6.53,13.22,13.7,26.13,20.62,39.17
		c1.87,3.52,3.7,7.06,5.44,10.64c3.14,6.42,8.7,9.54,15.34,10.7c1.85,0.32,4.1-0.94,6.03-1.8c5.76-2.58,11.21,0.33,12.04,6.63
		c0.31,2.35,1.34,6.14,0.34,6.85c-3.15,2.22-7.03,3.58-10.8,4.68C585.7,233.82,583.21,233.31,580.56,233.31z"/>
	<path d="M190.14,151.85c2.33,10.85-5.26,19.37-10.02,28.64c-6.59,12.84-13.65,25.48-21.25,37.74c-6.19,9.98-15.16,16.15-27.7,15.39
		c-5.78-0.35-11.64,0.08-16.82-3.42c-3.36-2.27-4.04-7.37-1.32-12.52c2.45-4.64,4.99-5.71,9.17-3.86
		c11.15,4.94,17.25,3.32,23.46-7.48c8.94-15.54,17.39-31.36,25.89-47.15c4.63-8.6,0.76-16.12-3.84-23.21
		c-3.39-5.22-1.77-12.04,3.97-13.89c1.17-0.38,2.98,0.17,4.11,0.9C185.94,129.52,191.16,138.67,190.14,151.85z"/>
	<path d="M190.03,438.5c1.64,11.72-3.56,20.24-12.33,27.2c-2.39,1.9-4.3,4.39-7.61,1.47c-4.26-3.76-5.48-8.08-3.17-11.81
		c1.57-2.54,2.95-5.2,4.54-7.72c3.23-5.15,3.22-10.55,0.49-15.68c-8.74-16.41-17.48-32.83-26.71-48.97
		c-5.64-9.85-12.3-11.59-22.48-7.18c-4.44,1.92-7.36,0.72-10.13-4.19c-2.16-3.83-1.61-9.17,1.39-11.28c6-4.24,12.71-5.2,19.92-4.41
		c14.43,1.58,23.03,10.65,29.5,22.52c7.86,14.42,15.9,28.75,23.26,43.42c2.5,4.99,3.18,10.89,4.69,16.37
		C190.93,438.33,190.48,438.41,190.03,438.5z"/>
	<path d="M379.15,542.22c1.53-15.3,9.44-24.3,20.87-29.66c18.76-8.79,37.82-17,57.13-24.52c12.6-4.91,24.47-2.25,33.98,7.98
		c1.43,1.54,2.62,3.5,3.28,5.49c1.02,3.06,4.18,6.53,0.49,9.46c-3.96,3.14-8.02,2.97-11.94-1.02c-2.1-2.14-5.19-3.35-7.92-4.81
		c-6.34-3.38-12.34-0.66-18,1.72c-16.21,6.82-32.33,13.88-48.3,21.24c-5.88,2.71-10.91,6.4-11.64,14.13
		c-0.44,4.62-2.28,9.35-7.71,11.34c-3.54,1.3-6.21,1.38-7.56-2.67C380.69,547.5,379.71,544.07,379.15,542.22z"/>
	<path d="M241.26,502.98c-6.77-0.16-11.23,4.27-15.83,7.89c-2.89,2.28-5.68,2.92-7.71,0.32c-1.54-1.98-2.51-5.52-1.88-7.87
		c2.41-8.99,8.97-13.77,17.81-16.22c7.8-2.16,15.31-1.14,22.34,1.82c19.69,8.29,39.54,16.39,58.54,26.09
		c9.59,4.89,17.34,13.36,17.06,25.67c-0.09,4.01-1.69,8.04-3.01,11.93c-0.3,0.89-2.27,1.69-3.49,1.7
		c-5.47,0.05-10.98-5.19-10.91-11.45c0.07-6.64-3.66-10.34-8.61-12.78c-10.96-5.4-22.17-10.3-33.38-15.19
		c-8.35-3.65-16.82-7.01-25.28-10.39C245.12,503.76,243.15,503.47,241.26,502.98z"/>
	<path d="M468.75,103.47c-10.72,1.13-19.37-4.43-28.44-8.31c-13.57-5.8-27.14-11.64-40.45-18.02c-9.05-4.34-16.23-11.11-19.24-21.01
		c-1.8-5.92-1.93-12.15,1.31-17.88c1.49-2.64,3.53-3.62,6.65-2.38c5.85,2.34,8.47,7.23,8.76,12.78c0.34,6.39,4.11,9.84,8.86,12.06
		c13.68,6.39,27.6,12.29,41.49,18.23c5.61,2.4,11.34,4.55,17.1,6.54c7.25,2.51,13.33-0.29,18.32-5.29
		c3.19-3.19,6.31-4.11,10.11-1.92c4.44,2.56,3.36,6.14,1.64,9.93C489.71,99.57,480.03,102.93,468.75,103.47z"/>
	<path d="M83.19,303.59c0.99,1.26,1.94,2.55,2.98,3.76c1.82,2.13,3.3,5.34,5.61,6.14c11.6,4.02,10.05,14,11.27,22.9
		c1.56,11.42,2.94,22.9,5.32,34.15c0.72,3.42,4,6.85,7,9.06c2.89,2.13,6.61,2.23,10.03-0.82c4.09-3.66,12.32-1.76,14.59,3.23
		c0.81,1.77,1.15,4.93,0.13,6.16c-4.08,4.95-8.2,10.32-15.77,9.88c-0.83-0.05-1.67,0-2.5,0.01c-15.71,0.1-25.38-6.23-29.78-21.31
		c-2.74-9.41-3.67-19.36-5.3-29.08c-1.61-9.59-3.32-19.18-4.49-28.83c-0.59-4.86-0.1-9.85-0.1-14.78
		C82.51,303.91,82.85,303.75,83.19,303.59z"/>
	<path d="M628.56,304c0.41,2.91,1.12,4.84,0.86,6.62c-1.9,13.05-3.91,26.09-6.05,39.1c-1.58,9.58-2.76,19.3-5.31,28.64
		c-2.36,8.62-8.52,14.99-16.72,18.68c-9.01,4.06-22.38,0.87-28.8-6.2c-2.65-2.92-3.64-6.15-1.01-9.36c3.89-4.76,8.98-5.9,12.69-3.31
		c7.37,5.14,15.07,2.73,17.52-5.97c1.68-5.97,2.62-12.19,3.45-18.36c1.38-10.29,2.27-20.66,3.71-30.94
		c0.29-2.05,1.73-4.32,3.32-5.74c4.12-3.69,8.61-6.96,12.94-10.4C625.92,306.16,626.68,305.54,628.56,304z"/>
	<path d="M144.68,353.33c-5.94-1.22-10.53-1.89-14.92-3.21c-1.41-0.42-3.05-2.39-3.32-3.89c-1.85-9.89-3.24-19.86-5.01-29.76
		c-1.01-5.62-2.22-11.24-3.79-16.73c-0.96-3.35-3.26-5.59-7.31-5.61c-5.61-0.03-7.28-6.92-7.01-14.25c0.15-4.16,3.85-5.48,6.62-4.84
		c4.99,1.15,10.31,2.78,14.35,5.75c10.3,7.57,13.45,19.02,14.96,31.14c1.15,9.18,2.84,18.28,4.12,27.44
		C143.99,343.75,144.21,348.16,144.68,353.33z"/>
	<path d="M565.42,353.44c0.88-6.77,1.56-12.76,2.46-18.72c1.41-9.29,3.08-18.53,4.45-27.83c1.8-12.21,6.56-22.72,17.85-28.75
		c3.69-1.97,8.61-3.25,12.61-2.62c6.13,0.96,3.54,6.85,3.72,10.75c0.18,3.98-1.73,7.02-6.05,7.92c-5.42,1.13-9.51,6.32-10.32,11.98
		c-1.28,8.98-3.05,17.88-4.5,26.84c-0.71,4.39-1.25,8.81-1.74,13.23c-0.31,2.74-1.62,3.93-4.42,4.32
		C575.26,351.14,571.1,352.24,565.42,353.44z"/>
	<path d="M567.71,116.9c7.6,2.59,13.49,7.97,17.38,14.59c9.73,16.56,18.84,33.49,27.64,50.55c2.13,4.13,2.1,9.38,3.03,13.99
		c-6.98-3.4-13.12-6.21-19.06-9.41c-1.75-0.95-3.26-2.81-4.27-4.6c-7.62-13.59-15.09-27.25-22.56-40.92
		c-0.45-0.82-0.73-1.8-0.79-2.73C568.6,131.39,568.18,124.39,567.71,116.9z"/>
	<path d="M614.53,394.31c2.5,7.21-1.62,13.41-4.87,19.58c-7.42,14.08-15.12,28.02-22.86,41.93c-4.38,7.86-10.56,13.85-20.09,17.52
		c0.54-2.9,1.06-5.07,1.33-7.26c0.46-3.69,0.75-7.41,1.13-11.11c0.2-1.94-0.15-4.19,0.72-5.78c7.66-14.13,15.52-28.15,23.37-42.18
		c0.63-1.12,1.38-2.43,2.43-3C601.85,400.71,608.11,397.59,614.53,394.31z"/>
	<path d="M141.72,119.23c0.21,15.41-3.16,28.9-11.37,41.24c-4.94,7.43-8.76,15.59-13.21,23.35c-0.86,1.49-2.11,3.01-3.57,3.84
		c-5.89,3.37-11.94,6.49-18.15,9.81c-1.56-4.12-0.54-8.85,1.83-13.23c10.12-18.64,20.31-37.24,30.66-55.76
		C130.84,123.26,136.11,121.14,141.72,119.23z"/>
	<path d="M93.97,391.26c8.11,4.69,14.68,8.34,21.07,12.29c1.43,0.88,2.4,2.7,3.26,4.27c6.43,11.63,12.36,23.57,19.34,34.85
		c3.82,6.16,1.95,12.54,3.08,18.75c0.47,2.58,0.66,5.21,1.18,9.47c-3.11-1.31-5.65-1.96-7.72-3.33
		c-6.97-4.61-10.26-12.11-14.09-19.05c-7.76-14.09-15.44-28.24-22.62-42.64C95.4,401.69,95.19,396.6,93.97,391.26z"/>
	<path d="M396.66,508.39c-4.99,3.67-8.78,5.69-11.52,8.67c-3.79,4.13-8.05,5.03-13.34,4.88c-11.15-0.32-22.31-0.21-33.46-0.03
		c-4.47,0.07-8.34-0.37-11.74-3.89c-2.96-3.07-6.67-5.41-11.33-9.08c2.97-1.4,5.35-3.47,7.75-3.5c21.31-0.23,42.62-0.2,63.93,0.04
		C389.8,505.52,392.62,507.13,396.66,508.39z"/>
	<path d="M316.17,80.34c8.12-3.7,11.59-14.16,23.37-13.03c11.54,1.11,23.28,0.05,34.93,0.36c2.48,0.06,5.14,1.55,7.33,2.97
		c3.61,2.34,6.85,5.26,10.38,7.74c3.09,2.17,2.98,3.97-0.46,5.25c-2.27,0.84-4.75,1.53-7.14,1.54c-19.64,0.11-39.28,0.15-58.92-0.07
		c-3.05-0.03-6.08-1.49-9.13-2.29C316.41,81.98,316.29,81.16,316.17,80.34z"/>
	<path d="M413.02,23.82c4.81-1.6,61.08,21.84,68.1,28.35c-4.66,3.44-9.25,7.06-14.13,10.25c-0.99,0.65-3.2,0-4.6-0.61
		c-13.03-5.76-26.03-11.61-38.99-17.54c-1.24-0.56-2.64-1.6-3.15-2.77C417.69,35.67,415.4,29.72,413.02,23.82z"/>
	<path d="M482.39,538.8c-23.5,9.85-45.41,21.32-68.97,28.89c-0.38-0.48-0.75-0.95-1.13-1.43c0.7-1.35,1.45-2.68,2.08-4.06
		c1.74-3.88,3.32-7.84,5.18-11.67c0.74-1.53,1.76-3.4,3.15-4.06c13.81-6.52,27.71-12.85,41.65-19.1c1.04-0.47,2.87-0.49,3.71,0.12
		C472.43,530.69,476.59,534.17,482.39,538.8z"/>
	<path d="M299.19,567.39c-3.84-0.75-6.9-0.83-9.51-1.95c-18.79-8.01-37.5-16.2-56.19-24.45c-1.32-0.58-2.19-2.17-3.27-3.29
		c1.05-0.96,2.01-2.07,3.18-2.85c1.78-1.19,4.15-1.75,5.48-3.27c4.18-4.78,8.52-4.22,13.68-1.73c11.02,5.32,22.25,10.2,33.34,15.39
		c3.71,1.73,6.06,4.13,6.76,8.89C293.28,558.3,296.45,562.08,299.19,567.39z"/>
	<path d="M298.61,22.65c-2.49,6.22-4.46,11.71-6.92,16.97c-0.82,1.76-2.64,3.47-4.42,4.31c-12.42,5.85-24.99,11.39-37.43,17.2
		c-3.09,1.44-5.41,1.24-8.16-0.92c-3.48-2.74-7.42-4.89-11.98-7.82c1.43-1.19,2.62-2.7,4.17-3.39
		c18.17-8.04,36.36-16.03,54.64-23.83C291.72,23.82,295.36,23.44,298.61,22.65z"/>
	<path d="M194.85,447.27c12.26,11.89,24.09,23.36,36.02,34.93c-4.6,3.16-8.56,6.06-12.76,8.6c-0.82,0.5-2.91-0.02-3.75-0.79
		c-8.53-7.82-16.91-15.8-25.36-23.71c-1.95-1.82-2.51-3.48-0.94-6.05C190.45,456.35,192.34,452.14,194.85,447.27z"/>
	<path d="M194.86,142.9c-2.58-5.03-4.9-9.05-6.67-13.29c-0.59-1.42-0.43-4.13,0.54-5.08c8.41-8.24,17.04-16.26,25.73-24.19
		c0.81-0.74,2.88-1.05,3.82-0.55c4.04,2.2,7.88,4.78,13.05,8C219.25,119.41,207.25,130.97,194.86,142.9z"/>
	<path d="M478.76,107.05c4.36-2.78,7.76-4.78,10.98-7.05c2.9-2.04,5.25-2.07,7.87,0.59c7.35,7.44,14.81,14.78,22.36,22.01
		c2.42,2.32,2.95,4.13,0.96,7.2c-2.31,3.57-3.77,7.69-5.91,12.23C503.04,130.47,490.99,118.85,478.76,107.05z"/>
	<path d="M514.23,446.72c3.09,6.16,4.9,10.24,7.16,14.06c1.46,2.48,1.23,4.29-0.75,6.14c-8.35,7.78-16.63,15.63-25.13,23.24
		c-0.91,0.82-3.31,0.82-4.58,0.25c-3.3-1.49-6.5-3.33-9.44-5.45c-0.82-0.59-1.29-3.35-0.73-3.91c5.39-5.37,11.24-10.28,16.56-15.71
		C502.99,459.57,508.22,453.38,514.23,446.72z"/>
	<path d="M145.15,237.03c-2.53,17.06-4.95,33.38-7.39,49.77c-4.88-4.4-9.59-7.69-12.93-12.04c-1.75-2.28-1.7-6.45-1.41-9.66
		c0.53-5.89,2.41-11.68,2.66-17.55c0.24-5.4,2.6-7.88,7.53-8.67C137,238.32,140.38,237.79,145.15,237.03z"/>
	<path d="M573.02,287.29c-2.67-17.41-5.14-33.53-7.77-50.7c6.46,1.48,11.98,2,16.74,4.19c1.92,0.89,2.66,5.35,3.06,8.31
		c0.95,7.02,1.4,14.12,1.99,21.19c0.09,1.12,0.29,2.7-0.33,3.35C582.56,277.98,578.21,282.15,573.02,287.29z"/>
	<path class="st1" d="M441.77,243.76c-4.22-1.32-8.47-2.57-12.67-3.98c-11.92-4.01-23.79-8.19-35.77-12.04
		c-1.8-0.58-4.3-0.21-6.08,0.6c-9.23,4.15-18.41,8.44-27.43,13.03c-1.68,0.85-3.62,3.28-3.63,5c-0.21,28.49-0.14,56.99-0.11,85.48
		c0,0.31,0.21,0.62,0.72,2.07c1.16-2.26,2.46-3.76,2.68-5.4c0.81-6.08,2.04-12.26,1.63-18.31c-0.43-6.33,2.59-10.03,6.95-13.3
		c11.52-8.64,24.57-11.11,38.59-9.01c2.21,0.33,4.29,1.46,7.9,2.74c-2.48,0.25-3.76,0.79-4.68,0.42c-8.83-3.5-17.07-0.25-25.11,2.56
		c-4.45,1.55-8.19,5.03-12.47,7.19c-4.72,2.39-5.76,6.02-5.78,11c-0.03,6.59-0.8,13.21-1.71,19.75c-0.71,5.08-4.58,8.03-8.88,10.06
		c-2.3,1.08-8.46-4.59-9.22-8.56c-0.84-4.38-1.63-8.86-1.67-13.3c-0.16-15.18-5.4-22.43-20.02-26.72
		c-3.95-1.16-7.92-2.68-11.97-3.01c-8.54-0.68-16.73,1.44-24.44,5.02c-0.9,0.42-1.3,3.49-0.83,4.99c2.58,8.15,8.21,14.31,14.2,20.07
		c8.53,8.19,18.54,13.9,29.91,17.3c1.46,0.44,2.9,2.1,3.63,3.56c0.87,1.73,1.2,3.83,1.33,5.8c0.67,10.61,0.98,21.25,1.83,31.84
		c1.35,16.88,3.12,33.73,4.54,50.61c0.83,9.77,1.36,19.56,1.96,29.35c0.08,1.23-0.28,2.49-0.57,4.86
		c-4.31-3.28-8.19-5.74-11.48-8.83c-13.2-12.39-26.82-24.42-39.14-37.65c-12.92-13.86-24.1-29.25-30.31-47.52
		c-1.52-4.48-2.53-9.37-2.56-14.09c-0.21-34.83-0.04-69.66-0.22-104.49c-0.02-4.4,1.54-6.19,5.56-7.69
		c18.82-7.01,37.48-14.45,56.26-21.58c1.64-0.62,3.93-0.66,5.54-0.02c7.42,2.93,14.57,6.57,22.1,9.15c3.13,1.07,7.2,0.92,10.42-0.06
		c5.51-1.69,10.86-4.13,15.94-6.89c5.86-3.19,11.19-3.01,17.32-0.47c15.59,6.47,31.43,12.34,47.18,18.46
		c0.45,0.17,0.89,0.35,1.33,0.53C442.28,242.8,442.02,243.28,441.77,243.76z M333.37,433.16c-25.35-20.3-47.81-41.33-65.47-68.2
		c0.51,18.41,56.98,84.04,73.41,86.16c-2.3-29.25-4.6-58.45-6.89-87.65c-0.35,0.02-0.7,0.04-1.05,0.06
		C333.37,386.24,333.37,408.94,333.37,433.16z M301.42,325.87c0.46-0.4,0.91-0.8,1.37-1.19c-8.79-9.08-18.07-17.84-20.72-31.09
		c11.94-6.01,24.3-8.51,37.41-7.86c-6.98-3.26-14.2-5.19-21.62-3.68c-6.71,1.37-13.14,4.1-19.82,5.68c-3.66,0.87-4,2.55-2.45,5.21
		c3.23,5.55,6.15,11.4,10.13,16.38C290.45,315.23,296.15,320.38,301.42,325.87z"/>
	<path class="st1" d="M343.22,218.08c-4.32-1.74-7.96-2.89-11.28-4.63c-4.28-2.24-8.07-1.77-12.33,0.22
		c-18.04,8.45-36.2,16.65-54.32,24.93c-1.02,0.47-2.09,0.82-3.85,1.51c-0.93-12.89-1.32-24.73,6.3-36.02
		c12.39-18.36,29.45-30.75,48.44-41.1c2.98-1.62,5.14-1.39,7.06,1.72c9.43,15.21,15.8,31.67,20.16,48.95
		C343.68,214.71,343.34,215.9,343.22,218.08z"/>
	<path class="st1" d="M448.45,365.15c0,0.3,0.19,1.08-0.03,1.72c-3.75,10.67-8.38,20.84-15.1,30.07
		c-12.04,16.55-31.34,37.32-46.99,50.13c-4.62,3.78-8.99,7.88-13.57,11.71c-1.82,1.53-3.9,2.75-7.24,5.06
		c0.52-8.02,0.9-14.38,1.38-20.74c0.14-1.82,0.78-3.6,0.89-5.41c0.66-10.77,1.01-21.57,1.88-32.32c1.34-16.37,3.08-32.71,4.51-49.07
		c0.38-4.31,0.39-8.66,0.27-12.99c-0.08-2.95,0.98-4.76,3.79-5.59c16.86-4.98,30.37-14.66,40.6-28.96c0.24-0.34,0.76-0.49,2.16-0.23
		c-0.93,2.02-1.72,4.11-2.82,6.04c-6.94,12.22-16.99,21.22-29.4,27.55c-3.1,1.58-3.99,3.47-4.26,6.92
		c-1.28,16.51-3.19,32.97-4.55,49.48c-0.9,10.93-1.25,21.9-1.8,32.85c-0.04,0.75,0.29,1.52,0.83,4.14
		c12.97-11.79,25.52-22.26,36.94-33.85C427.37,390.07,437.67,377.35,448.45,365.15z"/>
	<path class="st1" d="M368.24,216.68c-1.19-6.63,1.6-12.68,4.05-18.42c3.49-8.19,8.12-15.89,12.27-23.8
		c2.08-3.96,4.17-7.92,6.9-13.1c6.25,3.47,13.43,7.46,20.61,11.44c-0.23,0.47-0.46,0.94-0.69,1.41c-3.98-1.72-7.88-3.69-11.98-5.03
		c-1.37-0.45-3.99,0.13-4.8,1.18c-9.54,12.44-16.83,26.12-21.71,41.06c-0.68,2.09-1.77,4.05-2.67,6.08
		C369.55,217.22,368.89,216.95,368.24,216.68z"/>
	<path class="st1" d="M369.17,167.8c1.85-3.93,2.93-8.7,5.91-11.38c1.28-1.15,6.48,2.06,9.9,3.28c-0.79,0.95-2.04,2.85-2.3,2.73
		c-6.7-3.33-10.16-0.21-11.71,7.02C370.37,168.9,369.77,168.35,369.17,167.8z"/>
	<path d="M333.37,433.16c0-24.22,0-46.92,0-69.62c0.35-0.02,0.7-0.04,1.05-0.06c2.3,29.2,4.59,58.4,6.89,87.65
		c-16.43-2.12-72.9-67.75-73.41-86.16C285.56,391.83,308.02,412.86,333.37,433.16z"/>
	<path d="M301.42,325.87c-5.28-5.48-10.98-10.63-15.7-16.56c-3.98-4.98-6.9-10.83-10.13-16.38c-1.55-2.66-1.21-4.34,2.45-5.21
		c6.68-1.58,13.11-4.31,19.82-5.68c7.42-1.52,14.64,0.42,21.62,3.68c-13.11-0.65-25.47,1.85-37.41,7.86
		c2.65,13.25,11.93,22.01,20.72,31.09C302.34,325.07,301.88,325.47,301.42,325.87z"/>
</g>
</svg>
