<?xml version="1.0" encoding="utf-8"?>
<!-- Generator: Adobe Illustrator 25.3.1, SVG Export Plug-In . SVG Version: 6.00 Build 0)  -->
<svg version="1.1" id="Capa_1" xmlns="http://www.w3.org/2000/svg" xmlns:xlink="http://www.w3.org/1999/xlink" x="0px" y="0px"
	 viewBox="0 0 380.65 356.55" style="enable-background:new 0 0 380.65 356.55;" xml:space="preserve">
<style type="text/css">
	.st0{stroke:#000000;stroke-miterlimit:10;}
</style>
<g>
	<path class="st0" d="M5.19,341.55c8.69-6.41,17.34-12.88,26.1-19.19c2.24-1.61,2.18-3,0.59-4.89c-3.95-4.7-7.87-9.42-11.79-14.14
		c-1.01-1.21-1.95-2.48-3.39-4.32c12.22-1.46,23.48-4.6,35.59-1.13c-2.74,7.75-5.23,15.43-8.19,22.92
		c-1.25,3.15-1.12,4.52,1.99,6.71c9.75,6.84,19.02,14.35,28.48,21.6c-0.24,0.55-0.49,1.09-0.73,1.64c-1.23-0.21-2.52-0.25-3.69-0.66
		c-19.69-6.89-39.88-8.42-60.48-5.74c-1.48,0.19-2.99,0.14-4.48,0.21C5.19,343.55,5.19,342.55,5.19,341.55z"/>
	<path class="st0" d="M375.19,344.55c-7.29-0.44-14.57-1.15-21.86-1.27c-15.07-0.25-29.75,2.01-43.81,7.69
		c-0.38,0.15-0.9-0.05-2.63-0.2c6.15-5.49,11.46-10.48,17.06-15.12c3.43-2.85,7.14-5.46,11.03-7.63c3.33-1.85,3.82-3.93,2.55-7.26
		c-2.83-7.42-5.43-14.94-8.14-22.46c11.85,0,23.43,0,36.29,0c-6.5,7.97-12.07,14.79-17.79,21.8c9.58,7.18,18.45,13.81,27.31,20.45
		C375.19,341.89,375.19,343.22,375.19,344.55z"/>
	<path class="st0" d="M375.19,19.54c-4.46,3.1-8.94,6.18-13.38,9.31c-3.4,2.39-6.63,5.07-10.19,7.18c-2.69,1.6-3.15,3.29-1.36,5.59
		c3.25,4.19,6.64,8.27,9.97,12.41c1.4,1.74,2.78,3.5,4.7,5.93c-12.25,1.98-23.41,3.71-35.82,1.57c2.05-5.55,3.82-10.46,5.68-15.33
		c4.32-11.33,4.24-11.19-5.05-18.39c-7.56-5.85-14.84-12.06-22.24-18.12c0.26-0.46,0.53-0.93,0.79-1.39
		c2.08,0.66,4.13,1.41,6.24,1.98c17.29,4.67,34.71,7.98,52.75,5.34c2.59-0.38,5.27-0.08,7.91-0.09
		C375.19,16.87,375.19,18.21,375.19,19.54z"/>
	<path class="st0" d="M5.19,15.54c2.82-0.03,5.69-0.39,8.46-0.05c19.85,2.49,39.08-0.09,57.86-6.74c0.44-0.15,0.96-0.07,2.62-0.15
		c-1.6,1.82-2.61,3.12-3.77,4.25c-1.3,1.27-2.72,2.43-4.15,3.56C59.83,21.44,53.77,26.98,46.9,31.2c-3.92,2.4-3.85,4.18-2.48,7.73
		c2.8,7.25,5.19,14.66,8.02,22.78c-12.16,1.8-23.59,0.84-35.46-1.89c5.95-7.21,11.37-13.79,17.06-20.69
		C23.97,31.59,14.58,24.57,5.19,17.54C5.19,16.87,5.19,16.21,5.19,15.54z"/>
	<path class="st0" d="M110.23,218.57c-3.16-0.56-6.32-1.13-10.23-1.83c0.29-1.59,0.54-5.51,1.11-5.56
		c4.17-0.34,9.51-1.44,12.38,0.62c4.56,3.28,7.48,8.82,11.46,13.88c3.21-2.53,7.29-5.76,11.37-8.99c0.49,0.11,0.98,0.22,1.46,0.34
		c-1.9,9.36-3.8,18.72-5.6,27.6c7.99,1.45,8.83,10.3,14.61,15.16c-3.12,1.11-4.31,4.94-8.28,2.31c-1.09-0.72-4.02,1.33-6.81,2.37
		c3.48,3.26,6.27,5.88,9.07,8.5c-1.96-9.48,5.19-10.27,10.98-12.46c-4.44-6.14-8.76-11.95-12.87-17.9
		c-0.85-1.23-1.51-3.06-1.29-4.47c2.05-13.43,4.88-26.78,6.27-40.27c0.69-6.72-0.67-13.78-1.95-20.53
		c-1.36-7.16-0.45-13.8,1.85-20.54c4.02-11.84,9.21-22.81,19.99-30.17c0.85-0.58,1.39-2.18,1.4-3.31c0.03-2.61-0.35-5.22-0.6-8.33
		c2.41,0.88,4.59,1.69,7.17,2.64c-1.92-4.53-9.48-3.39-7.73-10.81c-2.53,0.81-4.34,1.24-6.03,1.96c-5.09,2.18-12.1,1.18-15.32-2.42
		c-1.9-2.13-3.2-4.42,0.2-6.87c1.96,1.1,4,2.25,6.04,3.39c-5.53-5.52-7.12-5.57-12.36-0.29c-5.58,5.63-11,11.41-16.47,17.14
		c-0.27,0.28-0.3,0.8-0.77,0.15c4.91-2.36,9.81-4.71,14.72-7.08c1.03-0.5,2.36-0.78,3.01-1.59c3.27-4.09,6.16-2.3,9.48,0.51
		c-3.23,2.51-4.2,5.2-2.5,9.25c0.71,1.69-1.51,4.61-2.39,6.97c-0.47,0-0.93,0-1.4-0.01c1.52,1.91,2.79,4.12,4.62,5.66
		c2.86,2.42,2.88,4.88,1.3,7.91c-1.66,3.2-3.13,6.5-4.97,10.34c-4.75-3.1-9.41-6.15-14.07-9.2c-0.31,0.24-0.63,0.48-0.94,0.73
		c0.59,1.04,0.96,2.34,1.81,3.07c3.15,2.72,6.54,5.15,9.65,7.91c0.96,0.85,2,2.47,1.84,3.58c-0.63,4.39-1.71,8.72-2.7,13.41
		c-7.13-3.62-14.18-7.2-22.51-11.42c-1.6,7.58-3.04,14.43-4.55,21.62c-3.14-2.05-5.9-3.84-5.31-8.63c0.8-6.44,0.46-6.48-6.68-14.67
		c-0.86,6.64-1.77,12.96-2.45,19.31c-0.43,4.03-0.32,7.84,4.03,10.33c1.18,0.68,1.23,3.33,1.85,5.22
		c-8.13,1.03-14.48-5.24-13.63-13.58c0.9-8.72,2.6-17.39,4.43-25.98c0.58-2.72,2.68-5.12,4.03-7.56c-0.37,0.07-1.32,0.26-3.35,0.65
		c1-2.86,1.39-5.49,2.73-7.48c2.02-3,1.81-4.73-1.23-6.91c-7.15-5.14-13.91-10.84-21.07-15.96c-3.75-2.68-7.49-4.96-5.68-10.37
		c-1.23,1.96-2.63,5.33-3.39,5.19c-2.3-0.41-4.65-1.86-6.44-3.5c-7.02-6.41-6.95-17.69,0.67-21.8c1.98-1.07,4.23-1.64,6.99-2.68
		c-5.15-14.05-10.26-28-15.66-42.74c12.42-5.37,24.75-11.07,37.37-16.08c27.08-10.75,55.24-17.47,84.3-19.05
		c16.37-0.89,32.93,0.01,49.3,1.3c32.46,2.56,63.17,12.21,92.9,25.12c5.03,2.19,9.89,4.79,14.93,6.96c3.08,1.33,3.72,2.99,2.51,6.18
		c-4.75,12.58-9.25,25.26-14.25,39.01c2.97,0,5.18-0.12,7.38,0.02c6.44,0.41,11.33,4.08,12.26,9.09c1.28,6.91-2.08,15.43-7.3,17.81
		c-2.56,1.17-5.46,1.93-6.04-1.3c-1.04,1.28-2.2,3.32-3.92,4.68c-7.03,5.57-14.15,11.05-21.42,16.3c-3.08,2.23-2.83,4.35-1.2,7.19
		c1.33,2.32,2.28,4.86,3.75,8.06c-2.83-0.52-4.36-0.8-5.9-1.08c-2.08-1.94-4.15-3.88-6.98-6.52c-0.65,1.62-1.93,3.25-1.57,4.37
		c0.33,1.05,2.32,1.9,3.71,2.19c1.56,0.33,3.28-0.07,4.93-0.15c10.59,11.14,9.12,25.45,10.2,39.07c0.1,1.23-0.54,2.6-1.1,3.77
		c-0.56,1.16-1.47,2.16-2.82,4.09c1.68-0.55,2.56-0.84,4.73-1.55c-1.36,8.47-2.31,16.29-3.99,23.95c-0.78,3.53-2.32,7.34-4.67,10
		c-5.04,5.7-13.5,3.61-16.01-3.48c-9.05,9.96-8.74,13.37,2.29,22.72c5.18-5.86,5.65-16.16,16.8-17.1c-1.1,2.75-1.64,5.8-3.3,8.01
		c-7.31,9.73-9.34,18.5,1.52,27.59c4.55,3.81,7.25,9.84,11.2,15.45c1.99-1.06,4.09-2.17,6.72-3.56c3.25,9.02,6.36,17.74,9.52,26.44
		c1.7,4.69,3.27,9.44,5.27,14.01c1.58,3.6,0.5,5.33-2.87,6.97c-17.84,8.64-36.02,16.45-55.19,21.55
		c-14.26,3.79-28.61,8.62-43.16,9.64c-23.65,1.66-47.55,1.73-71.23,0.38c-27.03-1.54-52.82-9.8-77.9-19.82
		c-9.41-3.76-18.52-8.28-27.62-12.75c-1.1-0.54-2.17-3.27-1.75-4.45c4.84-13.76,9.98-27.42,15.23-41.61
		c4.32,1.91,8.32,3.68,11.98,5.3c8.25-11.04,16.19-21.65,24.46-32.73c-3.21-6.37-6.8-13.48-10.87-21.55
		c3.26,0.87,4.93,1.32,6.6,1.76l-0.2-0.08c3.45,4.64,6.9,9.27,10.72,14.4c2.96-2.82,5.94-5.56,8.78-8.45
		c0.43-0.44,0.57-1.73,0.25-2.24c-2.51-3.97-5.17-7.85-7.79-11.76C110.08,218.44,110.23,218.57,110.23,218.57z M243.95,91.74
		c6.11-1.39,11.42-0.06,15.94,4.44c6.53,6.51,13.16,12.92,20.45,20.06c7.29-5.65,15.42-11.93,23.51-18.25
		c2.28-1.78,4.23-4.34,7.71-2.7c0.09,0.04,0.39-0.33,0.73-0.64c-1.07-1-2.09-1.96-3.14-2.94c1.72-2.4,3.24-4.51,4.92-6.86
		c-34.04-17.04-69.38-28.1-107.79-30.46c-1.81,7.27-3.59,14.42-5.37,21.57c0.3,0.1,0.6,0.19,0.9,0.29c1.26-2.71,2.51-5.42,4.3-9.27
		c0,3.17,0,4.93,0,6.62c11.45,3.51,16.44,10.14,14.32,19.21c-1.7-0.46-3.37-0.91-5.04-1.35c-0.12,0.39-0.23,0.78-0.35,1.17
		c8.46,3.52,16.92,7.05,24.4,10.16c0.59-2.9,0.78-5.27,1.6-7.39c0.56-1.45,2.01-2.56,3.06-3.82L243.95,91.74z M295.91,184.86
		c3.05-7.45-0.74-30.37-5.37-32.46c2.8,5.92,2.8,5.92-4.11,11.62c0.35,6.19,5.4,13.4-4.25,18.06c-0.44-7.8-1.25-15.34-9.34-20.83
		c-5.92,2.92-12.97,6.39-20.03,9.88c-4.56-12.75-4.34-13.72,5.04-21.96c1-0.88,2.27-1.49,3.09-2.5c0.78-0.96,1.12-2.28,1.65-3.44
		c-0.27-0.17-0.55-0.35-0.82-0.52c-4.44,3.04-8.89,6.08-13.14,8.99c-0.67-0.52-0.84-0.6-0.91-0.73c-0.23-0.44-0.41-0.9-0.64-1.34
		c-3.52-6.63-8.5-13.25,0.44-19.71c0.49-0.35,0.06-2.72-0.59-3.72c-0.75-1.16-2.23-1.85-3.88-3.11c1.83-2.72,3.54-5.26,5.77-8.57
		c-2.03-1.57-3.91-3.8-6.28-4.68c-3.65-1.34-8.05-0.99-11.42-2.72c-7.6-3.92-16.61-5.2-22.71-12.04c-3.62-4.06-3.6-9.29,1.02-13.15
		c-1.95-0.31-3.41-0.53-4.76-0.74c-1.65,8.27-1.93,15.65,8.68,19.95c-3.83,0.82-5.51,1.18-7.44,1.59c0,2.78,0.14,5.27-0.03,7.74
		c-0.37,5.36,1.51,8.19,7.15,9.89c22.28,6.71,34.08,31.29,34.79,50.59c0.22,6.08-3.2,12.32-2.82,18.35
		c0.85,13.21,2.47,26.44,4.93,39.45c1.6,8.48,1.33,15.56-5.15,21.87c-3.11,3.03-5.56,6.75-8.77,10.74c3.9,0,6.82,0,9.78,0
		c-1.3-8.12,5.1-11.97,8.46-17.59c2.86,1.72,5.19,3.13,7.52,4.53c0.33-0.25,0.66-0.5,0.99-0.74c-3.38-4.44-8.53-7.66-8.68-14.17
		c-0.13-5.54-1.75-11.05-2.94-17.92c6.28,4.92,11.13,8.72,16.1,12.62c10.21-21.96,20.06-20.54,26.77-14.6
		c1.5-7.05,2.96-13.95,4.4-20.77c-1.57,0.26-4.09,0.67-6.46,1.05c-2.64-5.28,2.37-6.36,4.13-9.09L295.91,184.86z M173.32,54.33
		c-36.21,2.51-69.76,13-101.7,28.64c3.08,3.07,5.95,5.92,9.11,9.07c-2.82,1.71-4.34,2.63-5.86,3.55c5.5-2.9,8.38,0.92,12.07,3.92
		c8.13,6.6,16.73,12.62,24.88,18.69c1.99-2.51,3.18-4.29,4.65-5.8c4.28-4.38,8.91-8.43,12.95-13.01c4.75-5.4,10.04-9.11,15.92-8.3
		c2.22-1.82,3.23-3.02,4.53-3.64c4.04-1.95,8.24-3.56,12.25-5.57c1.31-0.65,2.75-1.92,3.21-3.23
		C168.11,70.73,170.62,62.69,173.32,54.33z M154.14,268.19c-4.61,14.06-12.57,15.81-22.29,6.21c-1.41-1.39-2.9-2.78-4.57-3.82
		c-0.97-0.6-2.6-1.04-3.54-0.64c-11.03,4.73-21.99,9.62-33.48,14.7c68.6,28.83,136.47,27.4,205.02-1.51
		c-9.06-3.99-17.46-7.51-25.67-11.41c-3-1.42-5.03-1.47-7.33,1.16c-3.9,4.48-8.4,8.04-14.94,7.53c-0.72-0.06-1.54,0.84-2.28,1.34
		c-7.77,5.3-16.2,9.03-25.72,11.44c0.73-2.19,1.22-3.69,1.72-5.18c-3.42,5.84-8.25,9.05-14.75,9.3c-6.82,0.27-13.66,0.28-20.48,0.03
		c-7.57-0.27-12.43-5.31-13.77-13.01c-0.43-2.45-1.38-5.5-3.17-6.89C164.51,274.06,159.51,271.47,154.14,268.19z M155.18,181.71
		c0,2.98,0.21,4.66-0.04,6.27c-0.64,4.09,0.9,5.9,5.07,6.63c5.38,0.94,10.72,2.41,15.86,4.28c1.71,0.62,3.73,3.08,3.87,4.84
		c0.82,9.75,1.2,19.55,1.54,29.33c0.37,10.46,0.4,20.94,0.9,31.39c0.08,1.69,1.78,4.65,2.89,4.72c6.73,0.44,13.5,0.22,20.04,0.22
		c1.27-21.25,2.59-41.75,3.66-62.25c0.35-6.8,0.94-8.01,7.52-9.63c4.52-1.11,9.15-1.82,13.57-3.22c1.7-0.54,3.76-2.26,4.23-3.86
		c0.72-2.41,0.19-5.19,0.19-7.61c-0.87-0.3-1.24-0.58-1.48-0.5c-10.35,3.46-20.73,6.86-30.99,10.59c-1.2,0.44-2.47,2.76-2.43,4.18
		c0.17,5.46,0.46,10.98,1.44,16.35c1.15,6.29-1.66,10.25-7.14,14.47c-2.34-3.79-6.06-7.18-6.28-10.79
		c-0.37-5.98,1.75-12.08,2.3-18.18c0.17-1.84-0.93-5.05-2.26-5.57C177.22,189.31,166.6,185.74,155.18,181.71z M218.01,313.72
		c-19.43,0-38.79,0-57.1,0c0.52,3,1.11,6.43,1.81,10.51c-4.86-0.69-8.55-1.22-12.13-1.73c-0.57-7.4-0.33-7.84,6.27-10.13
		c-6.18-0.88-11-1.56-15.81-2.24c3.51,3.89,2.42,7.51,1.07,11.2c-0.43,1.19-1.16,2.64-0.82,3.67c1.57,4.76,1.67,8.71-4.22,10.97
		c4.89,0.56,9.79,1.12,15.73,1.81c-3.83-3.05-5.36-9.25-2.83-10.29c3.26-1.35,7.51-0.33,12.98-0.33c-2.25,4.89-3.78,8.2-5.5,11.95
		c3.63,0.29,8.25,0.67,12.73,1.03c-0.97-2.31-2.76-4.46-2.29-5.83c1.67-4.89,2.39-9.73,2.4-14.88c0-1.17,3.38-2.82,5.42-3.27
		c0.84-0.18,3.07,2.12,3.23,3.47c0.35,2.94-0.67,6.06-0.29,9c0.56,4.37,2.02,8.68-3.11,11.76c4.62,0,9.24,0,14.51,0
		c-4.98-3.6-5.01-7.42-2.18-11.69c0.38-0.57,0.5-1.48,0.4-2.18c-0.43-3.16-0.98-6.3-1.77-11.17c4.27,1.1,8.63,1.03,9.47,2.71
		c1.35,2.7,0.36,6.56,0.36,10.9c3.1,3.13,2.95,7.63-0.91,10.99c8.27,0,16.94,0,25.35,0c0-3.5,0-6.16,0-9.28
		c-4.76,4.95-11.65,7.93-13.74,5.55c-1.7-1.94-1.67-5.4-2.41-8.19c0.57-0.4,1.14-0.8,1.72-1.2c2.57,1.27,5.14,2.53,7.5,3.7
		c0-2.94,0-5.98,0-8.95c-2.71,1.77-5.18,3.39-7.66,5.01c-0.46-0.27-0.92-0.55-1.37-0.82c0.18-2.73-0.67-6.94,0.73-7.9
		c4.07-2.8,8.48-1.11,12.44,2.54C218.01,317.81,218.01,315.89,218.01,313.72z M151.75,29.37c1.77-1.64,3.26-2.75,4.4-4.14
		c3-3.67,1.53-9.79-2.82-10.49c-9.19-1.49-17.91,1.27-27.9,3.4c6.56,2.65,7.59,6.13,5.19,13.59c4.79,5.79,5,9.85,0.07,14.96
		c6.04-0.83,11.34-1.57,16.64-2.3c0.19-0.43,0.38-0.85,0.56-1.28c-7.58-0.82-5.51-5.95-5.76-11.34c9.79,6.74,16.49,17.52,29.71,15.9
		C165.33,41.74,158.67,35.67,151.75,29.37z M278.51,36.11c-0.26,1.51-0.37,3.18-0.84,4.73c-3.07,10.16,2.72,20.67,13.08,23.59
		c5.55,1.57,16.39-1.03,18.32-4.38c3.83-6.63,2.87-14.8-2.44-20.87c-6.07-6.93-13.43-9.15-20.83-6.21
		C283.37,33.94,280.99,35.04,278.51,36.11z M273.84,315.25c0.92-1.19,1.6-1.76,1.88-2.49c0.81-2.15,2.41-4.59,1.94-6.5
		c-0.68-2.83-3.45-4.42-6.64-3.67c-6.83,1.61-13.62,3.38-20.43,5.09c-0.08,0.47-0.16,0.94-0.24,1.4c7.4,1.24,4.41,6.92,5.85,10.88
		c1.53,4.21,6.3,7.28,1.23,13.29c5.43-1.67,9.86-3.04,13.1-4.04c-1.9-3.26-3.61-6.21-5.33-9.17c0.5-0.38,1-0.75,1.5-1.13
		c4.02,2.54,7.8,5.67,12.14,7.47c4.23,1.75,9.02,2.13,13.56,3.11c0.12-0.48,0.23-0.97,0.35-1.45
		C286.61,323.89,280.46,319.73,273.84,315.25z M260.81,338.92c-6.24-5.4-12.17-10.52-17.97-15.53c1.73-1.86,3.36-3.13,4.35-4.79
		c2.2-3.67,0.17-8.09-4.02-7.95c-7.5,0.26-14.97,1.33-22.07,2.03c1.74,3.03,4.09,5.23,3.87,7.12c-0.5,4.24,1.44,7.76,1.9,11.64
		c0.26,2.21-0.44,4.53-0.78,7.34c3.7-0.71,8.06-1.54,11.3-2.16c-1.28-3.49-2.42-6.63-3.57-9.76c0.45-0.27,0.9-0.53,1.35-0.8
		C242.83,331.57,249.03,339.88,260.81,338.92z M227.83,13.29c1.11,3.16,2.58,5.7,2.78,8.33c0.29,3.77-0.15,7.64-0.63,11.43
		c-0.57,4.49-4,7.09-8.36,6.75c-5.36-0.42-8.25-3.02-8.07-7.93c0.21-5.72,0.89-11.43,1.35-16.84c2.35-0.55,3.76-0.88,5.18-1.21
		c-0.05-0.38-0.1-0.77-0.15-1.15c-5.09-0.52-10.18-1.04-16.45-1.69c4.89,5.03,4.82,8.95,1.47,14.37c0.69,4.24,0.84,7.66,1.86,10.79
		c1.58,4.84,10.39,8.21,17.37,7.08c7.09-1.15,9.39-4.46,10.57-11.52c0.97-5.78-1.84-13.47,6.53-17.29
		C236.63,14.03,231.99,13.64,227.83,13.29z M62.19,309.17c4.1,2.08,8.05,4.61,12.36,6.11c3.83,1.34,8.1,2.27,12.11,2.08
		c8.77-0.41,13.59-10.5,8.67-17.77c-5.3-7.83-14.26-9.77-22.52-13.54c3.36,4.12,1.36,7.37-1.1,10.17c-1.42,1.61-1.99,2.91-2.43,5.11
		C68.65,304.49,68.05,309.39,62.19,309.17z M119.31,312.83c-3.26,0.7-5.94,1.27-10.19,2.17c1.33-4.01,1.48-7.23,3.14-8.51
		c1.12-0.87,4.55,0.63,6.59,1.73c1.91,1.03,3.34,2.94,5.2,4.66c0.73-2,1.44-3.93,2.3-6.28c-8.51-2.53-16.55-4.92-24.58-7.31
		c2.84,3.74,2.98,7,0.36,10.7c-0.85,1.2-1.72,2.72-1.72,4.1c-0.02,4.17-0.86,7.72-6.2,9.95c9.22,2.91,17.35,5.47,25.77,8.12
		c0.84-2.69,1.55-4.95,1.96-6.28c-4.38-0.35-8.52-0.44-12.53-1.19c-0.99-0.19-2.2-2.57-2.17-3.93c0.03-1.58,1.29-3.14,2.02-4.71
		c1.66,0.89,3.5,1.55,4.91,2.74c0.93,0.78,1.22,2.3,2.36,4.65C117.71,318.9,118.54,315.76,119.31,312.83z M296.44,317.99
		c0.13,0.52,0.26,1.03,0.39,1.55c3.96-1.73,8.28-2.92,11.8-5.3c7.4-5,6.87-15.86,0.06-21.16c-7.84-6.09-21.2-1.38-24.77,8.2
		c-1.27,3.42-1.86,9.01,0.03,11.23C286.68,315.71,290.44,320.23,296.44,317.99z M197,12.02c-2.85-0.26-5.17-0.3-7.42-0.72
		c-11.19-2.11-18.13,1.54-22.56,12.05c-0.61,1.44-1.73,3.31-1.28,4.44c2.98,7.39,7.55,13.15,16.14,14.54
		c6.57,1.06,15.2-3.8,16.8-10.41c-1.9,1.32-3.44,2.22-4.78,3.36c-3.6,3.06-7.7,4.59-11.82,1.84c-3.3-2.2-6.91-5.07-3.71-10.08
		c0.27-0.43,0.01-1.29-0.18-1.9c-1.77-5.78-0.37-10.03,4-11.97c3.96-1.76,8.29,0.38,11.31,5.47c0.73,1.23,1.74,2.29,3.5,4.56
		C197,18.45,197,15.35,197,12.02z M103.25,44.94c-1.25,3.44-1.93,6.36-3.3,8.91c-3.92,7.35-11.21,7.55-15.78,0.64
		c-0.39-0.59-1.19-0.95-1.85-1.3c-4.33-2.31-6.34-6.96-4.74-11.07c1.63-4.18,5.69-6.03,10.6-4.86c1.93,0.46,3.89,0.84,5.83,1.25
		c0.49-0.69,0.98-1.39,1.47-2.08c-2.53-2.42-5.06-4.84-6.45-6.18c-15.77,7.73-21.16,18.3-14.36,32.79
		c6.94,2.39,13.43,5.43,20.59,0.78C102.18,59.34,105.68,52.78,103.25,44.94z M253.68,41.89c1.18-2.5,2.44-5.06,3.57-7.67
		c0.33-0.77,0.6-1.74,0.43-2.53c-1.11-5.2-0.39-9.52,6.78-11.94c-6.89-1.65-12.32-2.94-18.51-4.42c5.36,6.25,5.14,9.57-0.33,15.33
		c2.51,4.67,0.49,10.84-5,13.9c7.29,1.84,14.15,3.58,21.01,5.31c8,2.01,8.36,1.76,9.96-8.1C265.62,46.38,259.96,46.01,253.68,41.89z
		 M152.95,156.28c0.58-0.15,1.2-0.22,1.74-0.46c13.55-6.11,26.68-12.9,36.77-24.24c1.87-2.1,3.44-2.92,5.64-0.36
		c8.77,10.19,20.2,16.59,32.14,22.2c2.55,1.2,5.16,2.28,7.74,3.41c-15.39-9.8-30.51-19.6-42.39-34.29
		C182.75,136.67,168.23,146.86,152.95,156.28z M128.73,47.87c-7.69-3.96-9.33-7.21-7.72-12.64c-1.6-3.01-3.44-5.29-3.97-7.84
		c-0.49-2.36,0.42-5.02,0.73-7.68c-4.77,1.55-10.17,3.31-16.24,5.29c7.46,2.54,9.29,6.19,7.66,11.86c1.64,3.31,3.33,5.58,3.84,8.09
		c0.48,2.35-0.3,4.96-0.54,7.66C117.23,51.22,122.58,49.66,128.73,47.87z M205.43,276c-7.29-0.42-14.58-0.83-21.62-1.23
		c1.36,4.2,7.09,9.54-0.74,15.13c8.6,0.49,16.85,0.74,25.07,0.29c1.81-0.1,3.48-2.68,5.22-4.12c-0.15-0.13-0.3-0.27-0.45-0.4
		c-2.34,1.1-4.68,2.21-7.48,3.53C205.43,284.03,205.43,280.12,205.43,276z M240.9,277.01c-0.61-1.88-1.3-4-2.32-7.15
		c3.04,0.53,4.91,0.5,6.45,1.2c6.66,3,9.94,1.64,12.89-6.39c-2.98-0.77-5.86-1.51-9.48-2.44c1.65,3.49,2.78,5.88,4.5,9.53
		c-3.12-0.53-5.11-0.33-6.42-1.19c-3.61-2.34-7.03-2.06-10.71-0.42c-2.72,1.21-5.59,2.1-8.3,3.32c-7.56,3.4-7.54,3.44-5.58,12.03
		C228.41,282.59,234.86,279.71,240.9,277.01z M269.29,116.47c-6.33-6.39-11.1-14.35-18.74-17.84c0.29,0.63,1.52,2.02,1.26,3.03
		c-0.62,2.41-1.93,4.65-2.69,6.33C256.51,108.64,260.44,118.54,269.29,116.47z M176.6,119.48c7.9-0.86,15.9-1.72,25.3-2.75
		c-6.33-0.31-11.25-0.55-16.46-0.8c1.13-15.45,2.03-30.58-4.06-45.07c2.98,15.51,5.25,31.01,0.08,46.49
		C179.73,118.11,177.92,118.9,176.6,119.48z M278.17,161.81c-5.59-15.21-15.17-28.33-28.6-37.72
		C258.98,136.51,268.8,149.45,278.17,161.81z M150.74,93.32c0.91,2.7,1.95,5.81,2.99,8.91c9.68-2.75,11.14-4.7,9.25-12.17
		C158.8,91.17,154.62,92.28,150.74,93.32z M137.53,125.96c-11.54,9.76-21.58,20.73-26.71,35.93
		C119.97,149.59,128.75,137.77,137.53,125.96z M171.29,96.09c0.86-1.09,1.08-1.26,1.05-1.34c-0.95-2.55-1.93-5.09-3.24-8.49
		c-1.2,1.36-2.87,2.8-2.68,3.12C167.77,91.68,169.51,93.74,171.29,96.09z"/>
	<path class="st0" d="M98.33,226.57c-4.71-2.74-6.77-7.25-7.67-12.28c-1.28-7.17-2.25-14.4-3.29-21.61
		c-0.13-0.89,0.11-1.83,0.18-2.87c7.19,3.25,8.92,9.14,9.34,15.9c0.21,3.3,0.73,6.59,1.38,9.84c0.72,3.61,3,4.71,6.56,3.71
		c1.73-0.49,3.6-0.48,5.4-0.69c0,0-0.15-0.13-0.15-0.13c1.34,5.17-0.53,7.91-5.6,8.08c-2.12,0.07-4.24-0.02-6.35-0.03L98.33,226.57z
		"/>
	<path class="st0" d="M112.42,208.37c-5.3-0.05-8.6-1-8.11-6.98c0.29-3.57-0.38-7.36-1.35-10.85c-0.55-1.98-2.85-3.42-3.84-5.37
		c-1.06-2.09-1.5-4.49-2.2-6.75c2.22,0.33,4.86,0,6.56,1.12c3.99,2.62,6.5,6.53,7.02,11.49
		C111.11,196.75,111.76,202.47,112.42,208.37z"/>
	<path class="st0" d="M328.6,34.17c-9.74-4.98-19.48-9.95-29.64-15.14c1.44-3.15,2.63-5.78,4.12-9.03
		c9.07,7.83,17.71,15.29,26.34,22.75C329.15,33.22,328.88,33.69,328.6,34.17z"/>
	<path class="st0" d="M330.28,325.78c-8.96,7.7-17.91,15.41-27.42,23.58c-1.26-3.13-2.34-5.79-3.75-9.3
		c10.32-5.27,20.36-10.39,30.4-15.51C329.76,324.97,330.02,325.37,330.28,325.78z"/>
	<path class="st0" d="M52.21,32.77c8.71-7.34,17.42-14.68,26.56-22.38c1.42,2.91,2.61,5.36,4.19,8.59
		c-10.11,5.23-20,10.35-29.9,15.47C52.78,33.9,52.5,33.33,52.21,32.77z"/>
	<path class="st0" d="M53.18,325.04c9.78,4.91,19.57,9.82,29.74,14.93c-1.51,3.36-2.69,5.98-4.14,9.2
		c-9.08-7.85-17.74-15.32-26.39-22.8C52.65,325.93,52.91,325.48,53.18,325.04z"/>
	<path class="st0" d="M296.07,184.69c-4.76,0.32-6.72,2.83-7.06,7.63c-0.35,5.04-1.64,10.01-2.55,15.18
		c-2.08,0.19-3.81,0.35-6.89,0.63c1.38-8.03,2.11-15.56,4.09-22.75c1.45-5.28,6.78-7.82,12.59-7.25c-0.11,2.22-0.22,4.47-0.33,6.73
		C295.91,184.86,296.07,184.69,296.07,184.69z"/>
	<path class="st0" d="M244.12,91.57c-3.34,2.25-6.52,2.13-9.98-0.04c-2.5-1.56-5.34-2.67-8.15-3.63c-4.44-1.52-5.86-4.76-6.08-10.23
		c9.05,3.86,17.46,7.44,26.14,11.14c-0.8,1.11-1.44,2.02-2.09,2.92C243.95,91.74,244.12,91.57,244.12,91.57z"/>
	<path class="st0" d="M146.92,280.87c2.44-0.89,5.56-3.21,7.2-2.43c7.21,3.43,17.08,3.78,19.25,15.52
		c-9.21-3.87-17.75-7.46-26.28-11.05C147.03,282.23,146.97,281.55,146.92,280.87z"/>
	<path class="st0" d="M140.86,29.21c-0.58-3.85-1.11-7.36-1.64-10.86c6.44-1.73,8.85-0.78,9.74,3.7
		C149.76,26.05,147.88,27.85,140.86,29.21z"/>
	<path class="st0" d="M282.24,54.64c0.18-6.73,7.13-16.59,12.22-17.42c2.9-0.47,7.12,0.22,8.94,2.11c1.59,1.65,1.85,6.47,0.56,8.59
		c-2.69,4.42-6.5,8.31-10.47,11.71c-1.37,1.18-4.99,1.07-6.78,0.09C284.53,58.54,283.19,55.8,282.24,54.64z M289.36,45.98
		c0.84,2.46,1.07,4.93,2.41,6.36c0.76,0.81,4.53,0.45,4.87-0.31c0.94-2.11,0.8-4.71,1.18-7.87
		C294.53,44.87,292.38,45.33,289.36,45.98z"/>
	<path class="st0" d="M263.54,316.4c1.25-3.83-4.94-7.57,1.01-10.44c2.57-1.24,4.79,0.15,5.59,3.08
		C271.28,313.19,269.9,314.94,263.54,316.4z"/>
	<path class="st0" d="M233.18,323.68c-0.54-3.45-1.01-6.47-1.55-9.95c3.49,0.22,7.29-1.92,8.38,3.19
		C241.11,322.08,237.19,322.4,233.18,323.68z"/>
	<path class="st0" d="M82.62,290.89c2.9,3.03,6.38,5.03,7.06,7.74c1.53,6.07-1.18,11.39-6.16,15.17c-3.56,2.7-6.8,0.49-10.59-1.51
		C75.96,305.61,78.91,299.09,82.62,290.89z"/>
	<path class="st0" d="M307.18,311.05c-0.95,0.99-2.42,3.61-4.57,4.43c-1.74,0.67-4.87-0.18-6.4-1.5c-4.43-3.83-7.13-8.9-6.2-14.93
		c0.29-1.89,2.13-4.31,3.85-5c1.72-0.69,4.73-0.2,6.22,0.98C304.54,298.56,306.91,303.44,307.18,311.05z M301.04,309.08
		c0.25-2.69,0.84-4.7,0.42-6.47c-0.17-0.72-3.09-1.69-3.77-1.19c-1.48,1.08-2.33,3.04-3.73,5.04
		C296.43,307.38,298.07,307.98,301.04,309.08z"/>
</g>
</svg>
