<?xml version="1.0"?>
<svg xmlns="http://www.w3.org/2000/svg" id="Layer_1" data-name="Layer 1" viewBox="0 0 128 128" width="512" height="512"><path d="M121.5,48.25h-2.75V28.008a5.78,5.78,0,1,0-3.5,0V48.25h-1.326A50.4,50.4,0,0,0,73.3,5.615a1.724,1.724,0,0,0-.26-.046,50.909,50.909,0,0,0-8.653-.818,49.655,49.655,0,0,0-9.459.871,1.556,1.556,0,0,0-.2.033A50.047,50.047,0,0,0,28.938,19.4,52.183,52.183,0,0,0,14.209,48.25H6.5A1.749,1.749,0,0,0,4.75,50V78A1.749,1.749,0,0,0,6.5,79.75h7.1v6.319a13.79,13.79,0,0,0,8.046,12.517c.6.272,1.2.515,1.8.778a1.772,1.772,0,0,0,.421.181q2.617,1.132,5.27,2.138L24.133,113.3a1.752,1.752,0,0,0,1,2.332c4.09,1.525,8.243,2.848,12.347,3.932A104.678,104.678,0,0,0,64,123.25a104.442,104.442,0,0,0,26.538-3.7c4.163-1.1,8.313-2.42,12.334-3.921a1.751,1.751,0,0,0,1-2.331l-5-11.618q2.649-1.005,5.263-2.136a1.772,1.772,0,0,0,.421-.181c.6-.263,1.207-.506,1.8-.778A13.79,13.79,0,0,0,114.4,86.069V79.75h7.1A1.749,1.749,0,0,0,123.25,78V50A1.749,1.749,0,0,0,121.5,48.25ZM117,20.219a2.281,2.281,0,1,1-2.28,2.281A2.282,2.282,0,0,1,117,20.219ZM64.36,8.251a47.519,47.519,0,0,1,6.74.533V27.77a49.471,49.471,0,0,0-6.79-.52h-.29a46.044,46.044,0,0,0-7.12.563v-19a45.618,45.618,0,0,1,7.116-.564ZM101.9,83.275c-6.5,4.317-16.479,6.4-21.738,7.245a5.782,5.782,0,0,0-5.132-3.134H67.3a5.78,5.78,0,1,0,0,11.56H75.03a5.785,5.785,0,0,0,5.717-4.975c5.044-.812,14.225-2.723,21.153-6.6V96.7a117,117,0,0,1-15.736,5.422A87.7,87.7,0,0,1,64,105.25a87.691,87.691,0,0,1-22.163-3.132q-4.857-1.282-9.673-3.024h0l-.006,0c-2.034-.734-4.051-1.545-6.056-2.395V62.88c0-14.943,12.787-27.888,29.4-31.265h0a42.775,42.775,0,0,1,8.515-.864H64.3a45.659,45.659,0,0,1,8.158.791c.031.008.062.013.093.018a40.3,40.3,0,0,1,18.359,8.493C98,45.979,101.9,53.83,101.9,62.16ZM77.31,93.167a2.282,2.282,0,0,1-2.28,2.279H67.3a2.28,2.28,0,1,1,0-4.56H75.03A2.283,2.283,0,0,1,77.31,93.167ZM8.25,76.25V51.75H13.8c-.121,1.414-.2,2.833-.2,4.257V76.25Zm8.85,9.819V56.007A48.438,48.438,0,0,1,31.4,21.885a46.641,46.641,0,0,1,22-12.372V28.5C35.9,32.649,22.6,46.71,22.6,62.88V95.129A10.265,10.265,0,0,1,17.1,86.069Zm82.82,26.912c-3.369,1.2-6.819,2.272-10.277,3.187A100.981,100.981,0,0,1,64,119.75a101.207,101.207,0,0,1-25.633-3.573c-3.415-.9-6.867-1.974-10.286-3.2l4.353-10.1c2.823.977,5.662,1.865,8.509,2.618A91.227,91.227,0,0,0,64,108.75,91.241,91.241,0,0,0,87.058,105.5c2.849-.753,5.691-1.642,8.516-2.621ZM110.9,86.069a10.265,10.265,0,0,1-5.5,9.06V62.16c0-9.385-4.349-18.19-12.247-24.793A43.534,43.534,0,0,0,74.6,28.407V9.46a46.911,46.911,0,0,1,36.3,45.69Zm8.85-9.819H114.4V55.15c0-1.14-.051-2.273-.126-3.4h5.476Z"/><path d="M42.8,39.322A30.993,30.993,0,0,0,30.036,54.669a1.75,1.75,0,1,0,3.3,1.175A27.492,27.492,0,0,1,44.685,42.273,1.75,1.75,0,0,0,42.8,39.322Z"/><path d="M54.9,34.286a40.186,40.186,0,0,0-4.854,1.451A1.75,1.75,0,1,0,51.26,39.02,36.587,36.587,0,0,1,55.687,37.7a1.75,1.75,0,1,0-.788-3.41Z"/></svg>
